<?xml version="1.0" encoding="UTF-8"?>
<svg classes="gsndiagram" viewBox="0 0 320 94" xmlns="http://www.w3.org/2000/svg">
<symbol id="module_icon">
<rect fill="lightgrey" height="5" stroke="black" stroke-width="1" width="10" x="0" y="0"/>
<rect fill="lightgrey" height="10" stroke="black" stroke-width="1" width="20" x="0" y="5"/>
</symbol>
<marker id="composite_arrow" markerHeight="9" markerUnits="userSpaceOnUse" markerWidth="10" orient="auto-start-reverse" refX="0" refY="4.5">
<polyline fill="none" points="0 0, 6 4.5, 0 9" stroke="black" stroke-width="1"/>
<polyline fill="none" points="4 0, 10 4.5, 4 9" stroke="black" stroke-width="1"/>
<polyline fill="none" points="0 4.5, 10 4.5" stroke="black" stroke-width="1"/>
</marker>
<marker id="supportedby_arrow" markerHeight="9" markerUnits="userSpaceOnUse" markerWidth="10" orient="auto-start-reverse" refX="0" refY="4.5">
<polyline fill="black" points="0 0, 10 4.5, 0 9"/>
</marker>
<marker id="incontextof_arrow" markerHeight="9" markerUnits="userSpaceOnUse" markerWidth="10" orient="auto-start-reverse" refX="0" refY="4.5">
<polyline fill="none" points="0 0, 10 4.5, 0 9, 0 0" stroke="black" stroke-width="1"/>
</marker>
<a href="./main.gsn.svg">
<g class="gsn_module_ gsnelem gsnmodule" id="node_Main"/>
<title>
Main
</title>
<path class="border" d="M20,20 h30 v10 L124,30 L124,74 L20,74 z" fill="none" stroke="black" stroke-width="1"/>
<text font-family="Arial" font-size="12" font-weight="bold" x="27" y="49">
Main
</text>
</a>
<a href="./sub1.gsn.svg">
<g class="gsn_module_ gsnelem gsnmodule" id="node_Sub1"/>
<title>
Sub1
</title>
<path class="border" d="M164,20 h30 v10 L268,30 L268,74 L164,74 z" fill="none" stroke="black" stroke-width="1"/>
<text font-family="Arial" font-size="12" font-weight="bold" x="171" y="49">
Sub1
</text>
</a>
<path class="gsnedge gsninctxt" d="M134,47 C124,47,134,47,154,47" fill="none" marker-end="url(#composite_arrow)" marker-start="url(#incontextof_arrow)" stroke="black" stroke-width="1"/>
<path class="gsnedge gsncomposite" d="M164,47 C164,47,82,0,62,0" fill="none" marker-end="url(#composite_arrow)" stroke="black" stroke-width="1"/>
</svg>