<svg viewBox="0 0 268 322" xmlns="http://www.w3.org/2000/svg" xmlns:xlink="http://www.w3.org/1999/xlink">
<symbol id="module_icon" viewbox="0 0 20 20">
<rect fill="lightgrey" height="5" stroke="black" stroke-width="1" width="10" x="0" y="0"/>
<rect fill="lightgrey" height="10" stroke="black" stroke-width="1" width="20" x="0" y="5"/>
</symbol>
<marker id="composite_arrow" markerHeight="9" markerUnits="users_posaceOnUse" markerWidth="10" orient="auto" refX="0" refY="4.5">
<polyline fill="none" points="0 0, 6 4.5, 0 9" stroke="black" stroke-width="1"/>
<polyline fill="none" points="4 0, 10 4.5, 4 9" stroke="black" stroke-width="1"/>
<polyline fill="none" points="0 4.5, 10 4.5" stroke="black" stroke-width="1"/>
</marker>
<marker id="supportedby_arrow" markerHeight="9" markerUnits="users_posaceOnUse" markerWidth="10" orient="auto" refX="0" refY="4.5">
<polyline fill="black" points="0 0, 10 4.5, 0 9"/>
</marker>
<marker id="incontextof_arrow" markerHeight="9" markerUnits="users_posaceOnUse" markerWidth="10" orient="auto" refX="0" refY="4.5">
<polyline fill="none" points="0 0, 10 4.5, 0 9, 0 0" stroke="black" stroke-width="1"/>
</marker>
<g class="gsnelem gsnmodule" id="node_Main">
<title>
Main
</title>
<path class="border" d="M144,114 h30 v10 L228,124 L228,168 L144,168 z" fill="none" stroke="black" stroke-width="1"/>
<text font-family="AppleSystemUIFont" font-size="12" font-weight="bold" textLength="24" x="151" y="135">
Main
</text>
</g>
<g class="gsnelem gsnmodule" id="node_Sub1">
<title>
Sub1
</title>
<path class="border" d="M20,114 h30 v10 L104,124 L104,168 L20,168 z" fill="none" stroke="black" stroke-width="1"/>
<text font-family="AppleSystemUIFont" font-size="12" font-weight="bold" textLength="25" x="27" y="135">
Sub1
</text>
</g>
<g class="gsnelem gsnmodule" id="node_Main">
<title>
Main
</title>
<path class="border" d="M144,114 h30 v10 L228,124 L228,168 L144,168 z" fill="none" stroke="black" stroke-width="1"/>
<text font-family="AppleSystemUIFont" font-size="12" font-weight="bold" textLength="24" x="151" y="135">
Main
</text>
</g>
<g class="gsnelem gsnmodule" id="node_Sub3">
<title>
Sub3
</title>
<path class="border" d="M82,208 h30 v10 L166,218 L166,262 L82,262 z" fill="none" stroke="black" stroke-width="1"/>
<text font-family="AppleSystemUIFont" font-size="12" font-weight="bold" textLength="26" x="89" y="229">
Sub3
</text>
</g>
<path class="gsnedge gsninctxt" d="M144,141 C144,141,134,141,114,141" fill="none" marker-end="url(#supportedby_arrow)" stroke="black" stroke-width="1"/>
<path class="gsnedge gsnspby" d="M104,141 C104,141,114,141,134,141" fill="none" marker-end="url(#incontextof_arrow)" stroke="black" stroke-width="1"/>
<path class="gsnedge gsncomposite" d="M62,168 C62,198,124,188,124,208" fill="none" marker-end="url(#composite_arrow)" stroke="black" stroke-width="1"/>
</svg>