<svg viewBox="0 0 730 428" xmlns="http://www.w3.org/2000/svg" xmlns:xlink="http://www.w3.org/1999/xlink">
<symbol id="module_icon" viewbox="0 0 20 20">
<rect fill="lightgrey" height="5" stroke="black" stroke-width="1" width="10" x="0" y="0"/>
<rect fill="lightgrey" height="10" stroke="black" stroke-width="1" width="20" x="0" y="5"/>
</symbol>
<marker id="composite_arrow" markerHeight="20" markerUnits="users_posaceOnUse" markerWidth="20" orient="auto" refX="20" refY="10">
<polyline fill="none" points="0 0, 10 10, 0 20" stroke="black" stroke-width="1"/>
<polyline fill="none" points="10 0, 20 10, 10 20" stroke="black" stroke-width="1"/>
</marker>
<marker id="supportedby_arrow" markerHeight="9" markerUnits="users_posaceOnUse" markerWidth="10" orient="auto" refX="0" refY="4.5">
<polyline fill="black" points="0 0, 10 4.5, 0 9"/>
</marker>
<marker id="incontextof_arrow" markerHeight="9" markerUnits="users_posaceOnUse" markerWidth="10" orient="auto" refX="0" refY="4.5">
<polyline fill="none" points="0 0, 10 4.5, 0 9, 0 0" stroke="black" stroke-width="1"/>
</marker>
<g class="gsnelem gsngoal" id="node_G1">
<title>
G1
</title>
<path class="border" d="M313,20 L397,20 L397,70 L313,70 z" fill="none" stroke="black" stroke-width="1"/>
<text font-family="AppleSystemUIFont" font-size="12" font-weight="bold" x="320" y="41">
G1
</text>
<text font-family="AppleSystemUIFont" font-size="12" textLength="51" x="320" y="61">
Main Goal
</text>
</g>
<g class="gsnelem gsnstgy" id="node_S1">
<title>
S1
</title>
<path class="border" d="M298,111 L427,111 L412,161 L283,161 z" fill="none" stroke="black" stroke-width="1"/>
<text font-family="AppleSystemUIFont" font-size="12" font-weight="bold" x="305" y="132">
S1
</text>
<text font-family="AppleSystemUIFont" font-size="12" textLength="101" x="290" y="152">
Divide and Conquer
</text>
</g>
<g class="gsnelem gsngoal" id="node_G2">
<title>
G2
</title>
<path class="border" d="M20,202 L104,202 L104,258 L20,258 z" fill="none" stroke="black" stroke-width="1"/>
<text font-family="AppleSystemUIFont" font-size="12" font-weight="bold" x="27" y="223">
G2
</text>
<text font-family="AppleSystemUIFont" font-size="12" textLength="31" x="27" y="243">
Divide
</text>
<path d="M62,258 l5,5 l-5,5 l-5,-5 z" fill="none" stroke="black" stroke-width="1"/>
</g>
<g class="gsnelem gsnctxt" id="node_C1">
<title>
C1
</title>
<path class="border" d="M598,207 L680,207 C690,207,690,253,680,253 L598,253 C588,253,588,207,598,207" fill="none" stroke="black" stroke-width="1"/>
<text font-family="AppleSystemUIFont" font-size="12" font-weight="bold" x="598" y="226">
C1
</text>
<text font-family="AppleSystemUIFont" font-size="12" textLength="72" x="598" y="246">
Some Context
</text>
</g>
<g class="gsnelem gsnctxt" id="node_C2">
<title>
C2
</title>
<path class="border" d="M296,207 L356,207 C366,207,366,253,356,253 L296,253 C286,253,286,207,296,207" fill="none" stroke="black" stroke-width="1"/>
<text font-family="AppleSystemUIFont" font-size="12" font-weight="bold" x="296" y="226">
C2
</text>
<text font-family="AppleSystemUIFont" font-size="12" textLength="49" x="296" y="246">
Context 2
</text>
</g>
<g class="gsnelem gsngoal" id="node_G3">
<title>
G3
</title>
<path class="border" d="M406,205 L548,205 L548,255 L406,255 z" fill="none" stroke="black" stroke-width="1"/>
<text font-family="AppleSystemUIFont" font-size="12" font-weight="bold" x="413" y="226">
G3
</text>
<text font-family="AppleSystemUIFont" font-size="12" textLength="128" x="413" y="246">
Conquer the submodules
</text>
</g>
<g class="gsnelem gsnctxt" id="node_C1">
<title>
C1
</title>
<path class="border" d="M598,207 L680,207 C690,207,690,253,680,253 L598,253 C588,253,588,207,598,207" fill="none" stroke="black" stroke-width="1"/>
<text font-family="AppleSystemUIFont" font-size="12" font-weight="bold" x="598" y="226">
C1
</text>
<text font-family="AppleSystemUIFont" font-size="12" textLength="72" x="598" y="246">
Some Context
</text>
</g>
<g/>
<g class="gsnelem gsnsltn" id="node_Sn1">
<title>
Sn1
</title>
<ellipse class="border" cx="417" cy="333" fill="none" rx="35" ry="35" stroke="black" stroke-width="1"/>
<text font-family="AppleSystemUIFont" font-size="12" font-weight="bold" x="393" y="322">
Sn1
</text>
<text font-family="AppleSystemUIFont" font-size="12" textLength="49" x="393" y="342">
Solution 1
</text>
</g>
<path class="gsnedge gsninctxt" d="M355,70 C355,100,355,81,355,101" fill="none" marker-end="url(#supportedby_arrow)" stroke="black" stroke-width="1"/>
<path class="gsnedge gsnspby" d="M104,230 C104,230,558,230,578,230" fill="none" marker-end="url(#incontextof_arrow)" stroke="black" stroke-width="1"/>
<path class="gsnedge gsnspby" d="M548,230 C548,230,558,230,578,230" fill="none" marker-end="url(#incontextof_arrow)" stroke="black" stroke-width="1"/>
<path class="gsnedge gsnspby" d="M406,230 C406,230,396,230,376,230" fill="none" marker-end="url(#incontextof_arrow)" stroke="black" stroke-width="1"/>
<path class="gsnedge gsninctxt" d="M477,255 C477,285,417,268,417,288" fill="none" marker-end="url(#supportedby_arrow)" stroke="black" stroke-width="1"/>
<path class="gsnedge gsninctxt" d="M355,161 C355,191,62,172,62,192" fill="none" marker-end="url(#supportedby_arrow)" stroke="black" stroke-width="1"/>
<path class="gsnedge gsninctxt" d="M355,161 C355,191,477,175,477,195" fill="none" marker-end="url(#supportedby_arrow)" stroke="black" stroke-width="1"/>
</svg>