<?xml version="1.0" encoding="UTF-8"?>
<svg classes="gsndiagram" viewBox="0 0 734 447" xmlns="http://www.w3.org/2000/svg">
<symbol id="module_icon">
<rect fill="lightgrey" height="5" stroke="black" stroke-width="1" width="10" x="0" y="0"/>
<rect fill="lightgrey" height="10" stroke="black" stroke-width="1" width="20" x="0" y="5"/>
</symbol>
<marker id="composite_arrow" markerHeight="9" markerUnits="userSpaceOnUse" markerWidth="10" orient="auto-start-reverse" refX="0" refY="4.5">
<polyline fill="none" points="0 0, 6 4.5, 0 9" stroke="black" stroke-width="1"/>
<polyline fill="none" points="4 0, 10 4.5, 4 9" stroke="black" stroke-width="1"/>
<polyline fill="none" points="0 4.5, 10 4.5" stroke="black" stroke-width="1"/>
</marker>
<marker id="supportedby_arrow" markerHeight="9" markerUnits="userSpaceOnUse" markerWidth="10" orient="auto-start-reverse" refX="0" refY="4.5">
<polyline fill="black" points="0 0, 10 4.5, 0 9"/>
</marker>
<marker id="incontextof_arrow" markerHeight="9" markerUnits="userSpaceOnUse" markerWidth="10" orient="auto-start-reverse" refX="0" refY="4.5">
<polyline fill="none" points="0 0, 10 4.5, 0 9, 0 0" stroke="black" stroke-width="1"/>
</marker>
<g class="gsn_module_Main gsnelem gsngoal" id="node_G1">
<g class="gsn_module_Main gsnelem gsngoal" id="node_G1">
<title>
G1
</title>
<path class="border" d="M198,34 L302,34 L302,80 L198,80 z" fill="none" stroke="black" stroke-width="1"/>
<text font-family="Arial" font-size="12" font-weight="bold" x="205" y="53">
G1
</text>
<text font-family="Arial" font-size="12" x="205" y="70">
Main Goal
</text>
</g>
</g>
<g class="gsn_module_Sub1 gsnelem gsnasmp" id="node_A1">
<g class="gsn_module_Sub1 gsnelem gsnasmp" id="node_A1">
<title>
A1
</title>
<path class="border" d="M342,57 a45,37,0,1,0,90,0 a45,37,0,1,0,-90,0 z" fill="none" stroke="black" stroke-width="1"/>
<text font-family="Arial" font-size="12" font-weight="bold" x="365" y="48">
A1
</text>
<text font-family="Arial" font-size="12" x="365" y="65">
TestABC
</text>
<text font-family="Arial" font-size="12" font-weight="bold" x="427" y="89">
A
</text>
</g>
</g>
<g class="gsn_module_Main gsnelem gsnstgy" id="node_S1">
<g class="gsn_module_Main gsnelem gsnstgy" id="node_S1">
<title>
S1
</title>
<path class="border" d="M190,134 L324,134 L310,180 L176,180 z" fill="none" stroke="black" stroke-width="1"/>
<text font-family="Arial" font-size="12" font-weight="bold" x="198" y="153">
S1
</text>
<text font-family="Arial" font-size="12" x="198" y="170">
Divide and Conquer
</text>
</g>
</g>
<g class="gsn_module_Main gsnelem gsngoal gsn_undeveloped" id="node_G2">
<g class="gsn_module_Main gsnelem gsngoal gsn_undeveloped" id="node_G2">
<title>
G2
</title>
<path class="border" d="M20,231 L124,231 L124,283 L20,283 z" fill="none" stroke="black" stroke-width="1"/>
<text font-family="Arial" font-size="12" font-weight="bold" x="27" y="250">
G2
</text>
<text font-family="Arial" font-size="12" x="27" y="267">
Divide
</text>
<path d="M72,283 l5,5 l-5,5 l-5,-5 z" fill="none" stroke="black" stroke-width="1"/>
</g>
</g>
<g class="gsn_module_Main gsnelem gsnjust" id="node_J1">
<g class="gsn_module_Main gsnelem gsnjust" id="node_J1">
<title>
J1
</title>
<path class="border" d="M164,257 a72,37,0,1,0,145,0 a72,37,0,1,0,-145,0 z" fill="none" stroke="black" stroke-width="1"/>
<text font-family="Arial" font-size="12" font-weight="bold" x="195" y="248">
J1
</text>
<text font-family="Arial" font-size="12" x="195" y="265">
Some Context
</text>
<text font-family="Arial" font-size="12" font-weight="bold" x="303" y="289">
J
</text>
</g>
</g>
<g class="gsn_module_Sub1 gsnelem gsngoal" id="node_G3">
<g class="gsn_module_Sub1 gsnelem gsngoal" id="node_G3">
<title>
G3
</title>
<path class="border" d="M348,234 L508,234 L508,280 L348,280 z" fill="none" stroke="black" stroke-width="1"/>
<text font-family="Arial" font-size="12" font-weight="bold" x="355" y="253">
G3
</text>
<text font-family="Arial" font-size="12" x="355" y="270">
Conquer the submodules
</text>
</g>
</g>
<g class="gsn_module_Sub3 gsnelem gsnctxt" id="node_C2">
<g class="gsn_module_Sub3 gsnelem gsnctxt" id="node_C2">
<title>
C2
</title>
<path class="border" d="M558,234 L662,234 C672,234,672,280,662,280 L558,280 C548,280,548,234,558,234" fill="none" stroke="black" stroke-width="1"/>
<text font-family="Arial" font-size="12" font-weight="bold" x="565" y="253">
C2
</text>
<text font-family="Arial" font-size="12" x="565" y="270">
Context 2
</text>
</g>
</g>
<g class="gsn_module_Sub3 gsnelem gsnsltn" id="node_Sn1">
<g class="gsn_module_Sub3 gsnelem gsnsltn" id="node_Sn1">
<title>
Sn1
</title>
<path class="border" d="M382,380 a46,46,0,1,0,92,0 a46,46,0,1,0,-92,0 z" fill="none" stroke="black" stroke-width="1"/>
<text font-family="Arial" font-size="12" font-weight="bold" x="400" y="371">
Sn1
</text>
<text font-family="Arial" font-size="12" x="400" y="388">
Solution 1
</text>
</g>
</g>
<path class="gsnedge gsninctxt" d="M302,57 C302,57,312,57,332,57" fill="none" marker-end="url(#incontextof_arrow)" stroke="black" stroke-width="1"/>
<path class="gsnedge gsninspby" d="M250,80 C250,110,250,104,250,124" fill="none" marker-end="url(#supportedby_arrow)" stroke="black" stroke-width="1"/>
<path class="gsnedge gsninctxt" d="M124,257 C124,257,134,257,154,257" fill="none" marker-end="url(#incontextof_arrow)" stroke="black" stroke-width="1"/>
<path class="gsnedge gsninctxt" d="M348,257 C348,257,338,257,318,257" fill="none" marker-end="url(#incontextof_arrow)" stroke="black" stroke-width="1"/>
<path class="gsnedge gsninctxt" d="M508,257 C508,257,518,257,538,257" fill="none" marker-end="url(#incontextof_arrow)" stroke="black" stroke-width="1"/>
<path class="gsnedge gsninspby" d="M428,280 C428,310,428,304,428,324" fill="none" marker-end="url(#supportedby_arrow)" stroke="black" stroke-width="1"/>
<path class="gsnedge gsninspby" d="M250,180 C250,210,72,201,72,221" fill="none" marker-end="url(#supportedby_arrow)" stroke="black" stroke-width="1"/>
<path class="gsnedge gsninspby" d="M250,180 C250,210,428,204,428,224" fill="none" marker-end="url(#supportedby_arrow)" stroke="black" stroke-width="1"/>
</svg>