<?xml version="1.0" encoding="UTF-8"?>
<svg viewBox="0 0 634 453" xmlns="http://www.w3.org/2000/svg">
<symbol id="module_icon">
<rect fill="lightgrey" height="5" stroke="black" stroke-width="1" width="10" x="0" y="0"/>
<rect fill="lightgrey" height="10" stroke="black" stroke-width="1" width="20" x="0" y="5"/>
</symbol>
<marker id="composite_arrow" markerHeight="9" markerUnits="userSpaceOnUse" markerWidth="10" orient="auto-start-reverse" refX="0" refY="4.5">
<polyline fill="none" points="0 0, 6 4.5, 0 9" stroke="black" stroke-width="1"/>
<polyline fill="none" points="4 0, 10 4.5, 4 9" stroke="black" stroke-width="1"/>
<polyline fill="none" points="0 4.5, 10 4.5" stroke="black" stroke-width="1"/>
</marker>
<marker id="supportedby_arrow" markerHeight="9" markerUnits="userSpaceOnUse" markerWidth="10" orient="auto-start-reverse" refX="0" refY="4.5">
<polyline fill="black" points="0 0, 10 4.5, 0 9"/>
</marker>
<marker id="incontextof_arrow" markerHeight="9" markerUnits="userSpaceOnUse" markerWidth="10" orient="auto-start-reverse" refX="0" refY="4.5">
<polyline fill="none" points="0 0, 10 4.5, 0 9, 0 0" stroke="black" stroke-width="1"/>
</marker>
<g class="gsnelem gsngoal gsn_module_Main" id="node_G1">
<title>
G1
</title>
<path class="border" d="M344,36 L428,36 L428,86 L344,86 z" fill="none" stroke="black" stroke-width="1"/>
<text font-family="Arial" font-size="12" font-weight="bold" textLength="16" x="351" y="57">
G1
</text>
<text font-family="Arial" font-size="12" textLength="59" x="351" y="77">
Main Goal
</text>
</g>
<g class="gsnelem gsnasmp gsn_module_Sub1" id="node_A1">
<title>
A1
</title>
<ellipse class="border" cx="504" cy="61" fill="none" rx="36" ry="41" stroke="black" stroke-width="1"/>
<text font-family="Arial" font-size="12" font-weight="bold" textLength="15" x="482" y="50">
A1
</text>
<text font-family="Arial" font-size="12" font-weight="bold" x="535" y="97">
A
</text>
<text font-family="Arial" font-size="12" textLength="44" x="482" y="70">
TestABC
</text>
</g>
<g class="gsnelem gsnstgy gsn_module_Main" id="node_S1">
<title>
S1
</title>
<path class="border" d="M320,142 L467,142 L452,192 L305,192 z" fill="none" stroke="black" stroke-width="1"/>
<text font-family="Arial" font-size="12" font-weight="bold" textLength="15" x="327" y="163">
S1
</text>
<text font-family="Arial" font-size="12" textLength="118" x="312" y="183">
Divide and Conquer
</text>
</g>
<g class="gsnelem gsnctxt gsn_module_Sub3" id="node_C2">
<title>
C2
</title>
<path class="border" d="M30,250 L92,250 C102,250,102,296,92,296 L30,296 C20,296,20,250,30,250" fill="none" stroke="black" stroke-width="1"/>
<text font-family="Arial" font-size="12" font-weight="bold" textLength="15" x="30" y="269">
C2
</text>
<text font-family="Arial" font-size="12" textLength="53" x="30" y="289">
Context 2
</text>
</g>
<g class="gsnelem gsngoal gsn_module_Sub1" id="node_G3">
<title>
G3
</title>
<path class="border" d="M142,248 L302,248 L302,298 L142,298 z" fill="none" stroke="black" stroke-width="1"/>
<text font-family="Arial" font-size="12" font-weight="bold" textLength="16" x="149" y="269">
G3
</text>
<text font-family="Arial" font-size="12" textLength="147" x="149" y="289">
Conquer the submodules
</text>
</g>
<g class="gsnelem gsnjust gsn_module_Main" id="node_J1">
<title>
J1
</title>
<ellipse class="border" cx="405" cy="273" fill="none" rx="63" ry="41" stroke="black" stroke-width="1"/>
<text font-family="Arial" font-size="12" font-weight="bold" textLength="13" x="364" y="262">
J1
</text>
<text font-family="Arial" font-size="12" font-weight="bold" x="463" y="309">
J
</text>
<text font-family="Arial" font-size="12" textLength="83" x="364" y="282">
Some Context
</text>
</g>
<g class="gsnelem gsngoal gsn_module_Main" id="node_G2">
<title>
G2
</title>
<path class="border" d="M508,245 L592,245 L592,301 L508,301 z" fill="none" stroke="black" stroke-width="1"/>
<text font-family="Arial" font-size="12" font-weight="bold" textLength="16" x="515" y="266">
G2
</text>
<text font-family="Arial" font-size="12" textLength="32" x="515" y="286">
Divide
</text>
<path d="M550,301 l5,5 l-5,5 l-5,-5 z" fill="none" stroke="black" stroke-width="1"/>
</g>
<g class="gsnelem gsnsltn gsn_module_Sub3" id="node_Sn1">
<title>
Sn1
</title>
<ellipse class="border" cx="222" cy="393" fill="none" rx="39" ry="39" stroke="black" stroke-width="1"/>
<text font-family="Arial" font-size="12" font-weight="bold" textLength="25" x="194" y="382">
Sn1
</text>
<text font-family="Arial" font-size="12" textLength="56" x="194" y="402">
Solution 1
</text>
</g>
<path class="gsnedge gsninctxt" d="M428,61 C428,61,438,61,458,61" fill="none" marker-end="url(#incontextof_arrow)" stroke="black" stroke-width="1"/>
<path class="gsnedge gsninspby" d="M386,86 C386,116,386,112,386,132" fill="none" marker-end="url(#supportedby_arrow)" stroke="black" stroke-width="1"/>
<path class="gsnedge gsninctxt" d="M508,273 C508,273,498,273,478,273" fill="none" marker-end="url(#incontextof_arrow)" stroke="black" stroke-width="1"/>
<path class="gsnedge gsninctxt" d="M302,273 C302,273,312,273,332,273" fill="none" marker-end="url(#incontextof_arrow)" stroke="black" stroke-width="1"/>
<path class="gsnedge gsninctxt" d="M142,273 C142,273,132,273,112,273" fill="none" marker-end="url(#incontextof_arrow)" stroke="black" stroke-width="1"/>
<path class="gsnedge gsninspby" d="M222,298 C222,328,222,324,222,344" fill="none" marker-end="url(#supportedby_arrow)" stroke="black" stroke-width="1"/>
<path class="gsnedge gsninspby" d="M386,192 C386,222,550,215,550,235" fill="none" marker-end="url(#supportedby_arrow)" stroke="black" stroke-width="1"/>
<path class="gsnedge gsninspby" d="M386,192 C386,222,222,218,222,238" fill="none" marker-end="url(#supportedby_arrow)" stroke="black" stroke-width="1"/>
</svg>