<?xml version="1.0" encoding="UTF-8"?>
<svg viewBox="0 0 688 464" xmlns="http://www.w3.org/2000/svg">
<symbol id="module_icon">
<rect fill="lightgrey" height="5" stroke="black" stroke-width="1" width="10" x="0" y="0"/>
<rect fill="lightgrey" height="10" stroke="black" stroke-width="1" width="20" x="0" y="5"/>
</symbol>
<marker id="composite_arrow" markerHeight="9" markerUnits="userSpaceOnUse" markerWidth="10" orient="auto-start-reverse" refX="0" refY="4.5">
<polyline fill="none" points="0 0, 6 4.5, 0 9" stroke="black" stroke-width="1"/>
<polyline fill="none" points="4 0, 10 4.5, 4 9" stroke="black" stroke-width="1"/>
<polyline fill="none" points="0 4.5, 10 4.5" stroke="black" stroke-width="1"/>
</marker>
<marker id="supportedby_arrow" markerHeight="9" markerUnits="userSpaceOnUse" markerWidth="10" orient="auto-start-reverse" refX="0" refY="4.5">
<polyline fill="black" points="0 0, 10 4.5, 0 9"/>
</marker>
<marker id="incontextof_arrow" markerHeight="9" markerUnits="userSpaceOnUse" markerWidth="10" orient="auto-start-reverse" refX="0" refY="4.5">
<polyline fill="none" points="0 0, 10 4.5, 0 9, 0 0" stroke="black" stroke-width="1"/>
</marker>
<g class="gsnelem gsngoal gsn_module_Main" id="node_G1">
<title>
G1
</title>
<path class="border" d="M381,36 L465,36 L465,88 L381,88 z" fill="none" stroke="black" stroke-width="1"/>
<text font-family="AppleSystemUIFont" font-size="12" font-weight="bold" textLength="12" x="388" y="58">
G1
</text>
<text font-family="AppleSystemUIFont" font-size="12" textLength="69" x="388" y="78">
Main Goal
</text>
</g>
<g class="gsnelem gsnasmp gsn_module_Sub1" id="node_A1">
<title>
A1
</title>
<ellipse class="border" cx="545" cy="62" fill="none" rx="40" ry="42" stroke="black" stroke-width="1"/>
<text font-family="AppleSystemUIFont" font-size="12" font-weight="bold" textLength="10" x="520" y="51">
A1
</text>
<text font-family="AppleSystemUIFont" font-size="12" font-weight="bold" x="580" y="99">
A
</text>
<text font-family="AppleSystemUIFont" font-size="12" textLength="50" x="520" y="71">
TestABC
</text>
</g>
<g class="gsnelem gsnstgy gsn_module_Main" id="node_S1">
<title>
S1
</title>
<path class="border" d="M348,144 L513,144 L498,196 L333,196 z" fill="none" stroke="black" stroke-width="1"/>
<text font-family="AppleSystemUIFont" font-size="12" font-weight="bold" textLength="10" x="355" y="166">
S1
</text>
<text font-family="AppleSystemUIFont" font-size="12" textLength="136" x="340" y="186">
Divide and Conquer
</text>
</g>
<g class="gsnelem gsnctxt gsn_module_Sub3" id="node_C2">
<title>
C2
</title>
<path class="border" d="M30,254 L100,254 C110,254,110,302,100,302 L30,302 C20,302,20,254,30,254" fill="none" stroke="black" stroke-width="1"/>
<text font-family="AppleSystemUIFont" font-size="12" font-weight="bold" textLength="11" x="30" y="274">
C2
</text>
<text font-family="AppleSystemUIFont" font-size="12" textLength="61" x="30" y="294">
Context 2
</text>
</g>
<g class="gsnelem gsngoal gsn_module_Sub1" id="node_G3">
<title>
G3
</title>
<path class="border" d="M150,252 L336,252 L336,304 L150,304 z" fill="none" stroke="black" stroke-width="1"/>
<text font-family="AppleSystemUIFont" font-size="12" font-weight="bold" textLength="12" x="157" y="274">
G3
</text>
<text font-family="AppleSystemUIFont" font-size="12" textLength="173" x="157" y="294">
Conquer the submodules
</text>
</g>
<g class="gsnelem gsnjust gsn_module_Main" id="node_J1">
<title>
J1
</title>
<ellipse class="border" cx="449" cy="278" fill="none" rx="73" ry="42" stroke="black" stroke-width="1"/>
<text font-family="AppleSystemUIFont" font-size="12" font-weight="bold" textLength="8" x="401" y="267">
J1
</text>
<text font-family="AppleSystemUIFont" font-size="12" font-weight="bold" x="517" y="315">
J
</text>
<text font-family="AppleSystemUIFont" font-size="12" textLength="97" x="401" y="287">
Some Context
</text>
</g>
<g class="gsnelem gsngoal gsn_module_Main" id="node_G2">
<title>
G2
</title>
<path class="border" d="M562,250 L646,250 L646,306 L562,306 z" fill="none" stroke="black" stroke-width="1"/>
<text font-family="AppleSystemUIFont" font-size="12" font-weight="bold" textLength="12" x="569" y="272">
G2
</text>
<text font-family="AppleSystemUIFont" font-size="12" textLength="35" x="569" y="292">
Divide
</text>
<path d="M604,306 l5,5 l-5,5 l-5,-5 z" fill="none" stroke="black" stroke-width="1"/>
</g>
<g class="gsnelem gsnsltn gsn_module_Sub3" id="node_Sn1">
<title>
Sn1
</title>
<ellipse class="border" cx="243" cy="402" fill="none" rx="42" ry="42" stroke="black" stroke-width="1"/>
<text font-family="AppleSystemUIFont" font-size="12" font-weight="bold" textLength="19" x="212" y="391">
Sn1
</text>
<text font-family="AppleSystemUIFont" font-size="12" textLength="63" x="212" y="411">
Solution 1
</text>
</g>
<path class="gsnedge gsninctxt" d="M465,62 C465,62,475,62,495,62" fill="none" marker-end="url(#incontextof_arrow)" stroke="black" stroke-width="1"/>
<path class="gsnedge gsninspby" d="M423,88 C423,118,423,114,423,134" fill="none" marker-end="url(#supportedby_arrow)" stroke="black" stroke-width="1"/>
<path class="gsnedge gsninctxt" d="M562,278 C562,278,552,278,532,278" fill="none" marker-end="url(#incontextof_arrow)" stroke="black" stroke-width="1"/>
<path class="gsnedge gsninctxt" d="M336,278 C336,278,346,278,366,278" fill="none" marker-end="url(#incontextof_arrow)" stroke="black" stroke-width="1"/>
<path class="gsnedge gsninctxt" d="M150,278 C150,278,140,278,120,278" fill="none" marker-end="url(#incontextof_arrow)" stroke="black" stroke-width="1"/>
<path class="gsnedge gsninspby" d="M243,304 C243,334,243,330,243,350" fill="none" marker-end="url(#supportedby_arrow)" stroke="black" stroke-width="1"/>
<path class="gsnedge gsninspby" d="M423,196 C423,226,604,220,604,240" fill="none" marker-end="url(#supportedby_arrow)" stroke="black" stroke-width="1"/>
<path class="gsnedge gsninspby" d="M423,196 C423,226,243,222,243,242" fill="none" marker-end="url(#supportedby_arrow)" stroke="black" stroke-width="1"/>
</svg>