<?xml version="1.0" encoding="UTF-8"?>
<svg classes="gsndiagram" viewBox="0 0 708 429" xmlns="http://www.w3.org/2000/svg">
<symbol id="module_icon">
<rect fill="lightgrey" height="5" stroke="black" stroke-width="1" width="10" x="0" y="0"/>
<rect fill="lightgrey" height="10" stroke="black" stroke-width="1" width="20" x="0" y="5"/>
</symbol>
<symbol id="acp">
<rect fill="black" height="10" stroke="black" stroke-width="1" width="10" x="0" y="0"/>
</symbol>
<marker id="composite_arrow" markerHeight="9" markerUnits="userSpaceOnUse" markerWidth="10" orient="auto-start-reverse" refX="0" refY="4.5">
<polyline fill="none" points="0 0, 6 4.5, 0 9" stroke="black" stroke-width="1"/>
<polyline fill="none" points="4 0, 10 4.5, 4 9" stroke="black" stroke-width="1"/>
<polyline fill="none" points="0 4.5, 10 4.5" stroke="black" stroke-width="1"/>
</marker>
<marker id="supportedby_arrow" markerHeight="9" markerUnits="userSpaceOnUse" markerWidth="10" orient="auto-start-reverse" refX="0" refY="4.5">
<polyline fill="black" points="0 0, 10 4.5, 0 9"/>
</marker>
<marker id="incontextof_arrow" markerHeight="9" markerUnits="userSpaceOnUse" markerWidth="10" orient="auto-start-reverse" refX="0" refY="4.5">
<polyline fill="none" points="0 0, 10 4.5, 0 9, 0 0" stroke="black" stroke-width="1"/>
</marker>
<g class="gsn_module_Sub1 gsnelem gsnasmp" id="node_A1">
<title>A1</title>
<path class="border" d="M69,53 a39,33,0,1,0,78,0 a39,33,0,1,0,-78,0 z" fill="none" stroke="black" stroke-width="1"/>
<text font-family="Arial" font-size="12" font-weight="bold" x="88" y="44">
A1
</text>
<text font-family="Arial" font-size="12" x="88" y="63">
TestABC
</text>
<text font-family="Arial" font-size="12" font-weight="bold" x="142" y="81">
A
</text>
</g>
<g class="gsn_module_Main gsnelem gsngoal" id="node_G1">
<title>G1</title>
<path class="border" d="M187,30 L291,30 L291,76 L187,76 z" fill="transparent" stroke="black" stroke-width="1"/>
<text font-family="Arial" font-size="12" font-weight="bold" x="194" y="49">
G1
</text>
<text font-family="Arial" font-size="12" x="194" y="68">
Main Goal
</text>
</g>
<g class="gsn_module_Main gsnelem gsnstgy" id="node_S1">
<title>S1</title>
<path class="border" d="M179,126 L313,126 L299,172 L165,172 z" fill="transparent" stroke="black" stroke-width="1"/>
<text font-family="Arial" font-size="12" font-weight="bold" x="187" y="145">
S1
</text>
<text font-family="Arial" font-size="12" x="183" y="164">
Divide and Conquer
</text>
</g>
<g class="gsn_module_Main gsnelem gsngoal gsn_undeveloped" id="node_G2">
<title>G2</title>
<path class="border" d="M20,219 L124,219 L124,271 L20,271 z" fill="transparent" stroke="black" stroke-width="1"/>
<text font-family="Arial" font-size="12" font-weight="bold" x="27" y="238">
G2
</text>
<text font-family="Arial" font-size="12" x="27" y="257">
Divide
</text>
<path d="M72,271 l5,5 l-5,5 l-5,-5 z" fill="none" stroke="black" stroke-width="1"/>
</g>
<g class="gsn_module_Main gsnelem gsnjust" id="node_J1">
<title>J1</title>
<path class="border" d="M164,245 a64,33,0,1,0,128,0 a64,33,0,1,0,-128,0 z" fill="none" stroke="black" stroke-width="1"/>
<text font-family="Arial" font-size="12" font-weight="bold" x="190" y="236">
J1
</text>
<text font-family="Arial" font-size="12" x="190" y="255">
Some Context
</text>
<text font-family="Arial" font-size="12" font-weight="bold" x="287" y="273">
J
</text>
</g>
<g class="gsn_module_Sub1 gsnelem gsngoal" id="node_G3">
<title>G3</title>
<path class="border" d="M332,222 L482,222 L482,268 L332,268 z" fill="transparent" stroke="black" stroke-width="1"/>
<text font-family="Arial" font-size="12" font-weight="bold" x="339" y="241">
G3
</text>
<text font-family="Arial" font-size="12" x="339" y="260">
Conquer the submodules
</text>
</g>
<g class="gsn_module_Sub3 gsnelem gsnctxt" id="node_C2">
<title>C2</title>
<path class="border" d="M532,222 L636,222 C646,222,646,268,636,268 L532,268 C522,268,522,222,532,222" fill="transparent" stroke="black" stroke-width="1"/>
<text font-family="Arial" font-size="12" font-weight="bold" x="539" y="241">
C2
</text>
<text font-family="Arial" font-size="12" x="539" y="260">
Context 2
</text>
</g>
<g class="gsn_module_Sub3 gsnelem gsnsltn" id="node_Sn1">
<title>Sn1</title>
<path class="border" d="M363,362 a44,44,0,1,0,88,0 a44,44,0,1,0,-88,0 z" fill="none" stroke="black" stroke-width="1"/>
<text font-family="Arial" font-size="12" font-weight="bold" x="382" y="353">
Sn1
</text>
<text font-family="Arial" font-size="12" x="382" y="372">
Solution 1
</text>
</g>
<path class="gsnedge gsninctxt" d="M187,53 C157,53,177,53,157,53" fill="none" marker-end="url(#incontextof_arrow)" stroke="black" stroke-width="1"/>
<path class="gsnedge gsninspby" d="M239,76 C239,106,239,96,239,116" fill="none" marker-end="url(#supportedby_arrow)" stroke="black" stroke-width="1"/>
<path class="gsnedge gsninctxt" d="M124,245 C154,245,134,245,154,245" fill="none" marker-end="url(#incontextof_arrow)" stroke="black" stroke-width="1"/>
<path class="gsnedge gsninctxt" d="M332,245 C302,245,322,245,302,245" fill="none" marker-end="url(#incontextof_arrow)" stroke="black" stroke-width="1"/>
<path class="gsnedge gsninctxt" d="M482,245 C512,245,492,245,512,245" fill="none" marker-end="url(#incontextof_arrow)" stroke="black" stroke-width="1"/>
<path class="gsnedge gsninspby" d="M407,268 C407,298,407,288,407,308" fill="none" marker-end="url(#supportedby_arrow)" stroke="black" stroke-width="1"/>
<path class="gsnedge gsninspby" d="M239,172 C239,202,72,189,72,209" fill="none" marker-end="url(#supportedby_arrow)" stroke="black" stroke-width="1"/>
<path class="gsnedge gsninspby" d="M239,172 C239,202,407,192,407,212" fill="none" marker-end="url(#supportedby_arrow)" stroke="black" stroke-width="1"/>
</svg>