<svg viewBox="0 0 746 454" xmlns="http://www.w3.org/2000/svg" xmlns:xlink="http://www.w3.org/1999/xlink">
<symbol id="module_icon" viewbox="0 0 20 20">
<rect fill="lightgrey" height="5" stroke="black" stroke-width="1" width="10" x="0" y="0"/>
<rect fill="lightgrey" height="10" stroke="black" stroke-width="1" width="20" x="0" y="5"/>
</symbol>
<marker id="composite_arrow" markerHeight="9" markerUnits="users_posaceOnUse" markerWidth="10" orient="auto-start-reverse" refX="0" refY="4.5">
<polyline fill="none" points="0 0, 6 4.5, 0 9" stroke="black" stroke-width="1"/>
<polyline fill="none" points="4 0, 10 4.5, 4 9" stroke="black" stroke-width="1"/>
<polyline fill="none" points="0 4.5, 10 4.5" stroke="black" stroke-width="1"/>
</marker>
<marker id="supportedby_arrow" markerHeight="9" markerUnits="users_posaceOnUse" markerWidth="10" orient="auto-start-reverse" refX="0" refY="4.5">
<polyline fill="black" points="0 0, 10 4.5, 0 9"/>
</marker>
<marker id="incontextof_arrow" markerHeight="9" markerUnits="users_posaceOnUse" markerWidth="10" orient="auto-start-reverse" refX="0" refY="4.5">
<polyline fill="none" points="0 0, 10 4.5, 0 9, 0 0" stroke="black" stroke-width="1"/>
</marker>
<g class="gsnelem gsngoal" id="node_G1">
<title>
G1
</title>
<path class="border" d="M321,20 L405,20 L405,70 L321,70 z" fill="none" stroke="black" stroke-width="1"/>
<text font-family="AppleSystemUIFont" font-size="12" font-weight="bold" textLength="13" x="328" y="41">
G1
</text>
<text font-family="AppleSystemUIFont" font-size="12" textLength="51" x="328" y="61">
Main Goal
</text>
</g>
<g class="gsnelem gsnstgy" id="node_S1">
<title>
S1
</title>
<path class="border" d="M306,111 L435,111 L420,161 L291,161 z" fill="none" stroke="black" stroke-width="1"/>
<text font-family="AppleSystemUIFont" font-size="12" font-weight="bold" textLength="12" x="313" y="132">
S1
</text>
<text font-family="AppleSystemUIFont" font-size="12" textLength="101" x="298" y="152">
Divide and Conquer
</text>
</g>
<g class="gsnelem gsngoal" id="node_G2">
<title>
G2
</title>
<path class="border" d="M20,215 L104,215 L104,271 L20,271 z" fill="none" stroke="black" stroke-width="1"/>
<text font-family="AppleSystemUIFont" font-size="12" font-weight="bold" textLength="14" x="27" y="236">
G2
</text>
<text font-family="AppleSystemUIFont" font-size="12" textLength="31" x="27" y="256">
Divide
</text>
<path d="M62,271 l5,5 l-5,5 l-5,-5 z" fill="none" stroke="black" stroke-width="1"/>
</g>
<g class="gsnelem gsnjust" id="node_J1">
<title>
J1
</title>
<ellipse class="border" cx="651" cy="243" fill="none" rx="55" ry="41" stroke="black" stroke-width="1"/>
<text font-family="AppleSystemUIFont" font-size="12" font-weight="bold" textLength="11" x="615" y="232">
J1
</text>
<text font-family="AppleSystemUIFont" font-size="12" font-weight="bold" x="701" y="279">
J
</text>
<text font-family="AppleSystemUIFont" font-size="12" textLength="72" x="615" y="252">
Some Context
</text>
</g>
<g class="gsnelem gsnctxt" id="node_C2">
<title>
C2
</title>
<path class="border" d="M304,220 L364,220 C374,220,374,266,364,266 L304,266 C294,266,294,220,304,220" fill="none" stroke="black" stroke-width="1"/>
<text font-family="AppleSystemUIFont" font-size="12" font-weight="bold" textLength="14" x="304" y="239">
C2
</text>
<text font-family="AppleSystemUIFont" font-size="12" textLength="49" x="304" y="259">
Context 2
</text>
</g>
<g class="gsnelem gsngoal" id="node_G3">
<title>
G3
</title>
<path class="border" d="M414,218 L556,218 L556,268 L414,268 z" fill="none" stroke="black" stroke-width="1"/>
<text font-family="AppleSystemUIFont" font-size="12" font-weight="bold" textLength="15" x="421" y="239">
G3
</text>
<text font-family="AppleSystemUIFont" font-size="12" textLength="128" x="421" y="259">
Conquer the submodules
</text>
</g>
<g class="gsnelem gsnjust" id="node_J1">
<title>
J1
</title>
<ellipse class="border" cx="651" cy="243" fill="none" rx="55" ry="41" stroke="black" stroke-width="1"/>
<text font-family="AppleSystemUIFont" font-size="12" font-weight="bold" textLength="11" x="615" y="232">
J1
</text>
<text font-family="AppleSystemUIFont" font-size="12" font-weight="bold" x="701" y="279">
J
</text>
<text font-family="AppleSystemUIFont" font-size="12" textLength="72" x="615" y="252">
Some Context
</text>
</g>
<g/>
<g class="gsnelem gsnsltn" id="node_Sn1">
<title>
Sn1
</title>
<ellipse class="border" cx="425" cy="359" fill="none" rx="35" ry="35" stroke="black" stroke-width="1"/>
<text font-family="AppleSystemUIFont" font-size="12" font-weight="bold" textLength="18" x="401" y="348">
Sn1
</text>
<text font-family="AppleSystemUIFont" font-size="12" textLength="49" x="401" y="368">
Solution 1
</text>
</g>
<path class="gsnedge gsninspby" d="M363,70 C363,100,363,81,363,101" fill="none" marker-end="url(#supportedby_arrow)" stroke="black" stroke-width="1"/>
<path class="gsnedge gsninctxt" d="M104,243 C104,243,566,243,586,243" fill="none" marker-end="url(#incontextof_arrow)" stroke="black" stroke-width="1"/>
<path class="gsnedge gsninctxt" d="M556,243 C556,243,566,243,586,243" fill="none" marker-end="url(#incontextof_arrow)" stroke="black" stroke-width="1"/>
<path class="gsnedge gsninctxt" d="M414,243 C414,243,404,243,384,243" fill="none" marker-end="url(#incontextof_arrow)" stroke="black" stroke-width="1"/>
<path class="gsnedge gsninspby" d="M485,268 C485,298,425,294,425,314" fill="none" marker-end="url(#supportedby_arrow)" stroke="black" stroke-width="1"/>
<path class="gsnedge gsninspby" d="M363,161 C363,191,62,185,62,205" fill="none" marker-end="url(#supportedby_arrow)" stroke="black" stroke-width="1"/>
<path class="gsnedge gsninspby" d="M363,161 C363,191,485,188,485,208" fill="none" marker-end="url(#supportedby_arrow)" stroke="black" stroke-width="1"/>
</svg>