<svg viewBox="0 0 627 572" xmlns="http://www.w3.org/2000/svg" xmlns:xlink="http://www.w3.org/1999/xlink">
<symbol id="module_icon" viewbox="0 0 20 20">
<rect fill="lightgrey" height="5" stroke="black" stroke-width="1" width="10" x="0" y="0"/>
<rect fill="lightgrey" height="10" stroke="black" stroke-width="1" width="20" x="0" y="5"/>
</symbol>
<marker id="composite_arrow" markerHeight="9" markerUnits="users_posaceOnUse" markerWidth="10" orient="auto-start-reverse" refX="0" refY="4.5">
<polyline fill="none" points="0 0, 6 4.5, 0 9" stroke="black" stroke-width="1"/>
<polyline fill="none" points="4 0, 10 4.5, 4 9" stroke="black" stroke-width="1"/>
<polyline fill="none" points="0 4.5, 10 4.5" stroke="black" stroke-width="1"/>
</marker>
<marker id="supportedby_arrow" markerHeight="9" markerUnits="users_posaceOnUse" markerWidth="10" orient="auto-start-reverse" refX="0" refY="4.5">
<polyline fill="black" points="0 0, 10 4.5, 0 9"/>
</marker>
<marker id="incontextof_arrow" markerHeight="9" markerUnits="users_posaceOnUse" markerWidth="10" orient="auto-start-reverse" refX="0" refY="4.5">
<polyline fill="none" points="0 0, 10 4.5, 0 9, 0 0" stroke="black" stroke-width="1"/>
</marker>
<g class="gsnelem gsngoal gsn_module_Main" id="node_G1">
<title>
G1
</title>
<path class="border" d="M205,36 L289,36 L289,86 L205,86 z" fill="none" stroke="black" stroke-width="1"/>
<text font-family="AppleSystemUIFont" font-size="12" font-weight="bold" textLength="13" x="212" y="57">
G1
</text>
<text font-family="AppleSystemUIFont" font-size="12" textLength="51" x="212" y="77">
Main Goal
</text>
</g>
<g class="gsnelem gsnasmp gsn_module_Sub1" id="node_A1">
<title>
A1
</title>
<ellipse class="border" cx="365" cy="61" fill="none" rx="36" ry="41" stroke="black" stroke-width="1"/>
<text font-family="AppleSystemUIFont" font-size="12" font-weight="bold" textLength="12" x="343" y="50">
A1
</text>
<text font-family="AppleSystemUIFont" font-size="12" font-weight="bold" x="396" y="97">
A
</text>
<text font-family="AppleSystemUIFont" font-size="12" textLength="44" x="343" y="70">
TestABC
</text>
</g>
<g class="gsnelem gsnstgy gsn_module_Main" id="node_S1">
<title>
S1
</title>
<path class="border" d="M246,142 L375,142 L360,192 L231,192 z" fill="none" stroke="black" stroke-width="1"/>
<text font-family="AppleSystemUIFont" font-size="12" font-weight="bold" textLength="12" x="253" y="163">
S1
</text>
<text font-family="AppleSystemUIFont" font-size="12" textLength="101" x="238" y="183">
Divide and Conquer
</text>
</g>
<g class="gsnelem gsnjust gsn_module_Main" id="node_J1">
<title>
J1
</title>
<ellipse class="border" cx="349" cy="274" fill="none" rx="55" ry="41" stroke="black" stroke-width="1"/>
<text font-family="AppleSystemUIFont" font-size="12" font-weight="bold" textLength="11" x="313" y="263">
J1
</text>
<text font-family="AppleSystemUIFont" font-size="12" font-weight="bold" x="399" y="310">
J
</text>
<text font-family="AppleSystemUIFont" font-size="12" textLength="72" x="313" y="283">
Some Context
</text>
</g>
<g class="gsnelem gsngoal gsn_module_Main" id="node_G2">
<title>
G2
</title>
<path class="border" d="M170,289 L254,289 L254,345 L170,345 z" fill="none" stroke="black" stroke-width="1"/>
<text font-family="AppleSystemUIFont" font-size="12" font-weight="bold" textLength="14" x="177" y="310">
G2
</text>
<text font-family="AppleSystemUIFont" font-size="12" textLength="31" x="177" y="330">
Divide
</text>
<path d="M212,345 l5,5 l-5,5 l-5,-5 z" fill="none" stroke="black" stroke-width="1"/>
</g>
<g class="gsnelem gsnjust gsn_module_Main" id="node_J1">
<title>
J1
</title>
<ellipse class="border" cx="349" cy="274" fill="none" rx="55" ry="41" stroke="black" stroke-width="1"/>
<text font-family="AppleSystemUIFont" font-size="12" font-weight="bold" textLength="11" x="313" y="263">
J1
</text>
<text font-family="AppleSystemUIFont" font-size="12" font-weight="bold" x="399" y="310">
J
</text>
<text font-family="AppleSystemUIFont" font-size="12" textLength="72" x="313" y="283">
Some Context
</text>
</g>
<g class="gsnelem gsnctxt gsn_module_Sub3" id="node_C2">
<title>
C2
</title>
<path class="border" d="M319,355 L379,355 C389,355,389,401,379,401 L319,401 C309,401,309,355,319,355" fill="none" stroke="black" stroke-width="1"/>
<text font-family="AppleSystemUIFont" font-size="12" font-weight="bold" textLength="14" x="319" y="374">
C2
</text>
<text font-family="AppleSystemUIFont" font-size="12" textLength="49" x="319" y="394">
Context 2
</text>
</g>
<g class="gsnelem gsngoal gsn_module_Sub1" id="node_G3">
<title>
G3
</title>
<path class="border" d="M445,292 L587,292 L587,342 L445,342 z" fill="none" stroke="black" stroke-width="1"/>
<text font-family="AppleSystemUIFont" font-size="12" font-weight="bold" textLength="15" x="452" y="313">
G3
</text>
<text font-family="AppleSystemUIFont" font-size="12" textLength="128" x="452" y="333">
Conquer the submodules
</text>
</g>
<g/>
<g class="gsnelem gsnsltn gsn_module_Sub3" id="node_Sn1">
<title>
Sn1
</title>
<ellipse class="border" cx="365" cy="477" fill="none" rx="35" ry="35" stroke="black" stroke-width="1"/>
<text font-family="AppleSystemUIFont" font-size="12" font-weight="bold" textLength="18" x="341" y="466">
Sn1
</text>
<text font-family="AppleSystemUIFont" font-size="12" textLength="49" x="341" y="486">
Solution 1
</text>
</g>
<path class="gsnedge gsninctxt" d="M289,61 C289,61,299,61,319,61" fill="none" marker-end="url(#incontextof_arrow)" stroke="black" stroke-width="1"/>
<path class="gsnedge gsninspby" d="M247,86 C247,116,303,112,303,132" fill="none" marker-end="url(#supportedby_arrow)" stroke="black" stroke-width="1"/>
<path class="gsnedge gsninctxt" d="M254,317 C254,317,264,274,284,274" fill="none" marker-end="url(#incontextof_arrow)" stroke="black" stroke-width="1"/>
<path class="gsnedge gsninctxt" d="M445,317 C445,317,434,274,414,274" fill="none" marker-end="url(#incontextof_arrow)" stroke="black" stroke-width="1"/>
<path class="gsnedge gsninctxt" d="M516,342 C516,372,349,325,349,345" fill="none" marker-end="url(#incontextof_arrow)" stroke="black" stroke-width="1"/>
<path class="gsnedge gsninspby" d="M516,342 C516,372,365,412,365,432" fill="none" marker-end="url(#supportedby_arrow)" stroke="black" stroke-width="1"/>
<path class="gsnedge gsninspby" d="M303,192 C303,222,212,259,212,279" fill="none" marker-end="url(#supportedby_arrow)" stroke="black" stroke-width="1"/>
<path class="gsnedge gsninspby" d="M303,192 C303,222,516,262,516,282" fill="none" marker-end="url(#supportedby_arrow)" stroke="black" stroke-width="1"/>
</svg>