<?xml version="1.0" encoding="UTF-8"?>
<svg class="gsndiagram" viewBox="0 0 557 350" xmlns="http://www.w3.org/2000/svg">
<symbol id="module_icon">
<rect fill="lightgrey" height="5" stroke="black" stroke-width="1" width="10" x="0" y="0"/>
<rect fill="lightgrey" height="10" stroke="black" stroke-width="1" width="20" x="0" y="5"/>
</symbol>
<symbol id="acp">
<rect fill="black" height="10" stroke="black" stroke-width="1" width="10" x="0" y="0"/>
</symbol>
<marker id="composite_arrow" markerHeight="9" markerUnits="userSpaceOnUse" markerWidth="10" orient="auto-start-reverse" refX="0" refY="4.5">
<polyline fill-opacity="0" points="0 0, 6 4.5, 0 9" stroke="black" stroke-width="1"/>
<polyline fill-opacity="0" points="4 0, 10 4.5, 4 9" stroke="black" stroke-width="1"/>
<polyline fill-opacity="0" points="0 4.5, 10 4.5" stroke="black" stroke-width="1"/>
</marker>
<marker id="supportedby_arrow" markerHeight="9" markerUnits="userSpaceOnUse" markerWidth="10" orient="auto-start-reverse" refX="0" refY="4.5">
<polyline fill="black" points="0 0, 10 4.5, 0 9"/>
</marker>
<marker id="incontextof_arrow" markerHeight="9" markerUnits="userSpaceOnUse" markerWidth="10" orient="auto-start-reverse" refX="0" refY="4.5">
<polyline fill-opacity="0" points="0 0, 10 4.5, 0 9, 0 0" stroke="black" stroke-width="1"/>
</marker>
<style>
@import url(https://github.com/jonasthewolf/gsn2x/blob/3439402d093ba54af4771b295e78f2488bd1b978/examples/modular/modular.css)
</style>
<a href="sub1.gsn.svg#node_a1">
<g class="gsn_module_sub1 gsnelem gsnawayasmp" id="node_a1">
<title>A1</title>
<path class="border" d="M63,94 V41 A42,21,0,0,1,147,41 V94" fill-opacity="0" stroke="black" stroke-width="1"/>
<text font-family="Arial" font-size="12" font-weight="bold" x="70" y="60">
A1
</text>
<text font-family="Arial" font-size="12" x="70" y="79">
TestABC
</text>
<a href="sub1.gsn.svg#node_a1">
<path class="border" d="M63,94 h84 v28 h-84 z" fill-opacity="0" stroke="black" stroke-width="1"/>
<text font-family="Arial" font-size="12" font-weight="bold" x="97" y="115">
Sub1
</text>
</a>
<use href="#module_icon" x="70" y="101"/>
<text font-family="Arial" font-size="12" font-weight="bold" x="140" y="20">
A
</text>
</g>
</a>
<g class="gsn_module_main gsnelem gsngoal" id="node_g1">
<title>G1</title>
<path class="border" d="M187,48 L291,48 L291,94 L187,94 z" fill-opacity="0" stroke="black" stroke-width="1"/>
<text font-family="Arial" font-size="12" font-weight="bold" x="194" y="67">
G1
</text>
<text font-family="Arial" font-size="12" x="194" y="86">
Main Goal
</text>
</g>
<g class="gsn_module_main gsnelem gsnstgy" id="node_s1">
<title>S1</title>
<path class="border" d="M179,162 L313,162 L299,208 L165,208 z" fill-opacity="0" stroke="black" stroke-width="1"/>
<text font-family="Arial" font-size="12" font-weight="bold" x="187" y="181">
S1
</text>
<text font-family="Arial" font-size="12" x="183" y="200">
Divide and Conquer
</text>
</g>
<g class="gsn_module_main gsnelem gsngoal gsn_undeveloped" id="node_g2">
<title>G2</title>
<path class="border" d="M20,262 L124,262 L124,314 L20,314 z" fill-opacity="0" stroke="black" stroke-width="1"/>
<text font-family="Arial" font-size="12" font-weight="bold" x="27" y="281">
G2
</text>
<text font-family="Arial" font-size="12" x="27" y="300">
Divide
</text>
<path d="M72,314 l5,5 l-5,5 l-5,-5 z" fill-opacity="0" stroke="black" stroke-width="1"/>
</g>
<g class="gsn_module_main gsnelem gsnjust" id="node_j1">
<title>J1</title>
<path class="border" d="M164,288 a64,33,0,1,0,128,0 a64,33,0,1,0,-128,0 z" fill-opacity="0" stroke="black" stroke-width="1"/>
<text font-family="Arial" font-size="12" font-weight="bold" x="190" y="279">
J1
</text>
<text font-family="Arial" font-size="12" x="190" y="298">
Some Context
</text>
<text font-family="Arial" font-size="12" font-weight="bold" x="287" y="316">
J
</text>
</g>
<a href="sub1.gsn.svg#node_g3">
<g class="gsn_module_sub1 gsnelem gsnawaygoal" id="node_g3">
<title>G3</title>
<path class="border" d="M332,300 V248 H482 V300" fill-opacity="0" stroke="black" stroke-width="1"/>
<text font-family="Arial" font-size="12" font-weight="bold" x="339" y="267">
G3
</text>
<text font-family="Arial" font-size="12" x="339" y="286">
Conquer the submodules
</text>
<a href="sub1.gsn.svg#node_g3">
<path class="border" d="M332,300 h150 v28 h-150 z" fill-opacity="0" stroke="black" stroke-width="1"/>
<text font-family="Arial" font-size="12" font-weight="bold" x="366" y="321">
Sub1
</text>
</a>
<use href="#module_icon" x="339" y="307"/>
</g>
</a>
<path class="gsnedge gsninctxt" d="M187,71 C157,71,177,71,157,71" fill-opacity="0" marker-end="url(#incontextof_arrow)" stroke="black" stroke-width="1"/>
<path class="gsnedge gsninspby" d="M239,94 C239,124,239,132,239,152" fill-opacity="0" marker-end="url(#supportedby_arrow)" stroke="black" stroke-width="1"/>
<path class="gsnedge gsninctxt" d="M124,288 C154,288,134,288,154,288" fill-opacity="0" marker-end="url(#incontextof_arrow)" stroke="black" stroke-width="1"/>
<path class="gsnedge gsninctxt" d="M332,288 C302,288,322,288,302,288" fill-opacity="0" marker-end="url(#incontextof_arrow)" stroke="black" stroke-width="1"/>
<path class="gsnedge gsninspby" d="M239,208 C239,238,72,232,72,252" fill-opacity="0" marker-end="url(#supportedby_arrow)" stroke="black" stroke-width="1"/>
<path class="gsnedge gsninspby" d="M239,208 C239,238,407,218,407,238" fill-opacity="0" marker-end="url(#supportedby_arrow)" stroke="black" stroke-width="1"/>
</svg>