<?xml version="1.0" encoding="UTF-8"?>
<svg class="gsndiagram" viewBox="0 0 498 344" xmlns="http://www.w3.org/2000/svg">
<defs>
<marker id="supportedby_arrow" markerHeight="9" markerUnits="userSpaceOnUse" markerWidth="10" orient="auto-start-reverse" refX="0" refY="4.5">
<polyline fill="black" points="0 0, 10 4.5, 0 9"/>
</marker>
<marker id="incontextof_arrow" markerHeight="9" markerUnits="userSpaceOnUse" markerWidth="10" orient="auto-start-reverse" refX="0" refY="4.5">
<polyline fill-opacity="0" points="0 0, 10 4.5, 0 9, 0 0" stroke="black" stroke-width="1"/>
</marker>
<symbol id="module_icon">
<rect fill="lightgrey" height="5" stroke="black" stroke-width="1" width="10" x="0" y="0"/>
<rect fill="lightgrey" height="10" stroke="black" stroke-width="1" width="20" x="0" y="5"/>
</symbol>
</defs>
<style>
@import url(https://github.com/jonasthewolf/gsn2x/blob/3439402d093ba54af4771b295e78f2488bd1b978/examples/modular/modular.css)
</style>
<a href="sub1.gsn.svg#node_a1">
<g class="gsn_module_sub1 gsnelem gsnawayasmp" id="node_a1">
<title>A1</title>
<path class="border" d="M62,93 V41 A42,21,0,0,1,146,41 V93" fill-opacity="0" stroke="black" stroke-width="1"/>
<text font-family="Liberation Sans, Arial, sans-serif" font-size="12px" font-weight="bold" x="69" y="61">A1</text>
<text font-family="Liberation Sans, Arial, sans-serif" font-size="12px" x="69" y="79">TestABC</text>
<a href="sub1.gsn.svg#node_a1">
<path class="border" d="M62,93 H146 v27 H62 z" fill-opacity="0" stroke="black" stroke-width="1"/>
<text font-family="Liberation Sans, Arial, sans-serif" font-size="12px" font-weight="bold" x="96" y="113">Sub1</text>
</a>
<use href="#module_icon" x="69" y="100"/>
<text font-family="Liberation Sans, Arial, sans-serif" font-size="12px" font-weight="bold" x="139" y="20">A</text>
</g>
</a>
<g class="gsn_module_main gsnelem gsngoal" id="node_g1">
<title>G1</title>
<path class="border" d="M186,48 L290,48 L290,92 L186,92 z" fill-opacity="0" stroke="black" stroke-width="1"/>
<text font-family="Liberation Sans, Arial, sans-serif" font-size="12px" font-weight="bold" x="193" y="68">G1</text>
<text font-family="Liberation Sans, Arial, sans-serif" font-size="12px" x="193" y="86">Main Goal</text>
</g>
<g class="gsn_module_main gsnelem gsnstgy" id="node_s1">
<title>S1</title>
<path class="border" d="M171,160 L319,160 L305,204 L157,204 z" fill-opacity="0" stroke="black" stroke-width="1"/>
<text font-family="Liberation Sans, Arial, sans-serif" font-size="12px" font-weight="bold" x="178" y="180">S1</text>
<text font-family="Liberation Sans, Arial, sans-serif" font-size="12px" x="174" y="198">Divide and Conquer</text>
</g>
<g class="gsn_module_main gsnelem gsngoal gsn_undeveloped" id="node_g2">
<title>G2</title>
<path class="border" d="M20,258 L124,258 L124,308 L20,308 z" fill-opacity="0" stroke="black" stroke-width="1"/>
<text font-family="Liberation Sans, Arial, sans-serif" font-size="12px" font-weight="bold" x="27" y="278">G2</text>
<text font-family="Liberation Sans, Arial, sans-serif" font-size="12px" x="27" y="296">Divide</text>
<path d="M72,308 l5,5 l-5,5 l-5,-5 z" fill-opacity="0" stroke="black" stroke-width="1"/>
</g>
<g class="gsn_module_main gsnelem gsnjust" id="node_j1">
<title>J1</title>
<path class="border" d="M164,283 a63,32,0,1,0,127,0 a63,32,0,1,0,-127,0 z" fill-opacity="0" stroke="black" stroke-width="1"/>
<text font-family="Liberation Sans, Arial, sans-serif" font-size="12px" font-weight="bold" x="189" y="275">J1</text>
<text font-family="Liberation Sans, Arial, sans-serif" font-size="12px" x="189" y="293">Some Context</text>
<text font-family="Liberation Sans, Arial, sans-serif" font-size="12px" font-weight="bold" x="285" y="310">J</text>
</g>
<a href="sub1.gsn.svg#node_g3">
<g class="gsn_module_sub1 gsnelem gsnawaygoal" id="node_g3">
<title>G3</title>
<path class="border" d="M330,295 V244 H478 V295" fill-opacity="0" stroke="black" stroke-width="1"/>
<text font-family="Liberation Sans, Arial, sans-serif" font-size="12px" font-weight="bold" x="337" y="264">G3</text>
<text font-family="Liberation Sans, Arial, sans-serif" font-size="12px" x="337" y="282">Conquer the submodules</text>
<a href="sub1.gsn.svg#node_g3">
<path class="border" d="M330,295 H478 v27 H330 z" fill-opacity="0" stroke="black" stroke-width="1"/>
<text font-family="Liberation Sans, Arial, sans-serif" font-size="12px" font-weight="bold" x="364" y="315">Sub1</text>
</a>
<use href="#module_icon" x="337" y="302"/>
</g>
</a>
<path class="gsnedge gsninctxt" d="M186,70 C156,70,176,70,156,70" fill-opacity="0" marker-end="url(#incontextof_arrow)" stroke="black" stroke-width="1"/>
<path class="gsnedge gsninspby" d="M238,92 C238,122,238,130,238,150" fill-opacity="0" marker-end="url(#supportedby_arrow)" stroke="black" stroke-width="1"/>
<path class="gsnedge gsninctxt" d="M124,283 C154,283,134,283,154,283" fill-opacity="0" marker-end="url(#incontextof_arrow)" stroke="black" stroke-width="1"/>
<path class="gsnedge gsninctxt" d="M330,283 C300,283,320,283,300,283" fill-opacity="0" marker-end="url(#incontextof_arrow)" stroke="black" stroke-width="1"/>
<path class="gsnedge gsninspby" d="M238,204 C238,234,72,228,72,248" fill-opacity="0" marker-end="url(#supportedby_arrow)" stroke="black" stroke-width="1"/>
<path class="gsnedge gsninspby" d="M238,204 C238,234,404,214,404,234" fill-opacity="0" marker-end="url(#supportedby_arrow)" stroke="black" stroke-width="1"/>
</svg>