<svg viewBox="0 0 688 341" xmlns="http://www.w3.org/2000/svg" xmlns:xlink="http://www.w3.org/1999/xlink">
<symbol id="module_icon" viewbox="0 0 20 20">
<rect fill="lightgrey" height="5" stroke="black" stroke-width="1" width="10" x="0" y="0"/>
<rect fill="lightgrey" height="10" stroke="black" stroke-width="1" width="20" x="0" y="5"/>
</symbol>
<marker id="composite_arrow" markerHeight="20" markerUnits="users_posaceOnUse" markerWidth="20" orient="auto" refX="20" refY="10">
<polyline fill="none" points="0 0, 10 10, 0 20" stroke="black" stroke-width="1"/>
<polyline fill="none" points="10 0, 20 10, 10 20" stroke="black" stroke-width="1"/>
</marker>
<marker id="supportedby_arrow" markerHeight="9" markerUnits="users_posaceOnUse" markerWidth="10" orient="auto" refX="0" refY="4.5">
<polyline fill="black" points="0 0, 10 4.5, 0 9"/>
</marker>
<marker id="incontextof_arrow" markerHeight="9" markerUnits="users_posaceOnUse" markerWidth="10" orient="auto" refX="0" refY="4.5">
<polyline fill="none" points="0 0, 10 4.5, 0 9, 0 0" stroke="black" stroke-width="1"/>
</marker>
<g class="gsnelem gsngoal" id="node_G1">
<title>
G1
</title>
<path class="border" d="M292,20 L376,20 L376,70 L292,70 z" fill="none" stroke="black" stroke-width="1"/>
<text font-family="AppleSystemUIFont" font-size="12" font-weight="bold" x="299" y="41">
G1
</text>
<text font-family="AppleSystemUIFont" font-size="12" textLength="51" x="299" y="61">
Main Goal
</text>
</g>
<g class="gsnelem gsnstgy" id="node_S1">
<title>
S1
</title>
<path class="border" d="M277,111 L406,111 L391,161 L262,161 z" fill="none" stroke="black" stroke-width="1"/>
<text font-family="AppleSystemUIFont" font-size="12" font-weight="bold" x="284" y="132">
S1
</text>
<text font-family="AppleSystemUIFont" font-size="12" textLength="101" x="269" y="152">
Divide and Conquer
</text>
</g>
<g class="gsnelem gsngoal" id="node_G2">
<title>
G2
</title>
<path class="border" d="M20,213 L104,213 L104,269 L20,269 z" fill="none" stroke="black" stroke-width="1"/>
<text font-family="AppleSystemUIFont" font-size="12" font-weight="bold" x="27" y="234">
G2
</text>
<text font-family="AppleSystemUIFont" font-size="12" textLength="31" x="27" y="254">
Divide
</text>
<path d="M62,269 l5,5 l-5,5 l-5,-5 z" fill="none" stroke="black" stroke-width="1"/>
</g>
<g class="gsnelem gsnctxt" id="node_C1">
<title>
C1
</title>
<path class="border" d="M556,218 L638,218 C648,218,648,264,638,264 L556,264 C546,264,546,218,556,218" fill="none" stroke="black" stroke-width="1"/>
<text font-family="AppleSystemUIFont" font-size="12" font-weight="bold" x="556" y="237">
C1
</text>
<text font-family="AppleSystemUIFont" font-size="12" textLength="72" x="556" y="257">
Some Context
</text>
</g>
<g class="gsnelem gsnawaygoal" id="node_G3">
<title>
G3
</title>
<rect fill="none" height="28" stroke="black" stroke-width="1" width="221" x="286" y="252"/>
<text font-family="AppleSystemUIFont" font-size="12" font-weight="bold" textLength="180" x="320" y="273">
examples_modular_sub1_gsn_yaml
</text>
<path class="border" d="M286,252 V202 H506 V252" fill="none" stroke="black" stroke-width="1"/>
<text font-family="AppleSystemUIFont" font-size="12" font-weight="bold" x="293" y="223">
G3
</text>
<use href="#module_icon" x="293" y="259"/>
<text font-family="AppleSystemUIFont" font-size="12" textLength="128" x="293" y="243">
Conquer the submodules
</text>
</g>
<g class="gsnelem gsnctxt" id="node_C1">
<title>
C1
</title>
<path class="border" d="M556,218 L638,218 C648,218,648,264,638,264 L556,264 C546,264,546,218,556,218" fill="none" stroke="black" stroke-width="1"/>
<text font-family="AppleSystemUIFont" font-size="12" font-weight="bold" x="556" y="237">
C1
</text>
<text font-family="AppleSystemUIFont" font-size="12" textLength="72" x="556" y="257">
Some Context
</text>
</g>
<path class="gsnedge gsninctxt" d="M334,70 C334,100,334,81,334,101" fill="none" marker-end="url(#supportedby_arrow)" stroke="black" stroke-width="1"/>
<path class="gsnedge gsnspby" d="M104,241 C104,241,516,241,536,241" fill="none" marker-end="url(#incontextof_arrow)" stroke="black" stroke-width="1"/>
<path class="gsnedge gsnspby" d="M506,241 C506,241,516,241,536,241" fill="none" marker-end="url(#incontextof_arrow)" stroke="black" stroke-width="1"/>
<path class="gsnedge gsninctxt" d="M334,161 C334,191,62,183,62,203" fill="none" marker-end="url(#supportedby_arrow)" stroke="black" stroke-width="1"/>
<path class="gsnedge gsninctxt" d="M334,161 C334,191,396,172,396,192" fill="none" marker-end="url(#supportedby_arrow)" stroke="black" stroke-width="1"/>
</svg>