<svg viewBox="0 0 659 353" xmlns="http://www.w3.org/2000/svg" xmlns:xlink="http://www.w3.org/1999/xlink">
<symbol id="module_icon" viewbox="0 0 20 20">
<rect fill="lightgrey" height="5" stroke="black" stroke-width="1" width="10" x="0" y="0"/>
<rect fill="lightgrey" height="10" stroke="black" stroke-width="1" width="20" x="0" y="5"/>
</symbol>
<marker id="composite_arrow" markerHeight="9" markerUnits="users_posaceOnUse" markerWidth="10" orient="auto-start-reverse" refX="0" refY="4.5">
<polyline fill="none" points="0 0, 6 4.5, 0 9" stroke="black" stroke-width="1"/>
<polyline fill="none" points="4 0, 10 4.5, 4 9" stroke="black" stroke-width="1"/>
<polyline fill="none" points="0 4.5, 10 4.5" stroke="black" stroke-width="1"/>
</marker>
<marker id="supportedby_arrow" markerHeight="9" markerUnits="users_posaceOnUse" markerWidth="10" orient="auto-start-reverse" refX="0" refY="4.5">
<polyline fill="black" points="0 0, 10 4.5, 0 9"/>
</marker>
<marker id="incontextof_arrow" markerHeight="9" markerUnits="users_posaceOnUse" markerWidth="10" orient="auto-start-reverse" refX="0" refY="4.5">
<polyline fill="none" points="0 0, 10 4.5, 0 9, 0 0" stroke="black" stroke-width="1"/>
</marker>
<a href="modular.css" rel="stylesheet" type="text/css"/>
<g class="gsnelem gsngoal gsn_module_Main" id="node_G1">
<title>
G1
</title>
<path class="border" d="M323,45 L407,45 L407,95 L323,95 z" fill="none" stroke="black" stroke-width="1"/>
<text font-family="AppleSystemUIFont" font-size="12" font-weight="bold" textLength="13" x="330" y="66">
G1
</text>
<text font-family="AppleSystemUIFont" font-size="12" textLength="51" x="330" y="86">
Main Goal
</text>
</g>
<g class="gsnelem gsnawayasmp gsn_module_Sub1" id="node_A1">
<title>
A1
</title>
<a xlink:href="./sub1.gsn.svg#node_A1">
<rect fill="none" height="28" stroke="black" stroke-width="1" width="84" x="447" y="92"/>
<text font-family="AppleSystemUIFont" font-size="12" font-weight="bold" textLength="25" x="481" y="113">
Sub1
</text>
</a>
<path class="border" d="M447,92 V41 A42,21,0,0,1,531,41 V92" fill="none" stroke="black" stroke-width="1"/>
<text font-family="AppleSystemUIFont" font-size="12" font-weight="bold" textLength="12" x="454" y="62">
A1
</text>
<use href="#module_icon" x="454" y="99"/>
<text font-family="AppleSystemUIFont" font-size="12" font-weight="bold" x="524" y="20">
A
</text>
<text font-family="AppleSystemUIFont" font-size="12" textLength="44" x="454" y="82">
TestABC
</text>
</g>
<g class="gsnelem gsnstgy gsn_module_Main" id="node_S1">
<title>
S1
</title>
<path class="border" d="M308,160 L437,160 L422,210 L293,210 z" fill="none" stroke="black" stroke-width="1"/>
<text font-family="AppleSystemUIFont" font-size="12" font-weight="bold" textLength="12" x="315" y="181">
S1
</text>
<text font-family="AppleSystemUIFont" font-size="12" textLength="101" x="300" y="201">
Divide and Conquer
</text>
</g>
<g class="gsnelem gsnjust gsn_module_Main" id="node_J1">
<title>
J1
</title>
<ellipse class="border" cx="350" cy="292" fill="none" rx="55" ry="41" stroke="black" stroke-width="1"/>
<text font-family="AppleSystemUIFont" font-size="12" font-weight="bold" textLength="11" x="314" y="281">
J1
</text>
<text font-family="AppleSystemUIFont" font-size="12" font-weight="bold" x="400" y="328">
J
</text>
<text font-family="AppleSystemUIFont" font-size="12" textLength="72" x="314" y="301">
Some Context
</text>
</g>
<g class="gsnelem gsngoal gsn_module_Main" id="node_G2">
<title>
G2
</title>
<path class="border" d="M171,264 L255,264 L255,320 L171,320 z" fill="none" stroke="black" stroke-width="1"/>
<text font-family="AppleSystemUIFont" font-size="12" font-weight="bold" textLength="14" x="178" y="285">
G2
</text>
<text font-family="AppleSystemUIFont" font-size="12" textLength="31" x="178" y="305">
Divide
</text>
<path d="M213,320 l5,5 l-5,5 l-5,-5 z" fill="none" stroke="black" stroke-width="1"/>
</g>
<g class="gsnelem gsnjust gsn_module_Main" id="node_J1">
<title>
J1
</title>
<ellipse class="border" cx="350" cy="292" fill="none" rx="55" ry="41" stroke="black" stroke-width="1"/>
<text font-family="AppleSystemUIFont" font-size="12" font-weight="bold" textLength="11" x="314" y="281">
J1
</text>
<text font-family="AppleSystemUIFont" font-size="12" font-weight="bold" x="400" y="328">
J
</text>
<text font-family="AppleSystemUIFont" font-size="12" textLength="72" x="314" y="301">
Some Context
</text>
</g>
<g class="gsnelem gsnawaygoal gsn_module_Sub1" id="node_G3">
<title>
G3
</title>
<a xlink:href="./sub1.gsn.svg#node_G3">
<rect fill="none" height="28" stroke="black" stroke-width="1" width="142" x="446" y="303"/>
<text font-family="AppleSystemUIFont" font-size="12" font-weight="bold" textLength="25" x="480" y="324">
Sub1
</text>
</a>
<path class="border" d="M446,303 V253 H588 V303" fill="none" stroke="black" stroke-width="1"/>
<text font-family="AppleSystemUIFont" font-size="12" font-weight="bold" textLength="15" x="453" y="274">
G3
</text>
<use href="#module_icon" x="453" y="310"/>
<text font-family="AppleSystemUIFont" font-size="12" textLength="128" x="453" y="294">
Conquer the submodules
</text>
</g>
<path class="gsnedge gsninctxt" d="M407,70 C407,70,417,70,437,70" fill="none" marker-end="url(#incontextof_arrow)" stroke="black" stroke-width="1"/>
<path class="gsnedge gsninspby" d="M365,95 C365,125,365,130,365,150" fill="none" marker-end="url(#supportedby_arrow)" stroke="black" stroke-width="1"/>
<path class="gsnedge gsninctxt" d="M255,292 C255,292,265,292,285,292" fill="none" marker-end="url(#incontextof_arrow)" stroke="black" stroke-width="1"/>
<path class="gsnedge gsninctxt" d="M446,292 C446,292,435,292,415,292" fill="none" marker-end="url(#incontextof_arrow)" stroke="black" stroke-width="1"/>
<path class="gsnedge gsninspby" d="M365,210 C365,240,213,234,213,254" fill="none" marker-end="url(#supportedby_arrow)" stroke="black" stroke-width="1"/>
<path class="gsnedge gsninspby" d="M365,210 C365,240,517,223,517,243" fill="none" marker-end="url(#supportedby_arrow)" stroke="black" stroke-width="1"/>
</svg>