<?xml version="1.0" encoding="UTF-8"?>
<svg viewBox="0 0 610 358" xmlns="http://www.w3.org/2000/svg">
<symbol id="module_icon">
<rect fill="lightgrey" height="5" stroke="black" stroke-width="1" width="10" x="0" y="0"/>
<rect fill="lightgrey" height="10" stroke="black" stroke-width="1" width="20" x="0" y="5"/>
</symbol>
<marker id="composite_arrow" markerHeight="9" markerUnits="userSpaceOnUse" markerWidth="10" orient="auto-start-reverse" refX="0" refY="4.5">
<polyline fill="none" points="0 0, 6 4.5, 0 9" stroke="black" stroke-width="1"/>
<polyline fill="none" points="4 0, 10 4.5, 4 9" stroke="black" stroke-width="1"/>
<polyline fill="none" points="0 4.5, 10 4.5" stroke="black" stroke-width="1"/>
</marker>
<marker id="supportedby_arrow" markerHeight="9" markerUnits="userSpaceOnUse" markerWidth="10" orient="auto-start-reverse" refX="0" refY="4.5">
<polyline fill="black" points="0 0, 10 4.5, 0 9"/>
</marker>
<marker id="incontextof_arrow" markerHeight="9" markerUnits="userSpaceOnUse" markerWidth="10" orient="auto-start-reverse" refX="0" refY="4.5">
<polyline fill="none" points="0 0, 10 4.5, 0 9, 0 0" stroke="black" stroke-width="1"/>
</marker>
<style>
@import ("modular.css")
</style>
<g class="gsnelem gsngoal gsn_module_Main" id="node_G1">
<title>
G1
</title>
<path class="border" d="M200,45 L284,45 L284,97 L200,97 z" fill="none" stroke="black" stroke-width="1"/>
<text font-family="AppleSystemUIFont" font-size="12" font-weight="bold" textLength="12" x="207" y="67">
G1
</text>
<text font-family="AppleSystemUIFont" font-size="12" textLength="69" x="207" y="87">
Main Goal
</text>
</g>
<g class="gsnelem gsnawayasmp gsn_module_Sub1" id="node_A1">
<title>
A1
</title>
<a href="./sub1.gsn.svg#node_A1">
<rect fill="none" height="29" stroke="black" stroke-width="1" width="84" x="324" y="93"/>
<text font-family="AppleSystemUIFont" font-size="12" font-weight="bold" textLength="28" x="358" y="115">
Sub1
</text>
</a>
<path class="border" d="M324,93 V41 A42,21,0,0,1,408,41 V93" fill="none" stroke="black" stroke-width="1"/>
<text font-family="AppleSystemUIFont" font-size="12" font-weight="bold" textLength="10" x="331" y="63">
A1
</text>
<use href="#module_icon" x="331" y="100"/>
<text font-family="AppleSystemUIFont" font-size="12" font-weight="bold" x="401" y="20">
A
</text>
<text font-family="AppleSystemUIFont" font-size="12" textLength="50" x="331" y="83">
TestABC
</text>
</g>
<g class="gsnelem gsnstgy gsn_module_Main" id="node_S1">
<title>
S1
</title>
<path class="border" d="M167,162 L332,162 L317,214 L152,214 z" fill="none" stroke="black" stroke-width="1"/>
<text font-family="AppleSystemUIFont" font-size="12" font-weight="bold" textLength="10" x="174" y="184">
S1
</text>
<text font-family="AppleSystemUIFont" font-size="12" textLength="136" x="159" y="204">
Divide and Conquer
</text>
</g>
<g class="gsnelem gsngoal gsn_module_Main" id="node_G2">
<title>
G2
</title>
<path class="border" d="M20,268 L104,268 L104,324 L20,324 z" fill="none" stroke="black" stroke-width="1"/>
<text font-family="AppleSystemUIFont" font-size="12" font-weight="bold" textLength="12" x="27" y="290">
G2
</text>
<text font-family="AppleSystemUIFont" font-size="12" textLength="35" x="27" y="310">
Divide
</text>
<path d="M62,324 l5,5 l-5,5 l-5,-5 z" fill="none" stroke="black" stroke-width="1"/>
</g>
<g class="gsnelem gsnjust gsn_module_Main" id="node_J1">
<title>
J1
</title>
<ellipse class="border" cx="217" cy="296" fill="none" rx="73" ry="42" stroke="black" stroke-width="1"/>
<text font-family="AppleSystemUIFont" font-size="12" font-weight="bold" textLength="8" x="169" y="285">
J1
</text>
<text font-family="AppleSystemUIFont" font-size="12" font-weight="bold" x="285" y="333">
J
</text>
<text font-family="AppleSystemUIFont" font-size="12" textLength="97" x="169" y="305">
Some Context
</text>
</g>
<g class="gsnelem gsnawaygoal gsn_module_Sub1" id="node_G3">
<title>
G3
</title>
<a href="./sub1.gsn.svg#node_G3">
<rect fill="none" height="29" stroke="black" stroke-width="1" width="187" x="330" y="307"/>
<text font-family="AppleSystemUIFont" font-size="12" font-weight="bold" textLength="28" x="364" y="329">
Sub1
</text>
</a>
<path class="border" d="M330,307 V256 H516 V307" fill="none" stroke="black" stroke-width="1"/>
<text font-family="AppleSystemUIFont" font-size="12" font-weight="bold" textLength="12" x="337" y="278">
G3
</text>
<use href="#module_icon" x="337" y="314"/>
<text font-family="AppleSystemUIFont" font-size="12" textLength="173" x="337" y="298">
Conquer the submodules
</text>
</g>
<path class="gsnedge gsninctxt" d="M284,71 C284,71,294,71,314,71" fill="none" marker-end="url(#incontextof_arrow)" stroke="black" stroke-width="1"/>
<path class="gsnedge gsninspby" d="M242,97 C242,127,242,132,242,152" fill="none" marker-end="url(#supportedby_arrow)" stroke="black" stroke-width="1"/>
<path class="gsnedge gsninctxt" d="M104,296 C104,296,114,296,134,296" fill="none" marker-end="url(#incontextof_arrow)" stroke="black" stroke-width="1"/>
<path class="gsnedge gsninctxt" d="M330,296 C330,296,320,296,300,296" fill="none" marker-end="url(#incontextof_arrow)" stroke="black" stroke-width="1"/>
<path class="gsnedge gsninspby" d="M242,214 C242,244,62,238,62,258" fill="none" marker-end="url(#supportedby_arrow)" stroke="black" stroke-width="1"/>
<path class="gsnedge gsninspby" d="M242,214 C242,244,423,226,423,246" fill="none" marker-end="url(#supportedby_arrow)" stroke="black" stroke-width="1"/>
</svg>