<svg viewBox="0 0 704 344" xmlns="http://www.w3.org/2000/svg" xmlns:xlink="http://www.w3.org/1999/xlink">
<symbol id="module_icon" viewbox="0 0 20 20">
<rect fill="lightgrey" height="5" stroke="black" stroke-width="1" width="10" x="0" y="0"/>
<rect fill="lightgrey" height="10" stroke="black" stroke-width="1" width="20" x="0" y="5"/>
</symbol>
<marker id="composite_arrow" markerHeight="20" markerUnits="users_posaceOnUse" markerWidth="20" orient="auto" refX="20" refY="10">
<polyline fill="none" points="0 0, 10 10, 0 20" stroke="black" stroke-width="1"/>
<polyline fill="none" points="10 0, 20 10, 10 20" stroke="black" stroke-width="1"/>
</marker>
<marker id="supportedby_arrow" markerHeight="9" markerUnits="users_posaceOnUse" markerWidth="10" orient="auto" refX="0" refY="4.5">
<polyline fill="black" points="0 0, 10 4.5, 0 9"/>
</marker>
<marker id="incontextof_arrow" markerHeight="9" markerUnits="users_posaceOnUse" markerWidth="10" orient="auto" refX="0" refY="4.5">
<polyline fill="none" points="0 0, 10 4.5, 0 9, 0 0" stroke="black" stroke-width="1"/>
</marker>
<g class="gsnelem gsngoal" id="node_G1">
<title>
G1
</title>
<path class="border" d="M300,20 L384,20 L384,70 L300,70 z" fill="none" stroke="black" stroke-width="1"/>
<text font-family="AppleSystemUIFont" font-size="12" font-weight="bold" x="307" y="41">
G1
</text>
<text font-family="AppleSystemUIFont" font-size="12" textLength="51" x="307" y="61">
Main Goal
</text>
</g>
<g class="gsnelem gsnstgy" id="node_S1">
<title>
S1
</title>
<path class="border" d="M285,111 L414,111 L399,161 L270,161 z" fill="none" stroke="black" stroke-width="1"/>
<text font-family="AppleSystemUIFont" font-size="12" font-weight="bold" x="292" y="132">
S1
</text>
<text font-family="AppleSystemUIFont" font-size="12" textLength="101" x="277" y="152">
Divide and Conquer
</text>
</g>
<g class="gsnelem gsngoal" id="node_G2">
<title>
G2
</title>
<path class="border" d="M20,215 L104,215 L104,271 L20,271 z" fill="none" stroke="black" stroke-width="1"/>
<text font-family="AppleSystemUIFont" font-size="12" font-weight="bold" x="27" y="236">
G2
</text>
<text font-family="AppleSystemUIFont" font-size="12" textLength="31" x="27" y="256">
Divide
</text>
<path d="M62,271 l5,5 l-5,5 l-5,-5 z" fill="none" stroke="black" stroke-width="1"/>
</g>
<g class="gsnelem gsnjust" id="node_J1">
<title>
J1
</title>
<ellipse class="border" cx="609" cy="243" fill="none" rx="55" ry="41" stroke="black" stroke-width="1"/>
<text font-family="AppleSystemUIFont" font-size="12" font-weight="bold" x="573" y="232">
J1
</text>
<text font-family="AppleSystemUIFont" font-size="12" font-weight="bold" x="659" y="279">
J
</text>
<text font-family="AppleSystemUIFont" font-size="12" textLength="72" x="573" y="252">
Some Context
</text>
</g>
<g class="gsnelem gsnawaygoal" id="node_G3">
<title>
G3
</title>
<rect fill="none" height="28" stroke="black" stroke-width="1" width="221" x="294" y="254"/>
<text font-family="AppleSystemUIFont" font-size="12" font-weight="bold" textLength="180" x="328" y="275">
examples_modular_sub1_gsn_yaml
</text>
<path class="border" d="M294,254 V204 H514 V254" fill="none" stroke="black" stroke-width="1"/>
<text font-family="AppleSystemUIFont" font-size="12" font-weight="bold" x="301" y="225">
G3
</text>
<use href="#module_icon" x="301" y="261"/>
<text font-family="AppleSystemUIFont" font-size="12" textLength="128" x="301" y="245">
Conquer the submodules
</text>
</g>
<g class="gsnelem gsnjust" id="node_J1">
<title>
J1
</title>
<ellipse class="border" cx="609" cy="243" fill="none" rx="55" ry="41" stroke="black" stroke-width="1"/>
<text font-family="AppleSystemUIFont" font-size="12" font-weight="bold" x="573" y="232">
J1
</text>
<text font-family="AppleSystemUIFont" font-size="12" font-weight="bold" x="659" y="279">
J
</text>
<text font-family="AppleSystemUIFont" font-size="12" textLength="72" x="573" y="252">
Some Context
</text>
</g>
<path class="gsnedge gsninctxt" d="M342,70 C342,100,342,81,342,101" fill="none" marker-end="url(#supportedby_arrow)" stroke="black" stroke-width="1"/>
<path class="gsnedge gsnspby" d="M104,243 C104,243,524,243,544,243" fill="none" marker-end="url(#incontextof_arrow)" stroke="black" stroke-width="1"/>
<path class="gsnedge gsnspby" d="M514,243 C514,243,524,243,544,243" fill="none" marker-end="url(#incontextof_arrow)" stroke="black" stroke-width="1"/>
<path class="gsnedge gsninctxt" d="M342,161 C342,191,62,185,62,205" fill="none" marker-end="url(#supportedby_arrow)" stroke="black" stroke-width="1"/>
<path class="gsnedge gsninctxt" d="M342,161 C342,191,404,174,404,194" fill="none" marker-end="url(#supportedby_arrow)" stroke="black" stroke-width="1"/>
</svg>