<?xml version="1.0" encoding="UTF-8"?>
<svg classes="gsndiagram" viewBox="0 0 1301 350" xmlns="http://www.w3.org/2000/svg">
<symbol id="module_icon">
<rect fill="lightgrey" height="5" stroke="black" stroke-width="1" width="10" x="0" y="0"/>
<rect fill="lightgrey" height="10" stroke="black" stroke-width="1" width="20" x="0" y="5"/>
</symbol>
<marker id="composite_arrow" markerHeight="9" markerUnits="userSpaceOnUse" markerWidth="10" orient="auto-start-reverse" refX="0" refY="4.5">
<polyline fill="none" points="0 0, 6 4.5, 0 9" stroke="black" stroke-width="1"/>
<polyline fill="none" points="4 0, 10 4.5, 4 9" stroke="black" stroke-width="1"/>
<polyline fill="none" points="0 4.5, 10 4.5" stroke="black" stroke-width="1"/>
</marker>
<marker id="supportedby_arrow" markerHeight="9" markerUnits="userSpaceOnUse" markerWidth="10" orient="auto-start-reverse" refX="0" refY="4.5">
<polyline fill="black" points="0 0, 10 4.5, 0 9"/>
</marker>
<marker id="incontextof_arrow" markerHeight="9" markerUnits="userSpaceOnUse" markerWidth="10" orient="auto-start-reverse" refX="0" refY="4.5">
<polyline fill="none" points="0 0, 10 4.5, 0 9, 0 0" stroke="black" stroke-width="1"/>
</marker>
<style>
@import url(https://github.com/jonasthewolf/gsn2x/blob/3439402d093ba54af4771b295e78f2488bd1b978/examples/modular/modular.css)
</style>
<g class="gsn_module_Main gsnelem gsngoal" id="node_G1">
<g class="gsn_module_Main gsnelem gsngoal" id="node_G1">
<title>
G1
</title>
<path class="border" d="M554,48 L658,48 L658,94 L554,94 z" fill="none" stroke="black" stroke-width="1"/>
<text font-family="Arial" font-size="12" font-weight="bold" x="561" y="67">
G1
</text>
<text font-family="Arial" font-size="12" x="561" y="84">
Main Goal
</text>
</g>
</g>
<a href="./sub1.gsn.svg#node_A1">
<g class="gsn_module_Sub1 gsnelem gsnawayasmp" id="node_A1"/>
<g class="gsn_module_Sub1 gsnelem gsnawayasmp" id="node_A1">
<title>
A1
</title>
<path class="border" d="M698,94 V41 A42,21,0,0,1,782,41 V94" fill="none" stroke="black" stroke-width="1"/>
<text font-family="Arial" font-size="12" font-weight="bold" x="705" y="60">
A1
</text>
<text font-family="Arial" font-size="12" x="705" y="77">
TestABC
</text>
<a href="./sub1.gsn.svg#node_A1">
<rect fill="none" height="28" stroke="black" stroke-width="1" width="84" x="698" y="94"/>
<text font-family="Arial" font-size="12" font-weight="bold" x="732" y="115">
Sub1
</text>
</a>
<use href="#module_icon" x="705" y="101"/>
<text font-family="Arial" font-size="12" font-weight="bold" x="775" y="20">
A
</text>
</g>
</a>
<g class="gsn_module_Main gsnelem gsnstgy" id="node_S1">
<g class="gsn_module_Main gsnelem gsnstgy" id="node_S1">
<title>
S1
</title>
<path class="border" d="M724,162 L858,162 L844,208 L710,208 z" fill="none" stroke="black" stroke-width="1"/>
<text font-family="Arial" font-size="12" font-weight="bold" x="732" y="181">
S1
</text>
<text font-family="Arial" font-size="12" x="732" y="198">
Divide and Conquer
</text>
</g>
</g>
<g class="gsn_module_Main gsnelem gsngoal gsn_undeveloped" id="node_G2">
<g class="gsn_module_Main gsnelem gsngoal gsn_undeveloped" id="node_G2">
<title>
G2
</title>
<path class="border" d="M732,262 L836,262 L836,314 L732,314 z" fill="none" stroke="black" stroke-width="1"/>
<text font-family="Arial" font-size="12" font-weight="bold" x="739" y="281">
G2
</text>
<text font-family="Arial" font-size="12" x="739" y="298">
Divide
</text>
<path d="M784,314 l5,5 l-5,5 l-5,-5 z" fill="none" stroke="black" stroke-width="1"/>
</g>
</g>
<g class="gsn_module_Main gsnelem gsnjust" id="node_J1">
<g class="gsn_module_Main gsnelem gsnjust" id="node_J1">
<title>
J1
</title>
<path class="border" d="M876,288 a72,37,0,1,0,145,0 a72,37,0,1,0,-145,0 z" fill="none" stroke="black" stroke-width="1"/>
<text font-family="Arial" font-size="12" font-weight="bold" x="907" y="279">
J1
</text>
<text font-family="Arial" font-size="12" x="907" y="296">
Some Context
</text>
<text font-family="Arial" font-size="12" font-weight="bold" x="1015" y="320">
J
</text>
</g>
</g>
<a href="./sub1.gsn.svg#node_G3">
<g class="gsn_module_Sub1 gsnelem gsnawaygoal" id="node_G3"/>
<g class="gsn_module_Sub1 gsnelem gsnawaygoal" id="node_G3">
<title>
G3
</title>
<path class="border" d="M1060,300 V248 H1220 V300" fill="none" stroke="black" stroke-width="1"/>
<text font-family="Arial" font-size="12" font-weight="bold" x="1067" y="267">
G3
</text>
<text font-family="Arial" font-size="12" x="1067" y="284">
Conquer the submodules
</text>
<a href="./sub1.gsn.svg#node_G3">
<rect fill="none" height="28" stroke="black" stroke-width="1" width="161" x="1060" y="300"/>
<text font-family="Arial" font-size="12" font-weight="bold" x="1094" y="321">
Sub1
</text>
</a>
<use href="#module_icon" x="1067" y="307"/>
</g>
</a>
<path class="gsnedge gsninctxt" d="M658,71 C658,71,668,71,688,71" fill="none" marker-end="url(#incontextof_arrow)" stroke="black" stroke-width="1"/>
<path class="gsnedge gsninspby" d="M606,94 C606,124,784,132,784,152" fill="none" marker-end="url(#supportedby_arrow)" stroke="black" stroke-width="1"/>
<path class="gsnedge gsninctxt" d="M836,288 C836,288,846,288,866,288" fill="none" marker-end="url(#incontextof_arrow)" stroke="black" stroke-width="1"/>
<path class="gsnedge gsninctxt" d="M1060,288 C1060,288,1050,288,1030,288" fill="none" marker-end="url(#incontextof_arrow)" stroke="black" stroke-width="1"/>
<path class="gsnedge gsninspby" d="M784,208 C784,238,784,232,784,252" fill="none" marker-end="url(#supportedby_arrow)" stroke="black" stroke-width="1"/>
<path class="gsnedge gsninspby" d="M784,208 C784,238,1140,218,1140,238" fill="none" marker-end="url(#supportedby_arrow)" stroke="black" stroke-width="1"/>
</svg>