<?xml version="1.0" encoding="UTF-8"?>
<svg viewBox="0 0 24987 353" xmlns="http://www.w3.org/2000/svg">
<symbol id="module_icon">
<rect fill="lightgrey" height="5" stroke="black" stroke-width="1" width="10" x="0" y="0"/>
<rect fill="lightgrey" height="10" stroke="black" stroke-width="1" width="20" x="0" y="5"/>
</symbol>
<marker id="composite_arrow" markerHeight="9" markerUnits="userSpaceOnUse" markerWidth="10" orient="auto-start-reverse" refX="0" refY="4.5">
<polyline fill="none" points="0 0, 6 4.5, 0 9" stroke="black" stroke-width="1"/>
<polyline fill="none" points="4 0, 10 4.5, 4 9" stroke="black" stroke-width="1"/>
<polyline fill="none" points="0 4.5, 10 4.5" stroke="black" stroke-width="1"/>
</marker>
<marker id="supportedby_arrow" markerHeight="9" markerUnits="userSpaceOnUse" markerWidth="10" orient="auto-start-reverse" refX="0" refY="4.5">
<polyline fill="black" points="0 0, 10 4.5, 0 9"/>
</marker>
<marker id="incontextof_arrow" markerHeight="9" markerUnits="userSpaceOnUse" markerWidth="10" orient="auto-start-reverse" refX="0" refY="4.5">
<polyline fill="none" points="0 0, 10 4.5, 0 9, 0 0" stroke="black" stroke-width="1"/>
</marker>
<style>
@import ("modular.css")
</style>
<g class="gsnelem gsngoal gsn_module_Main" id="node_G1">
<title>
G1
</title>
<path class="border" d="M24292,45 L24376,45 L24376,95 L24292,95 z" fill="none" stroke="black" stroke-width="1"/>
<text font-family="Arial" font-size="12" font-weight="bold" textLength="16" x="24299" y="66">
G1
</text>
<text font-family="Arial" font-size="12" textLength="59" x="24299" y="86">
Main Goal
</text>
</g>
<g class="gsnelem gsnawayasmp gsn_module_Sub1" id="node_A1">
<title>
A1
</title>
<a href="./sub1.gsn.svg#node_A1">
<rect fill="none" height="28" stroke="black" stroke-width="1" width="84" x="24416" y="92"/>
<text font-family="Arial" font-size="12" font-weight="bold" textLength="25" x="24450" y="113">
Sub1
</text>
</a>
<path class="border" d="M24416,92 V41 A42,21,0,0,1,24500,41 V92" fill="none" stroke="black" stroke-width="1"/>
<text font-family="Arial" font-size="12" font-weight="bold" textLength="15" x="24423" y="62">
A1
</text>
<use href="#module_icon" x="24423" y="99"/>
<text font-family="Arial" font-size="12" font-weight="bold" x="24493" y="20">
A
</text>
<text font-family="Arial" font-size="12" textLength="44" x="24423" y="82">
TestABC
</text>
</g>
<g class="gsnelem gsnstgy gsn_module_Main" id="node_S1">
<title>
S1
</title>
<path class="border" d="M24432,160 L24579,160 L24564,210 L24417,210 z" fill="none" stroke="black" stroke-width="1"/>
<text font-family="Arial" font-size="12" font-weight="bold" textLength="15" x="24439" y="181">
S1
</text>
<text font-family="Arial" font-size="12" textLength="118" x="24424" y="201">
Divide and Conquer
</text>
</g>
<g class="gsnelem gsngoal gsn_module_Main" id="node_G2">
<title>
G2
</title>
<path class="border" d="M24456,263 L24540,263 L24540,319 L24456,319 z" fill="none" stroke="black" stroke-width="1"/>
<text font-family="Arial" font-size="12" font-weight="bold" textLength="16" x="24463" y="284">
G2
</text>
<text font-family="Arial" font-size="12" textLength="32" x="24463" y="304">
Divide
</text>
<path d="M24498,319 l5,5 l-5,5 l-5,-5 z" fill="none" stroke="black" stroke-width="1"/>
</g>
<g class="gsnelem gsnjust gsn_module_Main" id="node_J1">
<title>
J1
</title>
<ellipse class="border" cx="24643" cy="291" fill="none" rx="63" ry="41" stroke="black" stroke-width="1"/>
<text font-family="Arial" font-size="12" font-weight="bold" textLength="13" x="24602" y="280">
J1
</text>
<text font-family="Arial" font-size="12" font-weight="bold" x="24701" y="327">
J
</text>
<text font-family="Arial" font-size="12" textLength="83" x="24602" y="300">
Some Context
</text>
</g>
<g class="gsnelem gsnawaygoal gsn_module_Sub1" id="node_G3">
<title>
G3
</title>
<a href="./sub1.gsn.svg#node_G3">
<rect fill="none" height="28" stroke="black" stroke-width="1" width="161" x="24746" y="302"/>
<text font-family="Arial" font-size="12" font-weight="bold" textLength="25" x="24780" y="323">
Sub1
</text>
</a>
<path class="border" d="M24746,302 V252 H24906 V302" fill="none" stroke="black" stroke-width="1"/>
<text font-family="Arial" font-size="12" font-weight="bold" textLength="16" x="24753" y="273">
G3
</text>
<use href="#module_icon" x="24753" y="309"/>
<text font-family="Arial" font-size="12" textLength="147" x="24753" y="293">
Conquer the submodules
</text>
</g>
<path class="gsnedge gsninctxt" d="M24376,70 C24376,70,24386,70,24406,70" fill="none" marker-end="url(#incontextof_arrow)" stroke="black" stroke-width="1"/>
<path class="gsnedge gsninspby" d="M24334,95 C24334,125,24498,130,24498,150" fill="none" marker-end="url(#supportedby_arrow)" stroke="black" stroke-width="1"/>
<path class="gsnedge gsninctxt" d="M24540,291 C24540,291,24550,291,24570,291" fill="none" marker-end="url(#incontextof_arrow)" stroke="black" stroke-width="1"/>
<path class="gsnedge gsninctxt" d="M24746,291 C24746,291,24736,291,24716,291" fill="none" marker-end="url(#incontextof_arrow)" stroke="black" stroke-width="1"/>
<path class="gsnedge gsninspby" d="M24498,210 C24498,240,24498,233,24498,253" fill="none" marker-end="url(#supportedby_arrow)" stroke="black" stroke-width="1"/>
<path class="gsnedge gsninspby" d="M24498,210 C24498,240,24826,222,24826,242" fill="none" marker-end="url(#supportedby_arrow)" stroke="black" stroke-width="1"/>
</svg>