<?xml version="1.0" encoding="UTF-8"?>
<svg viewBox="0 0 551 353" xmlns="http://www.w3.org/2000/svg">
<symbol id="module_icon">
<rect fill="lightgrey" height="5" stroke="black" stroke-width="1" width="10" x="0" y="0"/>
<rect fill="lightgrey" height="10" stroke="black" stroke-width="1" width="20" x="0" y="5"/>
</symbol>
<marker id="composite_arrow" markerHeight="9" markerUnits="userSpaceOnUse" markerWidth="10" orient="auto-start-reverse" refX="0" refY="4.5">
<polyline fill="none" points="0 0, 6 4.5, 0 9" stroke="black" stroke-width="1"/>
<polyline fill="none" points="4 0, 10 4.5, 4 9" stroke="black" stroke-width="1"/>
<polyline fill="none" points="0 4.5, 10 4.5" stroke="black" stroke-width="1"/>
</marker>
<marker id="supportedby_arrow" markerHeight="9" markerUnits="userSpaceOnUse" markerWidth="10" orient="auto-start-reverse" refX="0" refY="4.5">
<polyline fill="black" points="0 0, 10 4.5, 0 9"/>
</marker>
<marker id="incontextof_arrow" markerHeight="9" markerUnits="userSpaceOnUse" markerWidth="10" orient="auto-start-reverse" refX="0" refY="4.5">
<polyline fill="none" points="0 0, 10 4.5, 0 9, 0 0" stroke="black" stroke-width="1"/>
</marker>
<style>
@import ("modular.css")
</style>
<g class="gsnelem gsngoal gsn_module_Main" id="node_G1">
<title>
G1
</title>
<path class="border" d="M184,45 L268,45 L268,95 L184,95 z" fill="none" stroke="black" stroke-width="1"/>
<text font-family="Arial" font-size="12" font-weight="bold" textLength="16" x="191" y="66">
G1
</text>
<text font-family="Arial" font-size="12" textLength="59" x="191" y="86">
Main Goal
</text>
</g>
<g class="gsnelem gsnawayasmp gsn_module_Sub1" id="node_A1">
<title>
A1
</title>
<a href="./sub1.gsn.svg#node_A1">
<rect fill="none" height="28" stroke="black" stroke-width="1" width="84" x="308" y="92"/>
<text font-family="Arial" font-size="12" font-weight="bold" textLength="25" x="342" y="113">
Sub1
</text>
</a>
<path class="border" d="M308,92 V41 A42,21,0,0,1,392,41 V92" fill="none" stroke="black" stroke-width="1"/>
<text font-family="Arial" font-size="12" font-weight="bold" textLength="15" x="315" y="62">
A1
</text>
<use href="#module_icon" x="315" y="99"/>
<text font-family="Arial" font-size="12" font-weight="bold" x="385" y="20">
A
</text>
<text font-family="Arial" font-size="12" textLength="44" x="315" y="82">
TestABC
</text>
</g>
<g class="gsnelem gsnstgy gsn_module_Main" id="node_S1">
<title>
S1
</title>
<path class="border" d="M160,160 L307,160 L292,210 L145,210 z" fill="none" stroke="black" stroke-width="1"/>
<text font-family="Arial" font-size="12" font-weight="bold" textLength="15" x="167" y="181">
S1
</text>
<text font-family="Arial" font-size="12" textLength="118" x="152" y="201">
Divide and Conquer
</text>
</g>
<g class="gsnelem gsngoal gsn_module_Main" id="node_G2">
<title>
G2
</title>
<path class="border" d="M20,263 L104,263 L104,319 L20,319 z" fill="none" stroke="black" stroke-width="1"/>
<text font-family="Arial" font-size="12" font-weight="bold" textLength="16" x="27" y="284">
G2
</text>
<text font-family="Arial" font-size="12" textLength="32" x="27" y="304">
Divide
</text>
<path d="M62,319 l5,5 l-5,5 l-5,-5 z" fill="none" stroke="black" stroke-width="1"/>
</g>
<g class="gsnelem gsnjust gsn_module_Main" id="node_J1">
<title>
J1
</title>
<ellipse class="border" cx="207" cy="291" fill="none" rx="63" ry="41" stroke="black" stroke-width="1"/>
<text font-family="Arial" font-size="12" font-weight="bold" textLength="13" x="166" y="280">
J1
</text>
<text font-family="Arial" font-size="12" font-weight="bold" x="265" y="327">
J
</text>
<text font-family="Arial" font-size="12" textLength="83" x="166" y="300">
Some Context
</text>
</g>
<g class="gsnelem gsnawaygoal gsn_module_Sub1" id="node_G3">
<title>
G3
</title>
<a href="./sub1.gsn.svg#node_G3">
<rect fill="none" height="28" stroke="black" stroke-width="1" width="161" x="310" y="302"/>
<text font-family="Arial" font-size="12" font-weight="bold" textLength="25" x="344" y="323">
Sub1
</text>
</a>
<path class="border" d="M310,302 V252 H470 V302" fill="none" stroke="black" stroke-width="1"/>
<text font-family="Arial" font-size="12" font-weight="bold" textLength="16" x="317" y="273">
G3
</text>
<use href="#module_icon" x="317" y="309"/>
<text font-family="Arial" font-size="12" textLength="147" x="317" y="293">
Conquer the submodules
</text>
</g>
<path class="gsnedge gsninctxt" d="M268,70 C268,70,278,70,298,70" fill="none" marker-end="url(#incontextof_arrow)" stroke="black" stroke-width="1"/>
<path class="gsnedge gsninspby" d="M226,95 C226,125,226,130,226,150" fill="none" marker-end="url(#supportedby_arrow)" stroke="black" stroke-width="1"/>
<path class="gsnedge gsninctxt" d="M104,291 C104,291,114,291,134,291" fill="none" marker-end="url(#incontextof_arrow)" stroke="black" stroke-width="1"/>
<path class="gsnedge gsninctxt" d="M310,291 C310,291,300,291,280,291" fill="none" marker-end="url(#incontextof_arrow)" stroke="black" stroke-width="1"/>
<path class="gsnedge gsninspby" d="M226,210 C226,240,62,233,62,253" fill="none" marker-end="url(#supportedby_arrow)" stroke="black" stroke-width="1"/>
<path class="gsnedge gsninspby" d="M226,210 C226,240,390,222,390,242" fill="none" marker-end="url(#supportedby_arrow)" stroke="black" stroke-width="1"/>
</svg>