<?xml version="1.0" encoding="UTF-8"?>
<svg classes="gsndiagram" viewBox="0 0 579 429" xmlns="http://www.w3.org/2000/svg">
<symbol id="module_icon">
<rect fill="lightgrey" height="5" stroke="black" stroke-width="1" width="10" x="0" y="0"/>
<rect fill="lightgrey" height="10" stroke="black" stroke-width="1" width="20" x="0" y="5"/>
</symbol>
<marker id="composite_arrow" markerHeight="9" markerUnits="userSpaceOnUse" markerWidth="10" orient="auto-start-reverse" refX="0" refY="4.5">
<polyline fill="none" points="0 0, 6 4.5, 0 9" stroke="black" stroke-width="1"/>
<polyline fill="none" points="4 0, 10 4.5, 4 9" stroke="black" stroke-width="1"/>
<polyline fill="none" points="0 4.5, 10 4.5" stroke="black" stroke-width="1"/>
</marker>
<marker id="supportedby_arrow" markerHeight="9" markerUnits="userSpaceOnUse" markerWidth="10" orient="auto-start-reverse" refX="0" refY="4.5">
<polyline fill="black" points="0 0, 10 4.5, 0 9"/>
</marker>
<marker id="incontextof_arrow" markerHeight="9" markerUnits="userSpaceOnUse" markerWidth="10" orient="auto-start-reverse" refX="0" refY="4.5">
<polyline fill="none" points="0 0, 10 4.5, 0 9, 0 0" stroke="black" stroke-width="1"/>
</marker>
<style>
@import url(https://github.com/jonasthewolf/gsn2x/blob/3439402d093ba54af4771b295e78f2488bd1b978/examples/modular/modular.css)
</style>
<g class="gsn_module_Main gsnelem gsnstgy" id="node_S1">
<title>
S1
</title>
<path class="border" d="M164,37 L298,37 L284,83 L150,83 z" fill="none" stroke="black" stroke-width="1"/>
<text font-family="Arial" font-size="12" font-weight="bold" x="172" y="56">
S1
</text>
<text font-family="Arial" font-size="12" x="172" y="73">
Divide and Conquer
</text>
</g>
<g class="gsn_module_Sub1 gsnelem gsnasmp" id="node_A1">
<title>
A1
</title>
<path class="border" d="M331,60 a41,33,0,1,0,82,0 a41,33,0,1,0,-82,0 z" fill="none" stroke="black" stroke-width="1"/>
<text font-family="Arial" font-size="12" font-weight="bold" x="350" y="51">
A1
</text>
<text font-family="Arial" font-size="12" x="350" y="68">
TestABC
</text>
<text font-family="Arial" font-size="12" font-weight="bold" x="408" y="88">
A
</text>
</g>
<a href="./main.gsn.svg#node_G1">
<g class="gsn_module_Main gsnelem gsnawaygoal" id="node_G1">
<title>
G1
</title>
<path class="border" d="M453,72 V20 H537 V72" fill="transparent" stroke="black" stroke-width="1"/>
<text font-family="Arial" font-size="12" font-weight="bold" x="460" y="39">
G1
</text>
<text font-family="Arial" font-size="12" x="460" y="56">
Main Goal
</text>
<a href="./main.gsn.svg#node_G1">
<path class="border" d="M453,72 h84 v28 h-84 z" fill="transparent" stroke="black" stroke-width="1"/>
<text font-family="Arial" font-size="12" font-weight="bold" x="487" y="93">
Main
</text>
</a>
<use href="#module_icon" x="460" y="79"/>
</g>
</a>
<a href="./sub3.gsn.svg#node_C2">
<g class="gsn_module_Sub3 gsnelem gsnawayctxt" id="node_C2">
<title>
C2
</title>
<path class="border" d="M20,208 V156 C20,152,24,148,28,148 h68 C100,148,104,152,104,156 V208" fill="transparent" stroke="black" stroke-width="1"/>
<text font-family="Arial" font-size="12" font-weight="bold" x="27" y="175">
C2
</text>
<text font-family="Arial" font-size="12" x="27" y="192">
Context 2
</text>
<a href="./sub3.gsn.svg#node_C2">
<path class="border" d="M20,208 h84 v28 h-84 z" fill="transparent" stroke="black" stroke-width="1"/>
<text font-family="Arial" font-size="12" font-weight="bold" x="54" y="229">
Sub3
</text>
</a>
<use href="#module_icon" x="27" y="215"/>
</g>
</a>
<g class="gsn_module_Sub1 gsnelem gsngoal" id="node_G3">
<title>
G3
</title>
<path class="border" d="M144,169 L304,169 L304,215 L144,215 z" fill="none" stroke="black" stroke-width="1"/>
<text font-family="Arial" font-size="12" font-weight="bold" x="151" y="188">
G3
</text>
<text font-family="Arial" font-size="12" x="151" y="205">
Conquer the submodules
</text>
</g>
<a href="./main.gsn.svg#node_J1">
<g class="gsn_module_Main gsnelem gsnawayjust" id="node_J1">
<title>
J1
</title>
<path class="border" d="M344,216 V164 A48,24,0,0,1,440,164 V216" fill="transparent" stroke="black" stroke-width="1"/>
<text font-family="Arial" font-size="12" font-weight="bold" x="351" y="183">
J1
</text>
<text font-family="Arial" font-size="12" x="351" y="200">
Some Context
</text>
<a href="./main.gsn.svg#node_J1">
<path class="border" d="M344,216 h97 v28 h-97 z" fill="transparent" stroke="black" stroke-width="1"/>
<text font-family="Arial" font-size="12" font-weight="bold" x="378" y="237">
Main
</text>
</a>
<use href="#module_icon" x="351" y="223"/>
<text font-family="Arial" font-size="12" font-weight="bold" x="433" y="140">
J
</text>
</g>
</a>
<a href="./sub3.gsn.svg#node_Sn1">
<g class="gsn_module_Sub3 gsnelem gsnawaysltn" id="node_Sn1">
<title>
Sn1
</title>
<path class="border" d="M182,378 V326 A42,42,0,0,1,266,326 V378" fill="transparent" stroke="black" stroke-width="1"/>
<text font-family="Arial" font-size="12" font-weight="bold" x="189" y="345">
Sn1
</text>
<text font-family="Arial" font-size="12" x="189" y="362">
Solution 1
</text>
<a href="./sub3.gsn.svg#node_Sn1">
<path class="border" d="M182,378 h84 v28 h-84 z" fill="transparent" stroke="black" stroke-width="1"/>
<text font-family="Arial" font-size="12" font-weight="bold" x="216" y="399">
Sub3
</text>
</a>
<use href="#module_icon" x="189" y="385"/>
</g>
</a>
<path class="gsnedge gsninctxt" d="M453,60 C423,60,443,60,423,60" fill="none" marker-end="url(#incontextof_arrow)" stroke="black" stroke-width="1"/>
<path class="gsnedge gsninctxt" d="M304,192 C334,192,314,192,334,192" fill="none" marker-end="url(#incontextof_arrow)" stroke="black" stroke-width="1"/>
<path class="gsnedge gsninctxt" d="M144,192 C114,192,134,192,114,192" fill="none" marker-end="url(#incontextof_arrow)" stroke="black" stroke-width="1"/>
<path class="gsnedge gsninspby" d="M224,215 C224,245,224,254,224,274" fill="none" marker-end="url(#supportedby_arrow)" stroke="black" stroke-width="1"/>
<path class="gsnedge gsninspby" d="M224,83 C224,113,224,139,224,159" fill="none" marker-end="url(#supportedby_arrow)" stroke="black" stroke-width="1"/>
</svg>