<svg viewBox="0 0 452 313" xmlns="http://www.w3.org/2000/svg" xmlns:xlink="http://www.w3.org/1999/xlink">
<symbol id="module_icon" viewbox="0 0 20 20">
<rect fill="lightgrey" height="5" stroke="black" stroke-width="1" width="10" x="0" y="0"/>
<rect fill="lightgrey" height="10" stroke="black" stroke-width="1" width="20" x="0" y="5"/>
</symbol>
<marker id="composite_arrow" markerHeight="20" markerUnits="users_posaceOnUse" markerWidth="20" orient="auto" refX="20" refY="10">
<polyline fill="none" points="0 0, 10 10, 0 20" stroke="black" stroke-width="1"/>
<polyline fill="none" points="10 0, 20 10, 10 20" stroke="black" stroke-width="1"/>
</marker>
<marker id="supportedby_arrow" markerHeight="9" markerUnits="users_posaceOnUse" markerWidth="10" orient="auto" refX="0" refY="4.5">
<polyline fill="black" points="0 0, 10 4.5, 0 9"/>
</marker>
<marker id="incontextof_arrow" markerHeight="9" markerUnits="users_posaceOnUse" markerWidth="10" orient="auto" refX="0" refY="4.5">
<polyline fill="none" points="0 0, 10 4.5, 0 9, 0 0" stroke="black" stroke-width="1"/>
</marker>
<g class="gsnelem gsnstgy" id="node_S1">
<title>
S1
</title>
<path class="border" d="M159,20 L288,20 L273,70 L144,70 z" fill="none" stroke="black" stroke-width="1"/>
<text font-family="AppleSystemUIFont" font-size="12" font-weight="bold" x="166" y="41">
S1
</text>
<text font-family="AppleSystemUIFont" font-size="12" textLength="101" x="151" y="61">
Divide and Conquer
</text>
</g>
<g class="gsnelem gsnawayctxt" id="node_C2">
<title>
C2
</title>
<path class="border" d="M20,111 L104,111 L104,161 L20,161 z" fill="none" stroke="black" stroke-width="1"/>
<text font-family="AppleSystemUIFont" font-size="12" font-weight="bold" x="27" y="132">
C2
</text>
<use href="#module_icon" x="30" y="101"/>
<text font-family="AppleSystemUIFont" font-size="12" textLength="49" x="27" y="152">
Context 2
</text>
</g>
<g class="gsnelem gsngoal" id="node_G3">
<title>
G3
</title>
<path class="border" d="M144,111 L286,111 L286,161 L144,161 z" fill="none" stroke="black" stroke-width="1"/>
<text font-family="AppleSystemUIFont" font-size="12" font-weight="bold" x="151" y="132">
G3
</text>
<text font-family="AppleSystemUIFont" font-size="12" textLength="128" x="151" y="152">
Conquer the submodules
</text>
</g>
<g class="gsnelem gsnawayctxt" id="node_C1">
<title>
C1
</title>
<path class="border" d="M326,111 L412,111 L412,161 L326,161 z" fill="none" stroke="black" stroke-width="1"/>
<text font-family="AppleSystemUIFont" font-size="12" font-weight="bold" x="333" y="132">
C1
</text>
<use href="#module_icon" x="336" y="101"/>
<text font-family="AppleSystemUIFont" font-size="12" textLength="72" x="333" y="152">
Some Context
</text>
</g>
<g class="gsnelem gsnawaysltn" id="node_Sn1">
<title>
Sn1
</title>
<path class="border" d="M174,202 L258,202 L258,252 L174,252 z" fill="none" stroke="black" stroke-width="1"/>
<text font-family="AppleSystemUIFont" font-size="12" font-weight="bold" x="181" y="223">
Sn1
</text>
<use href="#module_icon" x="184" y="192"/>
<text font-family="AppleSystemUIFont" font-size="12" textLength="49" x="181" y="243">
Solution 1
</text>
</g>
<path class="gsnedge gsnspby" d="M286,136 C286,136,296,136,316,136" fill="none" marker-end="url(#incontextof_arrow)" stroke="black" stroke-width="1"/>
<path class="gsnedge gsnspby" d="M144,136 C144,136,134,136,114,136" fill="none" marker-end="url(#incontextof_arrow)" stroke="black" stroke-width="1"/>
<path class="gsnedge gsninctxt" d="M215,161 C215,191,216,172,216,192" fill="none" marker-end="url(#supportedby_arrow)" stroke="black" stroke-width="1"/>
<path class="gsnedge gsninctxt" d="M216,70 C216,100,215,81,215,101" fill="none" marker-end="url(#supportedby_arrow)" stroke="black" stroke-width="1"/>
</svg>