<svg viewBox="0 0 452 432" xmlns="http://www.w3.org/2000/svg" xmlns:xlink="http://www.w3.org/1999/xlink">
<symbol id="module_icon" viewbox="0 0 20 20">
<rect fill="lightgrey" height="5" stroke="black" stroke-width="1" width="10" x="0" y="0"/>
<rect fill="lightgrey" height="10" stroke="black" stroke-width="1" width="20" x="0" y="5"/>
</symbol>
<marker id="composite_arrow" markerHeight="9" markerUnits="users_posaceOnUse" markerWidth="10" orient="auto" refX="0" refY="4.5">
<polyline fill="none" points="0 0, 6 4.5, 0 9" stroke="black" stroke-width="1"/>
<polyline fill="none" points="4 0, 10 4.5, 4 9" stroke="black" stroke-width="1"/>
<polyline fill="none" points="0 4.5, 10 4.5" stroke="black" stroke-width="1"/>
</marker>
<marker id="supportedby_arrow" markerHeight="9" markerUnits="users_posaceOnUse" markerWidth="10" orient="auto" refX="0" refY="4.5">
<polyline fill="black" points="0 0, 10 4.5, 0 9"/>
</marker>
<marker id="incontextof_arrow" markerHeight="9" markerUnits="users_posaceOnUse" markerWidth="10" orient="auto" refX="0" refY="4.5">
<polyline fill="none" points="0 0, 10 4.5, 0 9, 0 0" stroke="black" stroke-width="1"/>
</marker>
<g class="gsnelem gsnstgy" id="node_S1">
<title>
S1
</title>
<path class="border" d="M159,20 L288,20 L273,70 L144,70 z" fill="none" stroke="black" stroke-width="1"/>
<text font-family="AppleSystemUIFont" font-size="12" font-weight="bold" textLength="12" x="166" y="41">
S1
</text>
<text font-family="AppleSystemUIFont" font-size="12" textLength="101" x="151" y="61">
Divide and Conquer
</text>
</g>
<g class="gsnelem gsnawayctxt" id="node_C2">
<title>
C2
</title>
<rect fill="none" height="28" stroke="black" stroke-width="1" width="84" x="20" y="176"/>
<text font-family="AppleSystemUIFont" font-size="12" font-weight="bold" textLength="26" x="54" y="197">
Sub3
</text>
<path class="border" d="M20,176 V126 C20,122,24,118,28,118 h68 C100,118,104,122,104,126 V176" fill="none" stroke="black" stroke-width="1"/>
<text font-family="AppleSystemUIFont" font-size="12" font-weight="bold" textLength="14" x="27" y="147">
C2
</text>
<use href="#module_icon" x="27" y="183"/>
<text font-family="AppleSystemUIFont" font-size="12" textLength="49" x="27" y="167">
Context 2
</text>
</g>
<g class="gsnelem gsngoal" id="node_G3">
<title>
G3
</title>
<path class="border" d="M144,136 L286,136 L286,186 L144,186 z" fill="none" stroke="black" stroke-width="1"/>
<text font-family="AppleSystemUIFont" font-size="12" font-weight="bold" textLength="15" x="151" y="157">
G3
</text>
<text font-family="AppleSystemUIFont" font-size="12" textLength="128" x="151" y="177">
Conquer the submodules
</text>
</g>
<g class="gsnelem gsnawayjust" id="node_J1">
<title>
J1
</title>
<rect fill="none" height="28" stroke="black" stroke-width="1" width="86" x="326" y="183"/>
<text font-family="AppleSystemUIFont" font-size="12" font-weight="bold" textLength="24" x="360" y="204">
Main
</text>
<path class="border" d="M326,183 V132 A43,21,0,0,1,412,132 V183" fill="none" stroke="black" stroke-width="1"/>
<text font-family="AppleSystemUIFont" font-size="12" font-weight="bold" textLength="11" x="333" y="153">
J1
</text>
<use href="#module_icon" x="333" y="190"/>
<text font-family="AppleSystemUIFont" font-size="12" font-weight="bold" x="405" y="125">
J
</text>
<text font-family="AppleSystemUIFont" font-size="12" textLength="72" x="333" y="173">
Some Context
</text>
</g>
<g class="gsnelem gsnawaysltn" id="node_Sn1">
<title>
Sn1
</title>
<rect fill="none" height="28" stroke="black" stroke-width="1" width="84" x="174" y="343"/>
<text font-family="AppleSystemUIFont" font-size="12" font-weight="bold" textLength="26" x="208" y="364">
Sub3
</text>
<path class="border" d="M174,343 V293 A42,42,0,0,1,258,293 V343" fill="none" stroke="black" stroke-width="1"/>
<text font-family="AppleSystemUIFont" font-size="12" font-weight="bold" textLength="18" x="181" y="314">
Sn1
</text>
<use href="#module_icon" x="181" y="350"/>
<text font-family="AppleSystemUIFont" font-size="12" textLength="49" x="181" y="334">
Solution 1
</text>
</g>
<path class="gsnedge gsnspby" d="M286,161 C286,161,296,161,316,161" fill="none" marker-end="url(#incontextof_arrow)" stroke="black" stroke-width="1"/>
<path class="gsnedge gsnspby" d="M144,161 C144,161,134,161,114,161" fill="none" marker-end="url(#incontextof_arrow)" stroke="black" stroke-width="1"/>
<path class="gsnedge gsninctxt" d="M215,186 C215,216,216,221,216,241" fill="none" marker-end="url(#supportedby_arrow)" stroke="black" stroke-width="1"/>
<path class="gsnedge gsninctxt" d="M216,70 C216,100,215,106,215,126" fill="none" marker-end="url(#supportedby_arrow)" stroke="black" stroke-width="1"/>
</svg>