<?xml version="1.0" encoding="UTF-8"?>
<svg viewBox="0 0 499 426" xmlns="http://www.w3.org/2000/svg">
<symbol id="module_icon">
<rect fill="lightgrey" height="5" stroke="black" stroke-width="1" width="10" x="0" y="0"/>
<rect fill="lightgrey" height="10" stroke="black" stroke-width="1" width="20" x="0" y="5"/>
</symbol>
<marker id="composite_arrow" markerHeight="9" markerUnits="userSpaceOnUse" markerWidth="10" orient="auto-start-reverse" refX="0" refY="4.5">
<polyline fill="none" points="0 0, 6 4.5, 0 9" stroke="black" stroke-width="1"/>
<polyline fill="none" points="4 0, 10 4.5, 4 9" stroke="black" stroke-width="1"/>
<polyline fill="none" points="0 4.5, 10 4.5" stroke="black" stroke-width="1"/>
</marker>
<marker id="supportedby_arrow" markerHeight="9" markerUnits="userSpaceOnUse" markerWidth="10" orient="auto-start-reverse" refX="0" refY="4.5">
<polyline fill="black" points="0 0, 10 4.5, 0 9"/>
</marker>
<marker id="incontextof_arrow" markerHeight="9" markerUnits="userSpaceOnUse" markerWidth="10" orient="auto-start-reverse" refX="0" refY="4.5">
<polyline fill="none" points="0 0, 10 4.5, 0 9, 0 0" stroke="black" stroke-width="1"/>
</marker>
<style>
@import ("modular.css")
</style>
<g class="gsnelem gsnawaygoal gsn_module_Main" id="node_G1">
<title>
G1
</title>
<a href="./main.gsn.svg#node_G1">
<rect fill="none" height="28" stroke="black" stroke-width="1" width="84" x="20" y="72"/>
<text font-family="Arial" font-size="12" font-weight="bold" textLength="23" x="54" y="93">
Main
</text>
</a>
<path class="border" d="M20,72 V22 H104 V72" fill="none" stroke="black" stroke-width="1"/>
<text font-family="Arial" font-size="12" font-weight="bold" textLength="16" x="27" y="43">
G1
</text>
<use href="#module_icon" x="27" y="79"/>
<text font-family="Arial" font-size="12" textLength="59" x="27" y="63">
Main Goal
</text>
</g>
<g class="gsnelem gsnasmp gsn_module_Sub1" id="node_A1">
<title>
A1
</title>
<ellipse class="border" cx="180" cy="61" fill="none" rx="36" ry="41" stroke="black" stroke-width="1"/>
<text font-family="Arial" font-size="12" font-weight="bold" textLength="15" x="158" y="50">
A1
</text>
<text font-family="Arial" font-size="12" font-weight="bold" x="211" y="97">
A
</text>
<text font-family="Arial" font-size="12" textLength="44" x="158" y="70">
TestABC
</text>
</g>
<g class="gsnelem gsnstgy gsn_module_Main" id="node_S1">
<title>
S1
</title>
<path class="border" d="M263,36 L425,36 L411,86 L249,86 z" fill="none" stroke="black" stroke-width="1"/>
<text font-family="Arial" font-size="12" font-weight="bold" textLength="15" x="271" y="57">
S1
</text>
<text font-family="Arial" font-size="12" textLength="118" x="271" y="77">
Divide and Conquer
</text>
</g>
<g class="gsnelem gsnawayctxt gsn_module_Sub3" id="node_C2">
<title>
C2
</title>
<a href="./sub3.gsn.svg#node_C2">
<rect fill="none" height="28" stroke="black" stroke-width="1" width="84" x="20" y="208"/>
<text font-family="Arial" font-size="12" font-weight="bold" textLength="25" x="54" y="229">
Sub3
</text>
</a>
<path class="border" d="M20,208 V158 C20,154,24,150,28,150 h68 C100,150,104,154,104,158 V208" fill="none" stroke="black" stroke-width="1"/>
<text font-family="Arial" font-size="12" font-weight="bold" textLength="15" x="27" y="179">
C2
</text>
<use href="#module_icon" x="27" y="215"/>
<text font-family="Arial" font-size="12" textLength="53" x="27" y="199">
Context 2
</text>
</g>
<g class="gsnelem gsngoal gsn_module_Sub1" id="node_G3">
<title>
G3
</title>
<path class="border" d="M144,168 L304,168 L304,218 L144,218 z" fill="none" stroke="black" stroke-width="1"/>
<text font-family="Arial" font-size="12" font-weight="bold" textLength="16" x="151" y="189">
G3
</text>
<text font-family="Arial" font-size="12" textLength="147" x="151" y="209">
Conquer the submodules
</text>
</g>
<g class="gsnelem gsnawayjust gsn_module_Main" id="node_J1">
<title>
J1
</title>
<a href="./main.gsn.svg#node_J1">
<rect fill="none" height="28" stroke="black" stroke-width="1" width="97" x="344" y="216"/>
<text font-family="Arial" font-size="12" font-weight="bold" textLength="23" x="378" y="237">
Main
</text>
</a>
<path class="border" d="M344,216 V166 A48,24,0,0,1,440,166 V216" fill="none" stroke="black" stroke-width="1"/>
<text font-family="Arial" font-size="12" font-weight="bold" textLength="13" x="351" y="187">
J1
</text>
<use href="#module_icon" x="351" y="223"/>
<text font-family="Arial" font-size="12" font-weight="bold" x="433" y="142">
J
</text>
<text font-family="Arial" font-size="12" textLength="83" x="351" y="207">
Some Context
</text>
</g>
<g class="gsnelem gsnawaysltn gsn_module_Sub3" id="node_Sn1">
<title>
Sn1
</title>
<a href="./sub3.gsn.svg#node_Sn1">
<rect fill="none" height="28" stroke="black" stroke-width="1" width="84" x="182" y="376"/>
<text font-family="Arial" font-size="12" font-weight="bold" textLength="25" x="216" y="397">
Sub3
</text>
</a>
<path class="border" d="M182,376 V326 A42,42,0,0,1,266,326 V376" fill="none" stroke="black" stroke-width="1"/>
<text font-family="Arial" font-size="12" font-weight="bold" textLength="25" x="189" y="347">
Sn1
</text>
<use href="#module_icon" x="189" y="383"/>
<text font-family="Arial" font-size="12" textLength="56" x="189" y="367">
Solution 1
</text>
</g>
<path class="gsnedge gsninctxt" d="M104,61 C104,61,114,61,134,61" fill="none" marker-end="url(#incontextof_arrow)" stroke="black" stroke-width="1"/>
<path class="gsnedge gsninctxt" d="M304,193 C304,193,314,193,334,193" fill="none" marker-end="url(#incontextof_arrow)" stroke="black" stroke-width="1"/>
<path class="gsnedge gsninctxt" d="M144,193 C144,193,134,193,114,193" fill="none" marker-end="url(#incontextof_arrow)" stroke="black" stroke-width="1"/>
<path class="gsnedge gsninspby" d="M224,218 C224,248,224,254,224,274" fill="none" marker-end="url(#supportedby_arrow)" stroke="black" stroke-width="1"/>
<path class="gsnedge gsninspby" d="M337,86 C337,116,224,138,224,158" fill="none" marker-end="url(#supportedby_arrow)" stroke="black" stroke-width="1"/>
</svg>