<?xml version="1.0" encoding="UTF-8"?>
<svg viewBox="0 0 489 429" xmlns="http://www.w3.org/2000/svg">
<symbol id="module_icon">
<rect fill="lightgrey" height="5" stroke="black" stroke-width="1" width="10" x="0" y="0"/>
<rect fill="lightgrey" height="10" stroke="black" stroke-width="1" width="20" x="0" y="5"/>
</symbol>
<marker id="composite_arrow" markerHeight="9" markerUnits="userSpaceOnUse" markerWidth="10" orient="auto-start-reverse" refX="0" refY="4.5">
<polyline fill="none" points="0 0, 6 4.5, 0 9" stroke="black" stroke-width="1"/>
<polyline fill="none" points="4 0, 10 4.5, 4 9" stroke="black" stroke-width="1"/>
<polyline fill="none" points="0 4.5, 10 4.5" stroke="black" stroke-width="1"/>
</marker>
<marker id="supportedby_arrow" markerHeight="9" markerUnits="userSpaceOnUse" markerWidth="10" orient="auto-start-reverse" refX="0" refY="4.5">
<polyline fill="black" points="0 0, 10 4.5, 0 9"/>
</marker>
<marker id="incontextof_arrow" markerHeight="9" markerUnits="userSpaceOnUse" markerWidth="10" orient="auto-start-reverse" refX="0" refY="4.5">
<polyline fill="none" points="0 0, 10 4.5, 0 9, 0 0" stroke="black" stroke-width="1"/>
</marker>
<style>
@import ("modular.css")
</style>
<g class="gsn_module_Main" id="node_G1">
<title>
G1
</title>
<path class="border" d="M20,72 V20 H104 V72" fill="none" stroke="black" stroke-width="1"/>
<text font-family="Arial" font-size="12" font-weight="bold" x="27" y="39">
G1
</text>
<text font-family="Arial" font-size="12" x="27" y="56">
Main Goal
</text>
<a href="./main.gsn.svg#node_G1">
<rect fill="none" height="28" stroke="black" stroke-width="1" width="84" x="20" y="72"/>
<text font-family="Arial" font-size="12" font-weight="bold" x="54" y="93">
Main
</text>
</a>
<use href="#module_icon" x="27" y="79"/>
</g>
<g class="gsn_module_Sub1" id="node_A1">
<title>
A1
</title>
<ellipse class="border" cx="189" cy="60" fill="none" rx="45" ry="37" stroke="black" stroke-width="1"/>
<text font-family="Arial" font-size="12" font-weight="bold" x="167" y="51">
A1
</text>
<text font-family="Arial" font-size="12" x="167" y="68">
TestABC
</text>
<text font-family="Arial" font-size="12" font-weight="bold" x="229" y="92">
A
</text>
</g>
<a href="./main.gsn.svg#node_S1">
<g class="gsn_module_Main" id="node_S1"/>
<title>
S1
</title>
<path class="border" d="M281,37 L415,37 L401,83 L267,83 z" fill="none" stroke="black" stroke-width="1"/>
<text font-family="Arial" font-size="12" font-weight="bold" x="289" y="56">
S1
</text>
<text font-family="Arial" font-size="12" x="289" y="73">
Divide and Conquer
</text>
</a>
<g class="gsn_module_Sub3" id="node_C2">
<title>
C2
</title>
<path class="border" d="M20,208 V156 C20,152,24,148,28,148 h68 C100,148,104,152,104,156 V208" fill="none" stroke="black" stroke-width="1"/>
<text font-family="Arial" font-size="12" font-weight="bold" x="27" y="175">
C2
</text>
<text font-family="Arial" font-size="12" x="27" y="192">
Context 2
</text>
<a href="./sub3.gsn.svg#node_C2">
<rect fill="none" height="28" stroke="black" stroke-width="1" width="84" x="20" y="208"/>
<text font-family="Arial" font-size="12" font-weight="bold" x="54" y="229">
Sub3
</text>
</a>
<use href="#module_icon" x="27" y="215"/>
</g>
<g class="gsn_module_Sub1" id="node_G3">
<title>
G3
</title>
<path class="border" d="M144,169 L304,169 L304,215 L144,215 z" fill="none" stroke="black" stroke-width="1"/>
<text font-family="Arial" font-size="12" font-weight="bold" x="151" y="188">
G3
</text>
<text font-family="Arial" font-size="12" x="151" y="205">
Conquer the submodules
</text>
</g>
<g class="gsn_module_Main" id="node_J1">
<title>
J1
</title>
<path class="border" d="M344,216 V164 A48,24,0,0,1,440,164 V216" fill="none" stroke="black" stroke-width="1"/>
<text font-family="Arial" font-size="12" font-weight="bold" x="351" y="183">
J1
</text>
<text font-family="Arial" font-size="12" x="351" y="200">
Some Context
</text>
<a href="./main.gsn.svg#node_J1">
<rect fill="none" height="28" stroke="black" stroke-width="1" width="97" x="344" y="216"/>
<text font-family="Arial" font-size="12" font-weight="bold" x="378" y="237">
Main
</text>
</a>
<use href="#module_icon" x="351" y="223"/>
<text font-family="Arial" font-size="12" font-weight="bold" x="433" y="140">
J
</text>
</g>
<g class="gsn_module_Sub3" id="node_Sn1">
<title>
Sn1
</title>
<path class="border" d="M182,378 V326 A42,42,0,0,1,266,326 V378" fill="none" stroke="black" stroke-width="1"/>
<text font-family="Arial" font-size="12" font-weight="bold" x="189" y="345">
Sn1
</text>
<text font-family="Arial" font-size="12" x="189" y="362">
Solution 1
</text>
<a href="./sub3.gsn.svg#node_Sn1">
<rect fill="none" height="28" stroke="black" stroke-width="1" width="84" x="182" y="378"/>
<text font-family="Arial" font-size="12" font-weight="bold" x="216" y="399">
Sub3
</text>
</a>
<use href="#module_icon" x="189" y="385"/>
</g>
<path class="gsnedge gsninctxt" d="M104,60 C104,60,114,60,134,60" fill="none" marker-end="url(#incontextof_arrow)" stroke="black" stroke-width="1"/>
<path class="gsnedge gsninctxt" d="M304,192 C304,192,314,192,334,192" fill="none" marker-end="url(#incontextof_arrow)" stroke="black" stroke-width="1"/>
<path class="gsnedge gsninctxt" d="M144,192 C144,192,134,192,114,192" fill="none" marker-end="url(#incontextof_arrow)" stroke="black" stroke-width="1"/>
<path class="gsnedge gsninspby" d="M224,215 C224,245,224,254,224,274" fill="none" marker-end="url(#supportedby_arrow)" stroke="black" stroke-width="1"/>
<path class="gsnedge gsninspby" d="M341,83 C341,113,224,139,224,159" fill="none" marker-end="url(#supportedby_arrow)" stroke="black" stroke-width="1"/>
</svg>