<?xml version="1.0" encoding="UTF-8"?>
<svg classes="gsndiagram" viewBox="0 0 579 440" xmlns="http://www.w3.org/2000/svg">
<symbol id="module_icon">
<rect fill="lightgrey" height="5" stroke="black" stroke-width="1" width="10" x="0" y="0"/>
<rect fill="lightgrey" height="10" stroke="black" stroke-width="1" width="20" x="0" y="5"/>
</symbol>
<marker id="composite_arrow" markerHeight="9" markerUnits="userSpaceOnUse" markerWidth="10" orient="auto-start-reverse" refX="0" refY="4.5">
<polyline fill="none" points="0 0, 6 4.5, 0 9" stroke="black" stroke-width="1"/>
<polyline fill="none" points="4 0, 10 4.5, 4 9" stroke="black" stroke-width="1"/>
<polyline fill="none" points="0 4.5, 10 4.5" stroke="black" stroke-width="1"/>
</marker>
<marker id="supportedby_arrow" markerHeight="9" markerUnits="userSpaceOnUse" markerWidth="10" orient="auto-start-reverse" refX="0" refY="4.5">
<polyline fill="black" points="0 0, 10 4.5, 0 9"/>
</marker>
<marker id="incontextof_arrow" markerHeight="9" markerUnits="userSpaceOnUse" markerWidth="10" orient="auto-start-reverse" refX="0" refY="4.5">
<polyline fill="none" points="0 0, 10 4.5, 0 9, 0 0" stroke="black" stroke-width="1"/>
</marker>
<style>
@import url(https://github.com/jonasthewolf/gsn2x/blob/3439402d093ba54af4771b295e78f2488bd1b978/examples/modular/modular.css)
</style>
<g class="gsn_module_Main gsnelem gsnstgy" id="node_S1">
<title>
S1
</title>
<path class="border" d="M164,37 L298,37 L284,83 L150,83 z" fill="none" stroke="black" stroke-width="1"/>
<text font-family="Arial" font-size="12" font-weight="bold" x="172" y="56">
S1
</text>
<text font-family="Arial" font-size="12" x="172" y="73">
Divide and Conquer
</text>
</g>
<g class="gsn_module_Sub1 gsnelem gsnasmp" id="node_A1">
<title>
A1
</title>
<path class="border" d="M331,60 a41,33,0,1,0,82,0 a41,33,0,1,0,-82,0 z" fill="none" stroke="black" stroke-width="1"/>
<text font-family="Arial" font-size="12" font-weight="bold" x="350" y="51">
A1
</text>
<text font-family="Arial" font-size="12" x="350" y="68">
TestABC
</text>
<text font-family="Arial" font-size="12" font-weight="bold" x="408" y="88">
A
</text>
</g>
<a href="./main.gsn.svg#node_G1">
<g class="gsn_module_Main gsnelem gsnawaygoal" id="node_G1">
<title>
G1
</title>
<path class="border" d="M453,72 V20 H537 V72" fill="transparent" stroke="black" stroke-width="1"/>
<text font-family="Arial" font-size="12" font-weight="bold" x="460" y="39">
G1
</text>
<text font-family="Arial" font-size="12" x="460" y="56">
Main Goal
</text>
<a href="./main.gsn.svg#node_G1">
<path class="border" d="M453,72 h84 v28 h-84 z" fill="transparent" stroke="black" stroke-width="1"/>
<text font-family="Arial" font-size="12" font-weight="bold" x="487" y="93">
Main
</text>
</a>
<use href="#module_icon" x="460" y="79"/>
</g>
</a>
<a href="./sub3.gsn.svg#node_C2">
<g class="gsn_module_Sub3 gsnelem gsnawayctxt" id="node_C2">
<title>
C2
</title>
<path class="border" d="M20,214 V162 C20,158,24,154,28,154 h68 C100,154,104,158,104,162 V214" fill="transparent" stroke="black" stroke-width="1"/>
<text font-family="Arial" font-size="12" font-weight="bold" x="27" y="181">
C2
</text>
<text font-family="Arial" font-size="12" x="27" y="198">
Context 2
</text>
<a href="./sub3.gsn.svg#node_C2">
<path class="border" d="M20,214 h84 v28 h-84 z" fill="transparent" stroke="black" stroke-width="1"/>
<text font-family="Arial" font-size="12" font-weight="bold" x="54" y="235">
Sub3
</text>
</a>
<use href="#module_icon" x="27" y="221"/>
</g>
</a>
<g class="gsn_module_Sub1 gsnelem gsngoal" id="node_G3">
<title>
G3
</title>
<path class="border" d="M144,175 L304,175 L304,221 L144,221 z" fill="none" stroke="black" stroke-width="1"/>
<text font-family="Arial" font-size="12" font-weight="bold" x="151" y="194">
G3
</text>
<text font-family="Arial" font-size="12" x="151" y="211">
Conquer the submodules
</text>
</g>
<a href="./main.gsn.svg#node_J1">
<g class="gsn_module_Main gsnelem gsnawayjust" id="node_J1">
<title>
J1
</title>
<path class="border" d="M344,228 V161 A42,21,0,0,1,428,161 V228" fill="transparent" stroke="black" stroke-width="1"/>
<text font-family="Arial" font-size="12" font-weight="bold" x="351" y="180">
J1
</text>
<text font-family="Arial" font-size="12" x="351" y="197">
Some
</text>
<text font-family="Arial" font-size="12" x="351" y="209">
Context
</text>
<a href="./main.gsn.svg#node_J1">
<path class="border" d="M344,228 h84 v28 h-84 z" fill="transparent" stroke="black" stroke-width="1"/>
<text font-family="Arial" font-size="12" font-weight="bold" x="378" y="249">
Main
</text>
</a>
<use href="#module_icon" x="351" y="235"/>
<text font-family="Arial" font-size="12" font-weight="bold" x="421" y="140">
J
</text>
</g>
</a>
<a href="./sub3.gsn.svg#node_Sn1">
<g class="gsn_module_Sub3 gsnelem gsnawaysltn" id="node_Sn1">
<title>
Sn1
</title>
<path class="border" d="M182,390 V338 A42,42,0,0,1,266,338 V390" fill="transparent" stroke="black" stroke-width="1"/>
<text font-family="Arial" font-size="12" font-weight="bold" x="189" y="357">
Sn1
</text>
<text font-family="Arial" font-size="12" x="189" y="374">
Solution 1
</text>
<a href="./sub3.gsn.svg#node_Sn1">
<path class="border" d="M182,390 h84 v28 h-84 z" fill="transparent" stroke="black" stroke-width="1"/>
<text font-family="Arial" font-size="12" font-weight="bold" x="216" y="411">
Sub3
</text>
</a>
<use href="#module_icon" x="189" y="397"/>
</g>
</a>
<path class="gsnedge gsninctxt" d="M453,60 C453,60,443,60,423,60" fill="none" marker-end="url(#incontextof_arrow)" stroke="black" stroke-width="1"/>
<path class="gsnedge gsninctxt" d="M304,198 C304,198,314,198,334,198" fill="none" marker-end="url(#incontextof_arrow)" stroke="black" stroke-width="1"/>
<path class="gsnedge gsninctxt" d="M144,198 C144,198,134,198,114,198" fill="none" marker-end="url(#incontextof_arrow)" stroke="black" stroke-width="1"/>
<path class="gsnedge gsninspby" d="M224,221 C224,251,224,266,224,286" fill="none" marker-end="url(#supportedby_arrow)" stroke="black" stroke-width="1"/>
<path class="gsnedge gsninspby" d="M224,83 C224,113,224,145,224,165" fill="none" marker-end="url(#supportedby_arrow)" stroke="black" stroke-width="1"/>
</svg>