<?xml version="1.0" encoding="UTF-8"?>
<svg class="gsndiagram" viewBox="0 0 576 427" xmlns="http://www.w3.org/2000/svg">
<defs>
<marker id="supportedby_arrow" markerHeight="9" markerUnits="userSpaceOnUse" markerWidth="10" orient="auto-start-reverse" refX="0" refY="4.5">
<polyline fill="black" points="0 0, 10 4.5, 0 9"/>
</marker>
<marker id="incontextof_arrow" markerHeight="9" markerUnits="userSpaceOnUse" markerWidth="10" orient="auto-start-reverse" refX="0" refY="4.5">
<polyline fill-opacity="0" points="0 0, 10 4.5, 0 9, 0 0" stroke="black" stroke-width="1"/>
</marker>
<symbol id="module_icon">
<rect fill="lightgrey" height="5" stroke="black" stroke-width="1" width="10" x="0" y="0"/>
<rect fill="lightgrey" height="10" stroke="black" stroke-width="1" width="20" x="0" y="5"/>
</symbol>
</defs>
<style>
@import url(https://github.com/jonasthewolf/gsn2x/blob/3439402d093ba54af4771b295e78f2488bd1b978/examples/modular/modular.css)
</style>
<a href="index.gsn.svg#node_s1">
<g class="gsn_module_main gsnelem gsnstgy" id="node_s1">
<title>S1</title>
<path class="border" d="M165,37 L299,37 L285,83 L151,83 z" fill-opacity="0" stroke="black" stroke-width="1"/>
<text font-family="Arial" font-size="12" font-weight="bold" x="173" y="56">S1</text>
<text font-family="Arial" font-size="12" x="169" y="75">Divide and Conquer</text>
</g>
</a>
<g class="gsn_module_sub1 gsnelem gsnasmp" id="node_a1">
<title>A1</title>
<path class="border" d="M332,60 a39,33,0,1,0,78,0 a39,33,0,1,0,-78,0 z" fill-opacity="0" stroke="black" stroke-width="1"/>
<text font-family="Arial" font-size="12" font-weight="bold" x="351" y="51">A1</text>
<text font-family="Arial" font-size="12" x="351" y="70">TestABC</text>
<text font-family="Arial" font-size="12" font-weight="bold" x="405" y="88">A</text>
</g>
<a href="index.gsn.svg#node_g1">
<g class="gsn_module_main gsnelem gsnawaygoal" id="node_g1">
<title>G1</title>
<path class="border" d="M450,72 V20 H534 V72" fill-opacity="0" stroke="black" stroke-width="1"/>
<text font-family="Arial" font-size="12" font-weight="bold" x="457" y="39">G1</text>
<text font-family="Arial" font-size="12" x="457" y="58">Main Goal</text>
<a href="index.gsn.svg#node_g1">
<path class="border" d="M450,72 h84 v28 h-84 z" fill-opacity="0" stroke="black" stroke-width="1"/>
<text font-family="Arial" font-size="12" font-weight="bold" x="484" y="93">Main</text>
</a>
<use href="#module_icon" x="457" y="79"/>
</g>
</a>
<a href="index.gsn.svg#node_j1">
<g class="gsn_module_main gsnelem gsnawayjust" id="node_j1">
<title>J1</title>
<path class="border" d="M20,214 V162 A45,22,0,0,1,110,162 V214" fill-opacity="0" stroke="black" stroke-width="1"/>
<text font-family="Arial" font-size="12" font-weight="bold" x="27" y="181">J1</text>
<text font-family="Arial" font-size="12" x="27" y="200">Some Context</text>
<a href="index.gsn.svg#node_j1">
<path class="border" d="M20,214 h91 v28 h-91 z" fill-opacity="0" stroke="black" stroke-width="1"/>
<text font-family="Arial" font-size="12" font-weight="bold" x="54" y="235">Main</text>
</a>
<use href="#module_icon" x="27" y="221"/>
<text font-family="Arial" font-size="12" font-weight="bold" x="103" y="140">J</text>
</g>
</a>
<g class="gsn_module_sub1 gsnelem gsngoal" id="node_g3">
<title>G3</title>
<path class="border" d="M150,168 L300,168 L300,214 L150,214 z" fill-opacity="0" stroke="black" stroke-width="1"/>
<text font-family="Arial" font-size="12" font-weight="bold" x="157" y="187">G3</text>
<text font-family="Arial" font-size="12" x="157" y="206">Conquer the submodules</text>
</g>
<a href="sub3.gsn.svg#node_c2">
<g class="gsn_module_sub3 gsnelem gsnawayctxt" id="node_c2">
<title>C2</title>
<path class="border" d="M340,207 V155 C340,151,344,147,348,147 h68 C420,147,424,151,424,155 V207" fill-opacity="0" stroke="black" stroke-width="1"/>
<text font-family="Arial" font-size="12" font-weight="bold" x="347" y="174">C2</text>
<text font-family="Arial" font-size="12" x="347" y="193">Context 2</text>
<a href="sub3.gsn.svg#node_c2">
<path class="border" d="M340,207 h84 v28 h-84 z" fill-opacity="0" stroke="black" stroke-width="1"/>
<text font-family="Arial" font-size="12" font-weight="bold" x="374" y="228">Sub3</text>
</a>
<use href="#module_icon" x="347" y="214"/>
</g>
</a>
<a href="sub3.gsn.svg#node_sn1">
<g class="gsn_module_sub3 gsnelem gsnawaysltn" id="node_sn1">
<title>Sn1</title>
<path class="border" d="M183,376 V324 A42,42,0,0,1,267,324 V376" fill-opacity="0" stroke="black" stroke-width="1"/>
<text font-family="Arial" font-size="12" font-weight="bold" x="190" y="343">Sn1</text>
<text font-family="Arial" font-size="12" x="190" y="362">Solution 1</text>
<a href="sub3.gsn.svg#node_sn1">
<path class="border" d="M183,376 h84 v28 h-84 z" fill-opacity="0" stroke="black" stroke-width="1"/>
<text font-family="Arial" font-size="12" font-weight="bold" x="217" y="397">Sub3</text>
</a>
<use href="#module_icon" x="190" y="383"/>
</g>
</a>
<path class="gsnedge gsninctxt" d="M450,60 C420,60,440,60,420,60" fill-opacity="0" marker-end="url(#incontextof_arrow)" stroke="black" stroke-width="1"/>
<path class="gsnedge gsninctxt" d="M300,191 C330,191,310,191,330,191" fill-opacity="0" marker-end="url(#incontextof_arrow)" stroke="black" stroke-width="1"/>
<path class="gsnedge gsninctxt" d="M150,191 C120,191,140,191,120,191" fill-opacity="0" marker-end="url(#incontextof_arrow)" stroke="black" stroke-width="1"/>
<path class="gsnedge gsninspby" d="M225,214 C225,244,225,252,225,272" fill-opacity="0" marker-end="url(#supportedby_arrow)" stroke="black" stroke-width="1"/>
<path class="gsnedge gsninspby" d="M225,83 C225,113,225,138,225,158" fill-opacity="0" marker-end="url(#supportedby_arrow)" stroke="black" stroke-width="1"/>
</svg>