<?xml version="1.0" encoding="UTF-8"?>
<svg viewBox="0 0 536 435" xmlns="http://www.w3.org/2000/svg">
<symbol id="module_icon">
<rect fill="lightgrey" height="5" stroke="black" stroke-width="1" width="10" x="0" y="0"/>
<rect fill="lightgrey" height="10" stroke="black" stroke-width="1" width="20" x="0" y="5"/>
</symbol>
<marker id="composite_arrow" markerHeight="9" markerUnits="userSpaceOnUse" markerWidth="10" orient="auto-start-reverse" refX="0" refY="4.5">
<polyline fill="none" points="0 0, 6 4.5, 0 9" stroke="black" stroke-width="1"/>
<polyline fill="none" points="4 0, 10 4.5, 4 9" stroke="black" stroke-width="1"/>
<polyline fill="none" points="0 4.5, 10 4.5" stroke="black" stroke-width="1"/>
</marker>
<marker id="supportedby_arrow" markerHeight="9" markerUnits="userSpaceOnUse" markerWidth="10" orient="auto-start-reverse" refX="0" refY="4.5">
<polyline fill="black" points="0 0, 10 4.5, 0 9"/>
</marker>
<marker id="incontextof_arrow" markerHeight="9" markerUnits="userSpaceOnUse" markerWidth="10" orient="auto-start-reverse" refX="0" refY="4.5">
<polyline fill="none" points="0 0, 10 4.5, 0 9, 0 0" stroke="black" stroke-width="1"/>
</marker>
<style>
@import ("modular.css")
</style>
<g class="gsnelem gsnawaygoal gsn_module_Main" id="node_G1">
<title>
G1
</title>
<a href="./main.gsn.svg#node_G1">
<rect fill="none" height="29" stroke="black" stroke-width="1" width="84" x="20" y="73"/>
<text font-family="AppleSystemUIFont" font-size="12" font-weight="bold" textLength="26" x="54" y="95">
Main
</text>
</a>
<path class="border" d="M20,73 V22 H104 V73" fill="none" stroke="black" stroke-width="1"/>
<text font-family="AppleSystemUIFont" font-size="12" font-weight="bold" textLength="12" x="27" y="44">
G1
</text>
<use href="#module_icon" x="27" y="80"/>
<text font-family="AppleSystemUIFont" font-size="12" textLength="69" x="27" y="64">
Main Goal
</text>
</g>
<g class="gsnelem gsnasmp gsn_module_Sub1" id="node_A1">
<title>
A1
</title>
<ellipse class="border" cx="184" cy="62" fill="none" rx="40" ry="42" stroke="black" stroke-width="1"/>
<text font-family="AppleSystemUIFont" font-size="12" font-weight="bold" textLength="10" x="159" y="51">
A1
</text>
<text font-family="AppleSystemUIFont" font-size="12" font-weight="bold" x="219" y="99">
A
</text>
<text font-family="AppleSystemUIFont" font-size="12" textLength="50" x="159" y="71">
TestABC
</text>
</g>
<g class="gsnelem gsnstgy gsn_module_Main" id="node_S1">
<title>
S1
</title>
<path class="border" d="M279,36 L444,36 L429,88 L264,88 z" fill="none" stroke="black" stroke-width="1"/>
<text font-family="AppleSystemUIFont" font-size="12" font-weight="bold" textLength="10" x="286" y="58">
S1
</text>
<text font-family="AppleSystemUIFont" font-size="12" textLength="136" x="271" y="78">
Divide and Conquer
</text>
</g>
<g class="gsnelem gsnawayctxt gsn_module_Sub3" id="node_C2">
<title>
C2
</title>
<a href="./sub3.gsn.svg#node_C2">
<rect fill="none" height="29" stroke="black" stroke-width="1" width="84" x="20" y="213"/>
<text font-family="AppleSystemUIFont" font-size="12" font-weight="bold" textLength="28" x="54" y="235">
Sub3
</text>
</a>
<path class="border" d="M20,213 V162 C20,158,24,154,28,154 h68 C100,154,104,158,104,162 V213" fill="none" stroke="black" stroke-width="1"/>
<text font-family="AppleSystemUIFont" font-size="12" font-weight="bold" textLength="11" x="27" y="184">
C2
</text>
<use href="#module_icon" x="27" y="220"/>
<text font-family="AppleSystemUIFont" font-size="12" textLength="61" x="27" y="204">
Context 2
</text>
</g>
<g class="gsnelem gsngoal gsn_module_Sub1" id="node_G3">
<title>
G3
</title>
<path class="border" d="M144,172 L330,172 L330,224 L144,224 z" fill="none" stroke="black" stroke-width="1"/>
<text font-family="AppleSystemUIFont" font-size="12" font-weight="bold" textLength="12" x="151" y="194">
G3
</text>
<text font-family="AppleSystemUIFont" font-size="12" textLength="173" x="151" y="214">
Conquer the submodules
</text>
</g>
<g class="gsnelem gsnawayjust gsn_module_Main" id="node_J1">
<title>
J1
</title>
<a href="./main.gsn.svg#node_J1">
<rect fill="none" height="29" stroke="black" stroke-width="1" width="111" x="370" y="223"/>
<text font-family="AppleSystemUIFont" font-size="12" font-weight="bold" textLength="26" x="404" y="245">
Main
</text>
</a>
<path class="border" d="M370,223 V171 A55,27,0,0,1,480,171 V223" fill="none" stroke="black" stroke-width="1"/>
<text font-family="AppleSystemUIFont" font-size="12" font-weight="bold" textLength="8" x="377" y="193">
J1
</text>
<use href="#module_icon" x="377" y="230"/>
<text font-family="AppleSystemUIFont" font-size="12" font-weight="bold" x="473" y="144">
J
</text>
<text font-family="AppleSystemUIFont" font-size="12" textLength="97" x="377" y="213">
Some Context
</text>
</g>
<g class="gsnelem gsnawaysltn gsn_module_Sub3" id="node_Sn1">
<title>
Sn1
</title>
<a href="./sub3.gsn.svg#node_Sn1">
<rect fill="none" height="29" stroke="black" stroke-width="1" width="84" x="195" y="385"/>
<text font-family="AppleSystemUIFont" font-size="12" font-weight="bold" textLength="28" x="229" y="407">
Sub3
</text>
</a>
<path class="border" d="M195,385 V334 A42,42,0,0,1,279,334 V385" fill="none" stroke="black" stroke-width="1"/>
<text font-family="AppleSystemUIFont" font-size="12" font-weight="bold" textLength="19" x="202" y="356">
Sn1
</text>
<use href="#module_icon" x="202" y="392"/>
<text font-family="AppleSystemUIFont" font-size="12" textLength="63" x="202" y="376">
Solution 1
</text>
</g>
<path class="gsnedge gsninctxt" d="M104,62 C104,62,114,62,134,62" fill="none" marker-end="url(#incontextof_arrow)" stroke="black" stroke-width="1"/>
<path class="gsnedge gsninctxt" d="M330,198 C330,198,340,198,360,198" fill="none" marker-end="url(#incontextof_arrow)" stroke="black" stroke-width="1"/>
<path class="gsnedge gsninctxt" d="M144,198 C144,198,134,198,114,198" fill="none" marker-end="url(#incontextof_arrow)" stroke="black" stroke-width="1"/>
<path class="gsnedge gsninspby" d="M237,224 C237,254,237,262,237,282" fill="none" marker-end="url(#supportedby_arrow)" stroke="black" stroke-width="1"/>
<path class="gsnedge gsninspby" d="M354,88 C354,118,237,142,237,162" fill="none" marker-end="url(#supportedby_arrow)" stroke="black" stroke-width="1"/>
</svg>