<svg viewBox="0 0 722 534" xmlns="http://www.w3.org/2000/svg" xmlns:xlink="http://www.w3.org/1999/xlink">
<symbol id="module_icon" viewbox="0 0 20 20">
<rect fill="lightgrey" height="5" stroke="black" stroke-width="1" width="10" x="0" y="0"/>
<rect fill="lightgrey" height="10" stroke="black" stroke-width="1" width="20" x="0" y="5"/>
</symbol>
<marker id="composite_arrow" markerHeight="9" markerUnits="users_posaceOnUse" markerWidth="10" orient="auto" refX="0" refY="4.5">
<polyline fill="none" points="0 0, 6 4.5, 0 9" stroke="black" stroke-width="1"/>
<polyline fill="none" points="4 0, 10 4.5, 4 9" stroke="black" stroke-width="1"/>
<polyline fill="none" points="0 4.5, 10 4.5" stroke="black" stroke-width="1"/>
</marker>
<marker id="supportedby_arrow" markerHeight="9" markerUnits="users_posaceOnUse" markerWidth="10" orient="auto" refX="0" refY="4.5">
<polyline fill="black" points="0 0, 10 4.5, 0 9"/>
</marker>
<marker id="incontextof_arrow" markerHeight="9" markerUnits="users_posaceOnUse" markerWidth="10" orient="auto" refX="0" refY="4.5">
<polyline fill="none" points="0 0, 10 4.5, 0 9, 0 0" stroke="black" stroke-width="1"/>
</marker>
<g class="gsnelem gsnstgy" id="node_S1">
<title>
S1
</title>
<path class="border" d="M294,20 L423,20 L408,70 L279,70 z" fill="none" stroke="black" stroke-width="1"/>
<text font-family="AppleSystemUIFont" font-size="12" font-weight="bold" textLength="12" x="301" y="41">
S1
</text>
<text font-family="AppleSystemUIFont" font-size="12" textLength="101" x="286" y="61">
Divide and Conquer
</text>
</g>
<g class="gsnelem gsnawayctxt" id="node_C2">
<title>
C2
</title>
<rect fill="none" height="28" stroke="black" stroke-width="1" width="221" x="20" y="200"/>
<text font-family="AppleSystemUIFont" font-size="12" font-weight="bold" textLength="180" x="54" y="221">
examples_modular_sub3_gsn_yaml
</text>
<path class="border" d="M20,200 V150 C20,139,31,128,42,128 h177 C229,128,240,139,240,150 V200" fill="none" stroke="black" stroke-width="1"/>
<text font-family="AppleSystemUIFont" font-size="12" font-weight="bold" textLength="14" x="27" y="171">
C2
</text>
<use href="#module_icon" x="27" y="207"/>
<text font-family="AppleSystemUIFont" font-size="12" textLength="49" x="27" y="191">
Context 2
</text>
</g>
<g class="gsnelem gsngoal" id="node_G3">
<title>
G3
</title>
<path class="border" d="M280,153 L422,153 L422,203 L280,203 z" fill="none" stroke="black" stroke-width="1"/>
<text font-family="AppleSystemUIFont" font-size="12" font-weight="bold" textLength="15" x="287" y="174">
G3
</text>
<text font-family="AppleSystemUIFont" font-size="12" textLength="128" x="287" y="194">
Conquer the submodules
</text>
</g>
<g class="gsnelem gsnawayjust" id="node_J1">
<title>
J1
</title>
<rect fill="none" height="28" stroke="black" stroke-width="1" width="220" x="462" y="217"/>
<text font-family="AppleSystemUIFont" font-size="12" font-weight="bold" textLength="179" x="496" y="238">
examples_modular_main_gsn_yaml
</text>
<path class="border" d="M462,217 V166 A110,55,0,0,1,682,166 V217" fill="none" stroke="black" stroke-width="1"/>
<text font-family="AppleSystemUIFont" font-size="12" font-weight="bold" textLength="11" x="469" y="187">
J1
</text>
<use href="#module_icon" x="469" y="224"/>
<text font-family="AppleSystemUIFont" font-size="12" font-weight="bold" x="675" y="125">
J
</text>
<text font-family="AppleSystemUIFont" font-size="12" textLength="72" x="469" y="207">
Some Context
</text>
</g>
<g class="gsnelem gsnawaysltn" id="node_Sn1">
<title>
Sn1
</title>
<rect fill="none" height="28" stroke="black" stroke-width="1" width="221" x="241" y="445"/>
<text font-family="AppleSystemUIFont" font-size="12" font-weight="bold" textLength="180" x="275" y="466">
examples_modular_sub3_gsn_yaml
</text>
<path class="border" d="M241,445 V395 A110,110,0,0,1,461,395 V445" fill="none" stroke="black" stroke-width="1"/>
<text font-family="AppleSystemUIFont" font-size="12" font-weight="bold" textLength="18" x="248" y="416">
Sn1
</text>
<use href="#module_icon" x="248" y="452"/>
<text font-family="AppleSystemUIFont" font-size="12" textLength="49" x="248" y="436">
Solution 1
</text>
</g>
<path class="gsnedge gsnspby" d="M422,178 C422,178,432,178,452,178" fill="none" marker-end="url(#incontextof_arrow)" stroke="black" stroke-width="1"/>
<path class="gsnedge gsnspby" d="M280,178 C280,178,270,178,250,178" fill="none" marker-end="url(#incontextof_arrow)" stroke="black" stroke-width="1"/>
<path class="gsnedge gsninctxt" d="M351,203 C351,233,351,255,351,275" fill="none" marker-end="url(#supportedby_arrow)" stroke="black" stroke-width="1"/>
<path class="gsnedge gsninctxt" d="M351,70 C351,100,351,123,351,143" fill="none" marker-end="url(#supportedby_arrow)" stroke="black" stroke-width="1"/>
</svg>