<?xml version="1.0" encoding="UTF-8"?>
<svg class="gsndiagram" viewBox="0 0 570 422" xmlns="http://www.w3.org/2000/svg">
<defs>
<marker id="supportedby_arrow" markerHeight="9" markerUnits="userSpaceOnUse" markerWidth="10" orient="auto-start-reverse" refX="0" refY="4.5">
<polyline fill="black" points="0 0, 10 4.5, 0 9"/>
</marker>
<marker id="incontextof_arrow" markerHeight="9" markerUnits="userSpaceOnUse" markerWidth="10" orient="auto-start-reverse" refX="0" refY="4.5">
<polyline fill-opacity="0" points="0 0, 10 4.5, 0 9, 0 0" stroke="black" stroke-width="1"/>
</marker>
<symbol id="module_icon">
<rect fill="lightgrey" height="5" stroke="black" stroke-width="1" width="10" x="0" y="0"/>
<rect fill="lightgrey" height="10" stroke="black" stroke-width="1" width="20" x="0" y="5"/>
</symbol>
</defs>
<style>
@import url(https://github.com/jonasthewolf/gsn2x/blob/3439402d093ba54af4771b295e78f2488bd1b978/examples/modular/modular.css)
</style>
<a href="index.gsn.svg#node_s1">
<g class="gsn_module_main gsnelem gsnstgy" id="node_s1">
<title>S1</title>
<path class="border" d="M167,37 L301,37 L287,81 L153,81 z" fill-opacity="0" stroke="black" stroke-width="1"/>
<text font-family="Arial" font-size="12" font-weight="bold" x="175" y="56">S1</text>
<text font-family="Arial" font-size="12" x="171" y="74">Divide and Conquer</text>
</g>
</a>
<g class="gsn_module_sub1 gsnelem gsnasmp" id="node_a1">
<title>A1</title>
<path class="border" d="M334,59 a46,32,0,1,0,93,0 a46,32,0,1,0,-93,0 z" fill-opacity="0" stroke="black" stroke-width="1"/>
<text font-family="Arial" font-size="12" font-weight="bold" x="354" y="51">A1</text>
<text font-family="Arial" font-size="12" x="354" y="69">TestABC</text>
<text font-family="Arial" font-size="12" font-weight="bold" x="421" y="86">A</text>
</g>
<a href="index.gsn.svg#node_g1">
<g class="gsn_module_main gsnelem gsnawaygoal" id="node_g1">
<title>G1</title>
<path class="border" d="M466,71 V20 H550 V71" fill-opacity="0" stroke="black" stroke-width="1"/>
<text font-family="Arial" font-size="12" font-weight="bold" x="473" y="39">G1</text>
<text font-family="Arial" font-size="12" x="473" y="57">Main Goal</text>
<a href="index.gsn.svg#node_g1">
<path class="border" d="M466,71 h84 v27 h-84 z" fill-opacity="0" stroke="black" stroke-width="1"/>
<text font-family="Arial" font-size="12" font-weight="bold" x="500" y="91">Main</text>
</a>
<use href="#module_icon" x="473" y="78"/>
</g>
</a>
<a href="index.gsn.svg#node_j1">
<g class="gsn_module_main gsnelem gsnawayjust" id="node_j1">
<title>J1</title>
<path class="border" d="M20,213 V161 A46,23,0,0,1,112,161 V213" fill-opacity="0" stroke="black" stroke-width="1"/>
<text font-family="Arial" font-size="12" font-weight="bold" x="27" y="180">J1</text>
<text font-family="Arial" font-size="12" x="27" y="198">Some Context</text>
<a href="index.gsn.svg#node_j1">
<path class="border" d="M20,213 h92 v27 h-92 z" fill-opacity="0" stroke="black" stroke-width="1"/>
<text font-family="Arial" font-size="12" font-weight="bold" x="54" y="233">Main</text>
</a>
<use href="#module_icon" x="27" y="220"/>
<text font-family="Arial" font-size="12" font-weight="bold" x="105" y="138">J</text>
</g>
</a>
<g class="gsn_module_sub1 gsnelem gsngoal" id="node_g3">
<title>G3</title>
<path class="border" d="M152,167 L302,167 L302,211 L152,211 z" fill-opacity="0" stroke="black" stroke-width="1"/>
<text font-family="Arial" font-size="12" font-weight="bold" x="159" y="186">G3</text>
<text font-family="Arial" font-size="12" x="159" y="204">Conquer the submodules</text>
</g>
<a href="sub3.gsn.svg#node_c2">
<g class="gsn_module_sub3 gsnelem gsnawayctxt" id="node_c2">
<title>C2</title>
<path class="border" d="M342,205 V154 C342,150,346,146,350,146 h68 C422,146,426,150,426,154 V205" fill-opacity="0" stroke="black" stroke-width="1"/>
<text font-family="Arial" font-size="12" font-weight="bold" x="349" y="173">C2</text>
<text font-family="Arial" font-size="12" x="349" y="191">Context 2</text>
<a href="sub3.gsn.svg#node_c2">
<path class="border" d="M342,205 h84 v27 h-84 z" fill-opacity="0" stroke="black" stroke-width="1"/>
<text font-family="Arial" font-size="12" font-weight="bold" x="376" y="225">Sub3</text>
</a>
<use href="#module_icon" x="349" y="212"/>
</g>
</a>
<a href="sub3.gsn.svg#node_sn1">
<g class="gsn_module_sub3 gsnelem gsnawaysltn" id="node_sn1">
<title>Sn1</title>
<path class="border" d="M185,373 V322 A42,42,0,0,1,269,322 V373" fill-opacity="0" stroke="black" stroke-width="1"/>
<text font-family="Arial" font-size="12" font-weight="bold" x="192" y="341">Sn1</text>
<text font-family="Arial" font-size="12" x="192" y="359">Solution 1</text>
<a href="sub3.gsn.svg#node_sn1">
<path class="border" d="M185,373 h84 v27 h-84 z" fill-opacity="0" stroke="black" stroke-width="1"/>
<text font-family="Arial" font-size="12" font-weight="bold" x="219" y="393">Sub3</text>
</a>
<use href="#module_icon" x="192" y="380"/>
</g>
</a>
<path class="gsnedge gsninctxt" d="M466,59 C436,59,456,59,436,59" fill-opacity="0" marker-end="url(#incontextof_arrow)" stroke="black" stroke-width="1"/>
<path class="gsnedge gsninctxt" d="M302,189 C332,189,312,189,332,189" fill-opacity="0" marker-end="url(#incontextof_arrow)" stroke="black" stroke-width="1"/>
<path class="gsnedge gsninctxt" d="M152,189 C122,189,142,189,122,189" fill-opacity="0" marker-end="url(#incontextof_arrow)" stroke="black" stroke-width="1"/>
<path class="gsnedge gsninspby" d="M227,211 C227,241,227,250,227,270" fill-opacity="0" marker-end="url(#supportedby_arrow)" stroke="black" stroke-width="1"/>
<path class="gsnedge gsninspby" d="M227,81 C227,111,227,137,227,157" fill-opacity="0" marker-end="url(#supportedby_arrow)" stroke="black" stroke-width="1"/>
</svg>