<svg viewBox="0 0 627 423" xmlns="http://www.w3.org/2000/svg" xmlns:xlink="http://www.w3.org/1999/xlink">
<symbol id="module_icon" viewbox="0 0 20 20">
<rect fill="lightgrey" height="5" stroke="black" stroke-width="1" width="10" x="0" y="0"/>
<rect fill="lightgrey" height="10" stroke="black" stroke-width="1" width="20" x="0" y="5"/>
</symbol>
<marker id="composite_arrow" markerHeight="9" markerUnits="users_posaceOnUse" markerWidth="10" orient="auto-start-reverse" refX="0" refY="4.5">
<polyline fill="none" points="0 0, 6 4.5, 0 9" stroke="black" stroke-width="1"/>
<polyline fill="none" points="4 0, 10 4.5, 4 9" stroke="black" stroke-width="1"/>
<polyline fill="none" points="0 4.5, 10 4.5" stroke="black" stroke-width="1"/>
</marker>
<marker id="supportedby_arrow" markerHeight="9" markerUnits="users_posaceOnUse" markerWidth="10" orient="auto-start-reverse" refX="0" refY="4.5">
<polyline fill="black" points="0 0, 10 4.5, 0 9"/>
</marker>
<marker id="incontextof_arrow" markerHeight="9" markerUnits="users_posaceOnUse" markerWidth="10" orient="auto-start-reverse" refX="0" refY="4.5">
<polyline fill="none" points="0 0, 10 4.5, 0 9, 0 0" stroke="black" stroke-width="1"/>
</marker>
<a href="modular.css" rel="stylesheet" type="text/css"/>
<g class="gsnelem gsnawaygoal gsn_module_Main" id="node_G1">
<title>
G1
</title>
<a xlink:href="./main.gsn.svg#node_G1">
<rect fill="none" height="28" stroke="black" stroke-width="1" width="84" x="174" y="72"/>
<text font-family="AppleSystemUIFont" font-size="12" font-weight="bold" textLength="24" x="208" y="93">
Main
</text>
</a>
<path class="border" d="M174,72 V22 H258 V72" fill="none" stroke="black" stroke-width="1"/>
<text font-family="AppleSystemUIFont" font-size="12" font-weight="bold" textLength="13" x="181" y="43">
G1
</text>
<use href="#module_icon" x="181" y="79"/>
<text font-family="AppleSystemUIFont" font-size="12" textLength="51" x="181" y="63">
Main Goal
</text>
</g>
<g class="gsnelem gsnasmp gsn_module_Sub1" id="node_A1">
<title>
A1
</title>
<ellipse class="border" cx="334" cy="61" fill="none" rx="36" ry="41" stroke="black" stroke-width="1"/>
<text font-family="AppleSystemUIFont" font-size="12" font-weight="bold" textLength="12" x="312" y="50">
A1
</text>
<text font-family="AppleSystemUIFont" font-size="12" font-weight="bold" x="365" y="97">
A
</text>
<text font-family="AppleSystemUIFont" font-size="12" textLength="44" x="312" y="70">
TestABC
</text>
</g>
<g class="gsnelem gsnstgy gsn_module_Main" id="node_S1">
<title>
S1
</title>
<path class="border" d="M425,36 L554,36 L539,86 L410,86 z" fill="none" stroke="black" stroke-width="1"/>
<text font-family="AppleSystemUIFont" font-size="12" font-weight="bold" textLength="12" x="432" y="57">
S1
</text>
<text font-family="AppleSystemUIFont" font-size="12" textLength="101" x="417" y="77">
Divide and Conquer
</text>
</g>
<g class="gsnelem gsnawayctxt gsn_module_Sub3" id="node_C2">
<title>
C2
</title>
<a xlink:href="./sub3.gsn.svg#node_C2">
<rect fill="none" height="28" stroke="black" stroke-width="1" width="84" x="20" y="207"/>
<text font-family="AppleSystemUIFont" font-size="12" font-weight="bold" textLength="26" x="54" y="228">
Sub3
</text>
</a>
<path class="border" d="M20,207 V157 C20,153,24,149,28,149 h68 C100,149,104,153,104,157 V207" fill="none" stroke="black" stroke-width="1"/>
<text font-family="AppleSystemUIFont" font-size="12" font-weight="bold" textLength="14" x="27" y="178">
C2
</text>
<use href="#module_icon" x="27" y="214"/>
<text font-family="AppleSystemUIFont" font-size="12" textLength="49" x="27" y="198">
Context 2
</text>
</g>
<g class="gsnelem gsngoal gsn_module_Sub1" id="node_G3">
<title>
G3
</title>
<path class="border" d="M144,167 L286,167 L286,217 L144,217 z" fill="none" stroke="black" stroke-width="1"/>
<text font-family="AppleSystemUIFont" font-size="12" font-weight="bold" textLength="15" x="151" y="188">
G3
</text>
<text font-family="AppleSystemUIFont" font-size="12" textLength="128" x="151" y="208">
Conquer the submodules
</text>
</g>
<g class="gsnelem gsnawayjust gsn_module_Main" id="node_J1">
<title>
J1
</title>
<a xlink:href="./main.gsn.svg#node_J1">
<rect fill="none" height="28" stroke="black" stroke-width="1" width="86" x="326" y="214"/>
<text font-family="AppleSystemUIFont" font-size="12" font-weight="bold" textLength="24" x="360" y="235">
Main
</text>
</a>
<path class="border" d="M326,214 V163 A43,21,0,0,1,412,163 V214" fill="none" stroke="black" stroke-width="1"/>
<text font-family="AppleSystemUIFont" font-size="12" font-weight="bold" textLength="11" x="333" y="184">
J1
</text>
<use href="#module_icon" x="333" y="221"/>
<text font-family="AppleSystemUIFont" font-size="12" font-weight="bold" x="405" y="142">
J
</text>
<text font-family="AppleSystemUIFont" font-size="12" textLength="72" x="333" y="204">
Some Context
</text>
</g>
<g class="gsnelem gsnawaysltn gsn_module_Sub3" id="node_Sn1">
<title>
Sn1
</title>
<a xlink:href="./sub3.gsn.svg#node_Sn1">
<rect fill="none" height="28" stroke="black" stroke-width="1" width="84" x="173" y="394"/>
<text font-family="AppleSystemUIFont" font-size="12" font-weight="bold" textLength="26" x="207" y="415">
Sub3
</text>
</a>
<path class="border" d="M173,394 V344 A42,42,0,0,1,257,344 V394" fill="none" stroke="black" stroke-width="1"/>
<text font-family="AppleSystemUIFont" font-size="12" font-weight="bold" textLength="18" x="180" y="365">
Sn1
</text>
<use href="#module_icon" x="180" y="401"/>
<text font-family="AppleSystemUIFont" font-size="12" textLength="49" x="180" y="385">
Solution 1
</text>
</g>
<path class="gsnedge gsninctxt" d="M258,61 C258,61,268,61,288,61" fill="none" marker-end="url(#incontextof_arrow)" stroke="black" stroke-width="1"/>
<path class="gsnedge gsninctxt" d="M286,192 C286,192,296,192,316,192" fill="none" marker-end="url(#incontextof_arrow)" stroke="black" stroke-width="1"/>
<path class="gsnedge gsninctxt" d="M144,192 C144,192,134,192,114,192" fill="none" marker-end="url(#incontextof_arrow)" stroke="black" stroke-width="1"/>
<path class="gsnedge gsninspby" d="M215,217 C215,247,215,272,215,292" fill="none" marker-end="url(#supportedby_arrow)" stroke="black" stroke-width="1"/>
<path class="gsnedge gsninspby" d="M482,86 C482,116,215,137,215,157" fill="none" marker-end="url(#supportedby_arrow)" stroke="black" stroke-width="1"/>
</svg>