<?xml version="1.0" encoding="UTF-8"?>
<svg class="gsndiagram" viewBox="0 0 352 247" xmlns="http://www.w3.org/2000/svg">
<defs>
<marker id="supportedby_arrow" markerHeight="9" markerUnits="userSpaceOnUse" markerWidth="10" orient="auto-start-reverse" refX="0" refY="4.5">
<polyline fill="black" points="0 0, 10 4.5, 0 9"/>
</marker>
<marker id="incontextof_arrow" markerHeight="9" markerUnits="userSpaceOnUse" markerWidth="10" orient="auto-start-reverse" refX="0" refY="4.5">
<polyline fill-opacity="0" points="0 0, 10 4.5, 0 9, 0 0" stroke="black" stroke-width="1"/>
</marker>
<symbol id="module_icon">
<rect fill="lightgrey" height="5" stroke="black" stroke-width="1" width="10" x="0" y="0"/>
<rect fill="lightgrey" height="10" stroke="black" stroke-width="1" width="20" x="0" y="5"/>
</symbol>
</defs>
<style>
@import url(https://github.com/jonasthewolf/gsn2x/blob/3439402d093ba54af4771b295e78f2488bd1b978/examples/modular/modular.css)
</style>
<a href="sub1.gsn.svg#node_g3">
<g class="gsn_module_sub1 gsnelem gsnawaygoal" id="node_g3">
<title>G3</title>
<path class="border" d="M20,71 V20 H168 V71" fill-opacity="0" stroke="black" stroke-width="1"/>
<text font-family="Arial" font-size="12" font-weight="bold" x="27" y="39">G3</text>
<text font-family="Arial" font-size="12" x="27" y="57">Conquer the submodules</text>
<a href="sub1.gsn.svg#node_g3">
<path class="border" d="M20,71 h148 v27 h-148 z" fill-opacity="0" stroke="black" stroke-width="1"/>
<text font-family="Arial" font-size="12" font-weight="bold" x="54" y="91">Sub1</text>
</a>
<use href="#module_icon" x="27" y="78"/>
</g>
</a>
<g class="gsn_module_sub3 gsnelem gsnctxt" id="node_c2">
<title>C2</title>
<path class="border" d="M218,37 L322,37 C332,37,332,81,322,81 L218,81 C208,81,208,37,218,37" fill-opacity="0" stroke="black" stroke-width="1"/>
<text font-family="Arial" font-size="12" font-weight="bold" x="225" y="56">C2</text>
<text font-family="Arial" font-size="12" x="225" y="74">Context 2</text>
</g>
<g class="gsn_module_sub3 gsnelem gsnsltn" id="node_sn1">
<title>Sn1</title>
<path class="border" d="M50,182 a44,44,0,1,0,88,0 a44,44,0,1,0,-88,0 z" fill-opacity="0" stroke="black" stroke-width="1"/>
<text font-family="Arial" font-size="12" font-weight="bold" x="68" y="174">Sn1</text>
<text font-family="Arial" font-size="12" x="68" y="192">Solution 1</text>
</g>
<path class="gsnedge gsninctxt" d="M168,59 C198,59,178,59,198,59" fill-opacity="0" marker-end="url(#incontextof_arrow)" stroke="black" stroke-width="1"/>
<path class="gsnedge gsninspby" d="M94,98 C94,128,94,108,94,128" fill-opacity="0" marker-end="url(#supportedby_arrow)" stroke="black" stroke-width="1"/>
</svg>