<svg viewBox="0 0 322 269" xmlns="http://www.w3.org/2000/svg" xmlns:xlink="http://www.w3.org/1999/xlink">
<symbol id="module_icon" viewbox="0 0 20 20">
<rect fill="lightgrey" height="5" stroke="black" stroke-width="1" width="10" x="0" y="0"/>
<rect fill="lightgrey" height="10" stroke="black" stroke-width="1" width="20" x="0" y="5"/>
</symbol>
<marker id="composite_arrow" markerHeight="9" markerUnits="users_posaceOnUse" markerWidth="10" orient="auto" refX="0" refY="4.5">
<polyline fill="none" points="0 0, 6 4.5, 0 9" stroke="black" stroke-width="1"/>
<polyline fill="none" points="4 0, 10 4.5, 4 9" stroke="black" stroke-width="1"/>
<polyline fill="none" points="0 4.5, 10 4.5" stroke="black" stroke-width="1"/>
</marker>
<marker id="supportedby_arrow" markerHeight="9" markerUnits="users_posaceOnUse" markerWidth="10" orient="auto" refX="0" refY="4.5">
<polyline fill="black" points="0 0, 10 4.5, 0 9"/>
</marker>
<marker id="incontextof_arrow" markerHeight="9" markerUnits="users_posaceOnUse" markerWidth="10" orient="auto" refX="0" refY="4.5">
<polyline fill="none" points="0 0, 10 4.5, 0 9, 0 0" stroke="black" stroke-width="1"/>
</marker>
<g class="gsnelem gsnawaygoal" id="node_G3">
<title>
G3
</title>
<rect fill="none" height="28" stroke="black" stroke-width="1" width="142" x="20" y="70"/>
<text font-family="AppleSystemUIFont" font-size="12" font-weight="bold" textLength="25" x="54" y="91">
Sub1
</text>
<path class="border" d="M20,70 V20 H162 V70" fill="none" stroke="black" stroke-width="1"/>
<text font-family="AppleSystemUIFont" font-size="12" font-weight="bold" textLength="15" x="27" y="41">
G3
</text>
<use href="#module_icon" x="27" y="77"/>
<text font-family="AppleSystemUIFont" font-size="12" textLength="128" x="27" y="61">
Conquer the submodules
</text>
</g>
<g class="gsnelem gsnctxt" id="node_C2">
<title>
C2
</title>
<path class="border" d="M212,36 L272,36 C282,36,282,82,272,82 L212,82 C202,82,202,36,212,36" fill="none" stroke="black" stroke-width="1"/>
<text font-family="AppleSystemUIFont" font-size="12" font-weight="bold" textLength="14" x="212" y="55">
C2
</text>
<text font-family="AppleSystemUIFont" font-size="12" textLength="49" x="212" y="75">
Context 2
</text>
</g>
<g class="gsnelem gsnsltn" id="node_Sn1">
<title>
Sn1
</title>
<ellipse class="border" cx="151" cy="174" fill="none" rx="35" ry="35" stroke="black" stroke-width="1"/>
<text font-family="AppleSystemUIFont" font-size="12" font-weight="bold" textLength="18" x="127" y="163">
Sn1
</text>
<text font-family="AppleSystemUIFont" font-size="12" textLength="49" x="127" y="183">
Solution 1
</text>
</g>
<path class="gsnedge gsnspby" d="M162,59 C162,59,172,59,192,59" fill="none" marker-end="url(#incontextof_arrow)" stroke="black" stroke-width="1"/>
<path class="gsnedge gsninctxt" d="M91,98 C91,128,151,109,151,129" fill="none" marker-end="url(#supportedby_arrow)" stroke="black" stroke-width="1"/>
<g class="gsnmeta" id="node_gsn_meta">
<title>
Meta Information
</title>
<text font-family="AppleSystemUIFont" font-size="12" textLength="71" x="56" y="235">
Module: Sub3
</text>
<text font-family="AppleSystemUIFont" font-size="12" textLength="246" x="56" y="249">
Generated on 2022-04-08 22:31:52.812724 UTC
</text>
</g>
</svg>