<svg viewBox="0 0 400 269" xmlns="http://www.w3.org/2000/svg" xmlns:xlink="http://www.w3.org/1999/xlink">
<symbol id="module_icon" viewbox="0 0 20 20">
<rect fill="lightgrey" height="5" stroke="black" stroke-width="1" width="10" x="0" y="0"/>
<rect fill="lightgrey" height="10" stroke="black" stroke-width="1" width="20" x="0" y="5"/>
</symbol>
<marker id="composite_arrow" markerHeight="20" markerUnits="users_posaceOnUse" markerWidth="20" orient="auto" refX="20" refY="10">
<polyline fill="none" points="0 0, 10 10, 0 20" stroke="black" stroke-width="1"/>
<polyline fill="none" points="10 0, 20 10, 10 20" stroke="black" stroke-width="1"/>
</marker>
<marker id="supportedby_arrow" markerHeight="9" markerUnits="users_posaceOnUse" markerWidth="10" orient="auto" refX="0" refY="4.5">
<polyline fill="black" points="0 0, 10 4.5, 0 9"/>
</marker>
<marker id="incontextof_arrow" markerHeight="9" markerUnits="users_posaceOnUse" markerWidth="10" orient="auto" refX="0" refY="4.5">
<polyline fill="none" points="0 0, 10 4.5, 0 9, 0 0" stroke="black" stroke-width="1"/>
</marker>
<g class="gsnelem gsnawaygoal" id="node_G3">
<title>
G3
</title>
<rect fill="none" height="28" stroke="black" stroke-width="1" width="221" x="20" y="70"/>
<text font-family="AppleSystemUIFont" font-size="12" font-weight="bold" textLength="180" x="54" y="91">
examples_modular_sub1_gsn_yaml
</text>
<path class="border" d="M20,70 V20 H240 V70" fill="none" stroke="black" stroke-width="1"/>
<text font-family="AppleSystemUIFont" font-size="12" font-weight="bold" x="27" y="41">
G3
</text>
<use href="#module_icon" x="27" y="77"/>
<text font-family="AppleSystemUIFont" font-size="12" textLength="128" x="27" y="61">
Conquer the submodules
</text>
</g>
<g class="gsnelem gsnctxt" id="node_C2">
<title>
C2
</title>
<path class="border" d="M290,36 L350,36 C360,36,360,82,350,82 L290,82 C280,82,280,36,290,36" fill="none" stroke="black" stroke-width="1"/>
<text font-family="AppleSystemUIFont" font-size="12" font-weight="bold" x="290" y="55">
C2
</text>
<text font-family="AppleSystemUIFont" font-size="12" textLength="49" x="290" y="75">
Context 2
</text>
</g>
<g class="gsnelem gsnsltn" id="node_Sn1">
<title>
Sn1
</title>
<ellipse class="border" cx="190" cy="174" fill="none" rx="35" ry="35" stroke="black" stroke-width="1"/>
<text font-family="AppleSystemUIFont" font-size="12" font-weight="bold" x="166" y="163">
Sn1
</text>
<text font-family="AppleSystemUIFont" font-size="12" textLength="49" x="166" y="183">
Solution 1
</text>
</g>
<path class="gsnedge gsnspby" d="M240,59 C240,59,250,59,270,59" fill="none" marker-end="url(#incontextof_arrow)" stroke="black" stroke-width="1"/>
<path class="gsnedge gsninctxt" d="M130,98 C130,128,190,109,190,129" fill="none" marker-end="url(#supportedby_arrow)" stroke="black" stroke-width="1"/>
</svg>