<svg viewBox="0 0 322 241" xmlns="http://www.w3.org/2000/svg" xmlns:xlink="http://www.w3.org/1999/xlink">
<symbol id="module_icon" viewbox="0 0 20 20">
<rect fill="lightgrey" height="5" stroke="black" stroke-width="1" width="10" x="0" y="0"/>
<rect fill="lightgrey" height="10" stroke="black" stroke-width="1" width="20" x="0" y="5"/>
</symbol>
<marker id="composite_arrow" markerHeight="20" markerUnits="users_posaceOnUse" markerWidth="20" orient="auto" refX="20" refY="10">
<polyline fill="none" points="0 0, 10 10, 0 20" stroke="black" stroke-width="1"/>
<polyline fill="none" points="10 0, 20 10, 10 20" stroke="black" stroke-width="1"/>
</marker>
<marker id="supportedby_arrow" markerHeight="9" markerUnits="users_posaceOnUse" markerWidth="10" orient="auto" refX="0" refY="4.5">
<polyline fill="black" points="0 0, 10 4.5, 0 9"/>
</marker>
<marker id="incontextof_arrow" markerHeight="9" markerUnits="users_posaceOnUse" markerWidth="10" orient="auto" refX="0" refY="4.5">
<polyline fill="none" points="0 0, 10 4.5, 0 9, 0 0" stroke="black" stroke-width="1"/>
</marker>
<g class="gsnelem gsnawaygoal" id="node_G3">
<title>
G3
</title>
<path class="border" d="M20,20 L162,20 L162,70 L20,70 z" fill="none" stroke="black" stroke-width="1"/>
<text font-family="AppleSystemUIFont" font-size="12" font-weight="bold" x="27" y="41">
G3
</text>
<use href="#module_icon" x="30" y="10"/>
<text font-family="AppleSystemUIFont" font-size="12" textLength="128" x="27" y="61">
Conquer the submodules
</text>
</g>
<g class="gsnelem gsnctxt" id="node_C2">
<title>
C2
</title>
<path class="border" d="M212,22 L272,22 C282,22,282,68,272,68 L212,68 C202,68,202,22,212,22" fill="none" stroke="black" stroke-width="1"/>
<text font-family="AppleSystemUIFont" font-size="12" font-weight="bold" x="212" y="41">
C2
</text>
<text font-family="AppleSystemUIFont" font-size="12" textLength="49" x="212" y="61">
Context 2
</text>
</g>
<g class="gsnelem gsnsltn" id="node_Sn1">
<title>
Sn1
</title>
<ellipse class="border" cx="151" cy="146" fill="none" rx="35" ry="35" stroke="black" stroke-width="1"/>
<text font-family="AppleSystemUIFont" font-size="12" font-weight="bold" x="127" y="135">
Sn1
</text>
<text font-family="AppleSystemUIFont" font-size="12" textLength="49" x="127" y="155">
Solution 1
</text>
</g>
<path class="gsnedge gsnspby" d="M162,45 C162,45,172,45,192,45" fill="none" marker-end="url(#incontextof_arrow)" stroke="black" stroke-width="1"/>
<path class="gsnedge gsninctxt" d="M91,70 C91,100,151,81,151,101" fill="none" marker-end="url(#supportedby_arrow)" stroke="black" stroke-width="1"/>
</svg>