<?xml version="1.0" encoding="UTF-8"?>
<svg classes="gsndiagram" viewBox="0 0 406 253" xmlns="http://www.w3.org/2000/svg">
<symbol id="module_icon">
<rect fill="lightgrey" height="5" stroke="black" stroke-width="1" width="10" x="0" y="0"/>
<rect fill="lightgrey" height="10" stroke="black" stroke-width="1" width="20" x="0" y="5"/>
</symbol>
<marker id="composite_arrow" markerHeight="9" markerUnits="userSpaceOnUse" markerWidth="10" orient="auto-start-reverse" refX="0" refY="4.5">
<polyline fill="none" points="0 0, 6 4.5, 0 9" stroke="black" stroke-width="1"/>
<polyline fill="none" points="4 0, 10 4.5, 4 9" stroke="black" stroke-width="1"/>
<polyline fill="none" points="0 4.5, 10 4.5" stroke="black" stroke-width="1"/>
</marker>
<marker id="supportedby_arrow" markerHeight="9" markerUnits="userSpaceOnUse" markerWidth="10" orient="auto-start-reverse" refX="0" refY="4.5">
<polyline fill="black" points="0 0, 10 4.5, 0 9"/>
</marker>
<marker id="incontextof_arrow" markerHeight="9" markerUnits="userSpaceOnUse" markerWidth="10" orient="auto-start-reverse" refX="0" refY="4.5">
<polyline fill="none" points="0 0, 10 4.5, 0 9, 0 0" stroke="black" stroke-width="1"/>
</marker>
<style>
@import ("modular.css")
</style>
<g class="gsnelem gsnawaygoal gsn_module_Sub1" id="node_G3">
<title>
G3
</title>
<path class="border" d="M20,72 V20 H180 V72" fill="none" stroke="black" stroke-width="1"/>
<text font-family="Arial" font-size="12" font-weight="bold" x="27" y="39">
G3
</text>
<text font-family="Arial" font-size="12" x="27" y="56">
Conquer the submodules
</text>
<a href="./sub1.gsn.svg#node_G3">
<rect fill="none" height="28" stroke="black" stroke-width="1" width="161" x="20" y="72"/>
<text font-family="Arial" font-size="12" font-weight="bold" x="54" y="93">
Sub1
</text>
</a>
<use href="#module_icon" x="27" y="79"/>
</g>
<g class="gsnelem gsnctxt gsn_module_Sub3" id="node_C2">
<title>
C2
</title>
<path class="border" d="M230,37 L334,37 C344,37,344,83,334,83 L230,83 C220,83,220,37,230,37" fill="none" stroke="black" stroke-width="1"/>
<text font-family="Arial" font-size="12" font-weight="bold" x="237" y="56">
C2
</text>
<text font-family="Arial" font-size="12" x="237" y="73">
Context 2
</text>
</g>
<g class="gsnelem gsnsltn gsn_module_Sub3" id="node_Sn1">
<title>
Sn1
</title>
<path class="border" d="M54,186 a46,46,0,1,0,92,0 a46,46,0,1,0,-92,0 z" fill="none" stroke="black" stroke-width="1"/>
<text font-family="Arial" font-size="12" font-weight="bold" x="72" y="177">
Sn1
</text>
<text font-family="Arial" font-size="12" x="72" y="194">
Solution 1
</text>
</g>
<path class="gsnedge gsninctxt" d="M180,60 C180,60,190,60,210,60" fill="none" marker-end="url(#incontextof_arrow)" stroke="black" stroke-width="1"/>
<path class="gsnedge gsninspby" d="M100,100 C100,130,100,110,100,130" fill="none" marker-end="url(#supportedby_arrow)" stroke="black" stroke-width="1"/>
</svg>