<?xml version="1.0" encoding="UTF-8"?>
<svg viewBox="0 0 382 245" xmlns="http://www.w3.org/2000/svg">
<symbol id="module_icon">
<rect fill="lightgrey" height="5" stroke="black" stroke-width="1" width="10" x="0" y="0"/>
<rect fill="lightgrey" height="10" stroke="black" stroke-width="1" width="20" x="0" y="5"/>
</symbol>
<marker id="composite_arrow" markerHeight="9" markerUnits="userSpaceOnUse" markerWidth="10" orient="auto-start-reverse" refX="0" refY="4.5">
<polyline fill="none" points="0 0, 6 4.5, 0 9" stroke="black" stroke-width="1"/>
<polyline fill="none" points="4 0, 10 4.5, 4 9" stroke="black" stroke-width="1"/>
<polyline fill="none" points="0 4.5, 10 4.5" stroke="black" stroke-width="1"/>
</marker>
<marker id="supportedby_arrow" markerHeight="9" markerUnits="userSpaceOnUse" markerWidth="10" orient="auto-start-reverse" refX="0" refY="4.5">
<polyline fill="black" points="0 0, 10 4.5, 0 9"/>
</marker>
<marker id="incontextof_arrow" markerHeight="9" markerUnits="userSpaceOnUse" markerWidth="10" orient="auto-start-reverse" refX="0" refY="4.5">
<polyline fill="none" points="0 0, 10 4.5, 0 9, 0 0" stroke="black" stroke-width="1"/>
</marker>
<style>
@import ("modular.css")
</style>
<g class="gsnelem gsnawaygoal gsn_module_Sub1" id="node_G3">
<title>
G3
</title>
<a href="./sub1.gsn.svg#node_G3">
<rect fill="none" height="29" stroke="black" stroke-width="1" width="187" x="20" y="71"/>
<text font-family="AppleSystemUIFont" font-size="12" font-weight="bold" textLength="28" x="54" y="93">
Sub1
</text>
</a>
<path class="border" d="M20,71 V20 H206 V71" fill="none" stroke="black" stroke-width="1"/>
<text font-family="AppleSystemUIFont" font-size="12" font-weight="bold" textLength="12" x="27" y="42">
G3
</text>
<use href="#module_icon" x="27" y="78"/>
<text font-family="AppleSystemUIFont" font-size="12" textLength="173" x="27" y="62">
Conquer the submodules
</text>
</g>
<g class="gsnelem gsnctxt gsn_module_Sub3" id="node_C2">
<title>
C2
</title>
<path class="border" d="M256,36 L326,36 C336,36,336,84,326,84 L256,84 C246,84,246,36,256,36" fill="none" stroke="black" stroke-width="1"/>
<text font-family="AppleSystemUIFont" font-size="12" font-weight="bold" textLength="11" x="256" y="56">
C2
</text>
<text font-family="AppleSystemUIFont" font-size="12" textLength="61" x="256" y="76">
Context 2
</text>
</g>
<g class="gsnelem gsnsltn gsn_module_Sub3" id="node_Sn1">
<title>
Sn1
</title>
<ellipse class="border" cx="113" cy="182" fill="none" rx="42" ry="42" stroke="black" stroke-width="1"/>
<text font-family="AppleSystemUIFont" font-size="12" font-weight="bold" textLength="19" x="82" y="171">
Sn1
</text>
<text font-family="AppleSystemUIFont" font-size="12" textLength="63" x="82" y="191">
Solution 1
</text>
</g>
<path class="gsnedge gsninctxt" d="M206,60 C206,60,216,60,236,60" fill="none" marker-end="url(#incontextof_arrow)" stroke="black" stroke-width="1"/>
<path class="gsnedge gsninspby" d="M113,100 C113,130,113,110,113,130" fill="none" marker-end="url(#supportedby_arrow)" stroke="black" stroke-width="1"/>
</svg>