<?xml version="1.0" encoding="UTF-8" standalone="no"?>
<!DOCTYPE svg PUBLIC "-//W3C//DTD SVG 1.1//EN"
 "http://www.w3.org/Graphics/SVG/1.1/DTD/svg11.dtd">
<!-- Generated by graphviz version 2.48.0 (20210717.1556)
 -->
<!-- Title: example.gsn.yaml Pages: 1 -->
<svg width="934pt" height="499pt"
 viewBox="0.00 0.00 934.00 499.13" xmlns="http://www.w3.org/2000/svg" xmlns:xlink="http://www.w3.org/1999/xlink">
<g id="graph0" class="graph" transform="scale(1 1) rotate(0) translate(4 495.13)">
<title>example.gsn.yaml</title>
<polygon fill="white" stroke="transparent" points="-4,4 -4,-495.13 930,-495.13 930,4 -4,4"/>
<g id="clust1" class="cluster">
<title>cluster7</title>
</g>
<g id="clust3" class="cluster">
<title>cluster8</title>
</g>
<g id="clust5" class="cluster">
<title>cluster9</title>
</g>
<g id="clust7" class="cluster">
<title>cluster13</title>
</g>
<!-- A1 -->
<g id="node1" class="node">
<title>A1</title>
<ellipse fill="none" stroke="black" cx="420" cy="-279.89" rx="59.29" ry="25.41"/>
<text text-anchor="start" x="386" y="-283.69" font-family="Times,serif" font-weight="bold" font-size="14.00">A1</text>
<text text-anchor="start" x="386" y="-269.69" font-family="Times,serif" font-size="14.00">Argument 1</text>
</g>
<!-- A1&#45;&gt;A1 -->
<g id="edge1" class="edge">
<title>A1:e&#45;&gt;A1:e</title>
<path fill="none" stroke="black" stroke-width="0" d="M480,-279.89C485.4,-307.89 497.4,-307.89 497.4,-279.89 497.4,-251.89 485.4,-251.89 480,-279.89"/>
<text text-anchor="start" x="465.47" y="-252.7" font-family="Times,serif" font-size="14.00"> </text>
<text text-anchor="start" x="469.47" y="-252.7" font-family="Times,serif" font-weight="bold" font-size="14.00">A</text>
<text text-anchor="start" x="480.47" y="-252.7" font-family="Times,serif" font-size="14.00"> </text>
</g>
<!-- A2 -->
<g id="node2" class="node">
<title>A2</title>
<ellipse fill="none" stroke="black" cx="83" cy="-166.11" rx="67.35" ry="25.41"/>
<text text-anchor="start" x="43.5" y="-169.91" font-family="Times,serif" font-weight="bold" font-size="14.00">A2</text>
<text text-anchor="start" x="43.5" y="-155.91" font-family="Times,serif" font-size="14.00">Assumption 2</text>
</g>
<!-- A2&#45;&gt;A2 -->
<g id="edge2" class="edge">
<title>A2:e&#45;&gt;A2:e</title>
<path fill="none" stroke="black" stroke-width="0" d="M150,-166.11C156.18,-194.11 168.18,-194.11 168.18,-166.11 168.18,-138.11 156.18,-138.11 150,-166.11"/>
<text text-anchor="start" x="136.11" y="-138.8" font-family="Times,serif" font-size="14.00"> </text>
<text text-anchor="start" x="140.11" y="-138.8" font-family="Times,serif" font-weight="bold" font-size="14.00">A</text>
<text text-anchor="start" x="151.11" y="-138.8" font-family="Times,serif" font-size="14.00"> </text>
</g>
<!-- G5 -->
<g id="node9" class="node">
<title>G5</title>
<polygon fill="none" stroke="black" points="240,-184.11 186,-184.11 186,-148.11 240,-148.11 240,-184.11"/>
<text text-anchor="start" x="194" y="-169.91" font-family="Times,serif" font-weight="bold" font-size="14.00">G5</text>
<text text-anchor="start" x="194" y="-155.91" font-family="Times,serif" font-size="14.00">Goal 5</text>
</g>
<!-- A2&#45;&gt;G5 -->
<g id="edge16" class="edge">
<title>A2&#45;&gt;G5</title>
<path fill="none" stroke="black" d="M160.48,-166.11C168.84,-166.11 177.2,-166.11 185.56,-166.11"/>
<polygon fill="none" stroke="black" points="160.29,-162.61 150.29,-166.11 160.29,-169.61 160.29,-162.61"/>
</g>
<!-- C1 -->
<g id="node3" class="node">
<title>C1</title>
<path fill="none" stroke="black" d="M649.5,-411.67C649.5,-411.67 602.5,-411.67 602.5,-411.67 596.5,-411.67 590.5,-405.67 590.5,-399.67 590.5,-399.67 590.5,-387.67 590.5,-387.67 590.5,-381.67 596.5,-375.67 602.5,-375.67 602.5,-375.67 649.5,-375.67 649.5,-375.67 655.5,-375.67 661.5,-381.67 661.5,-387.67 661.5,-387.67 661.5,-399.67 661.5,-399.67 661.5,-405.67 655.5,-411.67 649.5,-411.67"/>
<text text-anchor="start" x="598.5" y="-397.47" font-family="Times,serif" font-weight="bold" font-size="14.00">C1</text>
<text text-anchor="start" x="598.5" y="-383.47" font-family="Times,serif" font-size="14.00">Context 1</text>
</g>
<!-- C2 -->
<g id="node4" class="node">
<title>C2</title>
<path fill="none" stroke="black" d="M317.5,-191.11C317.5,-191.11 270.5,-191.11 270.5,-191.11 264.5,-191.11 258.5,-185.11 258.5,-179.11 258.5,-179.11 258.5,-153.11 258.5,-153.11 258.5,-147.11 264.5,-141.11 270.5,-141.11 270.5,-141.11 317.5,-141.11 317.5,-141.11 323.5,-141.11 329.5,-147.11 329.5,-153.11 329.5,-153.11 329.5,-179.11 329.5,-179.11 329.5,-185.11 323.5,-191.11 317.5,-191.11"/>
<text text-anchor="start" x="266.5" y="-176.91" font-family="Times,serif" font-weight="bold" font-size="14.00">C2</text>
<text text-anchor="start" x="266.5" y="-162.91" font-family="Times,serif" font-size="14.00">Context 2</text>
<text text-anchor="start" x="267.5" y="-148.91" font-family="Times,serif" font-size="14.00">Multiline</text>
</g>
<!-- G1 -->
<g id="node5" class="node">
<title>G1</title>
<polygon fill="none" stroke="black" points="572,-491.13 518,-491.13 518,-455.13 572,-455.13 572,-491.13"/>
<text text-anchor="start" x="526" y="-476.93" font-family="Times,serif" font-weight="bold" font-size="14.00">G1</text>
<text text-anchor="start" x="526" y="-462.93" font-family="Times,serif" font-size="14.00">Goal 1</text>
</g>
<!-- G2 -->
<g id="node6" class="node">
<title>G2</title>
<polygon fill="none" stroke="black" points="397,-411.67 343,-411.67 343,-375.67 397,-375.67 397,-411.67"/>
<text text-anchor="start" x="351" y="-397.47" font-family="Times,serif" font-weight="bold" font-size="14.00">G2</text>
<text text-anchor="start" x="351" y="-383.47" font-family="Times,serif" font-size="14.00">Goal 2</text>
</g>
<!-- G1&#45;&gt;G2 -->
<g id="edge5" class="edge">
<title>G1&#45;&gt;G2</title>
<path fill="none" stroke="black" d="M517.66,-460.02C487.73,-446.78 439.62,-425.48 406.49,-410.82"/>
<polygon fill="black" stroke="black" points="407.71,-407.54 397.15,-406.69 404.88,-413.94 407.71,-407.54"/>
</g>
<!-- G3 -->
<g id="node7" class="node">
<title>G3</title>
<polygon fill="none" stroke="black" points="572,-411.67 518,-411.67 518,-375.67 572,-375.67 572,-411.67"/>
<text text-anchor="start" x="526" y="-397.47" font-family="Times,serif" font-weight="bold" font-size="14.00">G3</text>
<text text-anchor="start" x="526" y="-383.47" font-family="Times,serif" font-size="14.00">Goal 3</text>
</g>
<!-- G1&#45;&gt;G3 -->
<g id="edge6" class="edge">
<title>G1&#45;&gt;G3</title>
<path fill="none" stroke="black" d="M545,-454.94C545,-445.21 545,-432.82 545,-421.82"/>
<polygon fill="black" stroke="black" points="548.5,-421.81 545,-411.81 541.5,-421.81 548.5,-421.81"/>
</g>
<!-- G4 -->
<g id="node8" class="node">
<title>G4</title>
<polygon fill="none" stroke="black" points="740,-411.67 686,-411.67 686,-375.67 740,-375.67 740,-411.67"/>
<text text-anchor="start" x="694" y="-397.47" font-family="Times,serif" font-weight="bold" font-size="14.00">G4</text>
<text text-anchor="start" x="694" y="-383.47" font-family="Times,serif" font-size="14.00">Goal 4</text>
</g>
<!-- G1&#45;&gt;G4 -->
<g id="edge7" class="edge">
<title>G1&#45;&gt;G4</title>
<path fill="none" stroke="black" d="M572.13,-465.71C599.1,-458.64 641.07,-445.76 674,-427.13 678.49,-424.59 682.96,-421.52 687.19,-418.29"/>
<polygon fill="black" stroke="black" points="689.4,-421 694.97,-411.98 684.99,-415.56 689.4,-421"/>
</g>
<!-- S1 -->
<g id="node13" class="node">
<title>S1</title>
<polygon fill="none" stroke="black" points="342.94,-315.89 220.55,-315.89 189.06,-243.89 311.45,-243.89 342.94,-315.89"/>
<text text-anchor="start" x="237" y="-283.69" font-family="Times,serif" font-weight="bold" font-size="14.00">S1</text>
<text text-anchor="start" x="237" y="-269.69" font-family="Times,serif" font-size="14.00">Strategy 1</text>
</g>
<!-- G2&#45;&gt;S1 -->
<g id="edge8" class="edge">
<title>G2&#45;&gt;S1</title>
<path fill="none" stroke="black" d="M353.75,-375.21C340.95,-361.45 322.56,-341.68 305.91,-323.79"/>
<polygon fill="black" stroke="black" points="308.28,-321.2 298.91,-316.26 303.16,-325.96 308.28,-321.2"/>
</g>
<!-- G3&#45;&gt;C1 -->
<g id="edge10" class="edge">
<title>G3&#45;&gt;C1</title>
<path fill="none" stroke="black" d="M572.21,-393.67C574.85,-393.67 577.48,-393.67 580.12,-393.67"/>
<polygon fill="none" stroke="black" points="580.28,-397.17 590.28,-393.67 580.28,-390.17 580.28,-397.17"/>
</g>
<!-- Sn1 -->
<g id="node14" class="node">
<title>Sn1</title>
<g id="a_node14"><a xlink:href="https://github.com/jonasthewolf/gsn2x" xlink:title="&lt;B&gt;Sn1&lt;/B&gt;&lt;BR align=&quot;left&quot;/&gt;Solution 1">
<ellipse fill="none" stroke="black" cx="568" cy="-279.89" rx="52.15" ry="52.15"/>
<text text-anchor="start" x="539" y="-283.69" font-family="Times,serif" font-weight="bold" font-size="14.00">Sn1</text>
<text text-anchor="start" x="539" y="-269.69" font-family="Times,serif" font-size="14.00">Solution 1</text>
</a>
</g>
</g>
<!-- G3&#45;&gt;Sn1 -->
<g id="edge9" class="edge">
<title>G3&#45;&gt;Sn1</title>
<path fill="none" stroke="black" d="M548.59,-375.21C550.51,-365.9 552.99,-353.85 555.53,-341.48"/>
<polygon fill="black" stroke="black" points="558.99,-342.05 557.58,-331.55 552.13,-340.64 558.99,-342.05"/>
</g>
<!-- J2 -->
<g id="node12" class="node">
<title>J2</title>
<ellipse fill="none" stroke="black" cx="825" cy="-393.67" rx="67.35" ry="25.41"/>
<text text-anchor="start" x="785.5" y="-397.47" font-family="Times,serif" font-weight="bold" font-size="14.00">J2</text>
<text text-anchor="start" x="785.5" y="-383.47" font-family="Times,serif" font-size="14.00">Justification 2</text>
</g>
<!-- G4&#45;&gt;J2 -->
<g id="edge12" class="edge">
<title>G4&#45;&gt;J2</title>
<path fill="none" stroke="black" d="M740.12,-393.67C742.6,-393.67 745.07,-393.67 747.54,-393.67"/>
<polygon fill="none" stroke="black" points="747.7,-397.17 757.7,-393.67 747.7,-390.17 747.7,-397.17"/>
</g>
<!-- Sn2 -->
<g id="node15" class="node">
<title>Sn2</title>
<ellipse fill="none" stroke="black" cx="713" cy="-279.89" rx="52.15" ry="52.15"/>
<text text-anchor="start" x="684" y="-283.69" font-family="Times,serif" font-weight="bold" font-size="14.00">Sn2</text>
<text text-anchor="start" x="684" y="-269.69" font-family="Times,serif" font-size="14.00">Solution 2</text>
</g>
<!-- G4&#45;&gt;Sn2 -->
<g id="edge11" class="edge">
<title>G4&#45;&gt;Sn2</title>
<path fill="none" stroke="black" d="M713,-375.21C713,-366.19 713,-354.58 713,-342.61"/>
<polygon fill="black" stroke="black" points="716.5,-342.53 713,-332.53 709.5,-342.53 716.5,-342.53"/>
</g>
<!-- G5&#45;&gt;C2 -->
<g id="edge15" class="edge">
<title>G5&#45;&gt;C2</title>
<path fill="none" stroke="black" d="M240.21,-166.11C242.85,-166.11 245.48,-166.11 248.12,-166.11"/>
<polygon fill="none" stroke="black" points="248.28,-169.61 258.28,-166.11 248.28,-162.61 248.28,-169.61"/>
</g>
<!-- Sn3 -->
<g id="node16" class="node">
<title>Sn3</title>
<ellipse fill="none" stroke="black" cx="294" cy="-52.33" rx="52.15" ry="52.15"/>
<text text-anchor="start" x="265" y="-56.13" font-family="Times,serif" font-weight="bold" font-size="14.00">Sn3</text>
<text text-anchor="start" x="265" y="-42.13" font-family="Times,serif" font-size="14.00">Solution 3</text>
</g>
<!-- G5&#45;&gt;Sn3 -->
<g id="edge13" class="edge">
<title>G5&#45;&gt;Sn3</title>
<path fill="none" stroke="black" d="M225.66,-147.64C234.3,-135.72 246.21,-119.28 257.67,-103.46"/>
<polygon fill="black" stroke="black" points="260.57,-105.42 263.61,-95.27 254.91,-101.31 260.57,-105.42"/>
</g>
<!-- Sn4 -->
<g id="node17" class="node">
<title>Sn4</title>
<ellipse fill="none" stroke="black" cx="171" cy="-52.33" rx="52.15" ry="52.15"/>
<text text-anchor="start" x="142" y="-56.13" font-family="Times,serif" font-weight="bold" font-size="14.00">Sn4</text>
<text text-anchor="start" x="142" y="-42.13" font-family="Times,serif" font-size="14.00">Solution 4</text>
</g>
<!-- G5&#45;&gt;Sn4 -->
<g id="edge14" class="edge">
<title>G5&#45;&gt;Sn4</title>
<path fill="none" stroke="black" d="M206.44,-147.64C202.69,-137.66 197.75,-124.51 192.75,-111.21"/>
<polygon fill="black" stroke="black" points="195.91,-109.67 189.12,-101.54 189.36,-112.13 195.91,-109.67"/>
</g>
<!-- G6 -->
<g id="node10" class="node">
<title>G6</title>
<polygon fill="none" stroke="black" points="402,-184.11 348,-184.11 348,-148.11 402,-148.11 402,-184.11"/>
<text text-anchor="start" x="356" y="-169.91" font-family="Times,serif" font-weight="bold" font-size="14.00">G6</text>
<text text-anchor="start" x="356" y="-155.91" font-family="Times,serif" font-size="14.00">Goal 6</text>
</g>
<!-- G6&#45;&gt;Sn3 -->
<g id="edge17" class="edge">
<title>G6&#45;&gt;Sn3</title>
<path fill="none" stroke="black" d="M362.34,-147.64C353.7,-135.72 341.79,-119.28 330.33,-103.46"/>
<polygon fill="black" stroke="black" points="333.09,-101.31 324.39,-95.27 327.43,-105.42 333.09,-101.31"/>
</g>
<!-- Sn5 -->
<g id="node18" class="node">
<title>Sn5</title>
<ellipse fill="none" stroke="black" cx="417" cy="-52.33" rx="52.15" ry="52.15"/>
<text text-anchor="start" x="388" y="-56.13" font-family="Times,serif" font-weight="bold" font-size="14.00">Sn5</text>
<text text-anchor="start" x="388" y="-42.13" font-family="Times,serif" font-size="14.00">Solution 5</text>
</g>
<!-- G6&#45;&gt;Sn5 -->
<g id="edge18" class="edge">
<title>G6&#45;&gt;Sn5</title>
<path fill="none" stroke="black" d="M381.56,-147.64C385.31,-137.66 390.25,-124.51 395.25,-111.21"/>
<polygon fill="black" stroke="black" points="398.64,-112.13 398.88,-101.54 392.09,-109.67 398.64,-112.13"/>
</g>
<!-- J1 -->
<g id="node11" class="node">
<title>J1</title>
<ellipse fill="none" stroke="black" cx="86" cy="-279.89" rx="67.35" ry="25.41"/>
<text text-anchor="start" x="46.5" y="-283.69" font-family="Times,serif" font-weight="bold" font-size="14.00">J1</text>
<text text-anchor="start" x="46.5" y="-269.69" font-family="Times,serif" font-size="14.00">Justification 1</text>
</g>
<!-- J1&#45;&gt;J1 -->
<g id="edge3" class="edge">
<title>J1:e&#45;&gt;J1:e</title>
<path fill="none" stroke="black" stroke-width="0" d="M153,-279.89C159.18,-307.89 171.18,-307.89 171.18,-279.89 171.18,-251.89 159.18,-251.89 153,-279.89"/>
<text text-anchor="start" x="141.11" y="-252.58" font-family="Times,serif" font-size="14.00"> </text>
<text text-anchor="start" x="145.11" y="-252.58" font-family="Times,serif" font-weight="bold" font-size="14.00">J</text>
<text text-anchor="start" x="152.11" y="-252.58" font-family="Times,serif" font-size="14.00"> </text>
</g>
<!-- J1&#45;&gt;S1 -->
<g id="edge22" class="edge">
<title>J1&#45;&gt;S1</title>
<path fill="none" stroke="black" d="M163.85,-279.89C177.4,-279.89 190.94,-279.89 204.48,-279.89"/>
<polygon fill="none" stroke="black" points="163.5,-276.39 153.5,-279.89 163.5,-283.39 163.5,-276.39"/>
</g>
<!-- J2&#45;&gt;J2 -->
<g id="edge4" class="edge">
<title>J2:e&#45;&gt;J2:e</title>
<path fill="none" stroke="black" stroke-width="0" d="M892,-393.67C898.18,-413.17 910.18,-413.17 910.18,-393.67 910.18,-374.17 898.18,-374.17 892,-393.67"/>
<text text-anchor="start" x="882.71" y="-366.04" font-family="Times,serif" font-size="14.00"> </text>
<text text-anchor="start" x="886.71" y="-366.04" font-family="Times,serif" font-weight="bold" font-size="14.00">J</text>
<text text-anchor="start" x="893.71" y="-366.04" font-family="Times,serif" font-size="14.00"> </text>
</g>
<!-- S1&#45;&gt;A1 -->
<g id="edge21" class="edge">
<title>S1&#45;&gt;A1</title>
<path fill="none" stroke="black" d="M327.36,-279.89C334.99,-279.89 342.62,-279.89 350.26,-279.89"/>
<polygon fill="none" stroke="black" points="350.29,-283.39 360.29,-279.89 350.29,-276.39 350.29,-283.39"/>
</g>
<!-- S1&#45;&gt;G5 -->
<g id="edge19" class="edge">
<title>S1&#45;&gt;G5</title>
<path fill="none" stroke="black" d="M249.38,-243.83C241.66,-227.55 232.63,-208.51 225.5,-193.48"/>
<polygon fill="black" stroke="black" points="228.57,-191.78 221.12,-184.24 222.25,-194.78 228.57,-191.78"/>
</g>
<!-- S1&#45;&gt;G6 -->
<g id="edge20" class="edge">
<title>S1&#45;&gt;G6</title>
<path fill="none" stroke="black" d="M300.19,-243.83C316.67,-226.93 336.04,-207.06 350.95,-191.78"/>
<polygon fill="black" stroke="black" points="353.82,-193.84 358.29,-184.24 348.8,-188.96 353.82,-193.84"/>
</g>
</g>
</svg>
