<?xml version="1.0" encoding="UTF-8" standalone="no"?>
<!DOCTYPE svg PUBLIC "-//W3C//DTD SVG 1.1//EN"
 "http://www.w3.org/Graphics/SVG/1.1/DTD/svg11.dtd">
<!-- Generated by graphviz version 2.48.0 (20210717.1556)
 -->
<!-- Title: example.gsn.yaml Pages: 1 -->
<svg width="1064pt" height="641pt"
 viewBox="0.00 0.00 1064.00 640.93" xmlns="http://www.w3.org/2000/svg" xmlns:xlink="http://www.w3.org/1999/xlink">
<g id="graph0" class="graph gsndiagram" transform="scale(1 1) rotate(0) translate(4 636.93)">
<title>example.gsn.yaml</title>
<polygon fill="white" stroke="transparent" points="-4,4 -4,-636.93 1060,-636.93 1060,4 -4,4"/>
<g id="clust1" class="cluster gsndiagram">
<title>cluster7</title>
</g>
<g id="clust3" class="cluster gsndiagram">
<title>cluster8</title>
</g>
<g id="clust5" class="cluster gsndiagram">
<title>cluster9</title>
</g>
<g id="clust7" class="cluster gsndiagram">
<title>cluster14</title>
</g>
<!-- A1 -->
<g id="gsn_a1" class="node gsnelem gsnasmp">
<title>A1</title>
<ellipse fill="none" stroke="black" cx="417" cy="-333.63" rx="59.29" ry="25.41"/>
<text text-anchor="start" x="383" y="-337.43" font-family="Times,serif" font-weight="bold" font-size="14.00">A1</text>
<text text-anchor="start" x="383" y="-323.43" font-family="Times,serif" font-size="14.00">Argument 1</text>
</g>
<!-- A1&#45;&gt;A1 -->
<g id="edge1" class="edge">
<title>A1:e&#45;&gt;A1:e</title>
<path fill="none" stroke="black" stroke-width="0" d="M477,-333.63C482.4,-368.63 494.4,-368.63 494.4,-333.63 494.4,-298.63 482.4,-298.63 477,-333.63"/>
<text text-anchor="start" x="461.36" y="-306.7" font-family="Times,serif" font-size="14.00"> </text>
<text text-anchor="start" x="465.36" y="-306.7" font-family="Times,serif" font-weight="bold" font-size="14.00">A</text>
<text text-anchor="start" x="476.36" y="-306.7" font-family="Times,serif" font-size="14.00"> </text>
</g>
<!-- A2 -->
<g id="gsn_a2" class="node gsnelem gsnasmp mycssclass anotherclass">
<title>A2</title>
<ellipse fill="none" stroke="black" cx="108" cy="-192.98" rx="67.35" ry="25.41"/>
<text text-anchor="start" x="68.5" y="-196.78" font-family="Times,serif" font-weight="bold" font-size="14.00">A2</text>
<text text-anchor="start" x="68.5" y="-182.78" font-family="Times,serif" font-size="14.00">Assumption 2</text>
</g>
<!-- A2&#45;&gt;A2 -->
<g id="edge2" class="edge">
<title>A2:e&#45;&gt;A2:e</title>
<path fill="none" stroke="black" stroke-width="0" d="M175,-192.98C181.18,-227.98 193.18,-227.98 193.18,-192.98 193.18,-157.98 181.18,-157.98 175,-192.98"/>
<text text-anchor="start" x="159.88" y="-165.92" font-family="Times,serif" font-size="14.00"> </text>
<text text-anchor="start" x="163.88" y="-165.92" font-family="Times,serif" font-weight="bold" font-size="14.00">A</text>
<text text-anchor="start" x="174.88" y="-165.92" font-family="Times,serif" font-size="14.00"> </text>
</g>
<!-- G5 -->
<g id="gsn_g5" class="node gsnelem gsngoal">
<title>G5</title>
<polygon fill="none" stroke="black" points="265,-210.98 211,-210.98 211,-174.98 265,-174.98 265,-210.98"/>
<text text-anchor="start" x="219" y="-196.78" font-family="Times,serif" font-weight="bold" font-size="14.00">G5</text>
<text text-anchor="start" x="219" y="-182.78" font-family="Times,serif" font-size="14.00">Goal 5</text>
</g>
<!-- A2&#45;&gt;G5 -->
<g id="edge17" class="edge gsnedge gsninctxt">
<title>A2&#45;&gt;G5</title>
<path fill="none" stroke="black" d="M185.48,-192.98C193.84,-192.98 202.2,-192.98 210.56,-192.98"/>
<polygon fill="none" stroke="black" points="185.29,-189.48 175.29,-192.98 185.29,-196.48 185.29,-189.48"/>
</g>
<!-- C1 -->
<g id="gsn_c1" class="node gsnelem gsnctxt">
<title>C1</title>
<path fill="none" stroke="black" d="M640.5,-492.28C640.5,-492.28 593.5,-492.28 593.5,-492.28 587.5,-492.28 581.5,-486.28 581.5,-480.28 581.5,-480.28 581.5,-468.28 581.5,-468.28 581.5,-462.28 587.5,-456.28 593.5,-456.28 593.5,-456.28 640.5,-456.28 640.5,-456.28 646.5,-456.28 652.5,-462.28 652.5,-468.28 652.5,-468.28 652.5,-480.28 652.5,-480.28 652.5,-486.28 646.5,-492.28 640.5,-492.28"/>
<text text-anchor="start" x="589.5" y="-478.08" font-family="Times,serif" font-weight="bold" font-size="14.00">C1</text>
<text text-anchor="start" x="589.5" y="-464.08" font-family="Times,serif" font-size="14.00">Context 1</text>
</g>
<!-- C2 -->
<g id="gsn_c2" class="node gsnelem gsnctxt">
<title>C2</title>
<path fill="none" stroke="black" d="M342.5,-217.98C342.5,-217.98 295.5,-217.98 295.5,-217.98 289.5,-217.98 283.5,-211.98 283.5,-205.98 283.5,-205.98 283.5,-179.98 283.5,-179.98 283.5,-173.98 289.5,-167.98 295.5,-167.98 295.5,-167.98 342.5,-167.98 342.5,-167.98 348.5,-167.98 354.5,-173.98 354.5,-179.98 354.5,-179.98 354.5,-205.98 354.5,-205.98 354.5,-211.98 348.5,-217.98 342.5,-217.98"/>
<text text-anchor="start" x="291.5" y="-203.78" font-family="Times,serif" font-weight="bold" font-size="14.00">C2</text>
<text text-anchor="start" x="291.5" y="-189.78" font-family="Times,serif" font-size="14.00">Context 2</text>
<text text-anchor="start" x="292.5" y="-175.78" font-family="Times,serif" font-size="14.00">Multiline</text>
</g>
<!-- G1 -->
<g id="gsn_g1" class="node gsnelem gsngoal">
<title>G1</title>
<polygon fill="none" stroke="black" points="563,-632.93 509,-632.93 509,-596.93 563,-596.93 563,-632.93"/>
<text text-anchor="start" x="517" y="-618.73" font-family="Times,serif" font-weight="bold" font-size="14.00">G1</text>
<text text-anchor="start" x="517" y="-604.73" font-family="Times,serif" font-size="14.00">Goal 1</text>
</g>
<!-- G2 -->
<g id="gsn_g2" class="node gsnelem gsngoal">
<title>G2</title>
<polygon fill="none" stroke="black" points="405,-492.28 351,-492.28 351,-456.28 405,-456.28 405,-492.28"/>
<text text-anchor="start" x="359" y="-478.08" font-family="Times,serif" font-weight="bold" font-size="14.00">G2</text>
<text text-anchor="start" x="359" y="-464.08" font-family="Times,serif" font-size="14.00">Goal 2</text>
</g>
<!-- G1&#45;&gt;G2 -->
<g id="edge6" class="edge gsnedge gsnspby">
<title>G1&#45;&gt;G2</title>
<path fill="none" stroke="black" d="M516.63,-596.93C488.67,-572.4 436.9,-526.97 405.15,-499.1"/>
<polygon fill="black" stroke="black" points="407.36,-496.39 397.53,-492.42 402.74,-501.65 407.36,-496.39"/>
</g>
<!-- G3 -->
<g id="gsn_g3" class="node gsnelem gsngoal">
<title>G3</title>
<polygon fill="none" stroke="black" points="563,-492.28 509,-492.28 509,-456.28 563,-456.28 563,-492.28"/>
<text text-anchor="start" x="517" y="-478.08" font-family="Times,serif" font-weight="bold" font-size="14.00">G3</text>
<text text-anchor="start" x="517" y="-464.08" font-family="Times,serif" font-size="14.00">Goal 3</text>
</g>
<!-- G1&#45;&gt;G3 -->
<g id="edge7" class="edge gsnedge gsnspby">
<title>G1&#45;&gt;G3</title>
<path fill="none" stroke="black" d="M536,-596.93C536,-573.44 536,-530.78 536,-502.74"/>
<polygon fill="black" stroke="black" points="539.5,-502.42 536,-492.42 532.5,-502.42 539.5,-502.42"/>
</g>
<!-- S2 -->
<g id="gsn_s2" class="node gsnelem gsnstgy">
<title>S2</title>
<polygon fill="none" stroke="black" points="823.94,-510.28 701.55,-510.28 670.06,-438.28 792.45,-438.28 823.94,-510.28"/>
<text text-anchor="start" x="718" y="-478.08" font-family="Times,serif" font-weight="bold" font-size="14.00">S2</text>
<text text-anchor="start" x="718" y="-464.08" font-family="Times,serif" font-size="14.00">Solution 2</text>
</g>
<!-- G1&#45;&gt;S2 -->
<g id="edge8" class="edge gsnedge gsnspby">
<title>G1&#45;&gt;S2</title>
<path fill="none" stroke="black" d="M561.87,-596.93C593.89,-575.89 649.3,-539.48 691.18,-511.96"/>
<polygon fill="black" stroke="black" points="693.2,-514.82 699.63,-506.41 689.35,-508.97 693.2,-514.82"/>
</g>
<!-- S1 -->
<g id="gsn_s1" class="node gsnelem gsnstgy">
<title>S1</title>
<polygon fill="none" stroke="black" points="339.94,-369.63 217.55,-369.63 186.06,-297.63 308.45,-297.63 339.94,-369.63"/>
<text text-anchor="start" x="234" y="-337.43" font-family="Times,serif" font-weight="bold" font-size="14.00">S1</text>
<text text-anchor="start" x="234" y="-323.43" font-family="Times,serif" font-size="14.00">Strategy 1</text>
</g>
<!-- G2&#45;&gt;S1 -->
<g id="edge9" class="edge gsnedge gsnspby">
<title>G2&#45;&gt;S1</title>
<path fill="none" stroke="black" d="M363.9,-456.28C347.81,-436.88 320.88,-404.42 298.89,-377.9"/>
<polygon fill="black" stroke="black" points="301.32,-375.35 292.24,-369.89 295.93,-379.82 301.32,-375.35"/>
</g>
<!-- G3&#45;&gt;C1 -->
<g id="edge11" class="edge gsnedge gsninctxt">
<title>G3&#45;&gt;C1</title>
<path fill="none" stroke="black" d="M563.21,-474.28C565.85,-474.28 568.48,-474.28 571.12,-474.28"/>
<polygon fill="none" stroke="black" points="571.28,-477.78 581.28,-474.28 571.28,-470.78 571.28,-477.78"/>
</g>
<!-- Sn1 -->
<g id="gsn_sn1" class="node gsnelem gsnsltn">
<title>Sn1</title>
<g id="a_gsn_sn1"><a xlink:href="https://github.com/jonasthewolf/gsn2x" xlink:title="&lt;B&gt;Sn1&lt;/B&gt;&lt;BR align=&quot;left&quot;/&gt;Solution 1">
<ellipse fill="none" stroke="black" cx="565" cy="-333.63" rx="52.15" ry="52.15"/>
<text text-anchor="start" x="536" y="-337.43" font-family="Times,serif" font-weight="bold" font-size="14.00">Sn1</text>
<text text-anchor="start" x="536" y="-323.43" font-family="Times,serif" font-size="14.00">Solution 1</text>
</a>
</g>
</g>
<!-- G3&#45;&gt;Sn1 -->
<g id="edge10" class="edge gsnedge gsnspby">
<title>G3&#45;&gt;Sn1</title>
<path fill="none" stroke="black" d="M539.56,-456.28C542.78,-440.85 547.74,-417.14 552.43,-394.75"/>
<polygon fill="black" stroke="black" points="555.86,-395.42 554.48,-384.92 549.01,-393.99 555.86,-395.42"/>
</g>
<!-- G4 -->
<g id="gsn_g4" class="node gsnelem gsngoal">
<title>G4</title>
<polygon fill="none" stroke="black" points="746,-351.63 692,-351.63 692,-315.63 746,-315.63 746,-351.63"/>
<text text-anchor="start" x="700" y="-337.43" font-family="Times,serif" font-weight="bold" font-size="14.00">G4</text>
<text text-anchor="start" x="700" y="-323.43" font-family="Times,serif" font-size="14.00">Goal 4</text>
</g>
<!-- J2 -->
<g id="gsn_j2" class="node gsnelem gsnjust">
<title>J2</title>
<ellipse fill="none" stroke="black" cx="831" cy="-333.63" rx="67.35" ry="25.41"/>
<text text-anchor="start" x="791.5" y="-337.43" font-family="Times,serif" font-weight="bold" font-size="14.00">J2</text>
<text text-anchor="start" x="791.5" y="-323.43" font-family="Times,serif" font-size="14.00">Justification 2</text>
</g>
<!-- G4&#45;&gt;J2 -->
<g id="edge13" class="edge gsnedge gsninctxt">
<title>G4&#45;&gt;J2</title>
<path fill="none" stroke="black" d="M746.12,-333.63C748.6,-333.63 751.07,-333.63 753.54,-333.63"/>
<polygon fill="none" stroke="black" points="753.7,-337.13 763.7,-333.63 753.7,-330.13 753.7,-337.13"/>
</g>
<!-- Sn2 -->
<g id="gsn_sn2" class="node gsnelem gsnsltn">
<title>Sn2</title>
<ellipse fill="none" stroke="black" cx="719" cy="-192.98" rx="52.15" ry="52.15"/>
<text text-anchor="start" x="690" y="-196.78" font-family="Times,serif" font-weight="bold" font-size="14.00">Sn2</text>
<text text-anchor="start" x="690" y="-182.78" font-family="Times,serif" font-size="14.00">Solution 2</text>
</g>
<!-- G4&#45;&gt;Sn2 -->
<g id="edge12" class="edge gsnedge gsnspby">
<title>G4&#45;&gt;Sn2</title>
<path fill="none" stroke="black" d="M719,-315.63C719,-300.58 719,-277.68 719,-255.79"/>
<polygon fill="black" stroke="black" points="722.5,-255.5 719,-245.5 715.5,-255.5 722.5,-255.5"/>
</g>
<!-- G5&#45;&gt;C2 -->
<g id="edge16" class="edge gsnedge gsninctxt">
<title>G5&#45;&gt;C2</title>
<path fill="none" stroke="black" d="M265.21,-192.98C267.85,-192.98 270.48,-192.98 273.12,-192.98"/>
<polygon fill="none" stroke="black" points="273.28,-196.48 283.28,-192.98 273.28,-189.48 273.28,-196.48"/>
</g>
<!-- Sn3 -->
<g id="gsn_sn3" class="node gsnelem gsnsltn">
<title>Sn3</title>
<ellipse fill="none" stroke="black" cx="319" cy="-52.33" rx="52.15" ry="52.15"/>
<text text-anchor="start" x="290" y="-56.13" font-family="Times,serif" font-weight="bold" font-size="14.00">Sn3</text>
<text text-anchor="start" x="290" y="-42.13" font-family="Times,serif" font-size="14.00">Solution 3</text>
</g>
<!-- G5&#45;&gt;Sn3 -->
<g id="edge14" class="edge gsnedge gsnspby">
<title>G5&#45;&gt;Sn3</title>
<path fill="none" stroke="black" d="M247.93,-174.98C257.86,-157.97 273.66,-130.93 287.84,-106.66"/>
<polygon fill="black" stroke="black" points="290.96,-108.26 292.98,-97.86 284.91,-104.73 290.96,-108.26"/>
</g>
<!-- Sn4 -->
<g id="gsn_sn4" class="node gsnelem gsnsltn">
<title>Sn4</title>
<ellipse fill="none" stroke="black" cx="196" cy="-52.33" rx="52.15" ry="52.15"/>
<text text-anchor="start" x="167" y="-56.13" font-family="Times,serif" font-weight="bold" font-size="14.00">Sn4</text>
<text text-anchor="start" x="167" y="-42.13" font-family="Times,serif" font-size="14.00">Solution 4</text>
</g>
<!-- G5&#45;&gt;Sn4 -->
<g id="edge15" class="edge gsnedge gsnspby">
<title>G5&#45;&gt;Sn4</title>
<path fill="none" stroke="black" d="M232.85,-174.98C228.1,-159.28 220.75,-135.04 213.87,-112.32"/>
<polygon fill="black" stroke="black" points="217.2,-111.25 210.96,-102.7 210.5,-113.28 217.2,-111.25"/>
</g>
<!-- G6 -->
<g id="gsn_g6" class="node gsnelem gsngoal">
<title>G6</title>
<polygon fill="none" stroke="black" points="427,-210.98 373,-210.98 373,-174.98 427,-174.98 427,-210.98"/>
<text text-anchor="start" x="381" y="-196.78" font-family="Times,serif" font-weight="bold" font-size="14.00">G6</text>
<text text-anchor="start" x="381" y="-182.78" font-family="Times,serif" font-size="14.00">Goal 6</text>
</g>
<!-- G6&#45;&gt;Sn3 -->
<g id="edge18" class="edge gsnedge gsnspby">
<title>G6&#45;&gt;Sn3</title>
<path fill="none" stroke="black" d="M390.07,-174.98C380.14,-157.97 364.34,-130.93 350.16,-106.66"/>
<polygon fill="black" stroke="black" points="353.09,-104.73 345.02,-97.86 347.04,-108.26 353.09,-104.73"/>
</g>
<!-- Sn5 -->
<g id="gsn_sn5" class="node gsnelem gsnsltn">
<title>Sn5</title>
<ellipse fill="none" stroke="black" cx="442" cy="-52.33" rx="52.15" ry="52.15"/>
<text text-anchor="start" x="413" y="-56.13" font-family="Times,serif" font-weight="bold" font-size="14.00">Sn5</text>
<text text-anchor="start" x="413" y="-42.13" font-family="Times,serif" font-size="14.00">Solution 5</text>
</g>
<!-- G6&#45;&gt;Sn5 -->
<g id="edge19" class="edge gsnedge gsnspby">
<title>G6&#45;&gt;Sn5</title>
<path fill="none" stroke="black" d="M405.15,-174.98C409.9,-159.28 417.25,-135.04 424.13,-112.32"/>
<polygon fill="black" stroke="black" points="427.5,-113.28 427.04,-102.7 420.8,-111.25 427.5,-113.28"/>
</g>
<!-- G7 -->
<g id="gsn_g7" class="node gsnelem gsngoal">
<title>G7</title>
<polygon fill="none" stroke="black" points="1056,-351.63 934,-351.63 934,-315.63 1056,-315.63 1056,-351.63"/>
<text text-anchor="start" x="942" y="-337.43" font-family="Times,serif" font-weight="bold" font-size="14.00">G7</text>
<text text-anchor="start" x="942" y="-323.43" font-family="Times,serif" font-size="14.00">Undeveloped Goal</text>
</g>
<!-- G7&#45;&gt;G7 -->
<g id="edge3" class="edge">
<title>G7:s&#45;&gt;G7:s</title>
<path fill="none" stroke="transparent" d="M995,-315.63C1004,-292.3 1004,-245.63 995,-245.63 986,-245.63 986,-292.3 995,-315.63"/>
<text text-anchor="start" x="987.87" y="-304.44" font-family="Times,serif" font-weight="bold" font-size="14.00">♢</text>
</g>
<!-- J1 -->
<g id="gsn_j1" class="node gsnelem gsnjust">
<title>J1</title>
<ellipse fill="none" stroke="black" cx="83" cy="-333.63" rx="67.35" ry="25.41"/>
<text text-anchor="start" x="43.5" y="-337.43" font-family="Times,serif" font-weight="bold" font-size="14.00">J1</text>
<text text-anchor="start" x="43.5" y="-323.43" font-family="Times,serif" font-size="14.00">Justification 1</text>
</g>
<!-- J1&#45;&gt;J1 -->
<g id="edge4" class="edge">
<title>J1:e&#45;&gt;J1:e</title>
<path fill="none" stroke="black" stroke-width="0" d="M150,-333.63C156.18,-368.63 168.18,-368.63 168.18,-333.63 168.18,-298.63 156.18,-298.63 150,-333.63"/>
<text text-anchor="start" x="136.88" y="-306.57" font-family="Times,serif" font-size="14.00"> </text>
<text text-anchor="start" x="140.88" y="-306.57" font-family="Times,serif" font-weight="bold" font-size="14.00">J</text>
<text text-anchor="start" x="147.88" y="-306.57" font-family="Times,serif" font-size="14.00"> </text>
</g>
<!-- J1&#45;&gt;S1 -->
<g id="edge23" class="edge gsnedge gsninctxt">
<title>J1&#45;&gt;S1</title>
<path fill="none" stroke="black" d="M160.85,-333.63C174.4,-333.63 187.94,-333.63 201.48,-333.63"/>
<polygon fill="none" stroke="black" points="160.5,-330.13 150.5,-333.63 160.5,-337.13 160.5,-330.13"/>
</g>
<!-- J2&#45;&gt;J2 -->
<g id="edge5" class="edge">
<title>J2:e&#45;&gt;J2:e</title>
<path fill="none" stroke="black" stroke-width="0" d="M898,-333.63C904.18,-368.63 916.18,-368.63 916.18,-333.63 916.18,-298.63 904.18,-298.63 898,-333.63"/>
<text text-anchor="start" x="884.88" y="-306.57" font-family="Times,serif" font-size="14.00"> </text>
<text text-anchor="start" x="888.88" y="-306.57" font-family="Times,serif" font-weight="bold" font-size="14.00">J</text>
<text text-anchor="start" x="895.88" y="-306.57" font-family="Times,serif" font-size="14.00"> </text>
</g>
<!-- S1&#45;&gt;A1 -->
<g id="edge22" class="edge gsnedge gsninctxt">
<title>S1&#45;&gt;A1</title>
<path fill="none" stroke="black" d="M324.36,-333.63C331.99,-333.63 339.62,-333.63 347.26,-333.63"/>
<polygon fill="none" stroke="black" points="347.29,-337.13 357.29,-333.63 347.29,-330.13 347.29,-337.13"/>
</g>
<!-- S1&#45;&gt;G5 -->
<g id="edge20" class="edge gsnedge gsnspby">
<title>S1&#45;&gt;G5</title>
<path fill="none" stroke="black" d="M256.63,-297.28C252.35,-273.56 246.8,-242.8 242.88,-221.03"/>
<polygon fill="black" stroke="black" points="246.31,-220.35 241.09,-211.13 239.42,-221.59 246.31,-220.35"/>
</g>
<!-- S1&#45;&gt;G6 -->
<g id="edge21" class="edge gsnedge gsnspby">
<title>S1&#45;&gt;G6</title>
<path fill="none" stroke="black" d="M309.17,-298.81C328.25,-283.63 349.86,-264.77 367,-245.3 373.79,-237.6 380.16,-228.37 385.47,-219.87"/>
<polygon fill="black" stroke="black" points="388.62,-221.42 390.78,-211.05 382.62,-217.82 388.62,-221.42"/>
</g>
<!-- S2&#45;&gt;G4 -->
<g id="edge24" class="edge gsnedge gsnspby">
<title>S2&#45;&gt;G4</title>
<path fill="none" stroke="black" d="M739.86,-437.93C735.07,-414.22 728.86,-383.45 724.46,-361.68"/>
<polygon fill="black" stroke="black" points="727.87,-360.89 722.46,-351.78 721.01,-362.28 727.87,-360.89"/>
</g>
<!-- S2&#45;&gt;G7 -->
<g id="edge25" class="edge gsnedge gsnspby">
<title>S2&#45;&gt;G7</title>
<path fill="none" stroke="black" d="M798.4,-451.85C835.45,-435.61 886.1,-411.74 928,-385.96 941.36,-377.74 955.25,-367.42 966.91,-358.2"/>
<polygon fill="black" stroke="black" points="969.36,-360.71 974.96,-351.72 964.97,-355.26 969.36,-360.71"/>
</g>
</g>
</svg>
