<?xml version="1.0" encoding="UTF-8" standalone="no"?>
<!DOCTYPE svg PUBLIC "-//W3C//DTD SVG 1.1//EN"
 "http://www.w3.org/Graphics/SVG/1.1/DTD/svg11.dtd">
<!-- Generated by graphviz version 2.48.0 (20210717.1556)
 -->
<!-- Title: example.gsn.yaml Pages: 1 -->
<svg width="1064pt" height="574pt"
 viewBox="0.00 0.00 1064.00 573.96" xmlns="http://www.w3.org/2000/svg" xmlns:xlink="http://www.w3.org/1999/xlink">
<g id="graph0" class="graph" transform="scale(1 1) rotate(0) translate(4 569.96)">
<title>example.gsn.yaml</title>
<g id="clust7" class="cluster">
<title>cluster14</title>
<polygon fill="transparent" stroke="transparent" points="8,-289.63 8,-377.63 502,-377.63 502,-289.63 8,-289.63"/>
</g>
<g id="clust1" class="cluster">
<title>cluster7</title>
<polygon fill="transparent" stroke="transparent" points="501,-431.96 501,-483.96 661,-483.96 661,-431.96 501,-431.96"/>
</g>
<g id="clust3" class="cluster">
<title>cluster8</title>
<polygon fill="transparent" stroke="transparent" points="684,-300.17 684,-367.09 924,-367.09 924,-300.17 684,-300.17"/>
</g>
<g id="clust5" class="cluster">
<title>cluster9</title>
<polygon fill="transparent" stroke="transparent" points="33,-159.52 33,-226.43 363,-226.43 363,-159.52 33,-159.52"/>
</g>
<!-- A1 -->
<g id="node1" class="node">
<title>A1</title>
<ellipse fill="none" stroke="black" cx="417" cy="-333.63" rx="59.29" ry="25.41"/>
<text text-anchor="start" x="383" y="-337.43" font-family="Times,serif" font-weight="bold" font-size="14.00">A1</text>
<text text-anchor="start" x="383" y="-323.43" font-family="Times,serif" font-size="14.00">Argument 1</text>
</g>
<!-- A1&#45;&gt;A1 -->
<g id="edge1" class="edge">
<title>A1:e&#45;&gt;A1:e</title>
<path fill="none" stroke="black" stroke-width="0" d="M477,-333.63C482.4,-364.63 494.4,-364.63 494.4,-333.63 494.4,-302.63 482.4,-302.63 477,-333.63"/>
<text text-anchor="start" x="461.93" y="-306.56" font-family="Times,serif" font-size="14.00"> </text>
<text text-anchor="start" x="465.93" y="-306.56" font-family="Times,serif" font-weight="bold" font-size="14.00">A</text>
<text text-anchor="start" x="476.93" y="-306.56" font-family="Times,serif" font-size="14.00"> </text>
</g>
<!-- A2 -->
<g id="node2" class="node">
<title>A2</title>
<ellipse fill="none" stroke="black" cx="108" cy="-192.98" rx="67.35" ry="25.41"/>
<text text-anchor="start" x="68.5" y="-196.78" font-family="Times,serif" font-weight="bold" font-size="14.00">A2</text>
<text text-anchor="start" x="68.5" y="-182.78" font-family="Times,serif" font-size="14.00">Assumption 2</text>
</g>
<!-- A2&#45;&gt;A2 -->
<g id="edge2" class="edge">
<title>A2:e&#45;&gt;A2:e</title>
<path fill="none" stroke="black" stroke-width="0" d="M175,-192.98C181.18,-227.98 193.18,-227.98 193.18,-192.98 193.18,-157.98 181.18,-157.98 175,-192.98"/>
<text text-anchor="start" x="159.88" y="-165.92" font-family="Times,serif" font-size="14.00"> </text>
<text text-anchor="start" x="163.88" y="-165.92" font-family="Times,serif" font-weight="bold" font-size="14.00">A</text>
<text text-anchor="start" x="174.88" y="-165.92" font-family="Times,serif" font-size="14.00"> </text>
</g>
<!-- G5 -->
<g id="node9" class="node">
<title>G5</title>
<polygon fill="none" stroke="black" points="265,-210.98 211,-210.98 211,-174.98 265,-174.98 265,-210.98"/>
<text text-anchor="start" x="219" y="-196.78" font-family="Times,serif" font-weight="bold" font-size="14.00">G5</text>
<text text-anchor="start" x="219" y="-182.78" font-family="Times,serif" font-size="14.00">Goal 5</text>
</g>
<!-- A2&#45;&gt;G5 -->
<g id="edge17" class="edge">
<title>A2&#45;&gt;G5</title>
<path fill="none" stroke="black" d="M185.48,-192.98C193.84,-192.98 202.2,-192.98 210.56,-192.98"/>
<polygon fill="none" stroke="black" points="185.29,-189.48 175.29,-192.98 185.29,-196.48 185.29,-189.48"/>
</g>
<!-- C1 -->
<g id="node3" class="node">
<title>C1</title>
<path fill="none" stroke="black" d="M640.5,-475.96C640.5,-475.96 593.5,-475.96 593.5,-475.96 587.5,-475.96 581.5,-469.96 581.5,-463.96 581.5,-463.96 581.5,-451.96 581.5,-451.96 581.5,-445.96 587.5,-439.96 593.5,-439.96 593.5,-439.96 640.5,-439.96 640.5,-439.96 646.5,-439.96 652.5,-445.96 652.5,-451.96 652.5,-451.96 652.5,-463.96 652.5,-463.96 652.5,-469.96 646.5,-475.96 640.5,-475.96"/>
<text text-anchor="start" x="589.5" y="-461.76" font-family="Times,serif" font-weight="bold" font-size="14.00">C1</text>
<text text-anchor="start" x="589.5" y="-447.76" font-family="Times,serif" font-size="14.00">Context 1</text>
</g>
<!-- C2 -->
<g id="node4" class="node">
<title>C2</title>
<path fill="none" stroke="black" d="M342.5,-217.98C342.5,-217.98 295.5,-217.98 295.5,-217.98 289.5,-217.98 283.5,-211.98 283.5,-205.98 283.5,-205.98 283.5,-179.98 283.5,-179.98 283.5,-173.98 289.5,-167.98 295.5,-167.98 295.5,-167.98 342.5,-167.98 342.5,-167.98 348.5,-167.98 354.5,-173.98 354.5,-179.98 354.5,-179.98 354.5,-205.98 354.5,-205.98 354.5,-211.98 348.5,-217.98 342.5,-217.98"/>
<text text-anchor="start" x="291.5" y="-203.78" font-family="Times,serif" font-weight="bold" font-size="14.00">C2</text>
<text text-anchor="start" x="291.5" y="-189.78" font-family="Times,serif" font-size="14.00">Context 2</text>
<text text-anchor="start" x="292.5" y="-175.78" font-family="Times,serif" font-size="14.00">Multiline</text>
</g>
<!-- G1 -->
<g id="node5" class="node">
<title>G1</title>
<polygon fill="none" stroke="black" points="563,-565.96 509,-565.96 509,-529.96 563,-529.96 563,-565.96"/>
<text text-anchor="start" x="517" y="-551.76" font-family="Times,serif" font-weight="bold" font-size="14.00">G1</text>
<text text-anchor="start" x="517" y="-537.76" font-family="Times,serif" font-size="14.00">Goal 1</text>
</g>
<!-- G2 -->
<g id="node6" class="node">
<title>G2</title>
<polygon fill="none" stroke="black" points="405,-475.96 351,-475.96 351,-439.96 405,-439.96 405,-475.96"/>
<text text-anchor="start" x="359" y="-461.76" font-family="Times,serif" font-weight="bold" font-size="14.00">G2</text>
<text text-anchor="start" x="359" y="-447.76" font-family="Times,serif" font-size="14.00">Goal 2</text>
</g>
<!-- G1&#45;&gt;G2 -->
<g id="edge6" class="edge">
<title>G1&#45;&gt;G2</title>
<path fill="none" stroke="black" d="M508.84,-531.83C482.65,-517.24 442.84,-495.07 414.01,-479.01"/>
<polygon fill="black" stroke="black" points="415.51,-475.84 405.07,-474.03 412.1,-481.96 415.51,-475.84"/>
</g>
<!-- G3 -->
<g id="node7" class="node">
<title>G3</title>
<polygon fill="none" stroke="black" points="563,-475.96 509,-475.96 509,-439.96 563,-439.96 563,-475.96"/>
<text text-anchor="start" x="517" y="-461.76" font-family="Times,serif" font-weight="bold" font-size="14.00">G3</text>
<text text-anchor="start" x="517" y="-447.76" font-family="Times,serif" font-size="14.00">Goal 3</text>
</g>
<!-- G1&#45;&gt;G3 -->
<g id="edge7" class="edge">
<title>G1&#45;&gt;G3</title>
<path fill="none" stroke="black" d="M536,-529.57C536,-517.2 536,-500.32 536,-486.18"/>
<polygon fill="black" stroke="black" points="539.5,-486.01 536,-476.01 532.5,-486.01 539.5,-486.01"/>
</g>
<!-- S2 -->
<g id="node15" class="node">
<title>S2</title>
<polygon fill="none" stroke="black" points="823.94,-493.96 701.55,-493.96 670.06,-421.96 792.45,-421.96 823.94,-493.96"/>
<text text-anchor="start" x="718" y="-461.76" font-family="Times,serif" font-weight="bold" font-size="14.00">S2</text>
<text text-anchor="start" x="718" y="-447.76" font-family="Times,serif" font-size="14.00">Solution 2</text>
</g>
<!-- G1&#45;&gt;S2 -->
<g id="edge8" class="edge">
<title>G1&#45;&gt;S2</title>
<path fill="none" stroke="black" d="M563.22,-535.9C589.36,-525.25 629.94,-508.64 665,-493.96 671.77,-491.12 678.85,-488.13 685.89,-485.15"/>
<polygon fill="black" stroke="black" points="687.59,-488.23 695.43,-481.09 684.86,-481.78 687.59,-488.23"/>
</g>
<!-- S1 -->
<g id="node14" class="node">
<title>S1</title>
<polygon fill="none" stroke="black" points="339.94,-369.63 217.55,-369.63 186.06,-297.63 308.45,-297.63 339.94,-369.63"/>
<text text-anchor="start" x="234" y="-337.43" font-family="Times,serif" font-weight="bold" font-size="14.00">S1</text>
<text text-anchor="start" x="234" y="-323.43" font-family="Times,serif" font-size="14.00">Strategy 1</text>
</g>
<!-- G2&#45;&gt;S1 -->
<g id="edge9" class="edge">
<title>G2&#45;&gt;S1</title>
<path fill="none" stroke="black" d="M362.01,-439.95C346.83,-423.8 323.38,-398.85 303.11,-377.3"/>
<polygon fill="black" stroke="black" points="305.49,-374.72 296.09,-369.83 300.39,-379.51 305.49,-374.72"/>
</g>
<!-- G3&#45;&gt;C1 -->
<g id="edge11" class="edge">
<title>G3&#45;&gt;C1</title>
<path fill="none" stroke="black" d="M563.21,-457.96C565.85,-457.96 568.48,-457.96 571.12,-457.96"/>
<polygon fill="none" stroke="black" points="571.28,-461.46 581.28,-457.96 571.28,-454.46 571.28,-461.46"/>
</g>
<!-- Sn1 -->
<g id="node16" class="node">
<title>Sn1</title>
<g id="a_node16"><a xlink:href="https://github.com/jonasthewolf/gsn2x" xlink:title="&lt;B&gt;Sn1&lt;/B&gt;&lt;BR align=&quot;left&quot;/&gt;Solution 1">
<ellipse fill="none" stroke="black" cx="565" cy="-333.63" rx="52.15" ry="52.15"/>
<text text-anchor="start" x="536" y="-337.43" font-family="Times,serif" font-weight="bold" font-size="14.00">Sn1</text>
<text text-anchor="start" x="536" y="-323.43" font-family="Times,serif" font-size="14.00">Solution 1</text>
</a>
</g>
</g>
<!-- G3&#45;&gt;Sn1 -->
<g id="edge10" class="edge">
<title>G3&#45;&gt;Sn1</title>
<path fill="none" stroke="black" d="M540.03,-439.95C542.87,-427.98 546.85,-411.19 550.8,-394.53"/>
<polygon fill="black" stroke="black" points="554.21,-395.31 553.11,-384.77 547.4,-393.69 554.21,-395.31"/>
</g>
<!-- G4 -->
<g id="node8" class="node">
<title>G4</title>
<polygon fill="none" stroke="black" points="746,-351.63 692,-351.63 692,-315.63 746,-315.63 746,-351.63"/>
<text text-anchor="start" x="700" y="-337.43" font-family="Times,serif" font-weight="bold" font-size="14.00">G4</text>
<text text-anchor="start" x="700" y="-323.43" font-family="Times,serif" font-size="14.00">Goal 4</text>
</g>
<!-- J2 -->
<g id="node13" class="node">
<title>J2</title>
<ellipse fill="none" stroke="black" cx="831" cy="-333.63" rx="67.35" ry="25.41"/>
<text text-anchor="start" x="791.5" y="-337.43" font-family="Times,serif" font-weight="bold" font-size="14.00">J2</text>
<text text-anchor="start" x="791.5" y="-323.43" font-family="Times,serif" font-size="14.00">Justification 2</text>
</g>
<!-- G4&#45;&gt;J2 -->
<g id="edge13" class="edge">
<title>G4&#45;&gt;J2</title>
<path fill="none" stroke="black" d="M746.12,-333.63C748.6,-333.63 751.07,-333.63 753.54,-333.63"/>
<polygon fill="none" stroke="black" points="753.7,-337.13 763.7,-333.63 753.7,-330.13 753.7,-337.13"/>
</g>
<!-- Sn2 -->
<g id="node17" class="node">
<title>Sn2</title>
<ellipse fill="none" stroke="black" cx="719" cy="-192.98" rx="52.15" ry="52.15"/>
<text text-anchor="start" x="690" y="-196.78" font-family="Times,serif" font-weight="bold" font-size="14.00">Sn2</text>
<text text-anchor="start" x="690" y="-182.78" font-family="Times,serif" font-size="14.00">Solution 2</text>
</g>
<!-- G4&#45;&gt;Sn2 -->
<g id="edge12" class="edge">
<title>G4&#45;&gt;Sn2</title>
<path fill="none" stroke="black" d="M719,-315.63C719,-300.58 719,-277.68 719,-255.79"/>
<polygon fill="black" stroke="black" points="722.5,-255.5 719,-245.5 715.5,-255.5 722.5,-255.5"/>
</g>
<!-- G5&#45;&gt;C2 -->
<g id="edge16" class="edge">
<title>G5&#45;&gt;C2</title>
<path fill="none" stroke="black" d="M265.21,-192.98C267.85,-192.98 270.48,-192.98 273.12,-192.98"/>
<polygon fill="none" stroke="black" points="273.28,-196.48 283.28,-192.98 273.28,-189.48 273.28,-196.48"/>
</g>
<!-- Sn3 -->
<g id="node18" class="node">
<title>Sn3</title>
<ellipse fill="none" stroke="black" cx="319" cy="-52.33" rx="52.15" ry="52.15"/>
<text text-anchor="start" x="290" y="-56.13" font-family="Times,serif" font-weight="bold" font-size="14.00">Sn3</text>
<text text-anchor="start" x="290" y="-42.13" font-family="Times,serif" font-size="14.00">Solution 3</text>
</g>
<!-- G5&#45;&gt;Sn3 -->
<g id="edge14" class="edge">
<title>G5&#45;&gt;Sn3</title>
<path fill="none" stroke="black" d="M247.93,-174.98C257.86,-157.97 273.66,-130.93 287.84,-106.66"/>
<polygon fill="black" stroke="black" points="290.96,-108.26 292.98,-97.86 284.91,-104.73 290.96,-108.26"/>
</g>
<!-- Sn4 -->
<g id="node19" class="node">
<title>Sn4</title>
<ellipse fill="none" stroke="black" cx="196" cy="-52.33" rx="52.15" ry="52.15"/>
<text text-anchor="start" x="167" y="-56.13" font-family="Times,serif" font-weight="bold" font-size="14.00">Sn4</text>
<text text-anchor="start" x="167" y="-42.13" font-family="Times,serif" font-size="14.00">Solution 4</text>
</g>
<!-- G5&#45;&gt;Sn4 -->
<g id="edge15" class="edge">
<title>G5&#45;&gt;Sn4</title>
<path fill="none" stroke="black" d="M232.85,-174.98C228.1,-159.28 220.75,-135.04 213.87,-112.32"/>
<polygon fill="black" stroke="black" points="217.2,-111.25 210.96,-102.7 210.5,-113.28 217.2,-111.25"/>
</g>
<!-- G6 -->
<g id="node10" class="node">
<title>G6</title>
<polygon fill="none" stroke="black" points="427,-210.98 373,-210.98 373,-174.98 427,-174.98 427,-210.98"/>
<text text-anchor="start" x="381" y="-196.78" font-family="Times,serif" font-weight="bold" font-size="14.00">G6</text>
<text text-anchor="start" x="381" y="-182.78" font-family="Times,serif" font-size="14.00">Goal 6</text>
</g>
<!-- G6&#45;&gt;Sn3 -->
<g id="edge18" class="edge">
<title>G6&#45;&gt;Sn3</title>
<path fill="none" stroke="black" d="M390.07,-174.98C380.14,-157.97 364.34,-130.93 350.16,-106.66"/>
<polygon fill="black" stroke="black" points="353.09,-104.73 345.02,-97.86 347.04,-108.26 353.09,-104.73"/>
</g>
<!-- Sn5 -->
<g id="node20" class="node">
<title>Sn5</title>
<ellipse fill="none" stroke="black" cx="442" cy="-52.33" rx="52.15" ry="52.15"/>
<text text-anchor="start" x="413" y="-56.13" font-family="Times,serif" font-weight="bold" font-size="14.00">Sn5</text>
<text text-anchor="start" x="413" y="-42.13" font-family="Times,serif" font-size="14.00">Solution 5</text>
</g>
<!-- G6&#45;&gt;Sn5 -->
<g id="edge19" class="edge">
<title>G6&#45;&gt;Sn5</title>
<path fill="none" stroke="black" d="M405.15,-174.98C409.9,-159.28 417.25,-135.04 424.13,-112.32"/>
<polygon fill="black" stroke="black" points="427.5,-113.28 427.04,-102.7 420.8,-111.25 427.5,-113.28"/>
</g>
<!-- G7 -->
<g id="node11" class="node">
<title>G7</title>
<polygon fill="none" stroke="black" points="1056,-351.63 934,-351.63 934,-315.63 1056,-315.63 1056,-351.63"/>
<text text-anchor="start" x="942" y="-337.43" font-family="Times,serif" font-weight="bold" font-size="14.00">G7</text>
<text text-anchor="start" x="942" y="-323.43" font-family="Times,serif" font-size="14.00">Undeveloped Goal</text>
</g>
<!-- G7&#45;&gt;G7 -->
<g id="edge3" class="edge">
<title>G7:s&#45;&gt;G7:s</title>
<path fill="none" stroke="transparent" d="M995,-315.63C1004,-294.96 1004,-253.63 995,-253.63 986,-253.63 986,-294.96 995,-315.63"/>
<text text-anchor="start" x="987.91" y="-304.43" font-family="Times,serif" font-weight="bold" font-size="14.00">♢</text>
</g>
<!-- J1 -->
<g id="node12" class="node">
<title>J1</title>
<ellipse fill="none" stroke="black" cx="83" cy="-333.63" rx="67.35" ry="25.41"/>
<text text-anchor="start" x="43.5" y="-337.43" font-family="Times,serif" font-weight="bold" font-size="14.00">J1</text>
<text text-anchor="start" x="43.5" y="-323.43" font-family="Times,serif" font-size="14.00">Justification 1</text>
</g>
<!-- J1&#45;&gt;J1 -->
<g id="edge4" class="edge">
<title>J1:e&#45;&gt;J1:e</title>
<path fill="none" stroke="black" stroke-width="0" d="M150,-333.63C156.18,-364.63 168.18,-364.63 168.18,-333.63 168.18,-302.63 156.18,-302.63 150,-333.63"/>
<text text-anchor="start" x="137.52" y="-306.43" font-family="Times,serif" font-size="14.00"> </text>
<text text-anchor="start" x="141.52" y="-306.43" font-family="Times,serif" font-weight="bold" font-size="14.00">J</text>
<text text-anchor="start" x="148.52" y="-306.43" font-family="Times,serif" font-size="14.00"> </text>
</g>
<!-- J1&#45;&gt;S1 -->
<g id="edge23" class="edge">
<title>J1&#45;&gt;S1</title>
<path fill="none" stroke="black" d="M160.85,-333.63C174.4,-333.63 187.94,-333.63 201.48,-333.63"/>
<polygon fill="none" stroke="black" points="160.5,-330.13 150.5,-333.63 160.5,-337.13 160.5,-330.13"/>
</g>
<!-- J2&#45;&gt;J2 -->
<g id="edge5" class="edge">
<title>J2:e&#45;&gt;J2:e</title>
<path fill="none" stroke="black" stroke-width="0" d="M898,-333.63C904.18,-364.63 916.18,-364.63 916.18,-333.63 916.18,-302.63 904.18,-302.63 898,-333.63"/>
<text text-anchor="start" x="885.52" y="-306.43" font-family="Times,serif" font-size="14.00"> </text>
<text text-anchor="start" x="889.52" y="-306.43" font-family="Times,serif" font-weight="bold" font-size="14.00">J</text>
<text text-anchor="start" x="896.52" y="-306.43" font-family="Times,serif" font-size="14.00"> </text>
</g>
<!-- S1&#45;&gt;A1 -->
<g id="edge22" class="edge">
<title>S1&#45;&gt;A1</title>
<path fill="none" stroke="black" d="M324.36,-333.63C331.99,-333.63 339.62,-333.63 347.26,-333.63"/>
<polygon fill="none" stroke="black" points="347.29,-337.13 357.29,-333.63 347.29,-330.13 347.29,-337.13"/>
</g>
<!-- S1&#45;&gt;G5 -->
<g id="edge20" class="edge">
<title>S1&#45;&gt;G5</title>
<path fill="none" stroke="black" d="M256.63,-297.28C252.35,-273.56 246.8,-242.8 242.88,-221.03"/>
<polygon fill="black" stroke="black" points="246.31,-220.35 241.09,-211.13 239.42,-221.59 246.31,-220.35"/>
</g>
<!-- S1&#45;&gt;G6 -->
<g id="edge21" class="edge">
<title>S1&#45;&gt;G6</title>
<path fill="none" stroke="black" d="M309.17,-298.81C328.25,-283.63 349.86,-264.77 367,-245.3 373.79,-237.6 380.16,-228.37 385.47,-219.87"/>
<polygon fill="black" stroke="black" points="388.62,-221.42 390.78,-211.05 382.62,-217.82 388.62,-221.42"/>
</g>
<!-- S2&#45;&gt;G4 -->
<g id="edge24" class="edge">
<title>S2&#45;&gt;G4</title>
<path fill="none" stroke="black" d="M738.98,-421.9C734.61,-402.84 729.3,-379.62 725.25,-361.92"/>
<polygon fill="black" stroke="black" points="728.55,-360.67 722.91,-351.7 721.73,-362.23 728.55,-360.67"/>
</g>
<!-- S2&#45;&gt;G7 -->
<g id="edge25" class="edge">
<title>S2&#45;&gt;G7</title>
<path fill="none" stroke="black" d="M800.66,-440.33C837.65,-427.83 887.29,-408.93 928,-385.96 941.86,-378.13 956.03,-367.71 967.74,-358.3"/>
<polygon fill="black" stroke="black" points="970.29,-360.73 975.79,-351.67 965.84,-355.32 970.29,-360.73"/>
</g>
</g>
</svg>
