<?xml version="1.0" encoding="UTF-8" standalone="no"?>
<!DOCTYPE svg PUBLIC "-//W3C//DTD SVG 1.1//EN"
 "http://www.w3.org/Graphics/SVG/1.1/DTD/svg11.dtd">
<!-- Generated by graphviz version 2.48.0 (20210717.1556)
 -->
<!-- Title: example.gsn.yaml Pages: 1 -->
<svg width="995pt" height="533pt"
 viewBox="0.00 0.00 995.00 533.45" xmlns="http://www.w3.org/2000/svg" xmlns:xlink="http://www.w3.org/1999/xlink">
<g id="graph0" class="graph gsndiagram" transform="scale(1 1) rotate(0) translate(4 529.45)">
<title>example.gsn.yaml</title>
<polygon fill="white" stroke="transparent" points="-4,4 -4,-529.45 991,-529.45 991,4 -4,4"/>
<g id="clust1" class="cluster gsndiagram">
<title>cluster7</title>
</g>
<g id="clust3" class="cluster gsndiagram">
<title>cluster8</title>
</g>
<g id="clust5" class="cluster gsndiagram">
<title>cluster9</title>
</g>
<g id="clust7" class="cluster gsndiagram">
<title>cluster14</title>
</g>
<!-- A1 -->
<g id="gsn_a1" class="node gsnelem gsnasmp">
<title>A1</title>
<ellipse fill="none" stroke="black" cx="417" cy="-279.89" rx="59.29" ry="25.41"/>
<text text-anchor="start" x="383" y="-283.69" font-family="Times,serif" font-weight="bold" font-size="14.00">A1</text>
<text text-anchor="start" x="383" y="-269.69" font-family="Times,serif" font-size="14.00">Argument 1</text>
</g>
<!-- A1&#45;&gt;A1 -->
<g id="edge1" class="edge">
<title>A1:e&#45;&gt;A1:e</title>
<path fill="none" stroke="black" stroke-width="0" d="M477,-279.89C482.4,-307.89 494.4,-307.89 494.4,-279.89 494.4,-251.89 482.4,-251.89 477,-279.89"/>
<text text-anchor="start" x="462.47" y="-252.7" font-family="Times,serif" font-size="14.00"> </text>
<text text-anchor="start" x="466.47" y="-252.7" font-family="Times,serif" font-weight="bold" font-size="14.00">A</text>
<text text-anchor="start" x="477.47" y="-252.7" font-family="Times,serif" font-size="14.00"> </text>
</g>
<!-- A2 -->
<g id="gsn_a2" class="node gsnelem gsnasmp mycssclass anotherclass">
<title>A2</title>
<ellipse fill="none" stroke="black" cx="89" cy="-166.11" rx="67.35" ry="25.41"/>
<text text-anchor="start" x="49.5" y="-169.91" font-family="Times,serif" font-weight="bold" font-size="14.00">A2</text>
<text text-anchor="start" x="49.5" y="-155.91" font-family="Times,serif" font-size="14.00">Assumption 2</text>
</g>
<!-- A2&#45;&gt;A2 -->
<g id="edge2" class="edge">
<title>A2:e&#45;&gt;A2:e</title>
<path fill="none" stroke="black" stroke-width="0" d="M156,-166.11C162.18,-194.11 174.18,-194.11 174.18,-166.11 174.18,-138.11 162.18,-138.11 156,-166.11"/>
<text text-anchor="start" x="142.11" y="-138.8" font-family="Times,serif" font-size="14.00"> </text>
<text text-anchor="start" x="146.11" y="-138.8" font-family="Times,serif" font-weight="bold" font-size="14.00">A</text>
<text text-anchor="start" x="157.11" y="-138.8" font-family="Times,serif" font-size="14.00"> </text>
</g>
<!-- G5 -->
<g id="gsn_g5" class="node gsnelem gsngoal">
<title>G5</title>
<polygon fill="none" stroke="black" points="246,-184.11 192,-184.11 192,-148.11 246,-148.11 246,-184.11"/>
<text text-anchor="start" x="200" y="-169.91" font-family="Times,serif" font-weight="bold" font-size="14.00">G5</text>
<text text-anchor="start" x="200" y="-155.91" font-family="Times,serif" font-size="14.00">Goal 5</text>
</g>
<!-- A2&#45;&gt;G5 -->
<g id="edge17" class="edge gsnedge gsninctxt">
<title>A2&#45;&gt;G5</title>
<path fill="none" stroke="black" d="M166.48,-166.11C174.84,-166.11 183.2,-166.11 191.56,-166.11"/>
<polygon fill="none" stroke="black" points="166.29,-162.61 156.29,-166.11 166.29,-169.61 166.29,-162.61"/>
</g>
<!-- C1 -->
<g id="gsn_c1" class="node gsnelem gsnctxt">
<title>C1</title>
<path fill="none" stroke="black" d="M669.5,-411.67C669.5,-411.67 622.5,-411.67 622.5,-411.67 616.5,-411.67 610.5,-405.67 610.5,-399.67 610.5,-399.67 610.5,-387.67 610.5,-387.67 610.5,-381.67 616.5,-375.67 622.5,-375.67 622.5,-375.67 669.5,-375.67 669.5,-375.67 675.5,-375.67 681.5,-381.67 681.5,-387.67 681.5,-387.67 681.5,-399.67 681.5,-399.67 681.5,-405.67 675.5,-411.67 669.5,-411.67"/>
<text text-anchor="start" x="618.5" y="-397.47" font-family="Times,serif" font-weight="bold" font-size="14.00">C1</text>
<text text-anchor="start" x="618.5" y="-383.47" font-family="Times,serif" font-size="14.00">Context 1</text>
</g>
<!-- C2 -->
<g id="gsn_c2" class="node gsnelem gsnctxt">
<title>C2</title>
<path fill="none" stroke="black" d="M323.5,-191.11C323.5,-191.11 276.5,-191.11 276.5,-191.11 270.5,-191.11 264.5,-185.11 264.5,-179.11 264.5,-179.11 264.5,-153.11 264.5,-153.11 264.5,-147.11 270.5,-141.11 276.5,-141.11 276.5,-141.11 323.5,-141.11 323.5,-141.11 329.5,-141.11 335.5,-147.11 335.5,-153.11 335.5,-153.11 335.5,-179.11 335.5,-179.11 335.5,-185.11 329.5,-191.11 323.5,-191.11"/>
<text text-anchor="start" x="272.5" y="-176.91" font-family="Times,serif" font-weight="bold" font-size="14.00">C2</text>
<text text-anchor="start" x="272.5" y="-162.91" font-family="Times,serif" font-size="14.00">Context 2</text>
<text text-anchor="start" x="273.5" y="-148.91" font-family="Times,serif" font-size="14.00">Multiline</text>
</g>
<!-- G1 -->
<g id="gsn_g1" class="node gsnelem gsngoal">
<title>G1</title>
<polygon fill="none" stroke="black" points="592,-525.45 538,-525.45 538,-489.45 592,-489.45 592,-525.45"/>
<text text-anchor="start" x="546" y="-511.25" font-family="Times,serif" font-weight="bold" font-size="14.00">G1</text>
<text text-anchor="start" x="546" y="-497.25" font-family="Times,serif" font-size="14.00">Goal 1</text>
</g>
<!-- G2 -->
<g id="gsn_g2" class="node gsnelem gsngoal">
<title>G2</title>
<polygon fill="none" stroke="black" points="405,-411.67 351,-411.67 351,-375.67 405,-375.67 405,-411.67"/>
<text text-anchor="start" x="359" y="-397.47" font-family="Times,serif" font-weight="bold" font-size="14.00">G2</text>
<text text-anchor="start" x="359" y="-383.47" font-family="Times,serif" font-size="14.00">Goal 2</text>
</g>
<!-- G1&#45;&gt;G2 -->
<g id="edge6" class="edge gsnedge gsnspby">
<title>G1&#45;&gt;G2</title>
<path fill="none" stroke="black" d="M537.81,-490.2C505.12,-470.66 450.17,-437.81 413.99,-416.19"/>
<polygon fill="black" stroke="black" points="415.6,-413.07 405.22,-410.94 412.01,-419.08 415.6,-413.07"/>
</g>
<!-- G3 -->
<g id="gsn_g3" class="node gsnelem gsngoal">
<title>G3</title>
<polygon fill="none" stroke="black" points="592,-411.67 538,-411.67 538,-375.67 592,-375.67 592,-411.67"/>
<text text-anchor="start" x="546" y="-397.47" font-family="Times,serif" font-weight="bold" font-size="14.00">G3</text>
<text text-anchor="start" x="546" y="-383.47" font-family="Times,serif" font-size="14.00">Goal 3</text>
</g>
<!-- G1&#45;&gt;G3 -->
<g id="edge7" class="edge gsnedge gsnspby">
<title>G1&#45;&gt;G3</title>
<path fill="none" stroke="black" d="M565,-488.99C565,-471.1 565,-443.05 565,-422.18"/>
<polygon fill="black" stroke="black" points="568.5,-422.01 565,-412.01 561.5,-422.01 568.5,-422.01"/>
</g>
<!-- S2 -->
<g id="gsn_s2" class="node gsnelem gsnstgy">
<title>S2</title>
<polygon fill="none" stroke="black" points="788.94,-315.89 666.55,-315.89 635.06,-243.89 757.45,-243.89 788.94,-315.89"/>
<text text-anchor="start" x="683" y="-283.69" font-family="Times,serif" font-weight="bold" font-size="14.00">S2</text>
<text text-anchor="start" x="683" y="-269.69" font-family="Times,serif" font-size="14.00">Strategy 2</text>
</g>
<!-- G1&#45;&gt;S2 -->
<g id="edge8" class="edge gsnedge gsnspby">
<title>G1&#45;&gt;S2</title>
<path fill="none" stroke="black" d="M592.07,-496.3C622.33,-483.41 670.22,-458.13 694,-419.67 711.18,-391.88 715.28,-354.99 715.3,-326.23"/>
<polygon fill="black" stroke="black" points="718.8,-325.97 715.14,-316.03 711.8,-326.08 718.8,-325.97"/>
</g>
<!-- S1 -->
<g id="gsn_s1" class="node gsnelem gsnstgy">
<title>S1</title>
<polygon fill="none" stroke="black" points="339.94,-315.89 217.55,-315.89 186.06,-243.89 308.45,-243.89 339.94,-315.89"/>
<text text-anchor="start" x="234" y="-283.69" font-family="Times,serif" font-weight="bold" font-size="14.00">S1</text>
<text text-anchor="start" x="234" y="-269.69" font-family="Times,serif" font-size="14.00">Strategy 1</text>
</g>
<!-- G2&#45;&gt;S1 -->
<g id="edge9" class="edge gsnedge gsnspby">
<title>G2&#45;&gt;S1</title>
<path fill="none" stroke="black" d="M360.03,-375.21C345.75,-361.33 325.18,-341.33 306.64,-323.31"/>
<polygon fill="black" stroke="black" points="309,-320.72 299.39,-316.26 304.12,-325.74 309,-320.72"/>
</g>
<!-- G3&#45;&gt;C1 -->
<g id="edge11" class="edge gsnedge gsninctxt">
<title>G3&#45;&gt;C1</title>
<path fill="none" stroke="black" d="M592.21,-393.67C594.85,-393.67 597.48,-393.67 600.12,-393.67"/>
<polygon fill="none" stroke="black" points="600.28,-397.17 610.28,-393.67 600.28,-390.17 600.28,-397.17"/>
</g>
<!-- Sn1 -->
<g id="gsn_sn1" class="node gsnelem gsnsltn">
<title>Sn1</title>
<g id="a_gsn_sn1"><a xlink:href="https://github.com/jonasthewolf/gsn2x" xlink:title="&lt;B&gt;Sn1&lt;/B&gt;&lt;BR align=&quot;left&quot;/&gt;Solution 1">
<ellipse fill="none" stroke="black" cx="565" cy="-279.89" rx="52.15" ry="52.15"/>
<text text-anchor="start" x="536" y="-283.69" font-family="Times,serif" font-weight="bold" font-size="14.00">Sn1</text>
<text text-anchor="start" x="536" y="-269.69" font-family="Times,serif" font-size="14.00">Solution 1</text>
</a>
</g>
</g>
<!-- G3&#45;&gt;Sn1 -->
<g id="edge10" class="edge gsnedge gsnspby">
<title>G3&#45;&gt;Sn1</title>
<path fill="none" stroke="black" d="M565,-375.21C565,-366.19 565,-354.58 565,-342.61"/>
<polygon fill="black" stroke="black" points="568.5,-342.53 565,-332.53 561.5,-342.53 568.5,-342.53"/>
</g>
<!-- G4 -->
<g id="gsn_g4" class="node gsnelem gsngoal">
<title>G4</title>
<polygon fill="none" stroke="black" points="677,-184.11 623,-184.11 623,-148.11 677,-148.11 677,-184.11"/>
<text text-anchor="start" x="631" y="-169.91" font-family="Times,serif" font-weight="bold" font-size="14.00">G4</text>
<text text-anchor="start" x="631" y="-155.91" font-family="Times,serif" font-size="14.00">Goal 4</text>
</g>
<!-- J2 -->
<g id="gsn_j2" class="node gsnelem gsnjust">
<title>J2</title>
<ellipse fill="none" stroke="black" cx="762" cy="-166.11" rx="67.35" ry="25.41"/>
<text text-anchor="start" x="722.5" y="-169.91" font-family="Times,serif" font-weight="bold" font-size="14.00">J2</text>
<text text-anchor="start" x="722.5" y="-155.91" font-family="Times,serif" font-size="14.00">Justification 2</text>
</g>
<!-- G4&#45;&gt;J2 -->
<g id="edge13" class="edge gsnedge gsninctxt">
<title>G4&#45;&gt;J2</title>
<path fill="none" stroke="black" d="M677.12,-166.11C679.6,-166.11 682.07,-166.11 684.54,-166.11"/>
<polygon fill="none" stroke="black" points="684.7,-169.61 694.7,-166.11 684.7,-162.61 684.7,-169.61"/>
</g>
<!-- Sn2 -->
<g id="gsn_sn2" class="node gsnelem gsnsltn">
<title>Sn2</title>
<ellipse fill="none" stroke="black" cx="650" cy="-52.33" rx="52.15" ry="52.15"/>
<text text-anchor="start" x="621" y="-56.13" font-family="Times,serif" font-weight="bold" font-size="14.00">Sn2</text>
<text text-anchor="start" x="621" y="-42.13" font-family="Times,serif" font-size="14.00">Solution 2</text>
</g>
<!-- G4&#45;&gt;Sn2 -->
<g id="edge12" class="edge gsnedge gsnspby">
<title>G4&#45;&gt;Sn2</title>
<path fill="none" stroke="black" d="M650,-147.64C650,-138.62 650,-127.02 650,-115.05"/>
<polygon fill="black" stroke="black" points="653.5,-114.96 650,-104.96 646.5,-114.96 653.5,-114.96"/>
</g>
<!-- G5&#45;&gt;C2 -->
<g id="edge16" class="edge gsnedge gsninctxt">
<title>G5&#45;&gt;C2</title>
<path fill="none" stroke="black" d="M246.21,-166.11C248.85,-166.11 251.48,-166.11 254.12,-166.11"/>
<polygon fill="none" stroke="black" points="254.28,-169.61 264.28,-166.11 254.28,-162.61 254.28,-169.61"/>
</g>
<!-- Sn3 -->
<g id="gsn_sn3" class="node gsnelem gsnsltn">
<title>Sn3</title>
<ellipse fill="none" stroke="black" cx="300" cy="-52.33" rx="52.15" ry="52.15"/>
<text text-anchor="start" x="271" y="-56.13" font-family="Times,serif" font-weight="bold" font-size="14.00">Sn3</text>
<text text-anchor="start" x="271" y="-42.13" font-family="Times,serif" font-size="14.00">Solution 3</text>
</g>
<!-- G5&#45;&gt;Sn3 -->
<g id="edge14" class="edge gsnedge gsnspby">
<title>G5&#45;&gt;Sn3</title>
<path fill="none" stroke="black" d="M231.66,-147.64C240.3,-135.72 252.21,-119.28 263.67,-103.46"/>
<polygon fill="black" stroke="black" points="266.57,-105.42 269.61,-95.27 260.91,-101.31 266.57,-105.42"/>
</g>
<!-- Sn4 -->
<g id="gsn_sn4" class="node gsnelem gsnsltn">
<title>Sn4</title>
<ellipse fill="none" stroke="black" cx="177" cy="-52.33" rx="52.15" ry="52.15"/>
<text text-anchor="start" x="148" y="-56.13" font-family="Times,serif" font-weight="bold" font-size="14.00">Sn4</text>
<text text-anchor="start" x="148" y="-42.13" font-family="Times,serif" font-size="14.00">Solution 4</text>
</g>
<!-- G5&#45;&gt;Sn4 -->
<g id="edge15" class="edge gsnedge gsnspby">
<title>G5&#45;&gt;Sn4</title>
<path fill="none" stroke="black" d="M212.44,-147.64C208.69,-137.66 203.75,-124.51 198.75,-111.21"/>
<polygon fill="black" stroke="black" points="201.91,-109.67 195.12,-101.54 195.36,-112.13 201.91,-109.67"/>
</g>
<!-- G6 -->
<g id="gsn_g6" class="node gsnelem gsngoal">
<title>G6</title>
<polygon fill="none" stroke="black" points="408,-184.11 354,-184.11 354,-148.11 408,-148.11 408,-184.11"/>
<text text-anchor="start" x="362" y="-169.91" font-family="Times,serif" font-weight="bold" font-size="14.00">G6</text>
<text text-anchor="start" x="362" y="-155.91" font-family="Times,serif" font-size="14.00">Goal 6</text>
</g>
<!-- G6&#45;&gt;Sn3 -->
<g id="edge18" class="edge gsnedge gsnspby">
<title>G6&#45;&gt;Sn3</title>
<path fill="none" stroke="black" d="M368.34,-147.64C359.7,-135.72 347.79,-119.28 336.33,-103.46"/>
<polygon fill="black" stroke="black" points="339.09,-101.31 330.39,-95.27 333.43,-105.42 339.09,-101.31"/>
</g>
<!-- Sn5 -->
<g id="gsn_sn5" class="node gsnelem gsnsltn">
<title>Sn5</title>
<ellipse fill="none" stroke="black" cx="423" cy="-52.33" rx="52.15" ry="52.15"/>
<text text-anchor="start" x="394" y="-56.13" font-family="Times,serif" font-weight="bold" font-size="14.00">Sn5</text>
<text text-anchor="start" x="394" y="-42.13" font-family="Times,serif" font-size="14.00">Solution 5</text>
</g>
<!-- G6&#45;&gt;Sn5 -->
<g id="edge19" class="edge gsnedge gsnspby">
<title>G6&#45;&gt;Sn5</title>
<path fill="none" stroke="black" d="M387.56,-147.64C391.31,-137.66 396.25,-124.51 401.25,-111.21"/>
<polygon fill="black" stroke="black" points="404.64,-112.13 404.88,-101.54 398.09,-109.67 404.64,-112.13"/>
</g>
<!-- G7 -->
<g id="gsn_g7" class="node gsnelem gsngoal">
<title>G7</title>
<polygon fill="none" stroke="black" points="987,-184.11 865,-184.11 865,-148.11 987,-148.11 987,-184.11"/>
<text text-anchor="start" x="873" y="-169.91" font-family="Times,serif" font-weight="bold" font-size="14.00">G7</text>
<text text-anchor="start" x="873" y="-155.91" font-family="Times,serif" font-size="14.00">Undeveloped Goal</text>
</g>
<!-- G7&#45;&gt;G7 -->
<g id="edge3" class="edge">
<title>G7:s&#45;&gt;G7:s</title>
<path fill="none" stroke="transparent" d="M926,-148.11C935,-129.44 935,-92.11 926,-92.11 917,-92.11 917,-129.44 926,-148.11"/>
<text text-anchor="start" x="918.94" y="-136.91" font-family="Times,serif" font-weight="bold" font-size="14.00">♢</text>
</g>
<!-- J1 -->
<g id="gsn_j1" class="node gsnelem gsnjust">
<title>J1</title>
<ellipse fill="none" stroke="black" cx="83" cy="-279.89" rx="67.35" ry="25.41"/>
<text text-anchor="start" x="43.5" y="-283.69" font-family="Times,serif" font-weight="bold" font-size="14.00">J1</text>
<text text-anchor="start" x="43.5" y="-269.69" font-family="Times,serif" font-size="14.00">Justification 1</text>
</g>
<!-- J1&#45;&gt;J1 -->
<g id="edge4" class="edge">
<title>J1:e&#45;&gt;J1:e</title>
<path fill="none" stroke="black" stroke-width="0" d="M150,-279.89C156.18,-307.89 168.18,-307.89 168.18,-279.89 168.18,-251.89 156.18,-251.89 150,-279.89"/>
<text text-anchor="start" x="138.11" y="-252.58" font-family="Times,serif" font-size="14.00"> </text>
<text text-anchor="start" x="142.11" y="-252.58" font-family="Times,serif" font-weight="bold" font-size="14.00">J</text>
<text text-anchor="start" x="149.11" y="-252.58" font-family="Times,serif" font-size="14.00"> </text>
</g>
<!-- J1&#45;&gt;S1 -->
<g id="edge23" class="edge gsnedge gsninctxt">
<title>J1&#45;&gt;S1</title>
<path fill="none" stroke="black" d="M160.85,-279.89C174.4,-279.89 187.94,-279.89 201.48,-279.89"/>
<polygon fill="none" stroke="black" points="160.5,-276.39 150.5,-279.89 160.5,-283.39 160.5,-276.39"/>
</g>
<!-- J2&#45;&gt;J2 -->
<g id="edge5" class="edge">
<title>J2:e&#45;&gt;J2:e</title>
<path fill="none" stroke="black" stroke-width="0" d="M829,-166.11C835.18,-194.11 847.18,-194.11 847.18,-166.11 847.18,-138.11 835.18,-138.11 829,-166.11"/>
<text text-anchor="start" x="817.11" y="-138.8" font-family="Times,serif" font-size="14.00"> </text>
<text text-anchor="start" x="821.11" y="-138.8" font-family="Times,serif" font-weight="bold" font-size="14.00">J</text>
<text text-anchor="start" x="828.11" y="-138.8" font-family="Times,serif" font-size="14.00"> </text>
</g>
<!-- S1&#45;&gt;A1 -->
<g id="edge22" class="edge gsnedge gsninctxt">
<title>S1&#45;&gt;A1</title>
<path fill="none" stroke="black" d="M324.36,-279.89C331.99,-279.89 339.62,-279.89 347.26,-279.89"/>
<polygon fill="none" stroke="black" points="347.29,-283.39 357.29,-279.89 347.29,-276.39 347.29,-283.39"/>
</g>
<!-- S1&#45;&gt;G5 -->
<g id="edge20" class="edge gsnedge gsnspby">
<title>S1&#45;&gt;G5</title>
<path fill="none" stroke="black" d="M249.2,-243.83C242.85,-227.7 235.44,-208.87 229.55,-193.91"/>
<polygon fill="black" stroke="black" points="232.66,-192.26 225.74,-184.24 226.15,-194.83 232.66,-192.26"/>
</g>
<!-- S1&#45;&gt;G6 -->
<g id="edge21" class="edge gsnedge gsnspby">
<title>S1&#45;&gt;G6</title>
<path fill="none" stroke="black" d="M301.28,-243.56C315.97,-229.9 332.84,-214.09 348,-199.56 350.71,-196.96 353.54,-194.23 356.34,-191.5"/>
<polygon fill="black" stroke="black" points="358.92,-193.87 363.61,-184.37 354.02,-188.87 358.92,-193.87"/>
</g>
<!-- S2&#45;&gt;G4 -->
<g id="edge24" class="edge gsnedge gsnspby">
<title>S2&#45;&gt;G4</title>
<path fill="none" stroke="black" d="M692.55,-243.83C683.44,-227.39 672.76,-208.15 664.39,-193.05"/>
<polygon fill="black" stroke="black" points="667.41,-191.29 659.5,-184.24 661.29,-194.68 667.41,-191.29"/>
</g>
<!-- S2&#45;&gt;G7 -->
<g id="edge25" class="edge gsnedge gsnspby">
<title>S2&#45;&gt;G7</title>
<path fill="none" stroke="black" d="M761.63,-252.96C798.81,-233.54 849.1,-207.27 884.23,-188.93"/>
<polygon fill="black" stroke="black" points="886.02,-191.94 893.27,-184.21 882.78,-185.73 886.02,-191.94"/>
</g>
</g>
</svg>
