<svg viewBox="0 0 1058 591" xmlns="http://www.w3.org/2000/svg" xmlns:xlink="http://www.w3.org/1999/xlink">
<marker id="supportedby_arrow" markerHeight="9" markerUnits="users_posaceOnUse" markerWidth="10" orient="auto" refX="0" refY="4.5">
<polyline fill="black" points="0 0, 10 4.5, 0 9"/>
</marker>
<marker id="incontextof_arrow" markerHeight="9" markerUnits="users_posaceOnUse" markerWidth="10" orient="auto" refX="0" refY="4.5">
<polyline fill="none" points="0 0, 10 4.5, 0 9, 0 0" stroke="black" stroke-width="1"/>
</marker>
<g class="gsnelem gsnjust" id="node_J1">
<title>
J1
</title>
<ellipse class="border" cx="278" cy="102" fill="none" rx="142" ry="48" stroke="black" stroke-width="1"/>
<text font-family="Arial" font-size="12" font-weight="bold" x="181" y="84">
J1
</text>
<text font-family="Arial" font-size="12" font-weight="bold" x="415" y="145">
J
</text>
<text font-family="Arial" font-size="12" textLength="195" x="181" y="104">
lalalsfa wrnasdf asdfa sdf asdlmösgm
</text>
<text font-family="Arial" font-size="12" textLength="129" x="181" y="117">
qwjsnf asndflan asdfa as
</text>
</g>
<g class="gsnelem gsngoal" id="node_G1">
<title>
G1
</title>
<path class="border" d="M460,71 L680,71 L680,133 L460,133 z" fill="none" stroke="black" stroke-width="1"/>
<text font-family="Arial" font-size="12" font-weight="bold" x="467" y="91">
G1
</text>
<text font-family="Arial" font-size="12" textLength="207" x="467" y="111">
My extremely very, very, very, long Goal
</text>
<text font-family="Arial" font-size="12" textLength="58" x="467" y="124">
dEscription
</text>
</g>
<g class="gsnelem gsnctxt" id="node_C1">
<title>
C1
</title>
<path class="border" d="M740,20 L820,20 C830,20,830,66,820,66 L740,66 C730,66,730,20,740,20" fill="none" stroke="black" stroke-width="1"/>
<text font-family="Arial" font-size="12" font-weight="bold" x="740" y="38">
C1
</text>
<text font-family="Arial" font-size="12" textLength="70" x="740" y="58">
some context
</text>
</g>
<g class="gsnelem gsnasmp" id="node_A1">
<title>
A1
</title>
<ellipse class="border" cx="780" cy="145" fill="none" rx="60" ry="39" stroke="black" stroke-width="1"/>
<text font-family="Arial" font-size="12" font-weight="bold" x="741" y="134">
A1
</text>
<text font-family="Arial" font-size="12" font-weight="bold" x="835" y="179">
A
</text>
<text font-family="Arial" font-size="12" textLength="79" x="741" y="154">
teadskfasjdfjne
</text>
</g>
<g class="gsnelem gsnsltn" id="node_Sn2">
<title>
Sn2
</title>
<ellipse class="border" cx="161" cy="288" fill="none" rx="63" ry="63" stroke="black" stroke-width="1"/>
<text font-family="Arial" font-size="12" font-weight="bold" x="109" y="277">
Sn2
</text>
<text font-family="Arial" font-size="12" textLength="105" x="109" y="297">
test another solution
</text>
</g>
<g class="gsnelem gsnstgy" id="node_S1">
<title>
S1
</title>
<path class="border" d="M279,263 L378,263 L363,313 L264,313 z" fill="none" stroke="black" stroke-width="1"/>
<text font-family="Arial" font-size="12" font-weight="bold" x="286" y="283">
S1
</text>
<text font-family="Arial" font-size="12" textLength="64" x="271" y="303">
test strategy
</text>
</g>
<g class="gsnelem gsngoal" id="node_G4">
<title>
G4
</title>
<path class="border" d="M418,263 L502,263 L502,313 L418,313 z" fill="none" stroke="black" stroke-width="1"/>
<text font-family="Arial" font-size="12" font-weight="bold" x="425" y="283">
G4
</text>
<text font-family="Arial" font-size="12" textLength="71" x="425" y="303">
circle di circle
</text>
</g>
<g class="gsnelem gsngoal" id="node_G5">
<title>
G5
</title>
<path class="border" d="M542,263 L626,263 L626,313 L542,313 z" fill="none" stroke="black" stroke-width="1"/>
<text font-family="Arial" font-size="12" font-weight="bold" x="549" y="283">
G5
</text>
<text font-family="Arial" font-size="12" textLength="71" x="549" y="303">
elcric id elcric
</text>
</g>
<g class="gsnelem gsnjust" id="node_J2">
<title>
J2
</title>
<ellipse class="border" cx="803" cy="288" fill="none" rx="137" ry="58" stroke="black" stroke-width="1"/>
<text font-family="Arial" font-size="12" font-weight="bold" x="710" y="264">
J2
</text>
<text font-family="Arial" font-size="12" font-weight="bold" x="935" y="341">
J
</text>
<text font-family="Arial" font-size="12" textLength="187" x="710" y="284">
asdfgasgnajkg aksdnnglert klnalsdn
</text>
<text font-family="Arial" font-size="12" textLength="167" x="710" y="297">
kölnsdg ljsmdg snnjk slls qwjsnf
</text>
<text font-family="Arial" font-size="12" textLength="92" x="710" y="310">
asndflan asdfa as
</text>
</g>
<g/>
<g class="gsnelem gsnsltn" id="node_Sn1">
<title>
Sn1
</title>
<ellipse class="border" cx="227" cy="461" fill="none" rx="41" ry="41" stroke="black" stroke-width="1"/>
<text font-family="Arial" font-size="12" font-weight="bold" x="196" y="450">
Sn1
</text>
<text font-family="Arial" font-size="12" textLength="62" x="196" y="470">
test solution
</text>
</g>
<g class="gsnelem gsngoal" id="node_G2">
<title>
G2
</title>
<path class="border" d="M308,434 L530,434 L530,488 L308,488 z" fill="none" stroke="black" stroke-width="1"/>
<text font-family="Arial" font-size="12" font-weight="bold" x="315" y="454">
G2
</text>
<text font-family="Arial" font-size="12" textLength="209" x="315" y="474">
undeveloped undeveloped undeveloped
</text>
<path d="M419,488 l5,5 l-5,5 l-5,-5 z" fill="none" stroke="black" stroke-width="1"/>
</g>
<g class="gsnelem gsngoal" id="node_G3">
<title>
G3
</title>
<path class="border" d="M570,436 L674,436 L674,486 L570,486 z" fill="none" stroke="black" stroke-width="1"/>
<text font-family="Arial" font-size="12" font-weight="bold" x="577" y="456">
G3
</text>
<text font-family="Arial" font-size="12" textLength="90" x="577" y="476">
sub di dub di dub
</text>
</g>
<g class="gsnelem gsnsltn" id="node_Sn4">
<title>
Sn4
</title>
<ellipse class="border" cx="784" cy="461" fill="none" rx="70" ry="70" stroke="black" stroke-width="1"/>
<text font-family="Arial" font-size="12" font-weight="bold" x="725" y="450">
Sn4
</text>
<text font-family="Arial" font-size="12" textLength="119" x="725" y="470">
another forced solution
</text>
</g>
<g class="gsnelem gsnsltn" id="node_Sn3">
<title>
Sn3
</title>
<ellipse class="border" cx="956" cy="461" fill="none" rx="62" ry="62" stroke="black" stroke-width="1"/>
<text font-family="Arial" font-size="12" font-weight="bold" x="905" y="450">
Sn3
</text>
<text font-family="Arial" font-size="12" textLength="103" x="905" y="470">
yet another solution
</text>
</g>
<path class="gsnedge gsnspby" d="M680,102 C680,102,700,43,720,43" fill="none" marker-end="url(#incontextof_arrow)" stroke="black" stroke-width="1"/>
<path class="gsnedge gsninctxt" d="M570,133 C570,163,161,195,161,215" fill="none" marker-end="url(#supportedby_arrow)" stroke="black" stroke-width="1"/>
<path class="gsnedge gsninctxt" d="M570,133 C570,163,321,233,321,253" fill="none" marker-end="url(#supportedby_arrow)" stroke="black" stroke-width="1"/>
<path class="gsnedge gsnspby" d="M460,102 C460,102,450,102,430,102" fill="none" marker-end="url(#incontextof_arrow)" stroke="black" stroke-width="1"/>
<path class="gsnedge gsnspby" d="M680,102 C680,102,690,145,710,145" fill="none" marker-end="url(#incontextof_arrow)" stroke="black" stroke-width="1"/>
<path class="gsnedge gsninctxt" d="M570,133 C570,163,460,233,460,253" fill="none" marker-end="url(#supportedby_arrow)" stroke="black" stroke-width="1"/>
<path class="gsnedge gsninctxt" d="M570,133 C570,163,584,233,584,253" fill="none" marker-end="url(#supportedby_arrow)" stroke="black" stroke-width="1"/>
<path class="gsnedge gsninctxt" d="M460,313 C460,343,956,369,956,389" fill="none" marker-end="url(#supportedby_arrow)" stroke="black" stroke-width="1"/>
<path class="gsnedge gsninctxt" d="M584,313 C584,343,784,361,784,381" fill="none" marker-end="url(#supportedby_arrow)" stroke="black" stroke-width="1"/>
<path class="gsnedge gsninctxt" d="M584,313 C584,343,956,369,956,389" fill="none" marker-end="url(#supportedby_arrow)" stroke="black" stroke-width="1"/>
<path class="gsnedge gsnspby" d="M626,288 C626,288,636,288,656,288" fill="none" marker-end="url(#incontextof_arrow)" stroke="black" stroke-width="1"/>
<path class="gsnedge gsninctxt" d="M321,313 C321,343,227,390,227,410" fill="none" marker-end="url(#supportedby_arrow)" stroke="black" stroke-width="1"/>
<path class="gsnedge gsninctxt" d="M321,313 C321,343,419,404,419,424" fill="none" marker-end="url(#supportedby_arrow)" stroke="black" stroke-width="1"/>
<path class="gsnedge gsninctxt" d="M321,313 C321,343,622,406,622,426" fill="none" marker-end="url(#supportedby_arrow)" stroke="black" stroke-width="1"/>
</svg>