<?xml version="1.0" encoding="UTF-8"?>
<svg class="gsndiagram" viewBox="0 0 598 473" xmlns="http://www.w3.org/2000/svg">
<defs>
<marker id="supportedby_arrow" markerHeight="9" markerUnits="userSpaceOnUse" markerWidth="10" orient="auto-start-reverse" refX="0" refY="4.5">
<polyline fill="black" points="0 0, 10 4.5, 0 9"/>
</marker>
<marker id="incontextof_arrow" markerHeight="9" markerUnits="userSpaceOnUse" markerWidth="10" orient="auto-start-reverse" refX="0" refY="4.5">
<polyline fill-opacity="0" points="0 0, 10 4.5, 0 9, 0 0" stroke="black" stroke-width="1"/>
</marker>
<symbol id="acp">
<rect fill="black" height="10" stroke="black" stroke-width="1" width="10" x="0" y="0"/>
</symbol>
</defs>
<g class="gsn_module_examples_confidence_gsn_yaml gsnelem gsngoal" id="node_g1">
<title>G1</title>
<path class="border" d="M136,20 L346,20 L346,64 L136,64 z" fill-opacity="0" stroke="black" stroke-width="1"/>
<text font-family="Liberation Sans, Arial, sans-serif" font-size="12px" font-weight="bold" x="143" y="40">G1</text>
<text font-family="Liberation Sans, Arial, sans-serif" font-size="12px" x="143" y="58">System is acceptably safe to operate</text>
</g>
<g class="gsn_module_examples_confidence_gsn_yaml gsnelem gsnstgy" id="node_s1">
<title>S1</title>
<path class="border" d="M164,104 L332,104 L318,148 L150,148 z" fill-opacity="0" stroke="black" stroke-width="1"/>
<text font-family="Liberation Sans, Arial, sans-serif" font-size="12px" font-weight="bold" x="171" y="124">S1</text>
<text font-family="Liberation Sans, Arial, sans-serif" font-size="12px" x="167" y="142">Argument over all hazards</text>
</g>
<g class="gsn_module_examples_confidence_gsn_yaml acp_acp6 gsnelem gsnctxt" id="node_c1">
<title>C1</title>
<path class="border" d="M375,104 L479,104 C489,104,489,148,479,148 L375,148 C365,148,365,104,375,104" fill-opacity="0" stroke="black" stroke-width="1"/>
<text font-family="Liberation Sans, Arial, sans-serif" font-size="12px" font-weight="bold" x="382" y="124">C1</text>
<text font-family="Liberation Sans, Arial, sans-serif" font-size="12px" x="382" y="142">Hazard list</text>
<use href="#acp" x="422" y="148"/>
<text font-family="Liberation Sans, Arial, sans-serif" font-size="12px" x="439" y="161">ACP6</text>
</g>
<g class="gsn_module_examples_confidence_gsn_yaml gsnelem gsngoal" id="node_g2">
<title>G2</title>
<path class="border" d="M38,188 L152,188 L152,232 L38,232 z" fill-opacity="0" stroke="black" stroke-width="1"/>
<text font-family="Liberation Sans, Arial, sans-serif" font-size="12px" font-weight="bold" x="45" y="208">G2</text>
<text font-family="Liberation Sans, Arial, sans-serif" font-size="12px" x="45" y="226">Hazard 1 mitigated</text>
</g>
<g class="gsn_module_examples_confidence_gsn_yaml gsnelem gsngoal" id="node_g3">
<title>G3</title>
<path class="border" d="M330,188 L444,188 L444,232 L330,232 z" fill-opacity="0" stroke="black" stroke-width="1"/>
<text font-family="Liberation Sans, Arial, sans-serif" font-size="12px" font-weight="bold" x="337" y="208">G3</text>
<text font-family="Liberation Sans, Arial, sans-serif" font-size="12px" x="337" y="226">Hazard 2 mitigated</text>
</g>
<g class="gsn_module_examples_confidence_gsn_yaml gsnelem gsnsltn" id="node_sn1">
<title>Sn1</title>
<path class="border" d="M20,361 a75,75,0,1,0,150,0 a75,75,0,1,0,-150,0 z" fill-opacity="0" stroke="black" stroke-width="1"/>
<text font-family="Liberation Sans, Arial, sans-serif" font-size="12px" font-weight="bold" x="36" y="353">Sn1</text>
<text font-family="Liberation Sans, Arial, sans-serif" font-size="12px" x="36" y="371">Evidence for Hazard 1</text>
</g>
<g class="gsn_module_examples_confidence_gsn_yaml gsnelem gsnsltn" id="node_sn2a">
<title>Sn2a</title>
<path class="border" d="M210,361 a75,75,0,1,0,150,0 a75,75,0,1,0,-150,0 z" fill-opacity="0" stroke="black" stroke-width="1"/>
<text font-family="Liberation Sans, Arial, sans-serif" font-size="12px" font-weight="bold" x="226" y="353">Sn2a</text>
<text font-family="Liberation Sans, Arial, sans-serif" font-size="12px" x="226" y="371">Evidence for Hazard 2</text>
</g>
<g class="gsn_module_examples_confidence_gsn_yaml acp_acp5 gsnelem gsnsltn" id="node_sn2b">
<title>Sn2b</title>
<path class="border" d="M400,361 a89,89,0,1,0,178,0 a89,89,0,1,0,-178,0 z" fill-opacity="0" stroke="black" stroke-width="1"/>
<text font-family="Liberation Sans, Arial, sans-serif" font-size="12px" font-weight="bold" x="415" y="353">Sn2b</text>
<text font-family="Liberation Sans, Arial, sans-serif" font-size="12px" x="415" y="371">More evidence for Hazard 2</text>
<use href="#acp" x="484" y="450"/>
<text font-family="Liberation Sans, Arial, sans-serif" font-size="12px" x="501" y="463">ACP5</text>
</g>
<path class="gsnedge gsninspby" d="M241,64 C241,94,241,74,241,94" fill-opacity="0" marker-end="url(#supportedby_arrow)" stroke="black" stroke-width="1"/>
<g class="gsnacp" id="acp_g1_s1_acp1">
<use href="#acp" x="235" y="78"/>
<text font-family="Liberation Sans, Arial, sans-serif" font-size="12px" x="252" y="88">ACP1</text>
</g>
<path class="gsnedge gsninspby" d="M95,232 C95,262,95,256,95,276" fill-opacity="0" marker-end="url(#supportedby_arrow)" stroke="black" stroke-width="1"/>
<g class="gsnacp" id="acp_g2_sn1_acp2">
<use href="#acp" x="91" y="253"/>
<text font-family="Liberation Sans, Arial, sans-serif" font-size="12px" x="108" y="263">ACP2</text>
</g>
<path class="gsnedge gsninspby" d="M387,232 C387,262,285,256,285,276" fill-opacity="0" marker-end="url(#supportedby_arrow)" stroke="black" stroke-width="1"/>
<g class="gsnacp" id="acp_g3_sn2a_acp3">
<use href="#acp" x="331" y="253"/>
<text font-family="Liberation Sans, Arial, sans-serif" font-size="12px" x="326" y="248">ACP3</text>
</g>
<path class="gsnedge gsninspby" d="M387,232 C387,262,489,242,489,262" fill-opacity="0" marker-end="url(#supportedby_arrow)" stroke="black" stroke-width="1"/>
<g class="gsnacp" id="acp_g3_sn2b_acp3">
<use href="#acp" x="432" y="246"/>
<text font-family="Liberation Sans, Arial, sans-serif" font-size="12px" x="423" y="270">ACP3</text>
</g>
<path class="gsnedge gsninctxt" d="M325,126 C355,126,335,126,355,126" fill-opacity="0" marker-end="url(#incontextof_arrow)" stroke="black" stroke-width="1"/>
<g class="gsnacp" id="acp_s1_c1_acp4">
<use href="#acp" x="339" y="121"/>
<text font-family="Liberation Sans, Arial, sans-serif" font-size="12px" x="329" y="146">ACP4</text>
</g>
<path class="gsnedge gsninspby" d="M241,148 C241,178,95,158,95,178" fill-opacity="0" marker-end="url(#supportedby_arrow)" stroke="black" stroke-width="1"/>
<path class="gsnedge gsninspby" d="M241,148 C241,178,387,158,387,178" fill-opacity="0" marker-end="url(#supportedby_arrow)" stroke="black" stroke-width="1"/>
</svg>