<?xml version="1.0" encoding="UTF-8"?>
<svg class="gsndiagram" viewBox="0 0 640 487" xmlns="http://www.w3.org/2000/svg">
<defs>
<marker id="supportedby_arrow" markerHeight="9" markerUnits="userSpaceOnUse" markerWidth="10" orient="auto-start-reverse" refX="0" refY="4.5">
<polyline fill="black" points="0 0, 10 4.5, 0 9"/>
</marker>
<marker id="incontextof_arrow" markerHeight="9" markerUnits="userSpaceOnUse" markerWidth="10" orient="auto-start-reverse" refX="0" refY="4.5">
<polyline fill-opacity="0" points="0 0, 10 4.5, 0 9, 0 0" stroke="black" stroke-width="1"/>
</marker>
<symbol id="acp">
<rect fill="black" height="10" stroke="black" stroke-width="1" width="10" x="0" y="0"/>
</symbol>
</defs>
<g class="gsn_module_examples_confidence_gsn_yaml gsnelem gsngoal" id="node_g1">
<title>G1</title>
<path class="border" d="M140,20 L376,20 L376,64 L140,64 z" fill-opacity="0" stroke="black" stroke-width="1"/>
<text font-family="Arial" font-size="12" font-weight="bold" x="147" y="39">G1</text>
<text font-family="Arial" font-size="12" x="147" y="57">System is acceptably safe to operate</text>
</g>
<g class="gsn_module_examples_confidence_gsn_yaml gsnelem gsnstgy" id="node_s1">
<title>S1</title>
<path class="border" d="M181,104 L349,104 L335,148 L167,148 z" fill-opacity="0" stroke="black" stroke-width="1"/>
<text font-family="Arial" font-size="12" font-weight="bold" x="189" y="123">S1</text>
<text font-family="Arial" font-size="12" x="185" y="141">Argument over all hazards</text>
</g>
<g class="gsn_module_examples_confidence_gsn_yaml acp_acp6 gsnelem gsnctxt" id="node_c1">
<title>C1</title>
<path class="border" d="M392,104 L496,104 C506,104,506,148,496,148 L392,148 C382,148,382,104,392,104" fill-opacity="0" stroke="black" stroke-width="1"/>
<text font-family="Arial" font-size="12" font-weight="bold" x="399" y="123">C1</text>
<text font-family="Arial" font-size="12" x="399" y="141">Hazard list</text>
<use href="#acp" x="439" y="148"/>
<text font-family="Arial" font-size="12" x="456" y="161">ACP6</text>
</g>
<g class="gsn_module_examples_confidence_gsn_yaml gsnelem gsngoal" id="node_g2">
<title>G2</title>
<path class="border" d="M40,188 L164,188 L164,232 L40,232 z" fill-opacity="0" stroke="black" stroke-width="1"/>
<text font-family="Arial" font-size="12" font-weight="bold" x="47" y="207">G2</text>
<text font-family="Arial" font-size="12" x="47" y="225">Hazard 1 mitigated</text>
</g>
<g class="gsn_module_examples_confidence_gsn_yaml gsnelem gsngoal" id="node_g3">
<title>G3</title>
<path class="border" d="M353,188 L477,188 L477,232 L353,232 z" fill-opacity="0" stroke="black" stroke-width="1"/>
<text font-family="Arial" font-size="12" font-weight="bold" x="360" y="207">G3</text>
<text font-family="Arial" font-size="12" x="360" y="225">Hazard 2 mitigated</text>
</g>
<g class="gsn_module_examples_confidence_gsn_yaml gsnelem gsnsltn" id="node_sn1">
<title>Sn1</title>
<path class="border" d="M20,368 a82,82,0,1,0,164,0 a82,82,0,1,0,-164,0 z" fill-opacity="0" stroke="black" stroke-width="1"/>
<text font-family="Arial" font-size="12" font-weight="bold" x="36" y="360">Sn1</text>
<text font-family="Arial" font-size="12" x="36" y="378">Evidence for Hazard 1</text>
</g>
<g class="gsn_module_examples_confidence_gsn_yaml gsnelem gsnsltn" id="node_sn2a">
<title>Sn2a</title>
<path class="border" d="M224,368 a82,82,0,1,0,164,0 a82,82,0,1,0,-164,0 z" fill-opacity="0" stroke="black" stroke-width="1"/>
<text font-family="Arial" font-size="12" font-weight="bold" x="240" y="360">Sn2a</text>
<text font-family="Arial" font-size="12" x="240" y="378">Evidence for Hazard 2</text>
</g>
<g class="gsn_module_examples_confidence_gsn_yaml acp_acp5 gsnelem gsnsltn" id="node_sn2b">
<title>Sn2b</title>
<path class="border" d="M428,368 a96,96,0,1,0,192,0 a96,96,0,1,0,-192,0 z" fill-opacity="0" stroke="black" stroke-width="1"/>
<text font-family="Arial" font-size="12" font-weight="bold" x="443" y="360">Sn2b</text>
<text font-family="Arial" font-size="12" x="443" y="378">More evidence for Hazard 2</text>
<use href="#acp" x="519" y="464"/>
<text font-family="Arial" font-size="12" x="536" y="477">ACP5</text>
</g>
<path class="gsnedge gsninspby" d="M258,64 C258,94,258,74,258,94" fill-opacity="0" marker-end="url(#supportedby_arrow)" stroke="black" stroke-width="1"/>
<g class="gsnacp" id="acp_g1_s1_acp1">
<use href="#acp" x="253" y="78"/>
<text font-family="Arial" font-size="12" x="270" y="88">ACP1</text>
</g>
<path class="gsnedge gsninspby" d="M102,232 C102,262,102,256,102,276" fill-opacity="0" marker-end="url(#supportedby_arrow)" stroke="black" stroke-width="1"/>
<g class="gsnacp" id="acp_g2_sn1_acp2">
<use href="#acp" x="97" y="253"/>
<text font-family="Arial" font-size="12" x="114" y="263">ACP2</text>
</g>
<path class="gsnedge gsninspby" d="M415,232 C415,262,306,256,306,276" fill-opacity="0" marker-end="url(#supportedby_arrow)" stroke="black" stroke-width="1"/>
<g class="gsnacp" id="acp_g3_sn2a_acp3">
<use href="#acp" x="356" y="253"/>
<text font-family="Arial" font-size="12" x="351" y="248">ACP3</text>
</g>
<path class="gsnedge gsninspby" d="M415,232 C415,262,524,242,524,262" fill-opacity="0" marker-end="url(#supportedby_arrow)" stroke="black" stroke-width="1"/>
<g class="gsnacp" id="acp_g3_sn2b_acp3">
<use href="#acp" x="466" y="246"/>
<text font-family="Arial" font-size="12" x="457" y="270">ACP3</text>
</g>
<path class="gsnedge gsninctxt" d="M342,126 C372,126,352,126,372,126" fill-opacity="0" marker-end="url(#incontextof_arrow)" stroke="black" stroke-width="1"/>
<g class="gsnacp" id="acp_s1_c1_acp4">
<use href="#acp" x="357" y="121"/>
<text font-family="Arial" font-size="12" x="347" y="146">ACP4</text>
</g>
<path class="gsnedge gsninspby" d="M258,148 C258,178,102,158,102,178" fill-opacity="0" marker-end="url(#supportedby_arrow)" stroke="black" stroke-width="1"/>
<path class="gsnedge gsninspby" d="M258,148 C258,178,415,158,415,178" fill-opacity="0" marker-end="url(#supportedby_arrow)" stroke="black" stroke-width="1"/>
</svg>