<?xml version="1.0" encoding="UTF-8"?>
<svg class="gsndiagram" viewBox="0 0 381 261" xmlns="http://www.w3.org/2000/svg">
<symbol id="module_icon">
<rect fill="lightgrey" height="5" stroke="black" stroke-width="1" width="10" x="0" y="0"/>
<rect fill="lightgrey" height="10" stroke="black" stroke-width="1" width="20" x="0" y="5"/>
</symbol>
<symbol id="acp">
<rect fill="black" height="10" stroke="black" stroke-width="1" width="10" x="0" y="0"/>
</symbol>
<marker id="composite_arrow" markerHeight="9" markerUnits="userSpaceOnUse" markerWidth="10" orient="auto-start-reverse" refX="0" refY="4.5">
<polyline fill-opacity="0" points="0 0, 6 4.5, 0 9" stroke="black" stroke-width="1"/>
<polyline fill-opacity="0" points="4 0, 10 4.5, 4 9" stroke="black" stroke-width="1"/>
<polyline fill-opacity="0" points="0 4.5, 10 4.5" stroke="black" stroke-width="1"/>
</marker>
<marker id="supportedby_arrow" markerHeight="9" markerUnits="userSpaceOnUse" markerWidth="10" orient="auto-start-reverse" refX="0" refY="4.5">
<polyline fill="black" points="0 0, 10 4.5, 0 9"/>
</marker>
<marker id="incontextof_arrow" markerHeight="9" markerUnits="userSpaceOnUse" markerWidth="10" orient="auto-start-reverse" refX="0" refY="4.5">
<polyline fill-opacity="0" points="0 0, 10 4.5, 0 9, 0 0" stroke="black" stroke-width="1"/>
</marker>
<marker id="challenges_arrow" markerHeight="9" markerUnits="userSpaceOnUse" markerWidth="10" orient="auto-start-reverse" refX="0" refY="4.5">
<polyline fill-opacity="0" points="0 0, 10 4.5, 0 4.5, 10 4.5, 0 9" stroke="black" stroke-dasharray="100" stroke-width="1"/>
</marker>
<g class="gsn_module_examples_entangled_gsn_yaml gsnelem gsngoal" id="node_g1">
<title>G1</title>
<path class="border" d="M28,20 L132,20 L132,66 L28,66 z" fill-opacity="0" stroke="black" stroke-width="1"/>
<text font-family="Arial" font-size="12" font-weight="bold" x="35" y="39">G1</text>
<text font-family="Arial" font-size="12" x="35" y="58">First</text>
</g>
<g class="gsn_module_examples_entangled_gsn_yaml gsnelem gsngoal" id="node_g2">
<title>G2</title>
<path class="border" d="M195,20 L299,20 L299,66 L195,66 z" fill-opacity="0" stroke="black" stroke-width="1"/>
<text font-family="Arial" font-size="12" font-weight="bold" x="202" y="39">G2</text>
<text font-family="Arial" font-size="12" x="202" y="58">Second</text>
</g>
<g class="gsn_module_examples_entangled_gsn_yaml gsnelem gsnsltn" id="node_sn2">
<title>Sn2</title>
<path class="border" d="M20,173 a60,60,0,1,0,120,0 a60,60,0,1,0,-120,0 z" fill-opacity="0" stroke="black" stroke-width="1"/>
<text font-family="Arial" font-size="12" font-weight="bold" x="36" y="164">Sn2</text>
<text font-family="Arial" font-size="12" x="36" y="183">Solution to First</text>
</g>
<g class="gsn_module_examples_entangled_gsn_yaml gsnelem gsnsltn" id="node_sn1">
<title>Sn1</title>
<path class="border" d="M180,173 a67,67,0,1,0,134,0 a67,67,0,1,0,-134,0 z" fill-opacity="0" stroke="black" stroke-width="1"/>
<text font-family="Arial" font-size="12" font-weight="bold" x="196" y="164">Sn1</text>
<text font-family="Arial" font-size="12" x="196" y="183">Solution to Second</text>
</g>
<path class="gsnedge gsninspby" d="M80,66 C80,96,80,83,80,103" fill-opacity="0" marker-end="url(#supportedby_arrow)" stroke="black" stroke-width="1"/>
<path class="gsnedge gsninspby" d="M247,66 C247,96,247,76,247,96" fill-opacity="0" marker-end="url(#supportedby_arrow)" stroke="black" stroke-width="1"/>
</svg>