<?xml version="1.0" encoding="UTF-8"?>
<svg class="gsndiagram" viewBox="0 0 2176 257" xmlns="http://www.w3.org/2000/svg">
<defs>
<marker id="supportedby_arrow" markerHeight="9" markerUnits="userSpaceOnUse" markerWidth="10" orient="auto-start-reverse" refX="0" refY="4.5">
<polyline fill="black" points="0 0, 10 4.5, 0 9"/>
</marker>
</defs>
<g class="gsn_module_examples_entangled_gsn_yaml gsnelem gsngoal" id="node_g1">
<title>G1</title>
<path class="border" d="M1738,20 L1842,20 L1842,64 L1738,64 z" fill-opacity="0" stroke="black" stroke-width="1"/>
<text font-family="Liberation Sans, Arial, sans-serif" font-size="12px" font-weight="bold" x="1745" y="40">G1</text>
<text font-family="Liberation Sans, Arial, sans-serif" font-size="12px" x="1745" y="58">First</text>
</g>
<g class="gsn_module_examples_entangled_gsn_yaml gsnelem gsngoal" id="node_g2">
<title>G2</title>
<path class="border" d="M1882,20 L1986,20 L1986,64 L1882,64 z" fill-opacity="0" stroke="black" stroke-width="1"/>
<text font-family="Liberation Sans, Arial, sans-serif" font-size="12px" font-weight="bold" x="1889" y="40">G2</text>
<text font-family="Liberation Sans, Arial, sans-serif" font-size="12px" x="1889" y="58">Second</text>
</g>
<g class="gsn_module_examples_entangled_gsn_yaml gsnelem gsnsltn" id="node_sn1">
<title>Sn1</title>
<path class="border" d="M1868,170 a66,66,0,1,0,132,0 a66,66,0,1,0,-132,0 z" fill-opacity="0" stroke="black" stroke-width="1"/>
<text font-family="Liberation Sans, Arial, sans-serif" font-size="12px" font-weight="bold" x="1884" y="162">Sn1</text>
<text font-family="Liberation Sans, Arial, sans-serif" font-size="12px" x="1884" y="180">Solution to Second</text>
</g>
<g class="gsn_module_examples_entangled_gsn_yaml gsnelem gsnsltn" id="node_sn2">
<title>Sn2</title>
<path class="border" d="M2040,170 a58,58,0,1,0,116,0 a58,58,0,1,0,-116,0 z" fill-opacity="0" stroke="black" stroke-width="1"/>
<text font-family="Liberation Sans, Arial, sans-serif" font-size="12px" font-weight="bold" x="2057" y="162">Sn2</text>
<text font-family="Liberation Sans, Arial, sans-serif" font-size="12px" x="2057" y="180">Solution to First</text>
</g>
<path class="gsnedge gsninspby" d="M1790,64 C1790,94,2098,82,2098,102" fill-opacity="0" marker-end="url(#supportedby_arrow)" stroke="black" stroke-width="1"/>
<path class="gsnedge gsninspby" d="M1934,64 C1934,94,1934,74,1934,94" fill-opacity="0" marker-end="url(#supportedby_arrow)" stroke="black" stroke-width="1"/>
</svg>