<svg viewBox="0 0 1052 538" xmlns="http://www.w3.org/2000/svg" xmlns:xlink="http://www.w3.org/1999/xlink">
<symbol id="module_icon" viewbox="0 0 20 20">
<rect fill="lightgrey" height="5" stroke="black" stroke-width="1" width="10" x="0" y="0"/>
<rect fill="lightgrey" height="10" stroke="black" stroke-width="1" width="20" x="0" y="5"/>
</symbol>
<marker id="composite_arrow" markerHeight="9" markerUnits="users_posaceOnUse" markerWidth="10" orient="auto-start-reverse" refX="0" refY="4.5">
<polyline fill="none" points="0 0, 6 4.5, 0 9" stroke="black" stroke-width="1"/>
<polyline fill="none" points="4 0, 10 4.5, 4 9" stroke="black" stroke-width="1"/>
<polyline fill="none" points="0 4.5, 10 4.5" stroke="black" stroke-width="1"/>
</marker>
<marker id="supportedby_arrow" markerHeight="9" markerUnits="users_posaceOnUse" markerWidth="10" orient="auto-start-reverse" refX="0" refY="4.5">
<polyline fill="black" points="0 0, 10 4.5, 0 9"/>
</marker>
<marker id="incontextof_arrow" markerHeight="9" markerUnits="users_posaceOnUse" markerWidth="10" orient="auto-start-reverse" refX="0" refY="4.5">
<polyline fill="none" points="0 0, 10 4.5, 0 9, 0 0" stroke="black" stroke-width="1"/>
</marker>
<defs>
<style type="text/css">
<![CDATA[
@media (prefers-color-scheme: dark) {
  .gsnelem { background-color: white; }
}]]>
</style>
</defs>
<g class="gsnelem gsngoal gsn_module_examples_example_gsn_yaml" id="node_G1">
<title>
G1
</title>
<path class="border" d="M548,20 L632,20 L632,70 L548,70 z" fill="none" stroke="black" stroke-width="1"/>
<text font-family="AppleSystemUIFont" font-size="12" font-weight="bold" textLength="13" x="555" y="41">
G1
</text>
<text font-family="AppleSystemUIFont" font-size="12" textLength="31" x="555" y="61">
Goal 1
</text>
</g>
<g class="gsnelem gsngoal gsn_module_examples_example_gsn_yaml" id="node_G2">
<title>
G2
</title>
<path class="border" d="M288,110 L372,110 L372,160 L288,160 z" fill="none" stroke="black" stroke-width="1"/>
<text font-family="AppleSystemUIFont" font-size="12" font-weight="bold" textLength="14" x="295" y="131">
G2
</text>
<text font-family="AppleSystemUIFont" font-size="12" textLength="33" x="295" y="151">
Goal 2
</text>
</g>
<g class="gsnelem gsngoal gsn_module_examples_example_gsn_yaml" id="node_G3">
<title>
G3
</title>
<path class="border" d="M808,110 L892,110 L892,160 L808,160 z" fill="none" stroke="black" stroke-width="1"/>
<text font-family="AppleSystemUIFont" font-size="12" font-weight="bold" textLength="15" x="815" y="131">
G3
</text>
<text font-family="AppleSystemUIFont" font-size="12" textLength="33" x="815" y="151">
Goal 3
</text>
</g>
<g class="gsnelem gsnctxt gsn_module_examples_example_gsn_yaml" id="node_C1">
<title>
C1
</title>
<path class="border" d="M942,112 L1002,112 C1012,112,1012,158,1002,158 L942,158 C932,158,932,112,942,112" fill="none" stroke="black" stroke-width="1"/>
<text font-family="AppleSystemUIFont" font-size="12" font-weight="bold" textLength="13" x="942" y="131">
C1
</text>
<text font-family="AppleSystemUIFont" font-size="12" textLength="47" x="942" y="151">
Context 1
</text>
</g>
<g class="gsnelem gsnjust gsn_module_examples_example_gsn_yaml" id="node_J1">
<title>
J1
</title>
<ellipse class="border" cx="73" cy="241" fill="none" rx="53" ry="41" stroke="black" stroke-width="1"/>
<text font-family="AppleSystemUIFont" font-size="12" font-weight="bold" textLength="11" x="39" y="230">
J1
</text>
<text font-family="AppleSystemUIFont" font-size="12" font-weight="bold" x="121" y="277">
J
</text>
<text font-family="AppleSystemUIFont" font-size="12" textLength="68" x="39" y="250">
Justification 1
</text>
</g>
<g class="gsnelem gsnstgy gsn_module_examples_example_gsn_yaml" id="node_S1">
<title>
S1
</title>
<path class="border" d="M288,216 L387,216 L372,266 L273,266 z" fill="none" stroke="black" stroke-width="1"/>
<text font-family="AppleSystemUIFont" font-size="12" font-weight="bold" textLength="12" x="295" y="237">
S1
</text>
<text font-family="AppleSystemUIFont" font-size="12" textLength="50" x="280" y="257">
Strategy 1
</text>
</g>
<g class="gsnelem gsnasmp gsn_module_examples_example_gsn_yaml" id="node_A1">
<title>
A1
</title>
<ellipse class="border" cx="472" cy="241" fill="none" rx="45" ry="41" stroke="black" stroke-width="1"/>
<text font-family="AppleSystemUIFont" font-size="12" font-weight="bold" textLength="12" x="444" y="230">
A1
</text>
<text font-family="AppleSystemUIFont" font-size="12" font-weight="bold" x="512" y="277">
A
</text>
<text font-family="AppleSystemUIFont" font-size="12" textLength="57" x="444" y="250">
Argument 1
</text>
</g>
<g class="gsnelem gsnstgy gsn_module_examples_example_gsn_yaml" id="node_S2">
<title>
S2
</title>
<path class="border" d="M676,216 L775,216 L760,266 L661,266 z" fill="none" stroke="black" stroke-width="1"/>
<text font-family="AppleSystemUIFont" font-size="12" font-weight="bold" textLength="13" x="683" y="237">
S2
</text>
<text font-family="AppleSystemUIFont" font-size="12" textLength="51" x="668" y="257">
Strategy 2
</text>
</g>
<a xlink:href="https://github.com/jonasthewolf/gsn2x">
<g class="gsnelem gsnsltn gsn_module_examples_example_gsn_yaml" id="node_Sn1"/>
<title>
Sn1
</title>
<ellipse class="border" cx="850" cy="241" fill="none" rx="35" ry="35" stroke="black" stroke-width="1"/>
<text font-family="AppleSystemUIFont" font-size="12" font-weight="bold" textLength="18" x="826" y="230">
Sn1
</text>
<text font-family="AppleSystemUIFont" font-size="12" textLength="49" x="826" y="250">
Solution 1
</text>
</a>
<g class="gsnelem gsnasmp mycssclass anotherclass gsn_module_examples_example_gsn_yaml" id="node_A2">
<title>
A2
</title>
<ellipse class="border" cx="73" cy="363" fill="none" rx="53" ry="41" stroke="black" stroke-width="1"/>
<text font-family="AppleSystemUIFont" font-size="12" font-weight="bold" textLength="13" x="39" y="352">
A2
</text>
<text font-family="AppleSystemUIFont" font-size="12" font-weight="bold" x="121" y="399">
A
</text>
<text font-family="AppleSystemUIFont" font-size="12" textLength="69" x="39" y="372">
Assumption 2
</text>
</g>
<g class="gsnelem gsngoal gsn_module_examples_example_gsn_yaml" id="node_G5">
<title>
G5
</title>
<path class="border" d="M166,338 L250,338 L250,388 L166,388 z" fill="none" stroke="black" stroke-width="1"/>
<text font-family="AppleSystemUIFont" font-size="12" font-weight="bold" textLength="15" x="173" y="359">
G5
</text>
<text font-family="AppleSystemUIFont" font-size="12" textLength="33" x="173" y="379">
Goal 5
</text>
</g>
<g class="gsnelem gsnctxt gsn_module_examples_example_gsn_yaml" id="node_C2">
<title>
C2
</title>
<path class="border" d="M300,333 L360,333 C370,333,370,393,360,393 L300,393 C290,393,290,333,300,333" fill="none" stroke="black" stroke-width="1"/>
<text font-family="AppleSystemUIFont" font-size="12" font-weight="bold" textLength="14" x="300" y="352">
C2
</text>
<text font-family="AppleSystemUIFont" font-size="12" textLength="49" x="300" y="372">
Context 2
</text>
<text font-family="AppleSystemUIFont" font-size="12" textLength="42" x="300" y="386">
Multiline
</text>
</g>
<g class="gsnelem gsngoal gsn_module_examples_example_gsn_yaml" id="node_G6">
<title>
G6
</title>
<path class="border" d="M410,338 L494,338 L494,388 L410,388 z" fill="none" stroke="black" stroke-width="1"/>
<text font-family="AppleSystemUIFont" font-size="12" font-weight="bold" textLength="15" x="417" y="359">
G6
</text>
<text font-family="AppleSystemUIFont" font-size="12" textLength="33" x="417" y="379">
Goal 6
</text>
</g>
<g class="gsnelem gsngoal gsn_module_examples_example_gsn_yaml" id="node_G4">
<title>
G4
</title>
<path class="border" d="M534,338 L618,338 L618,388 L534,388 z" fill="none" stroke="black" stroke-width="1"/>
<text font-family="AppleSystemUIFont" font-size="12" font-weight="bold" textLength="15" x="541" y="359">
G4
</text>
<text font-family="AppleSystemUIFont" font-size="12" textLength="33" x="541" y="379">
Goal 4
</text>
</g>
<g class="gsnelem gsnjust gsn_module_examples_example_gsn_yaml" id="node_J2">
<title>
J2
</title>
<ellipse class="border" cx="712" cy="363" fill="none" rx="54" ry="41" stroke="black" stroke-width="1"/>
<text font-family="AppleSystemUIFont" font-size="12" font-weight="bold" textLength="12" x="677" y="352">
J2
</text>
<text font-family="AppleSystemUIFont" font-size="12" font-weight="bold" x="761" y="399">
J
</text>
<text font-family="AppleSystemUIFont" font-size="12" textLength="70" x="677" y="372">
Justification 2
</text>
</g>
<g class="gsnelem gsngoal gsn_module_examples_example_gsn_yaml" id="node_G7">
<title>
G7
</title>
<path class="border" d="M806,335 L914,335 L914,391 L806,391 z" fill="none" stroke="black" stroke-width="1"/>
<text font-family="AppleSystemUIFont" font-size="12" font-weight="bold" textLength="15" x="813" y="356">
G7
</text>
<text font-family="AppleSystemUIFont" font-size="12" textLength="94" x="813" y="376">
Undeveloped Goal
</text>
<path d="M860,391 l5,5 l-5,5 l-5,-5 z" fill="none" stroke="black" stroke-width="1"/>
</g>
<g class="gsnelem gsnsltn gsn_module_examples_example_gsn_yaml" id="node_Sn4">
<title>
Sn4
</title>
<ellipse class="border" cx="56" cy="480" fill="none" rx="36" ry="36" stroke="black" stroke-width="1"/>
<text font-family="AppleSystemUIFont" font-size="12" font-weight="bold" textLength="19" x="31" y="469">
Sn4
</text>
<text font-family="AppleSystemUIFont" font-size="12" textLength="50" x="31" y="489">
Solution 4
</text>
</g>
<g class="gsnelem gsnsltn gsn_layer2 gsn_module_examples_example_gsn_yaml" id="node_Sn3">
<title>
Sn3
</title>
<ellipse class="border" cx="330" cy="480" fill="none" rx="36" ry="36" stroke="black" stroke-width="1"/>
<text font-family="AppleSystemUIFont" font-size="12" font-weight="bold" textLength="19" x="305" y="469">
Sn3
</text>
<text font-family="AppleSystemUIFont" font-size="12" textLength="50" x="305" y="489">
Solution 3
</text>
</g>
<g class="gsnelem gsnsltn gsn_module_examples_example_gsn_yaml" id="node_Sn5">
<title>
Sn5
</title>
<ellipse class="border" cx="442" cy="480" fill="none" rx="36" ry="36" stroke="black" stroke-width="1"/>
<text font-family="AppleSystemUIFont" font-size="12" font-weight="bold" textLength="19" x="417" y="469">
Sn5
</text>
<text font-family="AppleSystemUIFont" font-size="12" textLength="50" x="417" y="489">
Solution 5
</text>
</g>
<g class="gsnelem gsnsltn gsn_layer1 gsn_layer2 gsn_module_examples_example_gsn_yaml" id="node_Sn2">
<title>
Sn2
</title>
<ellipse class="border" cx="576" cy="480" fill="none" rx="36" ry="36" stroke="black" stroke-width="1"/>
<text font-family="AppleSystemUIFont" font-size="12" font-weight="bold" textLength="19" x="551" y="469">
Sn2
</text>
<text font-family="AppleSystemUIFont" font-size="12" textLength="50" x="551" y="489">
Solution 2
</text>
</g>
<path class="gsnedge gsninspby" d="M590,70 C590,100,330,80,330,100" fill="none" marker-end="url(#supportedby_arrow)" stroke="black" stroke-width="1"/>
<path class="gsnedge gsninspby" d="M590,70 C590,100,850,80,850,100" fill="none" marker-end="url(#supportedby_arrow)" stroke="black" stroke-width="1"/>
<path class="gsnedge gsninspby" d="M590,70 C590,100,718,186,718,206" fill="none" marker-end="url(#supportedby_arrow)" stroke="black" stroke-width="1"/>
<path class="gsnedge gsninspby" d="M330,160 C330,190,330,186,330,206" fill="none" marker-end="url(#supportedby_arrow)" stroke="black" stroke-width="1"/>
<path class="gsnedge gsninctxt" d="M892,135 C892,135,902,135,922,135" fill="none" marker-end="url(#incontextof_arrow)" stroke="black" stroke-width="1"/>
<path class="gsnedge gsninspby" d="M850,160 C850,190,850,176,850,196" fill="none" marker-end="url(#supportedby_arrow)" stroke="black" stroke-width="1"/>
<path class="gsnedge gsninctxt" d="M618,363 C618,363,628,363,648,363" fill="none" marker-end="url(#incontextof_arrow)" stroke="black" stroke-width="1"/>
<path class="gsnedge gsninspby" d="M576,388 C576,418,576,414,576,434" fill="none" marker-end="url(#supportedby_arrow)" stroke="black" stroke-width="1"/>
<path class="gsnedge gsninctxt" d="M250,363 C250,363,260,363,280,363" fill="none" marker-end="url(#incontextof_arrow)" stroke="black" stroke-width="1"/>
<path class="gsnedge gsninctxt" d="M166,363 C166,363,156,363,136,363" fill="none" marker-end="url(#incontextof_arrow)" stroke="black" stroke-width="1"/>
<path class="gsnedge gsninspby" d="M208,388 C208,418,330,414,330,434" fill="none" marker-end="url(#supportedby_arrow)" stroke="black" stroke-width="1"/>
<path class="gsnedge gsninspby" d="M208,388 C208,418,56,414,56,434" fill="none" marker-end="url(#supportedby_arrow)" stroke="black" stroke-width="1"/>
<path class="gsnedge gsninspby" d="M452,388 C452,418,330,414,330,434" fill="none" marker-end="url(#supportedby_arrow)" stroke="black" stroke-width="1"/>
<path class="gsnedge gsninspby" d="M452,388 C452,418,442,414,442,434" fill="none" marker-end="url(#supportedby_arrow)" stroke="black" stroke-width="1"/>
<path class="gsnedge gsninctxt" d="M380,241 C380,241,397,241,417,241" fill="none" marker-end="url(#incontextof_arrow)" stroke="black" stroke-width="1"/>
<path class="gsnedge gsninctxt" d="M280,241 C280,241,156,241,136,241" fill="none" marker-end="url(#incontextof_arrow)" stroke="black" stroke-width="1"/>
<path class="gsnedge gsninspby" d="M330,266 C330,296,208,308,208,328" fill="none" marker-end="url(#supportedby_arrow)" stroke="black" stroke-width="1"/>
<path class="gsnedge gsninspby" d="M330,266 C330,296,452,308,452,328" fill="none" marker-end="url(#supportedby_arrow)" stroke="black" stroke-width="1"/>
<path class="gsnedge gsninspby" d="M718,266 C718,296,576,308,576,328" fill="none" marker-end="url(#supportedby_arrow)" stroke="black" stroke-width="1"/>
<path class="gsnedge gsninspby" d="M718,266 C718,296,860,305,860,325" fill="none" marker-end="url(#supportedby_arrow)" stroke="black" stroke-width="1"/>
</svg>