<?xml version="1.0" encoding="UTF-8"?>
<svg classes="gsndiagram" viewBox="0 0 1287 545" xmlns="http://www.w3.org/2000/svg">
<symbol id="module_icon">
<rect fill="lightgrey" height="5" stroke="black" stroke-width="1" width="10" x="0" y="0"/>
<rect fill="lightgrey" height="10" stroke="black" stroke-width="1" width="20" x="0" y="5"/>
</symbol>
<marker id="composite_arrow" markerHeight="9" markerUnits="userSpaceOnUse" markerWidth="10" orient="auto-start-reverse" refX="0" refY="4.5">
<polyline fill="none" points="0 0, 6 4.5, 0 9" stroke="black" stroke-width="1"/>
<polyline fill="none" points="4 0, 10 4.5, 4 9" stroke="black" stroke-width="1"/>
<polyline fill="none" points="0 4.5, 10 4.5" stroke="black" stroke-width="1"/>
</marker>
<marker id="supportedby_arrow" markerHeight="9" markerUnits="userSpaceOnUse" markerWidth="10" orient="auto-start-reverse" refX="0" refY="4.5">
<polyline fill="black" points="0 0, 10 4.5, 0 9"/>
</marker>
<marker id="incontextof_arrow" markerHeight="9" markerUnits="userSpaceOnUse" markerWidth="10" orient="auto-start-reverse" refX="0" refY="4.5">
<polyline fill="none" points="0 0, 10 4.5, 0 9, 0 0" stroke="black" stroke-width="1"/>
</marker>
<style type="text/css">
<![CDATA[/* CSS to invert SVG for dark mode */ 
svg { filter: invert(100%); }]]>
</style>
<g class="gsn_module_examples_example_gsn_yaml gsnelem gsngoal" id="node_G1">
<title>
G1
</title>
<path class="border" d="M649,20 L753,20 L753,66 L649,66 z" fill="none" stroke="black" stroke-width="1"/>
<text font-family="Arial" font-size="12" font-weight="bold" x="656" y="39">
G1
</text>
<text font-family="Arial" font-size="12" x="656" y="56">
Goal 1
</text>
</g>
<g class="gsn_module_examples_example_gsn_yaml gsnelem gsngoal" id="node_G2">
<title>
G2
</title>
<path class="border" d="M342,106 L446,106 L446,152 L342,152 z" fill="none" stroke="black" stroke-width="1"/>
<text font-family="Arial" font-size="12" font-weight="bold" x="349" y="125">
G2
</text>
<text font-family="Arial" font-size="12" x="349" y="142">
Goal 2
</text>
</g>
<g class="gsn_module_examples_example_gsn_yaml gsnelem gsngoal" id="node_G3">
<title>
G3
</title>
<path class="border" d="M957,106 L1061,106 L1061,152 L957,152 z" fill="none" stroke="black" stroke-width="1"/>
<text font-family="Arial" font-size="12" font-weight="bold" x="964" y="125">
G3
</text>
<text font-family="Arial" font-size="12" x="964" y="142">
Goal 3
</text>
</g>
<g class="gsn_module_examples_example_gsn_yaml gsnelem gsnctxt" id="node_C1">
<title>
C1
</title>
<path class="border" d="M1111,106 L1215,106 C1225,106,1225,152,1215,152 L1111,152 C1101,152,1101,106,1111,106" fill="none" stroke="black" stroke-width="1"/>
<text font-family="Arial" font-size="12" font-weight="bold" x="1118" y="125">
C1
</text>
<text font-family="Arial" font-size="12" x="1118" y="142">
Context 1
</text>
</g>
<g class="gsn_module_examples_example_gsn_yaml gsnelem gsnjust" id="node_J1">
<title>
J1
</title>
<path class="border" d="M153,238 a67,33,0,1,0,134,0 a67,33,0,1,0,-134,0 z" fill="none" stroke="black" stroke-width="1"/>
<text font-family="Arial" font-size="12" font-weight="bold" x="180" y="229">
J1
</text>
<text font-family="Arial" font-size="12" x="180" y="246">
Justification 1
</text>
<text font-family="Arial" font-size="12" font-weight="bold" x="282" y="266">
J
</text>
</g>
<g class="gsn_module_examples_example_gsn_yaml gsnelem gsnstgy" id="node_S1">
<title>
S1
</title>
<path class="border" d="M334,215 L468,215 L454,261 L320,261 z" fill="none" stroke="black" stroke-width="1"/>
<text font-family="Arial" font-size="12" font-weight="bold" x="342" y="234">
S1
</text>
<text font-family="Arial" font-size="12" x="342" y="251">
Strategy 1
</text>
</g>
<g class="gsn_module_examples_example_gsn_yaml gsnelem gsnasmp" id="node_A1">
<title>
A1
</title>
<path class="border" d="M501,238 a55,33,0,1,0,110,0 a55,33,0,1,0,-110,0 z" fill="none" stroke="black" stroke-width="1"/>
<text font-family="Arial" font-size="12" font-weight="bold" x="524" y="229">
A1
</text>
<text font-family="Arial" font-size="12" x="524" y="246">
Argument 1
</text>
<text font-family="Arial" font-size="12" font-weight="bold" x="606" y="266">
A
</text>
</g>
<g class="gsn_module_examples_example_gsn_yaml gsnelem gsnstgy" id="node_S2">
<title>
S2
</title>
<path class="border" d="M796,215 L930,215 L916,261 L782,261 z" fill="none" stroke="black" stroke-width="1"/>
<text font-family="Arial" font-size="12" font-weight="bold" x="804" y="234">
S2
</text>
<text font-family="Arial" font-size="12" x="804" y="251">
Strategy 2
</text>
</g>
<a href="https://github.com/jonasthewolf/gsn2x">
<g class="gsn_module_examples_example_gsn_yaml gsnelem gsnsltn" id="node_Sn1">
<title>
Sn1
</title>
<path class="border" d="M963,238 a46,46,0,1,0,92,0 a46,46,0,1,0,-92,0 z" fill="none" stroke="black" stroke-width="1"/>
<text font-family="Arial" font-size="12" font-weight="bold" x="981" y="229">
Sn1
</text>
<text font-family="Arial" font-size="12" x="981" y="246">
Solution 1
</text>
</g>
</a>
<g class="mycssclass anotherclass gsn_module_examples_example_gsn_yaml gsnelem gsnasmp" id="node_A2">
<title>
A2
</title>
<path class="border" d="M20,357 a64,33,0,1,0,128,0 a64,33,0,1,0,-128,0 z" fill="none" stroke="black" stroke-width="1"/>
<text font-family="Arial" font-size="12" font-weight="bold" x="46" y="348">
A2
</text>
<text font-family="Arial" font-size="12" x="46" y="365">
Assumption 2
</text>
<text font-family="Arial" font-size="12" font-weight="bold" x="143" y="385">
A
</text>
</g>
<g class="gsn_module_examples_example_gsn_yaml gsnelem gsngoal" id="node_G5">
<title>
G5
</title>
<path class="border" d="M188,334 L292,334 L292,380 L188,380 z" fill="none" stroke="black" stroke-width="1"/>
<text font-family="Arial" font-size="12" font-weight="bold" x="195" y="353">
G5
</text>
<text font-family="Arial" font-size="12" x="195" y="370">
Goal 5
</text>
</g>
<g class="gsn_module_examples_example_gsn_yaml gsnelem gsnctxt" id="node_C2">
<title>
C2
</title>
<path class="border" d="M342,327 L446,327 C456,327,456,387,446,387 L342,387 C332,387,332,327,342,327" fill="none" stroke="black" stroke-width="1"/>
<text font-family="Arial" font-size="12" font-weight="bold" x="349" y="346">
C2
</text>
<text font-family="Arial" font-size="12" x="349" y="363">
Context 2
</text>
<text font-family="Arial" font-size="12" x="349" y="375">
Multiline
</text>
</g>
<g class="gsn_module_examples_example_gsn_yaml gsnelem gsngoal" id="node_G6">
<title>
G6
</title>
<path class="border" d="M496,334 L600,334 L600,380 L496,380 z" fill="none" stroke="black" stroke-width="1"/>
<text font-family="Arial" font-size="12" font-weight="bold" x="503" y="353">
G6
</text>
<text font-family="Arial" font-size="12" x="503" y="370">
Goal 6
</text>
</g>
<g class="gsn_module_examples_example_gsn_yaml gsnelem gsngoal" id="node_G4">
<title>
G4
</title>
<path class="border" d="M640,334 L744,334 L744,380 L640,380 z" fill="none" stroke="black" stroke-width="1"/>
<text font-family="Arial" font-size="12" font-weight="bold" x="647" y="353">
G4
</text>
<text font-family="Arial" font-size="12" x="647" y="370">
Goal 4
</text>
</g>
<g class="gsn_module_examples_example_gsn_yaml gsnelem gsnjust" id="node_J2">
<title>
J2
</title>
<path class="border" d="M784,357 a67,33,0,1,0,134,0 a67,33,0,1,0,-134,0 z" fill="none" stroke="black" stroke-width="1"/>
<text font-family="Arial" font-size="12" font-weight="bold" x="811" y="348">
J2
</text>
<text font-family="Arial" font-size="12" x="811" y="365">
Justification 2
</text>
<text font-family="Arial" font-size="12" font-weight="bold" x="913" y="385">
J
</text>
</g>
<g class="gsn_module_examples_example_gsn_yaml gsnelem gsngoal gsn_undeveloped" id="node_G7">
<title>
G7
</title>
<path class="border" d="M958,331 L1082,331 L1082,383 L958,383 z" fill="none" stroke="black" stroke-width="1"/>
<text font-family="Arial" font-size="12" font-weight="bold" x="965" y="350">
G7
</text>
<text font-family="Arial" font-size="12" x="965" y="367">
Undeveloped Goal
</text>
<path d="M1020,383 l5,5 l-5,5 l-5,-5 z" fill="none" stroke="black" stroke-width="1"/>
</g>
<g class="gsn_module_examples_example_gsn_yaml gsnelem gsnsltn" id="node_Sn4">
<title>
Sn4
</title>
<path class="border" d="M194,476 a46,46,0,1,0,92,0 a46,46,0,1,0,-92,0 z" fill="none" stroke="black" stroke-width="1"/>
<text font-family="Arial" font-size="12" font-weight="bold" x="212" y="467">
Sn4
</text>
<text font-family="Arial" font-size="12" x="212" y="484">
Solution 4
</text>
</g>
<g class="gsn_layer2 gsn_module_examples_example_gsn_yaml gsnelem gsnsltn" id="node_Sn3">
<title>
Sn3
</title>
<path class="border" d="M348,476 a46,46,0,1,0,92,0 a46,46,0,1,0,-92,0 z" fill="none" stroke="black" stroke-width="1"/>
<text font-family="Arial" font-size="12" font-weight="bold" x="366" y="467">
Sn3
</text>
<text font-family="Arial" font-size="12" x="366" y="484">
Solution 3
</text>
</g>
<g class="gsn_module_examples_example_gsn_yaml gsnelem gsnsltn" id="node_Sn5">
<title>
Sn5
</title>
<path class="border" d="M502,476 a46,46,0,1,0,92,0 a46,46,0,1,0,-92,0 z" fill="none" stroke="black" stroke-width="1"/>
<text font-family="Arial" font-size="12" font-weight="bold" x="520" y="467">
Sn5
</text>
<text font-family="Arial" font-size="12" x="520" y="484">
Solution 5
</text>
</g>
<g class="gsn_layer1 gsn_layer2 gsn_module_examples_example_gsn_yaml gsnelem gsnsltn" id="node_Sn2">
<title>
Sn2
</title>
<path class="border" d="M646,476 a46,46,0,1,0,92,0 a46,46,0,1,0,-92,0 z" fill="none" stroke="black" stroke-width="1"/>
<text font-family="Arial" font-size="12" font-weight="bold" x="664" y="467">
Sn2
</text>
<text font-family="Arial" font-size="12" x="664" y="484">
Solution 2
</text>
</g>
<path class="gsnedge gsninspby" d="M701,66 C701,96,394,76,394,96" fill="none" marker-end="url(#supportedby_arrow)" stroke="black" stroke-width="1"/>
<path class="gsnedge gsninspby" d="M701,66 C701,96,1009,76,1009,96" fill="none" marker-end="url(#supportedby_arrow)" stroke="black" stroke-width="1"/>
<path class="gsnedge gsninspby" d="M701,66 C701,96,856,185,856,205" fill="none" marker-end="url(#supportedby_arrow)" stroke="black" stroke-width="1"/>
<path class="gsnedge gsninspby" d="M394,152 C394,182,394,185,394,205" fill="none" marker-end="url(#supportedby_arrow)" stroke="black" stroke-width="1"/>
<path class="gsnedge gsninctxt" d="M1061,129 C1091,129,1071,129,1091,129" fill="none" marker-end="url(#incontextof_arrow)" stroke="black" stroke-width="1"/>
<path class="gsnedge gsninspby" d="M1009,152 C1009,182,1009,162,1009,182" fill="none" marker-end="url(#supportedby_arrow)" stroke="black" stroke-width="1"/>
<path class="gsnedge gsninctxt" d="M744,357 C774,357,754,357,774,357" fill="none" marker-end="url(#incontextof_arrow)" stroke="black" stroke-width="1"/>
<path class="gsnedge gsninspby" d="M692,380 C692,410,692,400,692,420" fill="none" marker-end="url(#supportedby_arrow)" stroke="black" stroke-width="1"/>
<path class="gsnedge gsninctxt" d="M292,357 C322,357,302,357,322,357" fill="none" marker-end="url(#incontextof_arrow)" stroke="black" stroke-width="1"/>
<path class="gsnedge gsninctxt" d="M188,357 C158,357,178,357,158,357" fill="none" marker-end="url(#incontextof_arrow)" stroke="black" stroke-width="1"/>
<path class="gsnedge gsninspby" d="M240,380 C240,410,394,400,394,420" fill="none" marker-end="url(#supportedby_arrow)" stroke="black" stroke-width="1"/>
<path class="gsnedge gsninspby" d="M240,380 C240,410,240,400,240,420" fill="none" marker-end="url(#supportedby_arrow)" stroke="black" stroke-width="1"/>
<path class="gsnedge gsninspby" d="M548,380 C548,410,394,400,394,420" fill="none" marker-end="url(#supportedby_arrow)" stroke="black" stroke-width="1"/>
<path class="gsnedge gsninspby" d="M548,380 C548,410,548,400,548,420" fill="none" marker-end="url(#supportedby_arrow)" stroke="black" stroke-width="1"/>
<path class="gsnedge gsninctxt" d="M461,238 C491,238,471,238,491,238" fill="none" marker-end="url(#incontextof_arrow)" stroke="black" stroke-width="1"/>
<path class="gsnedge gsninctxt" d="M327,238 C297,238,317,238,297,238" fill="none" marker-end="url(#incontextof_arrow)" stroke="black" stroke-width="1"/>
<path class="gsnedge gsninspby" d="M394,261 C394,291,240,304,240,324" fill="none" marker-end="url(#supportedby_arrow)" stroke="black" stroke-width="1"/>
<path class="gsnedge gsninspby" d="M394,261 C394,291,548,304,548,324" fill="none" marker-end="url(#supportedby_arrow)" stroke="black" stroke-width="1"/>
<path class="gsnedge gsninspby" d="M856,261 C856,291,692,304,692,324" fill="none" marker-end="url(#supportedby_arrow)" stroke="black" stroke-width="1"/>
<path class="gsnedge gsninspby" d="M856,261 C856,291,1020,301,1020,321" fill="none" marker-end="url(#supportedby_arrow)" stroke="black" stroke-width="1"/>
</svg>