<svg viewBox="0 0 969 538" xmlns="http://www.w3.org/2000/svg" xmlns:xlink="http://www.w3.org/1999/xlink">
<symbol id="module_icon" viewbox="0 0 20 20">
<rect fill="lightgrey" height="5" stroke="black" stroke-width="1" width="10" x="0" y="0"/>
<rect fill="lightgrey" height="10" stroke="black" stroke-width="1" width="20" x="0" y="5"/>
</symbol>
<marker id="composite_arrow" markerHeight="9" markerUnits="users_posaceOnUse" markerWidth="10" orient="auto-start-reverse" refX="0" refY="4.5">
<polyline fill="none" points="0 0, 6 4.5, 0 9" stroke="black" stroke-width="1"/>
<polyline fill="none" points="4 0, 10 4.5, 4 9" stroke="black" stroke-width="1"/>
<polyline fill="none" points="0 4.5, 10 4.5" stroke="black" stroke-width="1"/>
</marker>
<marker id="supportedby_arrow" markerHeight="9" markerUnits="users_posaceOnUse" markerWidth="10" orient="auto-start-reverse" refX="0" refY="4.5">
<polyline fill="black" points="0 0, 10 4.5, 0 9"/>
</marker>
<marker id="incontextof_arrow" markerHeight="9" markerUnits="users_posaceOnUse" markerWidth="10" orient="auto-start-reverse" refX="0" refY="4.5">
<polyline fill="none" points="0 0, 10 4.5, 0 9, 0 0" stroke="black" stroke-width="1"/>
</marker>
<g class="gsnelem gsngoal gsn_module_examples_example_gsn_yaml" id="node_G1">
<title>
G1
</title>
<path class="border" d="M486,20 L570,20 L570,70 L486,70 z" fill="none" stroke="black" stroke-width="1"/>
<text font-family="AppleSystemUIFont" font-size="12" font-weight="bold" textLength="13" x="493" y="41">
G1
</text>
<text font-family="AppleSystemUIFont" font-size="12" textLength="31" x="493" y="61">
Goal 1
</text>
</g>
<g class="gsnelem gsngoal gsn_module_examples_example_gsn_yaml" id="node_G2">
<title>
G2
</title>
<path class="border" d="M289,111 L373,111 L373,161 L289,161 z" fill="none" stroke="black" stroke-width="1"/>
<text font-family="AppleSystemUIFont" font-size="12" font-weight="bold" textLength="14" x="296" y="132">
G2
</text>
<text font-family="AppleSystemUIFont" font-size="12" textLength="33" x="296" y="152">
Goal 2
</text>
</g>
<g class="gsnelem gsngoal gsn_module_examples_example_gsn_yaml" id="node_G3">
<title>
G3
</title>
<path class="border" d="M551,111 L635,111 L635,161 L551,161 z" fill="none" stroke="black" stroke-width="1"/>
<text font-family="AppleSystemUIFont" font-size="12" font-weight="bold" textLength="15" x="558" y="132">
G3
</text>
<text font-family="AppleSystemUIFont" font-size="12" textLength="33" x="558" y="152">
Goal 3
</text>
</g>
<g class="gsnelem gsnctxt gsn_module_examples_example_gsn_yaml" id="node_C1">
<title>
C1
</title>
<path class="border" d="M685,113 L745,113 C755,113,755,159,745,159 L685,159 C675,159,675,113,685,113" fill="none" stroke="black" stroke-width="1"/>
<text font-family="AppleSystemUIFont" font-size="12" font-weight="bold" textLength="13" x="685" y="132">
C1
</text>
<text font-family="AppleSystemUIFont" font-size="12" textLength="47" x="685" y="152">
Context 1
</text>
</g>
<g class="gsnelem gsnjust gsn_module_examples_example_gsn_yaml" id="node_J1">
<title>
J1
</title>
<ellipse class="border" cx="73" cy="243" fill="none" rx="53" ry="41" stroke="black" stroke-width="1"/>
<text font-family="AppleSystemUIFont" font-size="12" font-weight="bold" textLength="11" x="39" y="232">
J1
</text>
<text font-family="AppleSystemUIFont" font-size="12" font-weight="bold" x="121" y="279">
J
</text>
<text font-family="AppleSystemUIFont" font-size="12" textLength="68" x="39" y="252">
Justification 1
</text>
</g>
<g class="gsnelem gsnstgy gsn_module_examples_example_gsn_yaml" id="node_S1">
<title>
S1
</title>
<path class="border" d="M289,218 L388,218 L373,268 L274,268 z" fill="none" stroke="black" stroke-width="1"/>
<text font-family="AppleSystemUIFont" font-size="12" font-weight="bold" textLength="12" x="296" y="239">
S1
</text>
<text font-family="AppleSystemUIFont" font-size="12" textLength="50" x="281" y="259">
Strategy 1
</text>
</g>
<g class="gsnelem gsnasmp gsn_module_examples_example_gsn_yaml" id="node_A1">
<title>
A1
</title>
<ellipse class="border" cx="473" cy="243" fill="none" rx="45" ry="41" stroke="black" stroke-width="1"/>
<text font-family="AppleSystemUIFont" font-size="12" font-weight="bold" textLength="12" x="445" y="232">
A1
</text>
<text font-family="AppleSystemUIFont" font-size="12" font-weight="bold" x="513" y="279">
A
</text>
<text font-family="AppleSystemUIFont" font-size="12" textLength="57" x="445" y="252">
Argument 1
</text>
</g>
<a xlink:href="https://github.com/jonasthewolf/gsn2x">
<g class="gsnelem gsnsltn gsn_module_examples_example_gsn_yaml" id="node_Sn1"/>
<title>
Sn1
</title>
<ellipse class="border" cx="593" cy="243" fill="none" rx="35" ry="35" stroke="black" stroke-width="1"/>
<text font-family="AppleSystemUIFont" font-size="12" font-weight="bold" textLength="18" x="569" y="232">
Sn1
</text>
<text font-family="AppleSystemUIFont" font-size="12" textLength="49" x="569" y="252">
Solution 1
</text>
</a>
<g class="gsnelem gsnstgy gsn_module_examples_example_gsn_yaml" id="node_S2">
<title>
S2
</title>
<path class="border" d="M683,218 L782,218 L767,268 L668,268 z" fill="none" stroke="black" stroke-width="1"/>
<text font-family="AppleSystemUIFont" font-size="12" font-weight="bold" textLength="13" x="690" y="239">
S2
</text>
<text font-family="AppleSystemUIFont" font-size="12" textLength="51" x="675" y="259">
Strategy 2
</text>
</g>
<g class="gsnelem gsnasmp mycssclass anotherclass gsn_module_examples_example_gsn_yaml" id="node_A2">
<title>
A2
</title>
<ellipse class="border" cx="73" cy="365" fill="none" rx="53" ry="41" stroke="black" stroke-width="1"/>
<text font-family="AppleSystemUIFont" font-size="12" font-weight="bold" textLength="13" x="39" y="354">
A2
</text>
<text font-family="AppleSystemUIFont" font-size="12" font-weight="bold" x="121" y="401">
A
</text>
<text font-family="AppleSystemUIFont" font-size="12" textLength="69" x="39" y="374">
Assumption 2
</text>
</g>
<g class="gsnelem gsngoal gsn_module_examples_example_gsn_yaml" id="node_G5">
<title>
G5
</title>
<path class="border" d="M167,340 L251,340 L251,390 L167,390 z" fill="none" stroke="black" stroke-width="1"/>
<text font-family="AppleSystemUIFont" font-size="12" font-weight="bold" textLength="15" x="174" y="361">
G5
</text>
<text font-family="AppleSystemUIFont" font-size="12" textLength="33" x="174" y="381">
Goal 5
</text>
</g>
<g class="gsnelem gsnctxt gsn_module_examples_example_gsn_yaml" id="node_C2">
<title>
C2
</title>
<path class="border" d="M301,335 L361,335 C371,335,371,395,361,395 L301,395 C291,395,291,335,301,335" fill="none" stroke="black" stroke-width="1"/>
<text font-family="AppleSystemUIFont" font-size="12" font-weight="bold" textLength="14" x="301" y="354">
C2
</text>
<text font-family="AppleSystemUIFont" font-size="12" textLength="49" x="301" y="374">
Context 2
</text>
<text font-family="AppleSystemUIFont" font-size="12" textLength="42" x="301" y="388">
Multiline
</text>
</g>
<g class="gsnelem gsngoal gsn_module_examples_example_gsn_yaml" id="node_G6">
<title>
G6
</title>
<path class="border" d="M411,340 L495,340 L495,390 L411,390 z" fill="none" stroke="black" stroke-width="1"/>
<text font-family="AppleSystemUIFont" font-size="12" font-weight="bold" textLength="15" x="418" y="361">
G6
</text>
<text font-family="AppleSystemUIFont" font-size="12" textLength="33" x="418" y="381">
Goal 6
</text>
</g>
<g class="gsnelem gsngoal gsn_module_examples_example_gsn_yaml" id="node_G4">
<title>
G4
</title>
<path class="border" d="M535,340 L619,340 L619,390 L535,390 z" fill="none" stroke="black" stroke-width="1"/>
<text font-family="AppleSystemUIFont" font-size="12" font-weight="bold" textLength="15" x="542" y="361">
G4
</text>
<text font-family="AppleSystemUIFont" font-size="12" textLength="33" x="542" y="381">
Goal 4
</text>
</g>
<g class="gsnelem gsnjust gsn_module_examples_example_gsn_yaml" id="node_J2">
<title>
J2
</title>
<ellipse class="border" cx="713" cy="365" fill="none" rx="54" ry="41" stroke="black" stroke-width="1"/>
<text font-family="AppleSystemUIFont" font-size="12" font-weight="bold" textLength="12" x="678" y="354">
J2
</text>
<text font-family="AppleSystemUIFont" font-size="12" font-weight="bold" x="762" y="401">
J
</text>
<text font-family="AppleSystemUIFont" font-size="12" textLength="70" x="678" y="374">
Justification 2
</text>
</g>
<g class="gsnelem gsngoal gsn_module_examples_example_gsn_yaml" id="node_G7">
<title>
G7
</title>
<path class="border" d="M807,337 L915,337 L915,393 L807,393 z" fill="none" stroke="black" stroke-width="1"/>
<text font-family="AppleSystemUIFont" font-size="12" font-weight="bold" textLength="15" x="814" y="358">
G7
</text>
<text font-family="AppleSystemUIFont" font-size="12" textLength="94" x="814" y="378">
Undeveloped Goal
</text>
<path d="M861,393 l5,5 l-5,5 l-5,-5 z" fill="none" stroke="black" stroke-width="1"/>
</g>
<g class="gsnelem gsnsltn gsn_module_examples_example_gsn_yaml" id="node_Sn4">
<title>
Sn4
</title>
<ellipse class="border" cx="209" cy="502" fill="none" rx="36" ry="36" stroke="black" stroke-width="1"/>
<text font-family="AppleSystemUIFont" font-size="12" font-weight="bold" textLength="19" x="184" y="491">
Sn4
</text>
<text font-family="AppleSystemUIFont" font-size="12" textLength="50" x="184" y="511">
Solution 4
</text>
</g>
<g class="gsnelem gsnsltn gsn_layer2 gsn_module_examples_example_gsn_yaml" id="node_Sn3">
<title>
Sn3
</title>
<ellipse class="border" cx="331" cy="502" fill="none" rx="36" ry="36" stroke="black" stroke-width="1"/>
<text font-family="AppleSystemUIFont" font-size="12" font-weight="bold" textLength="19" x="306" y="491">
Sn3
</text>
<text font-family="AppleSystemUIFont" font-size="12" textLength="50" x="306" y="511">
Solution 3
</text>
</g>
<g class="gsnelem gsnsltn gsn_module_examples_example_gsn_yaml" id="node_Sn5">
<title>
Sn5
</title>
<ellipse class="border" cx="453" cy="502" fill="none" rx="36" ry="36" stroke="black" stroke-width="1"/>
<text font-family="AppleSystemUIFont" font-size="12" font-weight="bold" textLength="19" x="428" y="491">
Sn5
</text>
<text font-family="AppleSystemUIFont" font-size="12" textLength="50" x="428" y="511">
Solution 5
</text>
</g>
<g class="gsnelem gsnsltn gsn_layer1 gsn_layer2 gsn_module_examples_example_gsn_yaml" id="node_Sn2">
<title>
Sn2
</title>
<ellipse class="border" cx="577" cy="502" fill="none" rx="36" ry="36" stroke="black" stroke-width="1"/>
<text font-family="AppleSystemUIFont" font-size="12" font-weight="bold" textLength="19" x="552" y="491">
Sn2
</text>
<text font-family="AppleSystemUIFont" font-size="12" textLength="50" x="552" y="511">
Solution 2
</text>
</g>
<path class="gsnedge gsninspby" d="M528,70 C528,100,331,81,331,101" fill="none" marker-end="url(#supportedby_arrow)" stroke="black" stroke-width="1"/>
<path class="gsnedge gsninspby" d="M528,70 C528,100,593,81,593,101" fill="none" marker-end="url(#supportedby_arrow)" stroke="black" stroke-width="1"/>
<path class="gsnedge gsninspby" d="M528,70 C528,100,725,188,725,208" fill="none" marker-end="url(#supportedby_arrow)" stroke="black" stroke-width="1"/>
<path class="gsnedge gsninspby" d="M331,161 C331,191,331,188,331,208" fill="none" marker-end="url(#supportedby_arrow)" stroke="black" stroke-width="1"/>
<path class="gsnedge gsninctxt" d="M635,136 C635,136,645,136,665,136" fill="none" marker-end="url(#incontextof_arrow)" stroke="black" stroke-width="1"/>
<path class="gsnedge gsninspby" d="M593,161 C593,191,593,178,593,198" fill="none" marker-end="url(#supportedby_arrow)" stroke="black" stroke-width="1"/>
<path class="gsnedge gsninctxt" d="M619,365 C619,365,629,365,649,365" fill="none" marker-end="url(#incontextof_arrow)" stroke="black" stroke-width="1"/>
<path class="gsnedge gsninspby" d="M577,390 C577,420,577,436,577,456" fill="none" marker-end="url(#supportedby_arrow)" stroke="black" stroke-width="1"/>
<path class="gsnedge gsninctxt" d="M251,365 C251,365,261,365,281,365" fill="none" marker-end="url(#incontextof_arrow)" stroke="black" stroke-width="1"/>
<path class="gsnedge gsninctxt" d="M167,365 C167,365,156,365,136,365" fill="none" marker-end="url(#incontextof_arrow)" stroke="black" stroke-width="1"/>
<path class="gsnedge gsninspby" d="M209,390 C209,420,331,436,331,456" fill="none" marker-end="url(#supportedby_arrow)" stroke="black" stroke-width="1"/>
<path class="gsnedge gsninspby" d="M209,390 C209,420,209,436,209,456" fill="none" marker-end="url(#supportedby_arrow)" stroke="black" stroke-width="1"/>
<path class="gsnedge gsninspby" d="M453,390 C453,420,331,436,331,456" fill="none" marker-end="url(#supportedby_arrow)" stroke="black" stroke-width="1"/>
<path class="gsnedge gsninspby" d="M453,390 C453,420,453,436,453,456" fill="none" marker-end="url(#supportedby_arrow)" stroke="black" stroke-width="1"/>
<path class="gsnedge gsninctxt" d="M381,243 C381,243,398,243,418,243" fill="none" marker-end="url(#incontextof_arrow)" stroke="black" stroke-width="1"/>
<path class="gsnedge gsninctxt" d="M281,243 C281,243,156,243,136,243" fill="none" marker-end="url(#incontextof_arrow)" stroke="black" stroke-width="1"/>
<path class="gsnedge gsninspby" d="M331,268 C331,298,209,310,209,330" fill="none" marker-end="url(#supportedby_arrow)" stroke="black" stroke-width="1"/>
<path class="gsnedge gsninspby" d="M331,268 C331,298,453,310,453,330" fill="none" marker-end="url(#supportedby_arrow)" stroke="black" stroke-width="1"/>
<path class="gsnedge gsninspby" d="M725,268 C725,298,577,310,577,330" fill="none" marker-end="url(#supportedby_arrow)" stroke="black" stroke-width="1"/>
<path class="gsnedge gsninspby" d="M725,268 C725,298,861,307,861,327" fill="none" marker-end="url(#supportedby_arrow)" stroke="black" stroke-width="1"/>
</svg>