<?xml version="1.0" encoding="UTF-8"?>
<svg classes="gsndiagram" viewBox="0 0 1427 537" xmlns="http://www.w3.org/2000/svg">
<symbol id="module_icon">
<rect fill="lightgrey" height="5" stroke="black" stroke-width="1" width="10" x="0" y="0"/>
<rect fill="lightgrey" height="10" stroke="black" stroke-width="1" width="20" x="0" y="5"/>
</symbol>
<marker id="composite_arrow" markerHeight="9" markerUnits="userSpaceOnUse" markerWidth="10" orient="auto-start-reverse" refX="0" refY="4.5">
<polyline fill="none" points="0 0, 6 4.5, 0 9" stroke="black" stroke-width="1"/>
<polyline fill="none" points="4 0, 10 4.5, 4 9" stroke="black" stroke-width="1"/>
<polyline fill="none" points="0 4.5, 10 4.5" stroke="black" stroke-width="1"/>
</marker>
<marker id="supportedby_arrow" markerHeight="9" markerUnits="userSpaceOnUse" markerWidth="10" orient="auto-start-reverse" refX="0" refY="4.5">
<polyline fill="black" points="0 0, 10 4.5, 0 9"/>
</marker>
<marker id="incontextof_arrow" markerHeight="9" markerUnits="userSpaceOnUse" markerWidth="10" orient="auto-start-reverse" refX="0" refY="4.5">
<polyline fill="none" points="0 0, 10 4.5, 0 9, 0 0" stroke="black" stroke-width="1"/>
</marker>
<style type="text/css">
/* CSS to invert SVG for dark mode */ 
svg { filter: invert(100%); }
</style>
<g class="gsn_module_examples_example_gsn_yaml gsnelem gsngoal" id="node_G1">
<title>
G1
</title>
<path class="border" d="M792,20 L896,20 L896,66 L792,66 z" fill="none" stroke="black" stroke-width="1"/>
<text font-family="Arial" font-size="12" font-weight="bold" x="799" y="39">
G1
</text>
<text font-family="Arial" font-size="12" x="799" y="58">
Goal 1
</text>
</g>
<g class="gsn_module_examples_example_gsn_yaml gsnelem gsngoal" id="node_G2">
<title>
G2
</title>
<path class="border" d="M488,106 L592,106 L592,152 L488,152 z" fill="none" stroke="black" stroke-width="1"/>
<text font-family="Arial" font-size="12" font-weight="bold" x="495" y="125">
G2
</text>
<text font-family="Arial" font-size="12" x="495" y="144">
Goal 2
</text>
</g>
<g class="gsn_module_examples_example_gsn_yaml gsnelem gsngoal" id="node_G3">
<title>
G3
</title>
<path class="border" d="M1097,106 L1201,106 L1201,152 L1097,152 z" fill="none" stroke="black" stroke-width="1"/>
<text font-family="Arial" font-size="12" font-weight="bold" x="1104" y="125">
G3
</text>
<text font-family="Arial" font-size="12" x="1104" y="144">
Goal 3
</text>
</g>
<g class="gsn_module_examples_example_gsn_yaml gsnelem gsnctxt" id="node_C1">
<title>
C1
</title>
<path class="border" d="M1251,106 L1355,106 C1365,106,1365,152,1355,152 L1251,152 C1241,152,1241,106,1251,106" fill="none" stroke="black" stroke-width="1"/>
<text font-family="Arial" font-size="12" font-weight="bold" x="1258" y="125">
C1
</text>
<text font-family="Arial" font-size="12" x="1258" y="144">
Context 1
</text>
</g>
<g class="gsn_module_examples_example_gsn_yaml gsnelem gsnjust" id="node_J1">
<title>
J1
</title>
<path class="border" d="M309,236 a62,33,0,1,0,124,0 a62,33,0,1,0,-124,0 z" fill="none" stroke="black" stroke-width="1"/>
<text font-family="Arial" font-size="12" font-weight="bold" x="334" y="227">
J1
</text>
<text font-family="Arial" font-size="12" x="334" y="246">
Justification 1
</text>
<text font-family="Arial" font-size="12" font-weight="bold" x="428" y="264">
J
</text>
</g>
<g class="gsn_module_examples_example_gsn_yaml gsnelem gsnstgy" id="node_S1">
<title>
S1
</title>
<path class="border" d="M480,213 L614,213 L600,259 L466,259 z" fill="none" stroke="black" stroke-width="1"/>
<text font-family="Arial" font-size="12" font-weight="bold" x="488" y="232">
S1
</text>
<text font-family="Arial" font-size="12" x="488" y="251">
Strategy 1
</text>
</g>
<g class="gsn_module_examples_example_gsn_yaml gsnelem gsnasmp" id="node_A1">
<title>
A1
</title>
<path class="border" d="M647,236 a51,33,0,1,0,103,0 a51,33,0,1,0,-103,0 z" fill="none" stroke="black" stroke-width="1"/>
<text font-family="Arial" font-size="12" font-weight="bold" x="669" y="227">
A1
</text>
<text font-family="Arial" font-size="12" x="669" y="246">
Argument 1
</text>
<text font-family="Arial" font-size="12" font-weight="bold" x="744" y="264">
A
</text>
</g>
<g class="gsn_module_examples_example_gsn_yaml gsnelem gsnstgy" id="node_S2">
<title>
S2
</title>
<path class="border" d="M938,213 L1072,213 L1058,259 L924,259 z" fill="none" stroke="black" stroke-width="1"/>
<text font-family="Arial" font-size="12" font-weight="bold" x="946" y="232">
S2
</text>
<text font-family="Arial" font-size="12" x="946" y="251">
Strategy 2
</text>
</g>
<a href="https://github.com/jonasthewolf/gsn2x">
<g class="gsn_module_examples_example_gsn_yaml gsnelem gsnsltn" id="node_Sn1">
<title>
Sn1
</title>
<path class="border" d="M1105,236 a44,44,0,1,0,88,0 a44,44,0,1,0,-88,0 z" fill="none" stroke="black" stroke-width="1"/>
<text font-family="Arial" font-size="12" font-weight="bold" x="1124" y="227">
Sn1
</text>
<text font-family="Arial" font-size="12" x="1124" y="246">
Solution 1
</text>
</g>
</a>
<g class="mycssclass anotherclass gsn_module_examples_example_gsn_yaml gsnelem gsnasmp" id="node_A2">
<title>
A2
</title>
<path class="border" d="M174,353 a60,33,0,1,0,120,0 a60,33,0,1,0,-120,0 z" fill="none" stroke="black" stroke-width="1"/>
<text font-family="Arial" font-size="12" font-weight="bold" x="199" y="344">
A2
</text>
<text font-family="Arial" font-size="12" x="199" y="363">
Assumption 2
</text>
<text font-family="Arial" font-size="12" font-weight="bold" x="289" y="381">
A
</text>
</g>
<g class="gsn_module_examples_example_gsn_yaml gsnelem gsngoal" id="node_G5">
<title>
G5
</title>
<path class="border" d="M334,330 L438,330 L438,376 L334,376 z" fill="none" stroke="black" stroke-width="1"/>
<text font-family="Arial" font-size="12" font-weight="bold" x="341" y="349">
G5
</text>
<text font-family="Arial" font-size="12" x="341" y="368">
Goal 5
</text>
</g>
<g class="gsn_module_examples_example_gsn_yaml gsnelem gsnctxt" id="node_C2">
<title>
C2
</title>
<path class="border" d="M488,323 L592,323 C602,323,602,383,592,383 L488,383 C478,383,478,323,488,323" fill="none" stroke="black" stroke-width="1"/>
<text font-family="Arial" font-size="12" font-weight="bold" x="495" y="342">
C2
</text>
<text font-family="Arial" font-size="12" x="495" y="361">
Context 2
</text>
<text font-family="Arial" font-size="12" x="495" y="375">
Multiline
</text>
</g>
<g class="gsn_module_examples_example_gsn_yaml gsnelem gsngoal" id="node_G6">
<title>
G6
</title>
<path class="border" d="M642,330 L746,330 L746,376 L642,376 z" fill="none" stroke="black" stroke-width="1"/>
<text font-family="Arial" font-size="12" font-weight="bold" x="649" y="349">
G6
</text>
<text font-family="Arial" font-size="12" x="649" y="368">
Goal 6
</text>
</g>
<g class="gsn_module_examples_example_gsn_yaml gsnelem gsngoal" id="node_G4">
<title>
G4
</title>
<path class="border" d="M789,330 L893,330 L893,376 L789,376 z" fill="none" stroke="black" stroke-width="1"/>
<text font-family="Arial" font-size="12" font-weight="bold" x="796" y="349">
G4
</text>
<text font-family="Arial" font-size="12" x="796" y="368">
Goal 4
</text>
</g>
<g class="gsn_module_examples_example_gsn_yaml gsnelem gsnjust" id="node_J2">
<title>
J2
</title>
<path class="border" d="M933,353 a62,33,0,1,0,124,0 a62,33,0,1,0,-124,0 z" fill="none" stroke="black" stroke-width="1"/>
<text font-family="Arial" font-size="12" font-weight="bold" x="958" y="344">
J2
</text>
<text font-family="Arial" font-size="12" x="958" y="363">
Justification 2
</text>
<text font-family="Arial" font-size="12" font-weight="bold" x="1052" y="381">
J
</text>
</g>
<g class="gsn_module_examples_example_gsn_yaml gsnelem gsngoal gsn_undeveloped" id="node_G7">
<title>
G7
</title>
<path class="border" d="M1097,327 L1213,327 L1213,379 L1097,379 z" fill="none" stroke="black" stroke-width="1"/>
<text font-family="Arial" font-size="12" font-weight="bold" x="1104" y="346">
G7
</text>
<text font-family="Arial" font-size="12" x="1104" y="365">
Undeveloped Goal
</text>
<path d="M1155,379 l5,5 l-5,5 l-5,-5 z" fill="none" stroke="black" stroke-width="1"/>
</g>
<g class="gsn_module_examples_example_gsn_yaml gsnelem gsnsltn" id="node_Sn4">
<title>
Sn4
</title>
<path class="border" d="M342,470 a44,44,0,1,0,88,0 a44,44,0,1,0,-88,0 z" fill="none" stroke="black" stroke-width="1"/>
<text font-family="Arial" font-size="12" font-weight="bold" x="361" y="461">
Sn4
</text>
<text font-family="Arial" font-size="12" x="361" y="480">
Solution 4
</text>
</g>
<g class="gsn_layer2 gsn_module_examples_example_gsn_yaml gsnelem gsnsltn" id="node_Sn3">
<title>
Sn3
</title>
<path class="border" d="M496,470 a44,44,0,1,0,88,0 a44,44,0,1,0,-88,0 z" fill="none" stroke="black" stroke-width="1"/>
<text font-family="Arial" font-size="12" font-weight="bold" x="515" y="461">
Sn3
</text>
<text font-family="Arial" font-size="12" x="515" y="480">
Solution 3
</text>
</g>
<g class="gsn_module_examples_example_gsn_yaml gsnelem gsnsltn" id="node_Sn5">
<title>
Sn5
</title>
<path class="border" d="M650,470 a44,44,0,1,0,88,0 a44,44,0,1,0,-88,0 z" fill="none" stroke="black" stroke-width="1"/>
<text font-family="Arial" font-size="12" font-weight="bold" x="669" y="461">
Sn5
</text>
<text font-family="Arial" font-size="12" x="669" y="480">
Solution 5
</text>
</g>
<g class="gsn_layer1 gsn_layer2 gsn_module_examples_example_gsn_yaml gsnelem gsnsltn" id="node_Sn2">
<title>
Sn2
</title>
<path class="border" d="M797,470 a44,44,0,1,0,88,0 a44,44,0,1,0,-88,0 z" fill="none" stroke="black" stroke-width="1"/>
<text font-family="Arial" font-size="12" font-weight="bold" x="816" y="461">
Sn2
</text>
<text font-family="Arial" font-size="12" x="816" y="480">
Solution 2
</text>
</g>
<path class="gsnedge gsninspby" d="M844,66 C844,96,540,76,540,96" fill="none" marker-end="url(#supportedby_arrow)" stroke="black" stroke-width="1"/>
<path class="gsnedge gsninspby" d="M844,66 C844,96,1149,76,1149,96" fill="none" marker-end="url(#supportedby_arrow)" stroke="black" stroke-width="1"/>
<path class="gsnedge gsninspby" d="M844,66 C844,96,998,183,998,203" fill="none" marker-end="url(#supportedby_arrow)" stroke="black" stroke-width="1"/>
<path class="gsnedge gsninspby" d="M540,152 C540,182,540,183,540,203" fill="none" marker-end="url(#supportedby_arrow)" stroke="black" stroke-width="1"/>
<path class="gsnedge gsninctxt" d="M1201,129 C1231,129,1211,129,1231,129" fill="none" marker-end="url(#incontextof_arrow)" stroke="black" stroke-width="1"/>
<path class="gsnedge gsninspby" d="M1149,152 C1149,182,1149,162,1149,182" fill="none" marker-end="url(#supportedby_arrow)" stroke="black" stroke-width="1"/>
<path class="gsnedge gsninctxt" d="M893,353 C923,353,903,353,923,353" fill="none" marker-end="url(#incontextof_arrow)" stroke="black" stroke-width="1"/>
<path class="gsnedge gsninspby" d="M841,376 C841,406,841,396,841,416" fill="none" marker-end="url(#supportedby_arrow)" stroke="black" stroke-width="1"/>
<path class="gsnedge gsninctxt" d="M438,353 C468,353,448,353,468,353" fill="none" marker-end="url(#incontextof_arrow)" stroke="black" stroke-width="1"/>
<path class="gsnedge gsninctxt" d="M334,353 C304,353,324,353,304,353" fill="none" marker-end="url(#incontextof_arrow)" stroke="black" stroke-width="1"/>
<path class="gsnedge gsninspby" d="M386,376 C386,406,540,396,540,416" fill="none" marker-end="url(#supportedby_arrow)" stroke="black" stroke-width="1"/>
<path class="gsnedge gsninspby" d="M386,376 C386,406,386,396,386,416" fill="none" marker-end="url(#supportedby_arrow)" stroke="black" stroke-width="1"/>
<path class="gsnedge gsninspby" d="M694,376 C694,406,540,396,540,416" fill="none" marker-end="url(#supportedby_arrow)" stroke="black" stroke-width="1"/>
<path class="gsnedge gsninspby" d="M694,376 C694,406,694,396,694,416" fill="none" marker-end="url(#supportedby_arrow)" stroke="black" stroke-width="1"/>
<path class="gsnedge gsninctxt" d="M607,236 C637,236,617,236,637,236" fill="none" marker-end="url(#incontextof_arrow)" stroke="black" stroke-width="1"/>
<path class="gsnedge gsninctxt" d="M473,236 C443,236,463,236,443,236" fill="none" marker-end="url(#incontextof_arrow)" stroke="black" stroke-width="1"/>
<path class="gsnedge gsninspby" d="M540,259 C540,289,386,300,386,320" fill="none" marker-end="url(#supportedby_arrow)" stroke="black" stroke-width="1"/>
<path class="gsnedge gsninspby" d="M540,259 C540,289,694,300,694,320" fill="none" marker-end="url(#supportedby_arrow)" stroke="black" stroke-width="1"/>
<path class="gsnedge gsninspby" d="M998,259 C998,289,841,300,841,320" fill="none" marker-end="url(#supportedby_arrow)" stroke="black" stroke-width="1"/>
<path class="gsnedge gsninspby" d="M998,259 C998,289,1155,297,1155,317" fill="none" marker-end="url(#supportedby_arrow)" stroke="black" stroke-width="1"/>
</svg>