<svg viewBox="0 0 954 578" xmlns="http://www.w3.org/2000/svg" xmlns:xlink="http://www.w3.org/1999/xlink">
<symbol id="module_icon" viewbox="0 0 20 20">
<rect fill="lightgrey" height="5" stroke="black" stroke-width="1" width="10" x="0" y="0"/>
<rect fill="lightgrey" height="10" stroke="black" stroke-width="1" width="20" x="0" y="5"/>
</symbol>
<marker id="composite_arrow" markerHeight="9" markerUnits="users_posaceOnUse" markerWidth="10" orient="auto-start-reverse" refX="0" refY="4.5">
<polyline fill="none" points="0 0, 6 4.5, 0 9" stroke="black" stroke-width="1"/>
<polyline fill="none" points="4 0, 10 4.5, 4 9" stroke="black" stroke-width="1"/>
<polyline fill="none" points="0 4.5, 10 4.5" stroke="black" stroke-width="1"/>
</marker>
<marker id="supportedby_arrow" markerHeight="9" markerUnits="users_posaceOnUse" markerWidth="10" orient="auto-start-reverse" refX="0" refY="4.5">
<polyline fill="black" points="0 0, 10 4.5, 0 9"/>
</marker>
<marker id="incontextof_arrow" markerHeight="9" markerUnits="users_posaceOnUse" markerWidth="10" orient="auto-start-reverse" refX="0" refY="4.5">
<polyline fill="none" points="0 0, 10 4.5, 0 9, 0 0" stroke="black" stroke-width="1"/>
</marker>
<g class="gsnelem gsngoal gsn_module_examples_example_gsn_yaml" id="node_G1">
<title>
G1
</title>
<path class="border" d="M425,20 L509,20 L509,70 L425,70 z" fill="none" stroke="black" stroke-width="1"/>
<text font-family="AppleSystemUIFont" font-size="12" font-weight="bold" textLength="13" x="432" y="41">
G1
</text>
<text font-family="AppleSystemUIFont" font-size="12" textLength="31" x="432" y="61">
Goal 1
</text>
</g>
<g class="gsnelem gsngoal gsn_module_examples_example_gsn_yaml" id="node_G2">
<title>
G2
</title>
<path class="border" d="M226,111 L310,111 L310,161 L226,161 z" fill="none" stroke="black" stroke-width="1"/>
<text font-family="AppleSystemUIFont" font-size="12" font-weight="bold" textLength="14" x="233" y="132">
G2
</text>
<text font-family="AppleSystemUIFont" font-size="12" textLength="33" x="233" y="152">
Goal 2
</text>
</g>
<g class="gsnelem gsngoal gsn_module_examples_example_gsn_yaml" id="node_G3">
<title>
G3
</title>
<path class="border" d="M350,111 L434,111 L434,161 L350,161 z" fill="none" stroke="black" stroke-width="1"/>
<text font-family="AppleSystemUIFont" font-size="12" font-weight="bold" textLength="15" x="357" y="132">
G3
</text>
<text font-family="AppleSystemUIFont" font-size="12" textLength="33" x="357" y="152">
Goal 3
</text>
</g>
<g class="gsnelem gsnctxt gsn_module_examples_example_gsn_yaml" id="node_C1">
<title>
C1
</title>
<path class="border" d="M484,113 L544,113 C554,113,554,159,544,159 L484,159 C474,159,474,113,484,113" fill="none" stroke="black" stroke-width="1"/>
<text font-family="AppleSystemUIFont" font-size="12" font-weight="bold" textLength="13" x="484" y="132">
C1
</text>
<text font-family="AppleSystemUIFont" font-size="12" textLength="47" x="484" y="152">
Context 1
</text>
</g>
<g/>
<g class="gsnelem gsnjust gsn_module_examples_example_gsn_yaml" id="node_J1">
<title>
J1
</title>
<ellipse class="border" cx="193" cy="243" fill="none" rx="53" ry="41" stroke="black" stroke-width="1"/>
<text font-family="AppleSystemUIFont" font-size="12" font-weight="bold" textLength="11" x="159" y="232">
J1
</text>
<text font-family="AppleSystemUIFont" font-size="12" font-weight="bold" x="241" y="279">
J
</text>
<text font-family="AppleSystemUIFont" font-size="12" textLength="68" x="159" y="252">
Justification 1
</text>
</g>
<g class="gsnelem gsnstgy gsn_module_examples_example_gsn_yaml" id="node_S1">
<title>
S1
</title>
<path class="border" d="M301,218 L400,218 L385,268 L286,268 z" fill="none" stroke="black" stroke-width="1"/>
<text font-family="AppleSystemUIFont" font-size="12" font-weight="bold" textLength="12" x="308" y="239">
S1
</text>
<text font-family="AppleSystemUIFont" font-size="12" textLength="50" x="293" y="259">
Strategy 1
</text>
</g>
<g class="gsnelem gsnasmp gsn_module_examples_example_gsn_yaml" id="node_A1">
<title>
A1
</title>
<ellipse class="border" cx="485" cy="243" fill="none" rx="45" ry="41" stroke="black" stroke-width="1"/>
<text font-family="AppleSystemUIFont" font-size="12" font-weight="bold" textLength="12" x="457" y="232">
A1
</text>
<text font-family="AppleSystemUIFont" font-size="12" font-weight="bold" x="525" y="279">
A
</text>
<text font-family="AppleSystemUIFont" font-size="12" textLength="57" x="457" y="252">
Argument 1
</text>
</g>
<g class="gsnelem gsnsltn gsn_module_examples_example_gsn_yaml" id="node_Sn1">
<a xlink:href="https://github.com/jonasthewolf/gsn2x"/>
<title>
Sn1
</title>
<ellipse class="border" cx="605" cy="243" fill="none" rx="35" ry="35" stroke="black" stroke-width="1"/>
<text font-family="AppleSystemUIFont" font-size="12" font-weight="bold" textLength="18" x="581" y="232">
Sn1
</text>
<text font-family="AppleSystemUIFont" font-size="12" textLength="49" x="581" y="252">
Solution 1
</text>
</g>
<g class="gsnelem gsnstgy gsn_module_examples_example_gsn_yaml" id="node_S2">
<title>
S2
</title>
<path class="border" d="M695,218 L794,218 L779,268 L680,268 z" fill="none" stroke="black" stroke-width="1"/>
<text font-family="AppleSystemUIFont" font-size="12" font-weight="bold" textLength="13" x="702" y="239">
S2
</text>
<text font-family="AppleSystemUIFont" font-size="12" textLength="51" x="687" y="259">
Strategy 2
</text>
</g>
<g class="gsnelem gsnasmp mycssclass anotherclass gsn_module_examples_example_gsn_yaml" id="node_A2">
<title>
A2
</title>
<ellipse class="border" cx="73" cy="365" fill="none" rx="53" ry="41" stroke="black" stroke-width="1"/>
<text font-family="AppleSystemUIFont" font-size="12" font-weight="bold" textLength="13" x="39" y="354">
A2
</text>
<text font-family="AppleSystemUIFont" font-size="12" font-weight="bold" x="121" y="401">
A
</text>
<text font-family="AppleSystemUIFont" font-size="12" textLength="69" x="39" y="374">
Assumption 2
</text>
</g>
<g class="gsnelem gsngoal gsn_module_examples_example_gsn_yaml" id="node_G5">
<title>
G5
</title>
<path class="border" d="M166,340 L250,340 L250,390 L166,390 z" fill="none" stroke="black" stroke-width="1"/>
<text font-family="AppleSystemUIFont" font-size="12" font-weight="bold" textLength="15" x="173" y="361">
G5
</text>
<text font-family="AppleSystemUIFont" font-size="12" textLength="33" x="173" y="381">
Goal 5
</text>
</g>
<g class="gsnelem gsnctxt gsn_module_examples_example_gsn_yaml" id="node_C2">
<title>
C2
</title>
<path class="border" d="M300,335 L360,335 C370,335,370,395,360,395 L300,395 C290,395,290,335,300,335" fill="none" stroke="black" stroke-width="1"/>
<text font-family="AppleSystemUIFont" font-size="12" font-weight="bold" textLength="14" x="300" y="354">
C2
</text>
<text font-family="AppleSystemUIFont" font-size="12" textLength="49" x="300" y="374">
Context 2
</text>
<text font-family="AppleSystemUIFont" font-size="12" textLength="42" x="300" y="388">
Multiline
</text>
</g>
<g class="gsnelem gsngoal gsn_module_examples_example_gsn_yaml" id="node_G6">
<title>
G6
</title>
<path class="border" d="M410,340 L494,340 L494,390 L410,390 z" fill="none" stroke="black" stroke-width="1"/>
<text font-family="AppleSystemUIFont" font-size="12" font-weight="bold" textLength="15" x="417" y="361">
G6
</text>
<text font-family="AppleSystemUIFont" font-size="12" textLength="33" x="417" y="381">
Goal 6
</text>
</g>
<g class="gsnelem gsngoal gsn_module_examples_example_gsn_yaml" id="node_G4">
<title>
G4
</title>
<path class="border" d="M534,340 L618,340 L618,390 L534,390 z" fill="none" stroke="black" stroke-width="1"/>
<text font-family="AppleSystemUIFont" font-size="12" font-weight="bold" textLength="15" x="541" y="361">
G4
</text>
<text font-family="AppleSystemUIFont" font-size="12" textLength="33" x="541" y="381">
Goal 4
</text>
</g>
<g class="gsnelem gsnjust gsn_module_examples_example_gsn_yaml" id="node_J2">
<title>
J2
</title>
<ellipse class="border" cx="712" cy="365" fill="none" rx="54" ry="41" stroke="black" stroke-width="1"/>
<text font-family="AppleSystemUIFont" font-size="12" font-weight="bold" textLength="12" x="677" y="354">
J2
</text>
<text font-family="AppleSystemUIFont" font-size="12" font-weight="bold" x="761" y="401">
J
</text>
<text font-family="AppleSystemUIFont" font-size="12" textLength="70" x="677" y="374">
Justification 2
</text>
</g>
<g class="gsnelem gsngoal gsn_module_examples_example_gsn_yaml" id="node_G7">
<title>
G7
</title>
<path class="border" d="M806,337 L914,337 L914,393 L806,393 z" fill="none" stroke="black" stroke-width="1"/>
<text font-family="AppleSystemUIFont" font-size="12" font-weight="bold" textLength="15" x="813" y="358">
G7
</text>
<text font-family="AppleSystemUIFont" font-size="12" textLength="94" x="813" y="378">
Undeveloped Goal
</text>
<path d="M860,393 l5,5 l-5,5 l-5,-5 z" fill="none" stroke="black" stroke-width="1"/>
</g>
<g class="gsnelem gsnsltn gsn_module_examples_example_gsn_yaml" id="node_Sn4">
<title>
Sn4
</title>
<ellipse class="border" cx="299" cy="482" fill="none" rx="36" ry="36" stroke="black" stroke-width="1"/>
<text font-family="AppleSystemUIFont" font-size="12" font-weight="bold" textLength="19" x="274" y="471">
Sn4
</text>
<text font-family="AppleSystemUIFont" font-size="12" textLength="50" x="274" y="491">
Solution 4
</text>
</g>
<g class="gsnelem gsnsltn gsn_layer2 gsn_module_examples_example_gsn_yaml" id="node_Sn3">
<title>
Sn3
</title>
<ellipse class="border" cx="411" cy="482" fill="none" rx="36" ry="36" stroke="black" stroke-width="1"/>
<text font-family="AppleSystemUIFont" font-size="12" font-weight="bold" textLength="19" x="386" y="471">
Sn3
</text>
<text font-family="AppleSystemUIFont" font-size="12" textLength="50" x="386" y="491">
Solution 3
</text>
</g>
<g class="gsnelem gsnsltn gsn_module_examples_example_gsn_yaml" id="node_Sn5">
<title>
Sn5
</title>
<ellipse class="border" cx="523" cy="482" fill="none" rx="36" ry="36" stroke="black" stroke-width="1"/>
<text font-family="AppleSystemUIFont" font-size="12" font-weight="bold" textLength="19" x="498" y="471">
Sn5
</text>
<text font-family="AppleSystemUIFont" font-size="12" textLength="50" x="498" y="491">
Solution 5
</text>
</g>
<g class="gsnelem gsnsltn gsn_layer1 gsn_layer2 gsn_module_examples_example_gsn_yaml" id="node_Sn2">
<title>
Sn2
</title>
<ellipse class="border" cx="635" cy="482" fill="none" rx="36" ry="36" stroke="black" stroke-width="1"/>
<text font-family="AppleSystemUIFont" font-size="12" font-weight="bold" textLength="19" x="610" y="471">
Sn2
</text>
<text font-family="AppleSystemUIFont" font-size="12" textLength="50" x="610" y="491">
Solution 2
</text>
</g>
<path class="gsnedge gsninspby" d="M467,70 C467,100,268,81,268,101" fill="none" marker-end="url(#supportedby_arrow)" stroke="black" stroke-width="1"/>
<path class="gsnedge gsninspby" d="M467,70 C467,100,392,81,392,101" fill="none" marker-end="url(#supportedby_arrow)" stroke="black" stroke-width="1"/>
<path class="gsnedge gsninvis" d="M467,70 C467,100,651,106,651,136" fill="none" stroke="black" stroke-width="1"/>
<path class="gsnedge gsninspby" d="M268,161 C268,191,343,188,343,208" fill="none" marker-end="url(#supportedby_arrow)" stroke="black" stroke-width="1"/>
<path class="gsnedge gsninctxt" d="M434,136 C434,136,444,136,464,136" fill="none" marker-end="url(#incontextof_arrow)" stroke="black" stroke-width="1"/>
<path class="gsnedge gsninspby" d="M392,161 C392,191,605,178,605,198" fill="none" marker-end="url(#supportedby_arrow)" stroke="black" stroke-width="1"/>
<path class="gsnedge gsninctxt" d="M618,365 C618,365,628,365,648,365" fill="none" marker-end="url(#incontextof_arrow)" stroke="black" stroke-width="1"/>
<path class="gsnedge gsninspby" d="M576,390 C576,420,635,416,635,436" fill="none" marker-end="url(#supportedby_arrow)" stroke="black" stroke-width="1"/>
<path class="gsnedge gsninctxt" d="M250,365 C250,365,260,365,280,365" fill="none" marker-end="url(#incontextof_arrow)" stroke="black" stroke-width="1"/>
<path class="gsnedge gsninctxt" d="M166,365 C166,365,156,365,136,365" fill="none" marker-end="url(#incontextof_arrow)" stroke="black" stroke-width="1"/>
<path class="gsnedge gsninspby" d="M208,390 C208,420,411,416,411,436" fill="none" marker-end="url(#supportedby_arrow)" stroke="black" stroke-width="1"/>
<path class="gsnedge gsninspby" d="M208,390 C208,420,299,416,299,436" fill="none" marker-end="url(#supportedby_arrow)" stroke="black" stroke-width="1"/>
<path class="gsnedge gsninspby" d="M452,390 C452,420,411,416,411,436" fill="none" marker-end="url(#supportedby_arrow)" stroke="black" stroke-width="1"/>
<path class="gsnedge gsninspby" d="M452,390 C452,420,523,416,523,436" fill="none" marker-end="url(#supportedby_arrow)" stroke="black" stroke-width="1"/>
<path class="gsnedge gsninctxt" d="M393,243 C393,243,410,243,430,243" fill="none" marker-end="url(#incontextof_arrow)" stroke="black" stroke-width="1"/>
<path class="gsnedge gsninctxt" d="M293,243 C293,243,276,243,256,243" fill="none" marker-end="url(#incontextof_arrow)" stroke="black" stroke-width="1"/>
<path class="gsnedge gsninspby" d="M343,268 C343,298,208,310,208,330" fill="none" marker-end="url(#supportedby_arrow)" stroke="black" stroke-width="1"/>
<path class="gsnedge gsninspby" d="M343,268 C343,298,452,310,452,330" fill="none" marker-end="url(#supportedby_arrow)" stroke="black" stroke-width="1"/>
<path class="gsnedge gsninspby" d="M737,268 C737,298,576,310,576,330" fill="none" marker-end="url(#supportedby_arrow)" stroke="black" stroke-width="1"/>
<path class="gsnedge gsninspby" d="M737,268 C737,298,860,307,860,327" fill="none" marker-end="url(#supportedby_arrow)" stroke="black" stroke-width="1"/>
<path class="gsnedge gsninspby" d="M651,136 C651,166,737,188,737,208" fill="none" marker-end="url(#supportedby_arrow)" stroke="black" stroke-width="1"/>
</svg>