<?xml version="1.0" encoding="UTF-8"?>
<svg viewBox="0 0 1086 544" xmlns="http://www.w3.org/2000/svg">
<symbol id="module_icon">
<rect fill="lightgrey" height="5" stroke="black" stroke-width="1" width="10" x="0" y="0"/>
<rect fill="lightgrey" height="10" stroke="black" stroke-width="1" width="20" x="0" y="5"/>
</symbol>
<marker id="composite_arrow" markerHeight="9" markerUnits="userSpaceOnUse" markerWidth="10" orient="auto-start-reverse" refX="0" refY="4.5">
<polyline fill="none" points="0 0, 6 4.5, 0 9" stroke="black" stroke-width="1"/>
<polyline fill="none" points="4 0, 10 4.5, 4 9" stroke="black" stroke-width="1"/>
<polyline fill="none" points="0 4.5, 10 4.5" stroke="black" stroke-width="1"/>
</marker>
<marker id="supportedby_arrow" markerHeight="9" markerUnits="userSpaceOnUse" markerWidth="10" orient="auto-start-reverse" refX="0" refY="4.5">
<polyline fill="black" points="0 0, 10 4.5, 0 9"/>
</marker>
<marker id="incontextof_arrow" markerHeight="9" markerUnits="userSpaceOnUse" markerWidth="10" orient="auto-start-reverse" refX="0" refY="4.5">
<polyline fill="none" points="0 0, 10 4.5, 0 9, 0 0" stroke="black" stroke-width="1"/>
</marker>
<style type="text/css">
<![CDATA[/* CSS to invert SVG for dark mode */ 
svg { filter: invert(100%); }]]>
</style>
<g class="gsnelem gsngoal gsn_module_examples_example_gsn_yaml" id="node_G1">
<title>
G1
</title>
<path class="border" d="M569,20 L653,20 L653,70 L569,70 z" fill="none" stroke="black" stroke-width="1"/>
<text font-family="Arial" font-size="12" font-weight="bold" textLength="16" x="576" y="41">
G1
</text>
<text font-family="Arial" font-size="12" textLength="34" x="576" y="61">
Goal 1
</text>
</g>
<g class="gsnelem gsngoal gsn_module_examples_example_gsn_yaml" id="node_G2">
<title>
G2
</title>
<path class="border" d="M301,110 L385,110 L385,160 L301,160 z" fill="none" stroke="black" stroke-width="1"/>
<text font-family="Arial" font-size="12" font-weight="bold" textLength="16" x="308" y="131">
G2
</text>
<text font-family="Arial" font-size="12" textLength="34" x="308" y="151">
Goal 2
</text>
</g>
<g class="gsnelem gsngoal gsn_module_examples_example_gsn_yaml" id="node_G3">
<title>
G3
</title>
<path class="border" d="M838,110 L922,110 L922,160 L838,160 z" fill="none" stroke="black" stroke-width="1"/>
<text font-family="Arial" font-size="12" font-weight="bold" textLength="16" x="845" y="131">
G3
</text>
<text font-family="Arial" font-size="12" textLength="34" x="845" y="151">
Goal 3
</text>
</g>
<g class="gsnelem gsnctxt gsn_module_examples_example_gsn_yaml" id="node_C1">
<title>
C1
</title>
<path class="border" d="M972,112 L1034,112 C1044,112,1044,158,1034,158 L972,158 C962,158,962,112,972,112" fill="none" stroke="black" stroke-width="1"/>
<text font-family="Arial" font-size="12" font-weight="bold" textLength="15" x="972" y="131">
C1
</text>
<text font-family="Arial" font-size="12" textLength="53" x="972" y="151">
Context 1
</text>
</g>
<g class="gsnelem gsnjust gsn_module_examples_example_gsn_yaml" id="node_J1">
<title>
J1
</title>
<ellipse class="border" cx="184" cy="241" fill="none" rx="62" ry="41" stroke="black" stroke-width="1"/>
<text font-family="Arial" font-size="12" font-weight="bold" textLength="13" x="144" y="230">
J1
</text>
<text font-family="Arial" font-size="12" font-weight="bold" x="241" y="277">
J
</text>
<text font-family="Arial" font-size="12" textLength="81" x="144" y="250">
Justification 1
</text>
</g>
<g class="gsnelem gsnstgy gsn_module_examples_example_gsn_yaml" id="node_S1">
<title>
S1
</title>
<path class="border" d="M301,216 L400,216 L385,266 L286,266 z" fill="none" stroke="black" stroke-width="1"/>
<text font-family="Arial" font-size="12" font-weight="bold" textLength="15" x="308" y="237">
S1
</text>
<text font-family="Arial" font-size="12" textLength="57" x="293" y="257">
Strategy 1
</text>
</g>
<g class="gsnelem gsnasmp gsn_module_examples_example_gsn_yaml" id="node_A1">
<title>
A1
</title>
<ellipse class="border" cx="490" cy="241" fill="none" rx="50" ry="41" stroke="black" stroke-width="1"/>
<text font-family="Arial" font-size="12" font-weight="bold" textLength="15" x="458" y="230">
A1
</text>
<text font-family="Arial" font-size="12" font-weight="bold" x="535" y="277">
A
</text>
<text font-family="Arial" font-size="12" textLength="64" x="458" y="250">
Argument 1
</text>
</g>
<g class="gsnelem gsnstgy gsn_module_examples_example_gsn_yaml" id="node_S2">
<title>
S2
</title>
<path class="border" d="M702,216 L801,216 L786,266 L687,266 z" fill="none" stroke="black" stroke-width="1"/>
<text font-family="Arial" font-size="12" font-weight="bold" textLength="15" x="709" y="237">
S2
</text>
<text font-family="Arial" font-size="12" textLength="57" x="694" y="257">
Strategy 2
</text>
</g>
<a href="https://github.com/jonasthewolf/gsn2x">
<g class="gsnelem gsnsltn gsn_module_examples_example_gsn_yaml" id="node_Sn1"/>
<title>
Sn1
</title>
<ellipse class="border" cx="880" cy="241" fill="none" rx="39" ry="39" stroke="black" stroke-width="1"/>
<text font-family="Arial" font-size="12" font-weight="bold" textLength="25" x="852" y="230">
Sn1
</text>
<text font-family="Arial" font-size="12" textLength="56" x="852" y="250">
Solution 1
</text>
</a>
<g class="gsnelem gsnasmp mycssclass anotherclass gsn_module_examples_example_gsn_yaml" id="node_A2">
<title>
A2
</title>
<ellipse class="border" cx="79" cy="363" fill="none" rx="59" ry="41" stroke="black" stroke-width="1"/>
<text font-family="Arial" font-size="12" font-weight="bold" textLength="15" x="41" y="352">
A2
</text>
<text font-family="Arial" font-size="12" font-weight="bold" x="133" y="399">
A
</text>
<text font-family="Arial" font-size="12" textLength="77" x="41" y="372">
Assumption 2
</text>
</g>
<g class="gsnelem gsngoal gsn_module_examples_example_gsn_yaml" id="node_G5">
<title>
G5
</title>
<path class="border" d="M178,338 L262,338 L262,388 L178,388 z" fill="none" stroke="black" stroke-width="1"/>
<text font-family="Arial" font-size="12" font-weight="bold" textLength="16" x="185" y="359">
G5
</text>
<text font-family="Arial" font-size="12" textLength="34" x="185" y="379">
Goal 5
</text>
</g>
<g class="gsnelem gsnctxt gsn_module_examples_example_gsn_yaml" id="node_C2">
<title>
C2
</title>
<path class="border" d="M312,333 L374,333 C384,333,384,393,374,393 L312,393 C302,393,302,333,312,333" fill="none" stroke="black" stroke-width="1"/>
<text font-family="Arial" font-size="12" font-weight="bold" textLength="15" x="312" y="352">
C2
</text>
<text font-family="Arial" font-size="12" textLength="53" x="312" y="372">
Context 2
</text>
<text font-family="Arial" font-size="12" textLength="46" x="312" y="386">
Multiline
</text>
</g>
<g class="gsnelem gsngoal gsn_module_examples_example_gsn_yaml" id="node_G6">
<title>
G6
</title>
<path class="border" d="M424,338 L508,338 L508,388 L424,388 z" fill="none" stroke="black" stroke-width="1"/>
<text font-family="Arial" font-size="12" font-weight="bold" textLength="16" x="431" y="359">
G6
</text>
<text font-family="Arial" font-size="12" textLength="34" x="431" y="379">
Goal 6
</text>
</g>
<g class="gsnelem gsngoal gsn_module_examples_example_gsn_yaml" id="node_G4">
<title>
G4
</title>
<path class="border" d="M548,338 L632,338 L632,388 L548,388 z" fill="none" stroke="black" stroke-width="1"/>
<text font-family="Arial" font-size="12" font-weight="bold" textLength="16" x="555" y="359">
G4
</text>
<text font-family="Arial" font-size="12" textLength="34" x="555" y="379">
Goal 4
</text>
</g>
<g class="gsnelem gsnjust gsn_module_examples_example_gsn_yaml" id="node_J2">
<title>
J2
</title>
<ellipse class="border" cx="734" cy="363" fill="none" rx="62" ry="41" stroke="black" stroke-width="1"/>
<text font-family="Arial" font-size="12" font-weight="bold" textLength="13" x="694" y="352">
J2
</text>
<text font-family="Arial" font-size="12" font-weight="bold" x="791" y="399">
J
</text>
<text font-family="Arial" font-size="12" textLength="81" x="694" y="372">
Justification 2
</text>
</g>
<g class="gsnelem gsngoal gsn_module_examples_example_gsn_yaml" id="node_G7">
<title>
G7
</title>
<path class="border" d="M836,335 L960,335 L960,391 L836,391 z" fill="none" stroke="black" stroke-width="1"/>
<text font-family="Arial" font-size="12" font-weight="bold" textLength="16" x="843" y="356">
G7
</text>
<text font-family="Arial" font-size="12" textLength="110" x="843" y="376">
Undeveloped Goal
</text>
<path d="M898,391 l5,5 l-5,5 l-5,-5 z" fill="none" stroke="black" stroke-width="1"/>
</g>
<g class="gsnelem gsnsltn gsn_module_examples_example_gsn_yaml" id="node_Sn4">
<title>
Sn4
</title>
<ellipse class="border" cx="220" cy="483" fill="none" rx="39" ry="39" stroke="black" stroke-width="1"/>
<text font-family="Arial" font-size="12" font-weight="bold" textLength="25" x="192" y="472">
Sn4
</text>
<text font-family="Arial" font-size="12" textLength="56" x="192" y="492">
Solution 4
</text>
</g>
<g class="gsnelem gsnsltn gsn_layer2 gsn_module_examples_example_gsn_yaml" id="node_Sn3">
<title>
Sn3
</title>
<ellipse class="border" cx="343" cy="483" fill="none" rx="39" ry="39" stroke="black" stroke-width="1"/>
<text font-family="Arial" font-size="12" font-weight="bold" textLength="25" x="315" y="472">
Sn3
</text>
<text font-family="Arial" font-size="12" textLength="56" x="315" y="492">
Solution 3
</text>
</g>
<g class="gsnelem gsnsltn gsn_module_examples_example_gsn_yaml" id="node_Sn5">
<title>
Sn5
</title>
<ellipse class="border" cx="466" cy="483" fill="none" rx="39" ry="39" stroke="black" stroke-width="1"/>
<text font-family="Arial" font-size="12" font-weight="bold" textLength="25" x="438" y="472">
Sn5
</text>
<text font-family="Arial" font-size="12" textLength="56" x="438" y="492">
Solution 5
</text>
</g>
<g class="gsnelem gsnsltn gsn_layer1 gsn_layer2 gsn_module_examples_example_gsn_yaml" id="node_Sn2">
<title>
Sn2
</title>
<ellipse class="border" cx="590" cy="483" fill="none" rx="39" ry="39" stroke="black" stroke-width="1"/>
<text font-family="Arial" font-size="12" font-weight="bold" textLength="25" x="562" y="472">
Sn2
</text>
<text font-family="Arial" font-size="12" textLength="56" x="562" y="492">
Solution 2
</text>
</g>
<path class="gsnedge gsninspby" d="M611,70 C611,100,343,80,343,100" fill="none" marker-end="url(#supportedby_arrow)" stroke="black" stroke-width="1"/>
<path class="gsnedge gsninspby" d="M611,70 C611,100,880,80,880,100" fill="none" marker-end="url(#supportedby_arrow)" stroke="black" stroke-width="1"/>
<path class="gsnedge gsninspby" d="M611,70 C611,100,744,186,744,206" fill="none" marker-end="url(#supportedby_arrow)" stroke="black" stroke-width="1"/>
<path class="gsnedge gsninspby" d="M343,160 C343,190,343,186,343,206" fill="none" marker-end="url(#supportedby_arrow)" stroke="black" stroke-width="1"/>
<path class="gsnedge gsninctxt" d="M922,135 C922,135,932,135,952,135" fill="none" marker-end="url(#incontextof_arrow)" stroke="black" stroke-width="1"/>
<path class="gsnedge gsninspby" d="M880,160 C880,190,880,172,880,192" fill="none" marker-end="url(#supportedby_arrow)" stroke="black" stroke-width="1"/>
<path class="gsnedge gsninctxt" d="M632,363 C632,363,642,363,662,363" fill="none" marker-end="url(#incontextof_arrow)" stroke="black" stroke-width="1"/>
<path class="gsnedge gsninspby" d="M590,388 C590,418,590,414,590,434" fill="none" marker-end="url(#supportedby_arrow)" stroke="black" stroke-width="1"/>
<path class="gsnedge gsninctxt" d="M262,363 C262,363,272,363,292,363" fill="none" marker-end="url(#incontextof_arrow)" stroke="black" stroke-width="1"/>
<path class="gsnedge gsninctxt" d="M178,363 C178,363,168,363,148,363" fill="none" marker-end="url(#incontextof_arrow)" stroke="black" stroke-width="1"/>
<path class="gsnedge gsninspby" d="M220,388 C220,418,343,414,343,434" fill="none" marker-end="url(#supportedby_arrow)" stroke="black" stroke-width="1"/>
<path class="gsnedge gsninspby" d="M220,388 C220,418,220,414,220,434" fill="none" marker-end="url(#supportedby_arrow)" stroke="black" stroke-width="1"/>
<path class="gsnedge gsninspby" d="M466,388 C466,418,343,414,343,434" fill="none" marker-end="url(#supportedby_arrow)" stroke="black" stroke-width="1"/>
<path class="gsnedge gsninspby" d="M466,388 C466,418,466,414,466,434" fill="none" marker-end="url(#supportedby_arrow)" stroke="black" stroke-width="1"/>
<path class="gsnedge gsninctxt" d="M393,241 C393,241,410,241,430,241" fill="none" marker-end="url(#incontextof_arrow)" stroke="black" stroke-width="1"/>
<path class="gsnedge gsninctxt" d="M293,241 C293,241,276,241,256,241" fill="none" marker-end="url(#incontextof_arrow)" stroke="black" stroke-width="1"/>
<path class="gsnedge gsninspby" d="M343,266 C343,296,220,308,220,328" fill="none" marker-end="url(#supportedby_arrow)" stroke="black" stroke-width="1"/>
<path class="gsnedge gsninspby" d="M343,266 C343,296,466,308,466,328" fill="none" marker-end="url(#supportedby_arrow)" stroke="black" stroke-width="1"/>
<path class="gsnedge gsninspby" d="M744,266 C744,296,590,308,590,328" fill="none" marker-end="url(#supportedby_arrow)" stroke="black" stroke-width="1"/>
<path class="gsnedge gsninspby" d="M744,266 C744,296,898,305,898,325" fill="none" marker-end="url(#supportedby_arrow)" stroke="black" stroke-width="1"/>
</svg>