<?xml version="1.0" encoding="UTF-8"?>
<svg viewBox="0 0 1135 556" xmlns="http://www.w3.org/2000/svg">
<symbol id="module_icon">
<rect fill="lightgrey" height="5" stroke="black" stroke-width="1" width="10" x="0" y="0"/>
<rect fill="lightgrey" height="10" stroke="black" stroke-width="1" width="20" x="0" y="5"/>
</symbol>
<marker id="composite_arrow" markerHeight="9" markerUnits="userSpaceOnUse" markerWidth="10" orient="auto-start-reverse" refX="0" refY="4.5">
<polyline fill="none" points="0 0, 6 4.5, 0 9" stroke="black" stroke-width="1"/>
<polyline fill="none" points="4 0, 10 4.5, 4 9" stroke="black" stroke-width="1"/>
<polyline fill="none" points="0 4.5, 10 4.5" stroke="black" stroke-width="1"/>
</marker>
<marker id="supportedby_arrow" markerHeight="9" markerUnits="userSpaceOnUse" markerWidth="10" orient="auto-start-reverse" refX="0" refY="4.5">
<polyline fill="black" points="0 0, 10 4.5, 0 9"/>
</marker>
<marker id="incontextof_arrow" markerHeight="9" markerUnits="userSpaceOnUse" markerWidth="10" orient="auto-start-reverse" refX="0" refY="4.5">
<polyline fill="none" points="0 0, 10 4.5, 0 9, 0 0" stroke="black" stroke-width="1"/>
</marker>
<g class="gsnelem gsngoal gsn_module_examples_example_gsn_yaml" id="node_G1">
<title>
G1
</title>
<path class="border" d="M598,20 L682,20 L682,72 L598,72 z" fill="none" stroke="black" stroke-width="1"/>
<text font-family="AppleSystemUIFont" font-size="12" font-weight="bold" textLength="12" x="605" y="42">
G1
</text>
<text font-family="AppleSystemUIFont" font-size="12" textLength="37" x="605" y="62">
Goal 1
</text>
</g>
<g class="gsnelem gsngoal gsn_module_examples_example_gsn_yaml" id="node_G2">
<title>
G2
</title>
<path class="border" d="M321,112 L405,112 L405,164 L321,164 z" fill="none" stroke="black" stroke-width="1"/>
<text font-family="AppleSystemUIFont" font-size="12" font-weight="bold" textLength="12" x="328" y="134">
G2
</text>
<text font-family="AppleSystemUIFont" font-size="12" textLength="37" x="328" y="154">
Goal 2
</text>
</g>
<g class="gsnelem gsngoal gsn_module_examples_example_gsn_yaml" id="node_G3">
<title>
G3
</title>
<path class="border" d="M875,112 L959,112 L959,164 L875,164 z" fill="none" stroke="black" stroke-width="1"/>
<text font-family="AppleSystemUIFont" font-size="12" font-weight="bold" textLength="12" x="882" y="134">
G3
</text>
<text font-family="AppleSystemUIFont" font-size="12" textLength="37" x="882" y="154">
Goal 3
</text>
</g>
<g class="gsnelem gsnctxt gsn_module_examples_example_gsn_yaml" id="node_C1">
<title>
C1
</title>
<path class="border" d="M1009,114 L1079,114 C1089,114,1089,162,1079,162 L1009,162 C999,162,999,114,1009,114" fill="none" stroke="black" stroke-width="1"/>
<text font-family="AppleSystemUIFont" font-size="12" font-weight="bold" textLength="11" x="1009" y="134">
C1
</text>
<text font-family="AppleSystemUIFont" font-size="12" textLength="61" x="1009" y="154">
Context 1
</text>
</g>
<g class="gsnelem gsnjust gsn_module_examples_example_gsn_yaml" id="node_J1">
<title>
J1
</title>
<ellipse class="border" cx="198" cy="246" fill="none" rx="68" ry="42" stroke="black" stroke-width="1"/>
<text font-family="AppleSystemUIFont" font-size="12" font-weight="bold" textLength="8" x="153" y="235">
J1
</text>
<text font-family="AppleSystemUIFont" font-size="12" font-weight="bold" x="261" y="283">
J
</text>
<text font-family="AppleSystemUIFont" font-size="12" textLength="90" x="153" y="255">
Justification 1
</text>
</g>
<g class="gsnelem gsnstgy gsn_module_examples_example_gsn_yaml" id="node_S1">
<title>
S1
</title>
<path class="border" d="M321,220 L420,220 L405,272 L306,272 z" fill="none" stroke="black" stroke-width="1"/>
<text font-family="AppleSystemUIFont" font-size="12" font-weight="bold" textLength="10" x="328" y="242">
S1
</text>
<text font-family="AppleSystemUIFont" font-size="12" textLength="64" x="313" y="262">
Strategy 1
</text>
</g>
<g class="gsnelem gsnasmp gsn_module_examples_example_gsn_yaml" id="node_A1">
<title>
A1
</title>
<ellipse class="border" cx="516" cy="246" fill="none" rx="56" ry="42" stroke="black" stroke-width="1"/>
<text font-family="AppleSystemUIFont" font-size="12" font-weight="bold" textLength="10" x="480" y="235">
A1
</text>
<text font-family="AppleSystemUIFont" font-size="12" font-weight="bold" x="567" y="283">
A
</text>
<text font-family="AppleSystemUIFont" font-size="12" textLength="73" x="480" y="255">
Argument 1
</text>
</g>
<g class="gsnelem gsnstgy gsn_module_examples_example_gsn_yaml" id="node_S2">
<title>
S2
</title>
<path class="border" d="M736,220 L835,220 L820,272 L721,272 z" fill="none" stroke="black" stroke-width="1"/>
<text font-family="AppleSystemUIFont" font-size="12" font-weight="bold" textLength="10" x="743" y="242">
S2
</text>
<text font-family="AppleSystemUIFont" font-size="12" textLength="64" x="728" y="262">
Strategy 2
</text>
</g>
<a href="https://github.com/jonasthewolf/gsn2x">
<g class="gsnelem gsnsltn gsn_module_examples_example_gsn_yaml" id="node_Sn1"/>
<title>
Sn1
</title>
<ellipse class="border" cx="917" cy="246" fill="none" rx="42" ry="42" stroke="black" stroke-width="1"/>
<text font-family="AppleSystemUIFont" font-size="12" font-weight="bold" textLength="19" x="886" y="235">
Sn1
</text>
<text font-family="AppleSystemUIFont" font-size="12" textLength="63" x="886" y="255">
Solution 1
</text>
</a>
<g class="gsnelem gsnasmp mycssclass anotherclass gsn_module_examples_example_gsn_yaml" id="node_A2">
<title>
A2
</title>
<ellipse class="border" cx="87" cy="370" fill="none" rx="67" ry="42" stroke="black" stroke-width="1"/>
<text font-family="AppleSystemUIFont" font-size="12" font-weight="bold" textLength="10" x="43" y="359">
A2
</text>
<text font-family="AppleSystemUIFont" font-size="12" font-weight="bold" x="149" y="407">
A
</text>
<text font-family="AppleSystemUIFont" font-size="12" textLength="89" x="43" y="379">
Assumption 2
</text>
</g>
<g class="gsnelem gsngoal gsn_module_examples_example_gsn_yaml" id="node_G5">
<title>
G5
</title>
<path class="border" d="M194,344 L278,344 L278,396 L194,396 z" fill="none" stroke="black" stroke-width="1"/>
<text font-family="AppleSystemUIFont" font-size="12" font-weight="bold" textLength="12" x="201" y="366">
G5
</text>
<text font-family="AppleSystemUIFont" font-size="12" textLength="37" x="201" y="386">
Goal 5
</text>
</g>
<g class="gsnelem gsnctxt gsn_module_examples_example_gsn_yaml" id="node_C2">
<title>
C2
</title>
<path class="border" d="M328,339 L398,339 C408,339,408,401,398,401 L328,401 C318,401,318,339,328,339" fill="none" stroke="black" stroke-width="1"/>
<text font-family="AppleSystemUIFont" font-size="12" font-weight="bold" textLength="11" x="328" y="359">
C2
</text>
<text font-family="AppleSystemUIFont" font-size="12" textLength="61" x="328" y="379">
Context 2
</text>
<text font-family="AppleSystemUIFont" font-size="12" textLength="50" x="328" y="394">
Multiline
</text>
</g>
<g class="gsnelem gsngoal gsn_module_examples_example_gsn_yaml" id="node_G6">
<title>
G6
</title>
<path class="border" d="M448,344 L532,344 L532,396 L448,396 z" fill="none" stroke="black" stroke-width="1"/>
<text font-family="AppleSystemUIFont" font-size="12" font-weight="bold" textLength="12" x="455" y="366">
G6
</text>
<text font-family="AppleSystemUIFont" font-size="12" textLength="37" x="455" y="386">
Goal 6
</text>
</g>
<g class="gsnelem gsngoal gsn_module_examples_example_gsn_yaml" id="node_G4">
<title>
G4
</title>
<path class="border" d="M572,344 L656,344 L656,396 L572,396 z" fill="none" stroke="black" stroke-width="1"/>
<text font-family="AppleSystemUIFont" font-size="12" font-weight="bold" textLength="12" x="579" y="366">
G4
</text>
<text font-family="AppleSystemUIFont" font-size="12" textLength="37" x="579" y="386">
Goal 4
</text>
</g>
<g class="gsnelem gsnjust gsn_module_examples_example_gsn_yaml" id="node_J2">
<title>
J2
</title>
<ellipse class="border" cx="764" cy="370" fill="none" rx="68" ry="42" stroke="black" stroke-width="1"/>
<text font-family="AppleSystemUIFont" font-size="12" font-weight="bold" textLength="8" x="719" y="359">
J2
</text>
<text font-family="AppleSystemUIFont" font-size="12" font-weight="bold" x="827" y="407">
J
</text>
<text font-family="AppleSystemUIFont" font-size="12" textLength="90" x="719" y="379">
Justification 2
</text>
</g>
<g class="gsnelem gsngoal gsn_module_examples_example_gsn_yaml" id="node_G7">
<title>
G7
</title>
<path class="border" d="M872,342 L1014,342 L1014,398 L872,398 z" fill="none" stroke="black" stroke-width="1"/>
<text font-family="AppleSystemUIFont" font-size="12" font-weight="bold" textLength="12" x="879" y="364">
G7
</text>
<text font-family="AppleSystemUIFont" font-size="12" textLength="129" x="879" y="384">
Undeveloped Goal
</text>
<path d="M943,398 l5,5 l-5,5 l-5,-5 z" fill="none" stroke="black" stroke-width="1"/>
</g>
<g class="gsnelem gsnsltn gsn_module_examples_example_gsn_yaml" id="node_Sn4">
<title>
Sn4
</title>
<ellipse class="border" cx="62" cy="494" fill="none" rx="42" ry="42" stroke="black" stroke-width="1"/>
<text font-family="AppleSystemUIFont" font-size="12" font-weight="bold" textLength="19" x="31" y="483">
Sn4
</text>
<text font-family="AppleSystemUIFont" font-size="12" textLength="63" x="31" y="503">
Solution 4
</text>
</g>
<g class="gsnelem gsnsltn gsn_layer2 gsn_module_examples_example_gsn_yaml" id="node_Sn3">
<title>
Sn3
</title>
<ellipse class="border" cx="363" cy="494" fill="none" rx="42" ry="42" stroke="black" stroke-width="1"/>
<text font-family="AppleSystemUIFont" font-size="12" font-weight="bold" textLength="19" x="332" y="483">
Sn3
</text>
<text font-family="AppleSystemUIFont" font-size="12" textLength="63" x="332" y="503">
Solution 3
</text>
</g>
<g class="gsnelem gsnsltn gsn_module_examples_example_gsn_yaml" id="node_Sn5">
<title>
Sn5
</title>
<ellipse class="border" cx="487" cy="494" fill="none" rx="42" ry="42" stroke="black" stroke-width="1"/>
<text font-family="AppleSystemUIFont" font-size="12" font-weight="bold" textLength="19" x="456" y="483">
Sn5
</text>
<text font-family="AppleSystemUIFont" font-size="12" textLength="63" x="456" y="503">
Solution 5
</text>
</g>
<g class="gsnelem gsnsltn gsn_layer1 gsn_layer2 gsn_module_examples_example_gsn_yaml" id="node_Sn2">
<title>
Sn2
</title>
<ellipse class="border" cx="614" cy="494" fill="none" rx="42" ry="42" stroke="black" stroke-width="1"/>
<text font-family="AppleSystemUIFont" font-size="12" font-weight="bold" textLength="19" x="583" y="483">
Sn2
</text>
<text font-family="AppleSystemUIFont" font-size="12" textLength="63" x="583" y="503">
Solution 2
</text>
</g>
<path class="gsnedge gsninspby" d="M640,72 C640,102,363,82,363,102" fill="none" marker-end="url(#supportedby_arrow)" stroke="black" stroke-width="1"/>
<path class="gsnedge gsninspby" d="M640,72 C640,102,917,82,917,102" fill="none" marker-end="url(#supportedby_arrow)" stroke="black" stroke-width="1"/>
<path class="gsnedge gsninspby" d="M640,72 C640,102,778,190,778,210" fill="none" marker-end="url(#supportedby_arrow)" stroke="black" stroke-width="1"/>
<path class="gsnedge gsninspby" d="M363,164 C363,194,363,190,363,210" fill="none" marker-end="url(#supportedby_arrow)" stroke="black" stroke-width="1"/>
<path class="gsnedge gsninctxt" d="M959,138 C959,138,969,138,989,138" fill="none" marker-end="url(#incontextof_arrow)" stroke="black" stroke-width="1"/>
<path class="gsnedge gsninspby" d="M917,164 C917,194,917,174,917,194" fill="none" marker-end="url(#supportedby_arrow)" stroke="black" stroke-width="1"/>
<path class="gsnedge gsninctxt" d="M656,370 C656,370,666,370,686,370" fill="none" marker-end="url(#incontextof_arrow)" stroke="black" stroke-width="1"/>
<path class="gsnedge gsninspby" d="M614,396 C614,426,614,422,614,442" fill="none" marker-end="url(#supportedby_arrow)" stroke="black" stroke-width="1"/>
<path class="gsnedge gsninctxt" d="M278,370 C278,370,288,370,308,370" fill="none" marker-end="url(#incontextof_arrow)" stroke="black" stroke-width="1"/>
<path class="gsnedge gsninctxt" d="M194,370 C194,370,184,370,164,370" fill="none" marker-end="url(#incontextof_arrow)" stroke="black" stroke-width="1"/>
<path class="gsnedge gsninspby" d="M236,396 C236,426,363,422,363,442" fill="none" marker-end="url(#supportedby_arrow)" stroke="black" stroke-width="1"/>
<path class="gsnedge gsninspby" d="M236,396 C236,426,62,422,62,442" fill="none" marker-end="url(#supportedby_arrow)" stroke="black" stroke-width="1"/>
<path class="gsnedge gsninspby" d="M490,396 C490,426,363,422,363,442" fill="none" marker-end="url(#supportedby_arrow)" stroke="black" stroke-width="1"/>
<path class="gsnedge gsninspby" d="M490,396 C490,426,487,422,487,442" fill="none" marker-end="url(#supportedby_arrow)" stroke="black" stroke-width="1"/>
<path class="gsnedge gsninctxt" d="M413,246 C413,246,430,246,450,246" fill="none" marker-end="url(#incontextof_arrow)" stroke="black" stroke-width="1"/>
<path class="gsnedge gsninctxt" d="M313,246 C313,246,296,246,276,246" fill="none" marker-end="url(#incontextof_arrow)" stroke="black" stroke-width="1"/>
<path class="gsnedge gsninspby" d="M363,272 C363,302,236,314,236,334" fill="none" marker-end="url(#supportedby_arrow)" stroke="black" stroke-width="1"/>
<path class="gsnedge gsninspby" d="M363,272 C363,302,490,314,490,334" fill="none" marker-end="url(#supportedby_arrow)" stroke="black" stroke-width="1"/>
<path class="gsnedge gsninspby" d="M778,272 C778,302,614,314,614,334" fill="none" marker-end="url(#supportedby_arrow)" stroke="black" stroke-width="1"/>
<path class="gsnedge gsninspby" d="M778,272 C778,302,943,312,943,332" fill="none" marker-end="url(#supportedby_arrow)" stroke="black" stroke-width="1"/>
</svg>