<?xml version="1.0" encoding="UTF-8"?>
<svg classes="gsndiagram" viewBox="0 0 1270 537" xmlns="http://www.w3.org/2000/svg">
<symbol id="module_icon">
<rect fill="lightgrey" height="5" stroke="black" stroke-width="1" width="10" x="0" y="0"/>
<rect fill="lightgrey" height="10" stroke="black" stroke-width="1" width="20" x="0" y="5"/>
</symbol>
<marker id="composite_arrow" markerHeight="9" markerUnits="userSpaceOnUse" markerWidth="10" orient="auto-start-reverse" refX="0" refY="4.5">
<polyline fill="none" points="0 0, 6 4.5, 0 9" stroke="black" stroke-width="1"/>
<polyline fill="none" points="4 0, 10 4.5, 4 9" stroke="black" stroke-width="1"/>
<polyline fill="none" points="0 4.5, 10 4.5" stroke="black" stroke-width="1"/>
</marker>
<marker id="supportedby_arrow" markerHeight="9" markerUnits="userSpaceOnUse" markerWidth="10" orient="auto-start-reverse" refX="0" refY="4.5">
<polyline fill="black" points="0 0, 10 4.5, 0 9"/>
</marker>
<marker id="incontextof_arrow" markerHeight="9" markerUnits="userSpaceOnUse" markerWidth="10" orient="auto-start-reverse" refX="0" refY="4.5">
<polyline fill="none" points="0 0, 10 4.5, 0 9, 0 0" stroke="black" stroke-width="1"/>
</marker>
<style type="text/css">
/* CSS to invert SVG for dark mode */ 
svg { filter: invert(100%); }
</style>
<g class="gsn_module_examples_example_gsn_yaml gsnelem gsngoal" id="node_G1">
<title>G1</title>
<path class="border" d="M637,20 L741,20 L741,66 L637,66 z" fill="transparent" stroke="black" stroke-width="1"/>
<text font-family="Arial" font-size="12" font-weight="bold" x="644" y="39">
G1
</text>
<text font-family="Arial" font-size="12" x="644" y="58">
Goal 1
</text>
</g>
<g class="gsn_module_examples_example_gsn_yaml gsnelem gsngoal" id="node_G2">
<title>G2</title>
<path class="border" d="M334,106 L438,106 L438,152 L334,152 z" fill="transparent" stroke="black" stroke-width="1"/>
<text font-family="Arial" font-size="12" font-weight="bold" x="341" y="125">
G2
</text>
<text font-family="Arial" font-size="12" x="341" y="144">
Goal 2
</text>
</g>
<g class="gsn_module_examples_example_gsn_yaml gsnelem gsngoal" id="node_G3">
<title>G3</title>
<path class="border" d="M940,106 L1044,106 L1044,152 L940,152 z" fill="transparent" stroke="black" stroke-width="1"/>
<text font-family="Arial" font-size="12" font-weight="bold" x="947" y="125">
G3
</text>
<text font-family="Arial" font-size="12" x="947" y="144">
Goal 3
</text>
</g>
<g class="gsn_module_examples_example_gsn_yaml gsnelem gsnctxt" id="node_C1">
<title>C1</title>
<path class="border" d="M1094,106 L1198,106 C1208,106,1208,152,1198,152 L1094,152 C1084,152,1084,106,1094,106" fill="transparent" stroke="black" stroke-width="1"/>
<text font-family="Arial" font-size="12" font-weight="bold" x="1101" y="125">
C1
</text>
<text font-family="Arial" font-size="12" x="1101" y="144">
Context 1
</text>
</g>
<g class="gsn_module_examples_example_gsn_yaml gsnelem gsnjust" id="node_J1">
<title>J1</title>
<path class="border" d="M155,236 a62,33,0,1,0,124,0 a62,33,0,1,0,-124,0 z" fill="none" stroke="black" stroke-width="1"/>
<text font-family="Arial" font-size="12" font-weight="bold" x="180" y="227">
J1
</text>
<text font-family="Arial" font-size="12" x="180" y="246">
Justification 1
</text>
<text font-family="Arial" font-size="12" font-weight="bold" x="274" y="264">
J
</text>
</g>
<g class="gsn_module_examples_example_gsn_yaml gsnelem gsnstgy" id="node_S1">
<title>S1</title>
<path class="border" d="M326,213 L460,213 L446,259 L312,259 z" fill="transparent" stroke="black" stroke-width="1"/>
<text font-family="Arial" font-size="12" font-weight="bold" x="334" y="232">
S1
</text>
<text font-family="Arial" font-size="12" x="334" y="251">
Strategy 1
</text>
</g>
<g class="gsn_module_examples_example_gsn_yaml gsnelem gsnasmp" id="node_A1">
<title>A1</title>
<path class="border" d="M493,236 a51,33,0,1,0,103,0 a51,33,0,1,0,-103,0 z" fill="none" stroke="black" stroke-width="1"/>
<text font-family="Arial" font-size="12" font-weight="bold" x="515" y="227">
A1
</text>
<text font-family="Arial" font-size="12" x="515" y="246">
Argument 1
</text>
<text font-family="Arial" font-size="12" font-weight="bold" x="590" y="264">
A
</text>
</g>
<g class="gsn_module_examples_example_gsn_yaml gsnelem gsnstgy" id="node_S2">
<title>S2</title>
<path class="border" d="M781,213 L915,213 L901,259 L767,259 z" fill="transparent" stroke="black" stroke-width="1"/>
<text font-family="Arial" font-size="12" font-weight="bold" x="789" y="232">
S2
</text>
<text font-family="Arial" font-size="12" x="789" y="251">
Strategy 2
</text>
</g>
<a href="https://github.com/jonasthewolf/gsn2x">
<g class="gsn_module_examples_example_gsn_yaml gsnelem gsnsltn" id="node_Sn1">
<title>Sn1</title>
<path class="border" d="M948,236 a44,44,0,1,0,88,0 a44,44,0,1,0,-88,0 z" fill="none" stroke="black" stroke-width="1"/>
<text font-family="Arial" font-size="12" font-weight="bold" x="967" y="227">
Sn1
</text>
<text font-family="Arial" font-size="12" x="967" y="246">
Solution 1
</text>
</g>
</a>
<g class="mycssclass anotherclass gsn_module_examples_example_gsn_yaml gsnelem gsnasmp" id="node_A2">
<title>A2</title>
<path class="border" d="M20,353 a60,33,0,1,0,120,0 a60,33,0,1,0,-120,0 z" fill="none" stroke="black" stroke-width="1"/>
<text font-family="Arial" font-size="12" font-weight="bold" x="45" y="344">
A2
</text>
<text font-family="Arial" font-size="12" x="45" y="363">
Assumption 2
</text>
<text font-family="Arial" font-size="12" font-weight="bold" x="135" y="381">
A
</text>
</g>
<g class="gsn_module_examples_example_gsn_yaml gsnelem gsngoal" id="node_G5">
<title>G5</title>
<path class="border" d="M180,330 L284,330 L284,376 L180,376 z" fill="transparent" stroke="black" stroke-width="1"/>
<text font-family="Arial" font-size="12" font-weight="bold" x="187" y="349">
G5
</text>
<text font-family="Arial" font-size="12" x="187" y="368">
Goal 5
</text>
</g>
<g class="gsn_module_examples_example_gsn_yaml gsnelem gsnctxt" id="node_C2">
<title>C2</title>
<path class="border" d="M334,323 L438,323 C448,323,448,383,438,383 L334,383 C324,383,324,323,334,323" fill="transparent" stroke="black" stroke-width="1"/>
<text font-family="Arial" font-size="12" font-weight="bold" x="341" y="342">
C2
</text>
<text font-family="Arial" font-size="12" x="341" y="361">
Context 2
</text>
<text font-family="Arial" font-size="12" x="341" y="375">
Multiline
</text>
</g>
<g class="gsn_module_examples_example_gsn_yaml gsnelem gsngoal" id="node_G6">
<title>G6</title>
<path class="border" d="M488,330 L592,330 L592,376 L488,376 z" fill="transparent" stroke="black" stroke-width="1"/>
<text font-family="Arial" font-size="12" font-weight="bold" x="495" y="349">
G6
</text>
<text font-family="Arial" font-size="12" x="495" y="368">
Goal 6
</text>
</g>
<g class="gsn_module_examples_example_gsn_yaml gsnelem gsngoal" id="node_G4">
<title>G4</title>
<path class="border" d="M632,330 L736,330 L736,376 L632,376 z" fill="transparent" stroke="black" stroke-width="1"/>
<text font-family="Arial" font-size="12" font-weight="bold" x="639" y="349">
G4
</text>
<text font-family="Arial" font-size="12" x="639" y="368">
Goal 4
</text>
</g>
<g class="gsn_module_examples_example_gsn_yaml gsnelem gsnjust" id="node_J2">
<title>J2</title>
<path class="border" d="M776,353 a62,33,0,1,0,124,0 a62,33,0,1,0,-124,0 z" fill="none" stroke="black" stroke-width="1"/>
<text font-family="Arial" font-size="12" font-weight="bold" x="801" y="344">
J2
</text>
<text font-family="Arial" font-size="12" x="801" y="363">
Justification 2
</text>
<text font-family="Arial" font-size="12" font-weight="bold" x="895" y="381">
J
</text>
</g>
<g class="gsn_module_examples_example_gsn_yaml gsnelem gsngoal gsn_undeveloped" id="node_G7">
<title>G7</title>
<path class="border" d="M940,327 L1056,327 L1056,379 L940,379 z" fill="transparent" stroke="black" stroke-width="1"/>
<text font-family="Arial" font-size="12" font-weight="bold" x="947" y="346">
G7
</text>
<text font-family="Arial" font-size="12" x="947" y="365">
Undeveloped Goal
</text>
<path d="M998,379 l5,5 l-5,5 l-5,-5 z" fill="none" stroke="black" stroke-width="1"/>
</g>
<g class="gsn_module_examples_example_gsn_yaml gsnelem gsnsltn" id="node_Sn4">
<title>Sn4</title>
<path class="border" d="M188,470 a44,44,0,1,0,88,0 a44,44,0,1,0,-88,0 z" fill="none" stroke="black" stroke-width="1"/>
<text font-family="Arial" font-size="12" font-weight="bold" x="207" y="461">
Sn4
</text>
<text font-family="Arial" font-size="12" x="207" y="480">
Solution 4
</text>
</g>
<g class="gsn_layer2 gsn_module_examples_example_gsn_yaml gsnelem gsnsltn" id="node_Sn3">
<title>Sn3</title>
<path class="border" d="M342,470 a44,44,0,1,0,88,0 a44,44,0,1,0,-88,0 z" fill="none" stroke="black" stroke-width="1"/>
<text font-family="Arial" font-size="12" font-weight="bold" x="361" y="461">
Sn3
</text>
<text font-family="Arial" font-size="12" x="361" y="480">
Solution 3
</text>
</g>
<g class="gsn_module_examples_example_gsn_yaml gsnelem gsnsltn" id="node_Sn5">
<title>Sn5</title>
<path class="border" d="M496,470 a44,44,0,1,0,88,0 a44,44,0,1,0,-88,0 z" fill="none" stroke="black" stroke-width="1"/>
<text font-family="Arial" font-size="12" font-weight="bold" x="515" y="461">
Sn5
</text>
<text font-family="Arial" font-size="12" x="515" y="480">
Solution 5
</text>
</g>
<g class="gsn_layer1 gsn_layer2 gsn_module_examples_example_gsn_yaml gsnelem gsnsltn" id="node_Sn2">
<title>Sn2</title>
<path class="border" d="M640,470 a44,44,0,1,0,88,0 a44,44,0,1,0,-88,0 z" fill="none" stroke="black" stroke-width="1"/>
<text font-family="Arial" font-size="12" font-weight="bold" x="659" y="461">
Sn2
</text>
<text font-family="Arial" font-size="12" x="659" y="480">
Solution 2
</text>
</g>
<path class="gsnedge gsninspby" d="M689,66 C689,96,386,76,386,96" fill="none" marker-end="url(#supportedby_arrow)" stroke="black" stroke-width="1"/>
<path class="gsnedge gsninspby" d="M689,66 C689,96,992,76,992,96" fill="none" marker-end="url(#supportedby_arrow)" stroke="black" stroke-width="1"/>
<path class="gsnedge gsninspby" d="M689,66 C689,96,841,183,841,203" fill="none" marker-end="url(#supportedby_arrow)" stroke="black" stroke-width="1"/>
<path class="gsnedge gsninspby" d="M386,152 C386,182,386,183,386,203" fill="none" marker-end="url(#supportedby_arrow)" stroke="black" stroke-width="1"/>
<path class="gsnedge gsninctxt" d="M1044,129 C1074,129,1054,129,1074,129" fill="none" marker-end="url(#incontextof_arrow)" stroke="black" stroke-width="1"/>
<path class="gsnedge gsninspby" d="M992,152 C992,182,992,162,992,182" fill="none" marker-end="url(#supportedby_arrow)" stroke="black" stroke-width="1"/>
<path class="gsnedge gsninctxt" d="M736,353 C766,353,746,353,766,353" fill="none" marker-end="url(#incontextof_arrow)" stroke="black" stroke-width="1"/>
<path class="gsnedge gsninspby" d="M684,376 C684,406,684,396,684,416" fill="none" marker-end="url(#supportedby_arrow)" stroke="black" stroke-width="1"/>
<path class="gsnedge gsninctxt" d="M284,353 C314,353,294,353,314,353" fill="none" marker-end="url(#incontextof_arrow)" stroke="black" stroke-width="1"/>
<path class="gsnedge gsninctxt" d="M180,353 C150,353,170,353,150,353" fill="none" marker-end="url(#incontextof_arrow)" stroke="black" stroke-width="1"/>
<path class="gsnedge gsninspby" d="M232,376 C232,406,386,396,386,416" fill="none" marker-end="url(#supportedby_arrow)" stroke="black" stroke-width="1"/>
<path class="gsnedge gsninspby" d="M232,376 C232,406,232,396,232,416" fill="none" marker-end="url(#supportedby_arrow)" stroke="black" stroke-width="1"/>
<path class="gsnedge gsninspby" d="M540,376 C540,406,386,396,386,416" fill="none" marker-end="url(#supportedby_arrow)" stroke="black" stroke-width="1"/>
<path class="gsnedge gsninspby" d="M540,376 C540,406,540,396,540,416" fill="none" marker-end="url(#supportedby_arrow)" stroke="black" stroke-width="1"/>
<path class="gsnedge gsninctxt" d="M453,236 C483,236,463,236,483,236" fill="none" marker-end="url(#incontextof_arrow)" stroke="black" stroke-width="1"/>
<path class="gsnedge gsninctxt" d="M319,236 C289,236,309,236,289,236" fill="none" marker-end="url(#incontextof_arrow)" stroke="black" stroke-width="1"/>
<path class="gsnedge gsninspby" d="M386,259 C386,289,232,300,232,320" fill="none" marker-end="url(#supportedby_arrow)" stroke="black" stroke-width="1"/>
<path class="gsnedge gsninspby" d="M386,259 C386,289,540,300,540,320" fill="none" marker-end="url(#supportedby_arrow)" stroke="black" stroke-width="1"/>
<path class="gsnedge gsninspby" d="M841,259 C841,289,684,300,684,320" fill="none" marker-end="url(#supportedby_arrow)" stroke="black" stroke-width="1"/>
<path class="gsnedge gsninspby" d="M841,259 C841,289,998,297,998,317" fill="none" marker-end="url(#supportedby_arrow)" stroke="black" stroke-width="1"/>
</svg>