<?xml version="1.0" encoding="UTF-8"?>
<svg viewBox="0 0 1126 572" xmlns="http://www.w3.org/2000/svg">
<symbol id="module_icon">
<rect fill="lightgrey" height="5" stroke="black" stroke-width="1" width="10" x="0" y="0"/>
<rect fill="lightgrey" height="10" stroke="black" stroke-width="1" width="20" x="0" y="5"/>
</symbol>
<marker id="composite_arrow" markerHeight="9" markerUnits="userSpaceOnUse" markerWidth="10" orient="auto-start-reverse" refX="0" refY="4.5">
<polyline fill="none" points="0 0, 6 4.5, 0 9" stroke="black" stroke-width="1"/>
<polyline fill="none" points="4 0, 10 4.5, 4 9" stroke="black" stroke-width="1"/>
<polyline fill="none" points="0 4.5, 10 4.5" stroke="black" stroke-width="1"/>
</marker>
<marker id="supportedby_arrow" markerHeight="9" markerUnits="userSpaceOnUse" markerWidth="10" orient="auto-start-reverse" refX="0" refY="4.5">
<polyline fill="black" points="0 0, 10 4.5, 0 9"/>
</marker>
<marker id="incontextof_arrow" markerHeight="9" markerUnits="userSpaceOnUse" markerWidth="10" orient="auto-start-reverse" refX="0" refY="4.5">
<polyline fill="none" points="0 0, 10 4.5, 0 9, 0 0" stroke="black" stroke-width="1"/>
</marker>
<g class="gsnelem gsngoal gsn_module_examples_example_gsn_yaml" id="node_G1">
<title>
G1
</title>
<path class="border" d="M595,20 L679,20 L679,70 L595,70 z" fill="none" stroke="black" stroke-width="1"/>
<text font-family="Arial" font-size="12" font-weight="bold" textLength="16" x="602" y="41">
G1
</text>
<text font-family="Arial" font-size="12" textLength="34" x="602" y="61">
Goal 1
</text>
</g>
<g class="gsnelem gsngoal gsn_module_examples_example_gsn_yaml" id="node_G2">
<title>
G2
</title>
<path class="border" d="M312,110 L396,110 L396,160 L312,160 z" fill="none" stroke="black" stroke-width="1"/>
<text font-family="Arial" font-size="12" font-weight="bold" textLength="16" x="319" y="131">
G2
</text>
<text font-family="Arial" font-size="12" textLength="34" x="319" y="151">
Goal 2
</text>
</g>
<g class="gsnelem gsngoal gsn_module_examples_example_gsn_yaml" id="node_G3">
<title>
G3
</title>
<path class="border" d="M878,110 L962,110 L962,160 L878,160 z" fill="none" stroke="black" stroke-width="1"/>
<text font-family="Arial" font-size="12" font-weight="bold" textLength="16" x="885" y="131">
G3
</text>
<text font-family="Arial" font-size="12" textLength="34" x="885" y="151">
Goal 3
</text>
</g>
<g class="gsnelem gsnctxt gsn_module_examples_example_gsn_yaml" id="node_C1">
<title>
C1
</title>
<path class="border" d="M1012,112 L1074,112 C1084,112,1084,158,1074,158 L1012,158 C1002,158,1002,112,1012,112" fill="none" stroke="black" stroke-width="1"/>
<text font-family="Arial" font-size="12" font-weight="bold" textLength="15" x="1012" y="131">
C1
</text>
<text font-family="Arial" font-size="12" textLength="53" x="1012" y="151">
Context 1
</text>
</g>
<g class="gsnelem gsnjust gsn_module_examples_example_gsn_yaml" id="node_J1">
<title>
J1
</title>
<ellipse class="border" cx="195" cy="247" fill="none" rx="62" ry="41" stroke="black" stroke-width="1"/>
<text font-family="Arial" font-size="12" font-weight="bold" textLength="13" x="155" y="236">
J1
</text>
<text font-family="Arial" font-size="12" font-weight="bold" x="252" y="283">
J
</text>
<text font-family="Arial" font-size="12" textLength="81" x="155" y="256">
Justification 1
</text>
</g>
<g class="gsnelem gsnstgy gsn_module_examples_example_gsn_yaml" id="node_S1">
<title>
S1
</title>
<path class="border" d="M304,222 L418,222 L404,272 L290,272 z" fill="none" stroke="black" stroke-width="1"/>
<text font-family="Arial" font-size="12" font-weight="bold" textLength="15" x="312" y="243">
S1
</text>
<text font-family="Arial" font-size="12" textLength="57" x="312" y="263">
Strategy 1
</text>
</g>
<g class="gsnelem gsnasmp gsn_module_examples_example_gsn_yaml" id="node_A1">
<title>
A1
</title>
<ellipse class="border" cx="501" cy="247" fill="none" rx="50" ry="41" stroke="black" stroke-width="1"/>
<text font-family="Arial" font-size="12" font-weight="bold" textLength="15" x="469" y="236">
A1
</text>
<text font-family="Arial" font-size="12" font-weight="bold" x="546" y="283">
A
</text>
<text font-family="Arial" font-size="12" textLength="64" x="469" y="256">
Argument 1
</text>
</g>
<g class="gsnelem gsnstgy gsn_module_examples_example_gsn_yaml" id="node_S2">
<title>
S2
</title>
<path class="border" d="M726,222 L840,222 L826,272 L712,272 z" fill="none" stroke="black" stroke-width="1"/>
<text font-family="Arial" font-size="12" font-weight="bold" textLength="15" x="734" y="243">
S2
</text>
<text font-family="Arial" font-size="12" textLength="57" x="734" y="263">
Strategy 2
</text>
</g>
<a href="https://github.com/jonasthewolf/gsn2x">
<g class="gsnelem gsnsltn gsn_module_examples_example_gsn_yaml" id="node_Sn1"/>
<title>
Sn1
</title>
<ellipse class="border" cx="920" cy="247" fill="none" rx="47" ry="47" stroke="black" stroke-width="1"/>
<text font-family="Arial" font-size="12" font-weight="bold" textLength="25" x="892" y="236">
Sn1
</text>
<text font-family="Arial" font-size="12" textLength="56" x="892" y="256">
Solution 1
</text>
</a>
<g class="gsnelem gsnasmp mycssclass anotherclass gsn_module_examples_example_gsn_yaml" id="node_A2">
<title>
A2
</title>
<ellipse class="border" cx="79" cy="375" fill="none" rx="59" ry="41" stroke="black" stroke-width="1"/>
<text font-family="Arial" font-size="12" font-weight="bold" textLength="15" x="41" y="364">
A2
</text>
<text font-family="Arial" font-size="12" font-weight="bold" x="133" y="411">
A
</text>
<text font-family="Arial" font-size="12" textLength="77" x="41" y="384">
Assumption 2
</text>
</g>
<g class="gsnelem gsngoal gsn_module_examples_example_gsn_yaml" id="node_G5">
<title>
G5
</title>
<path class="border" d="M178,350 L262,350 L262,400 L178,400 z" fill="none" stroke="black" stroke-width="1"/>
<text font-family="Arial" font-size="12" font-weight="bold" textLength="16" x="185" y="371">
G5
</text>
<text font-family="Arial" font-size="12" textLength="34" x="185" y="391">
Goal 5
</text>
</g>
<g class="gsnelem gsnctxt gsn_module_examples_example_gsn_yaml" id="node_C2">
<title>
C2
</title>
<path class="border" d="M312,345 L374,345 C384,345,384,405,374,405 L312,405 C302,405,302,345,312,345" fill="none" stroke="black" stroke-width="1"/>
<text font-family="Arial" font-size="12" font-weight="bold" textLength="15" x="312" y="364">
C2
</text>
<text font-family="Arial" font-size="12" textLength="53" x="312" y="384">
Context 2
</text>
<text font-family="Arial" font-size="12" textLength="46" x="312" y="398">
Multiline
</text>
</g>
<g class="gsnelem gsngoal gsn_module_examples_example_gsn_yaml" id="node_G6">
<title>
G6
</title>
<path class="border" d="M446,350 L530,350 L530,400 L446,400 z" fill="none" stroke="black" stroke-width="1"/>
<text font-family="Arial" font-size="12" font-weight="bold" textLength="16" x="453" y="371">
G6
</text>
<text font-family="Arial" font-size="12" textLength="34" x="453" y="391">
Goal 6
</text>
</g>
<g class="gsnelem gsngoal gsn_module_examples_example_gsn_yaml" id="node_G4">
<title>
G4
</title>
<path class="border" d="M580,350 L664,350 L664,400 L580,400 z" fill="none" stroke="black" stroke-width="1"/>
<text font-family="Arial" font-size="12" font-weight="bold" textLength="16" x="587" y="371">
G4
</text>
<text font-family="Arial" font-size="12" textLength="34" x="587" y="391">
Goal 4
</text>
</g>
<g class="gsnelem gsnjust gsn_module_examples_example_gsn_yaml" id="node_J2">
<title>
J2
</title>
<ellipse class="border" cx="766" cy="375" fill="none" rx="62" ry="41" stroke="black" stroke-width="1"/>
<text font-family="Arial" font-size="12" font-weight="bold" textLength="13" x="726" y="364">
J2
</text>
<text font-family="Arial" font-size="12" font-weight="bold" x="823" y="411">
J
</text>
<text font-family="Arial" font-size="12" textLength="81" x="726" y="384">
Justification 2
</text>
</g>
<g class="gsnelem gsngoal gsn_module_examples_example_gsn_yaml" id="node_G7">
<title>
G7
</title>
<path class="border" d="M868,347 L992,347 L992,403 L868,403 z" fill="none" stroke="black" stroke-width="1"/>
<text font-family="Arial" font-size="12" font-weight="bold" textLength="16" x="875" y="368">
G7
</text>
<text font-family="Arial" font-size="12" textLength="110" x="875" y="388">
Undeveloped Goal
</text>
<path d="M930,403 l5,5 l-5,5 l-5,-5 z" fill="none" stroke="black" stroke-width="1"/>
</g>
<g class="gsnelem gsnsltn gsn_module_examples_example_gsn_yaml" id="node_Sn4">
<title>
Sn4
</title>
<ellipse class="border" cx="220" cy="503" fill="none" rx="47" ry="47" stroke="black" stroke-width="1"/>
<text font-family="Arial" font-size="12" font-weight="bold" textLength="25" x="192" y="492">
Sn4
</text>
<text font-family="Arial" font-size="12" textLength="56" x="192" y="512">
Solution 4
</text>
</g>
<g class="gsnelem gsnsltn gsn_layer2 gsn_module_examples_example_gsn_yaml" id="node_Sn3">
<title>
Sn3
</title>
<ellipse class="border" cx="354" cy="503" fill="none" rx="47" ry="47" stroke="black" stroke-width="1"/>
<text font-family="Arial" font-size="12" font-weight="bold" textLength="25" x="326" y="492">
Sn3
</text>
<text font-family="Arial" font-size="12" textLength="56" x="326" y="512">
Solution 3
</text>
</g>
<g class="gsnelem gsnsltn gsn_module_examples_example_gsn_yaml" id="node_Sn5">
<title>
Sn5
</title>
<ellipse class="border" cx="488" cy="503" fill="none" rx="47" ry="47" stroke="black" stroke-width="1"/>
<text font-family="Arial" font-size="12" font-weight="bold" textLength="25" x="460" y="492">
Sn5
</text>
<text font-family="Arial" font-size="12" textLength="56" x="460" y="512">
Solution 5
</text>
</g>
<g class="gsnelem gsnsltn gsn_layer1 gsn_layer2 gsn_module_examples_example_gsn_yaml" id="node_Sn2">
<title>
Sn2
</title>
<ellipse class="border" cx="622" cy="503" fill="none" rx="47" ry="47" stroke="black" stroke-width="1"/>
<text font-family="Arial" font-size="12" font-weight="bold" textLength="25" x="594" y="492">
Sn2
</text>
<text font-family="Arial" font-size="12" textLength="56" x="594" y="512">
Solution 2
</text>
</g>
<path class="gsnedge gsninspby" d="M637,70 C637,100,354,80,354,100" fill="none" marker-end="url(#supportedby_arrow)" stroke="black" stroke-width="1"/>
<path class="gsnedge gsninspby" d="M637,70 C637,100,920,80,920,100" fill="none" marker-end="url(#supportedby_arrow)" stroke="black" stroke-width="1"/>
<path class="gsnedge gsninspby" d="M637,70 C637,100,776,192,776,212" fill="none" marker-end="url(#supportedby_arrow)" stroke="black" stroke-width="1"/>
<path class="gsnedge gsninspby" d="M354,160 C354,190,354,192,354,212" fill="none" marker-end="url(#supportedby_arrow)" stroke="black" stroke-width="1"/>
<path class="gsnedge gsninctxt" d="M962,135 C962,135,972,135,992,135" fill="none" marker-end="url(#incontextof_arrow)" stroke="black" stroke-width="1"/>
<path class="gsnedge gsninspby" d="M920,160 C920,190,920,170,920,190" fill="none" marker-end="url(#supportedby_arrow)" stroke="black" stroke-width="1"/>
<path class="gsnedge gsninctxt" d="M664,375 C664,375,674,375,694,375" fill="none" marker-end="url(#incontextof_arrow)" stroke="black" stroke-width="1"/>
<path class="gsnedge gsninspby" d="M622,400 C622,430,622,426,622,446" fill="none" marker-end="url(#supportedby_arrow)" stroke="black" stroke-width="1"/>
<path class="gsnedge gsninctxt" d="M262,375 C262,375,272,375,292,375" fill="none" marker-end="url(#incontextof_arrow)" stroke="black" stroke-width="1"/>
<path class="gsnedge gsninctxt" d="M178,375 C178,375,168,375,148,375" fill="none" marker-end="url(#incontextof_arrow)" stroke="black" stroke-width="1"/>
<path class="gsnedge gsninspby" d="M220,400 C220,430,354,426,354,446" fill="none" marker-end="url(#supportedby_arrow)" stroke="black" stroke-width="1"/>
<path class="gsnedge gsninspby" d="M220,400 C220,430,220,426,220,446" fill="none" marker-end="url(#supportedby_arrow)" stroke="black" stroke-width="1"/>
<path class="gsnedge gsninspby" d="M488,400 C488,430,354,426,354,446" fill="none" marker-end="url(#supportedby_arrow)" stroke="black" stroke-width="1"/>
<path class="gsnedge gsninspby" d="M488,400 C488,430,488,426,488,446" fill="none" marker-end="url(#supportedby_arrow)" stroke="black" stroke-width="1"/>
<path class="gsnedge gsninctxt" d="M411,247 C411,247,421,247,441,247" fill="none" marker-end="url(#incontextof_arrow)" stroke="black" stroke-width="1"/>
<path class="gsnedge gsninctxt" d="M297,247 C297,247,287,247,267,247" fill="none" marker-end="url(#incontextof_arrow)" stroke="black" stroke-width="1"/>
<path class="gsnedge gsninspby" d="M354,272 C354,302,220,320,220,340" fill="none" marker-end="url(#supportedby_arrow)" stroke="black" stroke-width="1"/>
<path class="gsnedge gsninspby" d="M354,272 C354,302,488,320,488,340" fill="none" marker-end="url(#supportedby_arrow)" stroke="black" stroke-width="1"/>
<path class="gsnedge gsninspby" d="M776,272 C776,302,622,320,622,340" fill="none" marker-end="url(#supportedby_arrow)" stroke="black" stroke-width="1"/>
<path class="gsnedge gsninspby" d="M776,272 C776,302,930,317,930,337" fill="none" marker-end="url(#supportedby_arrow)" stroke="black" stroke-width="1"/>
</svg>