<svg viewBox="0 0 1500 1500" xmlns="http://www.w3.org/2000/svg">
<marker id="supportedby_arrow" markerHeight="9" markerUnits="users_posaceOnUse" markerWidth="10" orient="auto" refX="0" refY="4.5">
<polyline fill="black" points="0 0, 10 4.5, 0 9"/>
</marker>
<marker id="incontextof_arrow" markerHeight="9" markerUnits="users_posaceOnUse" markerWidth="10" orient="auto" refX="0" refY="4.5">
<polyline fill="none" points="0 0, 10 4.5, 0 9, 0 0" stroke="black" stroke-width="1"/>
</marker>
<g>
<title>
C1
</title>
<path d="M30,20 L110,20 C120,20,120,66,110,66 L30,66 C20,66,20,20,30,20" fill="none" stroke="black" stroke-width="1"/>
<text font-family="Arial" font-size="12" font-weight="bold" x="30" y="38">
C1
</text>
<text font-family="Arial" font-size="12" textLength="70" x="30" y="58">
some context
</text>
</g>
<g>
<title>
A1
</title>
<ellipse cx="70" cy="126" fill="none" rx="50" ry="30" stroke="black" stroke-width="1"/>
<text font-family="Arial" font-size="12" font-weight="bold" x="37" y="114">
A1
</text>
<text font-family="Arial" font-size="12" font-weight="bold" x="115" y="151">
A
</text>
<text font-family="Arial" font-size="12" textLength="79" x="25" y="134">
teadskfasjdfjne
</text>
</g>
<g>
<title>
G1
</title>
<path d="M161,62 L381,62 L381,124 L161,124 z" fill="none" stroke="black" stroke-width="1"/>
<text font-family="Arial" font-size="12" font-weight="bold" x="168" y="82">
G1
</text>
<text font-family="Arial" font-size="12" textLength="207" x="168" y="102">
My extremely very, very, very, long Goal
</text>
<text font-family="Arial" font-size="12" textLength="58" x="168" y="115">
dEscription
</text>
</g>
<g>
<title>
J1
</title>
<ellipse cx="537" cy="93" fill="none" rx="116" ry="33" stroke="black" stroke-width="1"/>
<text font-family="Arial" font-size="12" font-weight="bold" x="455" y="78">
J1
</text>
<text font-family="Arial" font-size="12" font-weight="bold" x="648" y="121">
J
</text>
<text font-family="Arial" font-size="12" textLength="195" x="426" y="98">
lalalsfa wrnasdf asdfa sdf asdlmösgm
</text>
<text font-family="Arial" font-size="12" textLength="129" x="426" y="111">
qwjsnf asndflan asdfa as
</text>
</g>
<g/>
<g>
<title>
S1
</title>
<path d="M189,245 L288,245 L273,295 L174,295 z" fill="none" stroke="black" stroke-width="1"/>
<text font-family="Arial" font-size="12" font-weight="bold" x="196" y="265">
S1
</text>
<text font-family="Arial" font-size="12" textLength="64" x="181" y="285">
test strategy
</text>
</g>
<g/>
<g>
<title>
G4
</title>
<path d="M440,245 L524,245 L524,295 L440,295 z" fill="none" stroke="black" stroke-width="1"/>
<text font-family="Arial" font-size="12" font-weight="bold" x="447" y="265">
G4
</text>
<text font-family="Arial" font-size="12" textLength="71" x="447" y="285">
circle di circle
</text>
</g>
<g/>
<g>
<title>
Sn4
</title>
<ellipse cx="780" cy="270" fill="none" rx="64" ry="64" stroke="black" stroke-width="1"/>
<text font-family="Arial" font-size="12" font-weight="bold" x="737" y="224">
Sn4
</text>
<text font-family="Arial" font-size="12" textLength="119" x="721" y="244">
another forced solution
</text>
</g>
<g/>
<g>
<title>
Sn2
</title>
<ellipse cx="77" cy="431" fill="none" rx="57" ry="57" stroke="black" stroke-width="1"/>
<text font-family="Arial" font-size="12" font-weight="bold" x="39" y="392">
Sn2
</text>
<text font-family="Arial" font-size="12" textLength="105" x="25" y="412">
test another solution
</text>
</g>
<g>
<title>
Sn1
</title>
<ellipse cx="210" cy="431" fill="none" rx="36" ry="36" stroke="black" stroke-width="1"/>
<text font-family="Arial" font-size="12" font-weight="bold" x="188" y="413">
Sn1
</text>
<text font-family="Arial" font-size="12" textLength="62" x="179" y="433">
test solution
</text>
</g>
<g>
<title>
G2
</title>
<path d="M286,404 L508,404 L508,458 L286,458 z" fill="none" stroke="black" stroke-width="1"/>
<text font-family="Arial" font-size="12" font-weight="bold" x="293" y="424">
G2
</text>
<text font-family="Arial" font-size="12" textLength="209" x="293" y="444">
undeveloped undeveloped undeveloped
</text>
<path d="M397,458 l5,5 l-5,5 l-5,-5 z" fill="none" stroke="black" stroke-width="1"/>
</g>
<g/>
<g>
<title>
Sn3
</title>
<ellipse cx="748" cy="431" fill="none" rx="56" ry="56" stroke="black" stroke-width="1"/>
<text font-family="Arial" font-size="12" font-weight="bold" x="711" y="393">
Sn3
</text>
<text font-family="Arial" font-size="12" textLength="103" x="697" y="413">
yet another solution
</text>
</g>
<g>
<title>
G5
</title>
<path d="M844,406 L928,406 L928,456 L844,456 z" fill="none" stroke="black" stroke-width="1"/>
<text font-family="Arial" font-size="12" font-weight="bold" x="851" y="426">
G5
</text>
<text font-family="Arial" font-size="12" textLength="71" x="851" y="446">
elcric id elcric
</text>
</g>
<g>
<title>
G3
</title>
<path d="M20,528 L124,528 L124,578 L20,578 z" fill="none" stroke="black" stroke-width="1"/>
<text font-family="Arial" font-size="12" font-weight="bold" x="27" y="548">
G3
</text>
<text font-family="Arial" font-size="12" textLength="90" x="27" y="568">
sub di dub di dub
</text>
</g>
<path d="M161,93 C161,93,140,43,130,43" fill="none" marker-end="url(#incontextof_arrow)" stroke="black" stroke-width="1"/>
<path d="M271,124 C271,144,77,354,77,364" fill="none" marker-end="url(#supportedby_arrow)" stroke="black" stroke-width="1"/>
<path d="M271,124 C271,144,231,225,231,235" fill="none" marker-end="url(#supportedby_arrow)" stroke="black" stroke-width="1"/>
<path d="M381,93 C381,93,401,93,411,93" fill="none" marker-end="url(#incontextof_arrow)" stroke="black" stroke-width="1"/>
<path d="M161,93 C161,93,140,126,130,126" fill="none" marker-end="url(#incontextof_arrow)" stroke="black" stroke-width="1"/>
<path d="M271,124 C271,144,482,225,482,235" fill="none" marker-end="url(#supportedby_arrow)" stroke="black" stroke-width="1"/>
<path d="M271,124 C271,144,886,386,886,396" fill="none" marker-end="url(#supportedby_arrow)" stroke="black" stroke-width="1"/>
<path d="M482,295 C482,315,748,355,748,365" fill="none" marker-end="url(#supportedby_arrow)" stroke="black" stroke-width="1"/>
<path d="M524,270 C524,270,696,270,706,270" fill="none" marker-end="url(#supportedby_arrow)" stroke="black" stroke-width="1"/>
<path d="M844,431 C844,431,824,431,814,431" fill="none" marker-end="url(#supportedby_arrow)" stroke="black" stroke-width="1"/>
<path d="M231,295 C231,315,210,375,210,385" fill="none" marker-end="url(#supportedby_arrow)" stroke="black" stroke-width="1"/>
<path d="M231,295 C231,315,397,384,397,394" fill="none" marker-end="url(#supportedby_arrow)" stroke="black" stroke-width="1"/>
<path d="M231,295 C231,315,72,508,72,518" fill="none" marker-end="url(#supportedby_arrow)" stroke="black" stroke-width="1"/>
</svg>