<svg viewBox="0 0 1500 1500" xmlns="http://www.w3.org/2000/svg">
<marker id="supportedby_arrow" markerHeight="9" markerUnits="users_posaceOnUse" markerWidth="10" orient="auto" refX="0" refY="4.5">
<polyline fill="black" points="0 0, 10 4.5, 0 9"/>
</marker>
<marker id="incontextof_arrow" markerHeight="9" markerUnits="users_posaceOnUse" markerWidth="10" orient="auto" refX="0" refY="4.5">
<polyline fill="none" points="0 0, 10 4.5, 0 9, 0 0" stroke="black" stroke-width="1"/>
</marker>
<g>
<title>
A1
</title>
<ellipse cx="70" cy="50" fill="none" rx="50" ry="30" stroke="black" stroke-width="1"/>
<text font-family="Arial" font-size="12" font-weight="bold" x="37" y="38">
A1
</text>
<text font-family="Arial" font-size="12" font-weight="bold" x="115" y="75">
A
</text>
<text font-family="Arial" font-size="12" textLength="79" x="25" y="58">
teadskfasjdfjne
</text>
</g>
<g>
<title>
C1
</title>
<path d="M170,20 L250,20 C260,20,260,66,250,66 L170,66 C160,66,160,20,170,20" fill="none" stroke="black" stroke-width="1"/>
<text font-family="Arial" font-size="12" font-weight="bold" x="170" y="38">
C1
</text>
<text font-family="Arial" font-size="12" textLength="70" x="170" y="58">
some context
</text>
</g>
<g>
<title>
G1
</title>
<path d="M300,20 L536,20 L536,78 L300,78 z" fill="none" stroke="black" stroke-width="1"/>
<text font-family="Arial" font-size="12" font-weight="bold" x="315" y="38">
G1
</text>
<text font-family="Arial" font-size="12" textLength="207" x="315" y="58">
My extremely very, very, very, long Goal
</text>
<text font-family="Arial" font-size="12" textLength="58" x="315" y="71">
dEscription
</text>
</g>
<g>
<title>
J1
</title>
<ellipse cx="692" cy="53" fill="none" rx="116" ry="33" stroke="black" stroke-width="1"/>
<text font-family="Arial" font-size="12" font-weight="bold" x="610" y="38">
J1
</text>
<text font-family="Arial" font-size="12" font-weight="bold" x="803" y="81">
J
</text>
<text font-family="Arial" font-size="12" textLength="195" x="581" y="58">
lalalsfa wrnasdf asdfa sdf asdlmösgm
</text>
<text font-family="Arial" font-size="12" textLength="129" x="581" y="71">
qwjsnf asndflan asdfa as
</text>
</g>
<g>
<title>
G4
</title>
<path d="M20,127 L120,127 L120,173 L20,173 z" fill="none" stroke="black" stroke-width="1"/>
<text font-family="Arial" font-size="12" font-weight="bold" x="35" y="145">
G4
</text>
<text font-family="Arial" font-size="12" textLength="71" x="35" y="165">
circle di circle
</text>
</g>
<g>
<title>
S1
</title>
<path d="M175,127 L260,127 L245,173 L160,173 z" fill="none" stroke="black" stroke-width="1"/>
<text font-family="Arial" font-size="12" font-weight="bold" x="190" y="145">
S1
</text>
<text font-family="Arial" font-size="12" textLength="64" x="175" y="165">
test strategy
</text>
</g>
<g>
<title>
G2
</title>
<path d="M20,213 L190,213 L190,263 L20,263 z" fill="none" stroke="black" stroke-width="1"/>
<text font-family="Arial" font-size="12" font-weight="bold" x="35" y="231">
G2
</text>
<text font-family="Arial" font-size="12" textLength="141" x="35" y="251">
under lighted, undeveloped
</text>
<path d="M105,263 l5,5 l-5,5 l-5,-5 z" fill="none" stroke="black" stroke-width="1"/>
</g>
<g>
<title>
G5
</title>
<path d="M230,213 L330,213 L330,259 L230,259 z" fill="none" stroke="black" stroke-width="1"/>
<text font-family="Arial" font-size="12" font-weight="bold" x="245" y="231">
G5
</text>
<text font-family="Arial" font-size="12" textLength="71" x="245" y="251">
elcric id elcric
</text>
</g>
<g>
<title>
Sn1
</title>
<ellipse cx="405" cy="248" fill="none" rx="35" ry="35" stroke="black" stroke-width="1"/>
<text font-family="Arial" font-size="12" font-weight="bold" x="383" y="231">
Sn1
</text>
<text font-family="Arial" font-size="12" textLength="62" x="375" y="251">
test solution
</text>
</g>
<g>
<title>
Sn2
</title>
<ellipse cx="537" cy="270" fill="none" rx="57" ry="57" stroke="black" stroke-width="1"/>
<text font-family="Arial" font-size="12" font-weight="bold" x="499" y="231">
Sn2
</text>
<text font-family="Arial" font-size="12" textLength="105" x="485" y="251">
test another solution
</text>
</g>
<g>
<title>
Sn3
</title>
<ellipse cx="236" cy="423" fill="none" rx="56" ry="56" stroke="black" stroke-width="1"/>
<text font-family="Arial" font-size="12" font-weight="bold" x="199" y="385">
Sn3
</text>
<text font-family="Arial" font-size="12" textLength="103" x="185" y="405">
yet another solution
</text>
</g>
<g>
<title>
G3
</title>
<path d="M20,367 L140,367 L140,413 L20,413 z" fill="none" stroke="black" stroke-width="1"/>
<text font-family="Arial" font-size="12" font-weight="bold" x="35" y="385">
G3
</text>
<text font-family="Arial" font-size="12" textLength="90" x="35" y="405">
sub di dub di dub
</text>
</g>
<g>
<title>
Sn3
</title>
<ellipse cx="236" cy="423" fill="none" rx="56" ry="56" stroke="black" stroke-width="1"/>
<text font-family="Arial" font-size="12" font-weight="bold" x="199" y="385">
Sn3
</text>
<text font-family="Arial" font-size="12" textLength="103" x="185" y="405">
yet another solution
</text>
</g>
<path d="M300,49 C300,49,280,43,270,43" fill="none" marker-end="url(#incontextof_arrow)" stroke="black" stroke-width="1"/>
<path d="M418,78 C418,98,537,193,537,203" fill="none" marker-end="url(#supportedby_arrow)" stroke="black" stroke-width="1"/>
<path d="M418,78 C418,98,210,107,210,117" fill="none" marker-end="url(#supportedby_arrow)" stroke="black" stroke-width="1"/>
<path d="M536,49 C536,49,556,53,566,53" fill="none" marker-end="url(#incontextof_arrow)" stroke="black" stroke-width="1"/>
<path d="M300,49 C300,49,140,50,130,50" fill="none" marker-end="url(#incontextof_arrow)" stroke="black" stroke-width="1"/>
<path d="M418,78 C418,98,70,107,70,117" fill="none" marker-end="url(#supportedby_arrow)" stroke="black" stroke-width="1"/>
<path d="M418,78 C418,98,280,193,280,203" fill="none" marker-end="url(#supportedby_arrow)" stroke="black" stroke-width="1"/>
<path d="M70,173 C70,193,236,347,236,357" fill="none" marker-end="url(#supportedby_arrow)" stroke="black" stroke-width="1"/>
<path d="M280,259 C280,279,236,347,236,357" fill="none" marker-end="url(#supportedby_arrow)" stroke="black" stroke-width="1"/>
<path d="M210,173 C210,193,405,193,405,203" fill="none" marker-end="url(#supportedby_arrow)" stroke="black" stroke-width="1"/>
<path d="M210,173 C210,193,105,193,105,203" fill="none" marker-end="url(#supportedby_arrow)" stroke="black" stroke-width="1"/>
<path d="M210,173 C210,193,80,347,80,357" fill="none" marker-end="url(#supportedby_arrow)" stroke="black" stroke-width="1"/>
</svg>