<svg viewBox="0 0 1500 1500" xmlns="http://www.w3.org/2000/svg">
<marker id="supportedby_arrow" markerHeight="9" markerUnits="users_posaceOnUse" markerWidth="10" orient="auto" refX="0" refY="4.5">
<polyline fill="black" points="0 0, 10 4.5, 0 9"/>
</marker>
<marker id="incontextof_arrow" markerHeight="9" markerUnits="users_posaceOnUse" markerWidth="10" orient="auto" refX="0" refY="4.5">
<polyline fill="none" points="0 0, 10 4.5, 0 9, 0 0" stroke="black" stroke-width="1"/>
</marker>
<g>
<title>
C1
</title>
<path d="M30,54 L110,54 C120,54,120,100,110,100 L30,100 C20,100,20,54,30,54" fill="none" stroke="black" stroke-width="1"/>
<text font-family="Arial" font-size="12" font-weight="bold" x="30" y="72">
C1
</text>
<text font-family="Arial" font-size="12" textLength="70" x="30" y="92">
some context
</text>
</g>
<g>
<title>
A1
</title>
<ellipse cx="210" cy="77" fill="none" rx="50" ry="30" stroke="black" stroke-width="1"/>
<text font-family="Arial" font-size="12" font-weight="bold" x="177" y="65">
A1
</text>
<text font-family="Arial" font-size="12" font-weight="bold" x="255" y="102">
A
</text>
<text font-family="Arial" font-size="12" textLength="79" x="165" y="85">
teadskfasjdfjne
</text>
</g>
<g>
<title>
G1
</title>
<path d="M300,48 L536,48 L536,106 L300,106 z" fill="none" stroke="black" stroke-width="1"/>
<text font-family="Arial" font-size="12" font-weight="bold" x="315" y="66">
G1
</text>
<text font-family="Arial" font-size="12" textLength="207" x="315" y="86">
My extremely very, very, very, long Goal
</text>
<text font-family="Arial" font-size="12" textLength="58" x="315" y="99">
dEscription
</text>
</g>
<g>
<title>
J1
</title>
<ellipse cx="692" cy="77" fill="none" rx="116" ry="33" stroke="black" stroke-width="1"/>
<text font-family="Arial" font-size="12" font-weight="bold" x="610" y="62">
J1
</text>
<text font-family="Arial" font-size="12" font-weight="bold" x="803" y="105">
J
</text>
<text font-family="Arial" font-size="12" textLength="195" x="581" y="82">
lalalsfa wrnasdf asdfa sdf asdlmösgm
</text>
<text font-family="Arial" font-size="12" textLength="129" x="581" y="95">
qwjsnf asndflan asdfa as
</text>
</g>
<g/>
<g/>
<g/>
<g/>
<g/>
<g>
<title>
S1
</title>
<path d="M189,215 L274,215 L259,261 L174,261 z" fill="none" stroke="black" stroke-width="1"/>
<text font-family="Arial" font-size="12" font-weight="bold" x="204" y="233">
S1
</text>
<text font-family="Arial" font-size="12" textLength="64" x="189" y="253">
test strategy
</text>
</g>
<g/>
<g/>
<g/>
<g>
<title>
G4
</title>
<path d="M794,215 L894,215 L894,261 L794,261 z" fill="none" stroke="black" stroke-width="1"/>
<text font-family="Arial" font-size="12" font-weight="bold" x="809" y="233">
G4
</text>
<text font-family="Arial" font-size="12" textLength="71" x="809" y="253">
circle di circle
</text>
</g>
<g/>
<g>
<title>
Sn4
</title>
<ellipse cx="1150" cy="238" fill="none" rx="64" ry="64" stroke="black" stroke-width="1"/>
<text font-family="Arial" font-size="12" font-weight="bold" x="1107" y="192">
Sn4
</text>
<text font-family="Arial" font-size="12" textLength="119" x="1091" y="212">
another forced solution
</text>
</g>
<g/>
<g>
<title>
Sn2
</title>
<ellipse cx="77" cy="399" fill="none" rx="57" ry="57" stroke="black" stroke-width="1"/>
<text font-family="Arial" font-size="12" font-weight="bold" x="39" y="360">
Sn2
</text>
<text font-family="Arial" font-size="12" textLength="105" x="25" y="380">
test another solution
</text>
</g>
<g>
<title>
Sn1
</title>
<ellipse cx="209" cy="399" fill="none" rx="35" ry="35" stroke="black" stroke-width="1"/>
<text font-family="Arial" font-size="12" font-weight="bold" x="187" y="382">
Sn1
</text>
<text font-family="Arial" font-size="12" textLength="62" x="179" y="402">
test solution
</text>
</g>
<g>
<title>
G2
</title>
<path d="M284,374 L454,374 L454,424 L284,424 z" fill="none" stroke="black" stroke-width="1"/>
<text font-family="Arial" font-size="12" font-weight="bold" x="299" y="392">
G2
</text>
<text font-family="Arial" font-size="12" textLength="141" x="299" y="412">
under lighted, undeveloped
</text>
<path d="M369,424 l5,5 l-5,5 l-5,-5 z" fill="none" stroke="black" stroke-width="1"/>
</g>
<g/>
<g>
<title>
Sn3
</title>
<ellipse cx="710" cy="399" fill="none" rx="56" ry="56" stroke="black" stroke-width="1"/>
<text font-family="Arial" font-size="12" font-weight="bold" x="673" y="361">
Sn3
</text>
<text font-family="Arial" font-size="12" textLength="103" x="659" y="381">
yet another solution
</text>
</g>
<g>
<title>
G5
</title>
<path d="M806,376 L906,376 L906,422 L806,422 z" fill="none" stroke="black" stroke-width="1"/>
<text font-family="Arial" font-size="12" font-weight="bold" x="821" y="394">
G5
</text>
<text font-family="Arial" font-size="12" textLength="71" x="821" y="414">
elcric id elcric
</text>
</g>
<g>
<title>
G3
</title>
<path d="M20,496 L140,496 L140,542 L20,542 z" fill="none" stroke="black" stroke-width="1"/>
<text font-family="Arial" font-size="12" font-weight="bold" x="35" y="514">
G3
</text>
<text font-family="Arial" font-size="12" textLength="90" x="35" y="534">
sub di dub di dub
</text>
</g>
<path d="M300,77 C300,77,140,77,130,77" fill="none" marker-end="url(#incontextof_arrow)" stroke="black" stroke-width="1"/>
<path d="M418,106 C418,126,77,322,77,332" fill="none" marker-end="url(#supportedby_arrow)" stroke="black" stroke-width="1"/>
<path d="M418,106 C418,126,224,195,224,205" fill="none" marker-end="url(#supportedby_arrow)" stroke="black" stroke-width="1"/>
<path d="M536,77 C536,77,556,77,566,77" fill="none" marker-end="url(#incontextof_arrow)" stroke="black" stroke-width="1"/>
<path d="M300,77 C300,77,280,77,270,77" fill="none" marker-end="url(#incontextof_arrow)" stroke="black" stroke-width="1"/>
<path d="M418,106 C418,126,844,195,844,205" fill="none" marker-end="url(#supportedby_arrow)" stroke="black" stroke-width="1"/>
<path d="M418,106 C418,126,856,356,856,366" fill="none" marker-end="url(#supportedby_arrow)" stroke="black" stroke-width="1"/>
<path d="M844,261 C844,281,710,323,710,333" fill="none" marker-end="url(#supportedby_arrow)" stroke="black" stroke-width="1"/>
<path d="M894,238 C894,238,1066,238,1076,238" fill="none" marker-end="url(#supportedby_arrow)" stroke="black" stroke-width="1"/>
<path d="M806,399 C806,399,786,399,776,399" fill="none" marker-end="url(#supportedby_arrow)" stroke="black" stroke-width="1"/>
<path d="M224,261 C224,281,209,344,209,354" fill="none" marker-end="url(#supportedby_arrow)" stroke="black" stroke-width="1"/>
<path d="M224,261 C224,281,369,354,369,364" fill="none" marker-end="url(#supportedby_arrow)" stroke="black" stroke-width="1"/>
<path d="M224,261 C224,281,80,476,80,486" fill="none" marker-end="url(#supportedby_arrow)" stroke="black" stroke-width="1"/>
</svg>