<svg viewBox="0 0 1200 600" xmlns="http://www.w3.org/2000/svg">
<marker id="supportedby_arrow" markerHeight="9" markerUnits="users_posaceOnUse" markerWidth="10" orient="auto" refX="0" refY="4.5">
<polyline fill="black" points="0 0, 10 4.5, 0 9"/>
</marker>
<marker id="incontextof_arrow" markerHeight="9" markerUnits="users_posaceOnUse" markerWidth="10" orient="auto" refX="0" refY="4.5">
<polyline fill="none" points="0 0, 10 4.5, 0 9, 0 0" stroke="black" stroke-width="1"/>
</marker>
<g>
<title>
J1
</title>
<ellipse cx="136" cy="95" fill="none" rx="116" ry="40" stroke="black" stroke-width="1"/>
<text font-family="Arial" font-size="12" font-weight="bold" x="39" y="77">
J1
</text>
<text font-family="Arial" font-size="12" font-weight="bold" x="247" y="130">
J
</text>
<text font-family="Arial" font-size="12" textLength="195" x="39" y="97">
lalalsfa wrnasdf asdfa sdf asdlmösgm
</text>
<text font-family="Arial" font-size="12" textLength="129" x="39" y="110">
qwjsnf asndflan asdfa as
</text>
</g>
<g>
<title>
G1
</title>
<path d="M292,64 L512,64 L512,126 L292,126 z" fill="none" stroke="black" stroke-width="1"/>
<text font-family="Arial" font-size="12" font-weight="bold" x="299" y="84">
G1
</text>
<text font-family="Arial" font-size="12" textLength="207" x="299" y="104">
My extremely very, very, very, long Goal
</text>
<text font-family="Arial" font-size="12" textLength="58" x="299" y="117">
dEscription
</text>
</g>
<g>
<title>
C1
</title>
<path d="M562,20 L642,20 C652,20,652,66,642,66 L562,66 C552,66,552,20,562,20" fill="none" stroke="black" stroke-width="1"/>
<text font-family="Arial" font-size="12" font-weight="bold" x="562" y="38">
C1
</text>
<text font-family="Arial" font-size="12" textLength="70" x="562" y="58">
some context
</text>
</g>
<g>
<title>
A1
</title>
<ellipse cx="602" cy="128" fill="none" rx="50" ry="32" stroke="black" stroke-width="1"/>
<text font-family="Arial" font-size="12" font-weight="bold" x="563" y="117">
A1
</text>
<text font-family="Arial" font-size="12" font-weight="bold" x="647" y="155">
A
</text>
<text font-family="Arial" font-size="12" textLength="79" x="563" y="137">
teadskfasjdfjne
</text>
</g>
<g/>
<g>
<title>
S1
</title>
<path d="M191,251 L290,251 L275,301 L176,301 z" fill="none" stroke="black" stroke-width="1"/>
<text font-family="Arial" font-size="12" font-weight="bold" x="198" y="271">
S1
</text>
<text font-family="Arial" font-size="12" textLength="64" x="183" y="291">
test strategy
</text>
</g>
<g/>
<g>
<title>
G4
</title>
<path d="M442,251 L526,251 L526,301 L442,301 z" fill="none" stroke="black" stroke-width="1"/>
<text font-family="Arial" font-size="12" font-weight="bold" x="449" y="271">
G4
</text>
<text font-family="Arial" font-size="12" textLength="71" x="449" y="291">
circle di circle
</text>
</g>
<g/>
<g>
<title>
Sn4
</title>
<ellipse cx="785" cy="276" fill="none" rx="65" ry="65" stroke="black" stroke-width="1"/>
<text font-family="Arial" font-size="12" font-weight="bold" x="726" y="265">
Sn4
</text>
<text font-family="Arial" font-size="12" textLength="119" x="726" y="285">
another forced solution
</text>
</g>
<g/>
<g>
<title>
Sn2
</title>
<ellipse cx="78" cy="439" fill="none" rx="58" ry="58" stroke="black" stroke-width="1"/>
<text font-family="Arial" font-size="12" font-weight="bold" x="26" y="428">
Sn2
</text>
<text font-family="Arial" font-size="12" textLength="105" x="26" y="448">
test another solution
</text>
</g>
<g>
<title>
Sn1
</title>
<ellipse cx="212" cy="439" fill="none" rx="36" ry="36" stroke="black" stroke-width="1"/>
<text font-family="Arial" font-size="12" font-weight="bold" x="181" y="428">
Sn1
</text>
<text font-family="Arial" font-size="12" textLength="62" x="181" y="448">
test solution
</text>
</g>
<g>
<title>
G2
</title>
<path d="M288,412 L510,412 L510,466 L288,466 z" fill="none" stroke="black" stroke-width="1"/>
<text font-family="Arial" font-size="12" font-weight="bold" x="295" y="432">
G2
</text>
<text font-family="Arial" font-size="12" textLength="209" x="295" y="452">
undeveloped undeveloped undeveloped
</text>
<path d="M399,466 l5,5 l-5,5 l-5,-5 z" fill="none" stroke="black" stroke-width="1"/>
</g>
<g/>
<g>
<title>
Sn3
</title>
<ellipse cx="751" cy="439" fill="none" rx="57" ry="57" stroke="black" stroke-width="1"/>
<text font-family="Arial" font-size="12" font-weight="bold" x="700" y="428">
Sn3
</text>
<text font-family="Arial" font-size="12" textLength="103" x="700" y="448">
yet another solution
</text>
</g>
<g>
<title>
G5
</title>
<path d="M848,414 L932,414 L932,464 L848,464 z" fill="none" stroke="black" stroke-width="1"/>
<text font-family="Arial" font-size="12" font-weight="bold" x="855" y="434">
G5
</text>
<text font-family="Arial" font-size="12" textLength="71" x="855" y="454">
elcric id elcric
</text>
</g>
<g>
<title>
J2
</title>
<ellipse cx="1083" cy="439" fill="none" rx="111" ry="47" stroke="black" stroke-width="1"/>
<text font-family="Arial" font-size="12" font-weight="bold" x="990" y="415">
J2
</text>
<text font-family="Arial" font-size="12" font-weight="bold" x="1189" y="481">
J
</text>
<text font-family="Arial" font-size="12" textLength="187" x="990" y="435">
asdfgasgnajkg aksdnnglert klnalsdn
</text>
<text font-family="Arial" font-size="12" textLength="167" x="990" y="448">
kölnsdg ljsmdg snnjk slls qwjsnf
</text>
<text font-family="Arial" font-size="12" textLength="92" x="990" y="461">
asndflan asdfa as
</text>
</g>
<g>
<title>
G3
</title>
<path d="M20,537 L124,537 L124,587 L20,587 z" fill="none" stroke="black" stroke-width="1"/>
<text font-family="Arial" font-size="12" font-weight="bold" x="27" y="557">
G3
</text>
<text font-family="Arial" font-size="12" textLength="90" x="27" y="577">
sub di dub di dub
</text>
</g>
<path d="M512,95 C512,95,532,43,542,43" fill="none" marker-end="url(#incontextof_arrow)" stroke="black" stroke-width="1"/>
<path d="M402,126 C402,146,78,361,78,371" fill="none" marker-end="url(#supportedby_arrow)" stroke="black" stroke-width="1"/>
<path d="M402,126 C402,146,233,231,233,241" fill="none" marker-end="url(#supportedby_arrow)" stroke="black" stroke-width="1"/>
<path d="M292,95 C292,95,272,95,262,95" fill="none" marker-end="url(#incontextof_arrow)" stroke="black" stroke-width="1"/>
<path d="M512,95 C512,95,532,128,542,128" fill="none" marker-end="url(#incontextof_arrow)" stroke="black" stroke-width="1"/>
<path d="M402,126 C402,146,484,231,484,241" fill="none" marker-end="url(#supportedby_arrow)" stroke="black" stroke-width="1"/>
<path d="M402,126 C402,146,890,394,890,404" fill="none" marker-end="url(#supportedby_arrow)" stroke="black" stroke-width="1"/>
<path d="M484,301 C484,321,751,362,751,372" fill="none" marker-end="url(#supportedby_arrow)" stroke="black" stroke-width="1"/>
<path d="M526,276 C526,276,700,276,710,276" fill="none" marker-end="url(#supportedby_arrow)" stroke="black" stroke-width="1"/>
<path d="M848,439 C848,439,828,439,818,439" fill="none" marker-end="url(#supportedby_arrow)" stroke="black" stroke-width="1"/>
<path d="M932,439 C932,439,952,439,962,439" fill="none" marker-end="url(#incontextof_arrow)" stroke="black" stroke-width="1"/>
<path d="M233,301 C233,321,212,383,212,393" fill="none" marker-end="url(#supportedby_arrow)" stroke="black" stroke-width="1"/>
<path d="M233,301 C233,321,399,392,399,402" fill="none" marker-end="url(#supportedby_arrow)" stroke="black" stroke-width="1"/>
<path d="M233,301 C233,321,72,517,72,527" fill="none" marker-end="url(#supportedby_arrow)" stroke="black" stroke-width="1"/>
</svg>