<svg viewBox="0 0 1500 600" xmlns="http://www.w3.org/2000/svg">
<marker id="supportedby_arrow" markerHeight="9" markerUnits="users_posaceOnUse" markerWidth="10" orient="auto" refX="0" refY="4.5">
<polyline fill="black" points="0 0, 10 4.5, 0 9"/>
</marker>
<marker id="incontextof_arrow" markerHeight="9" markerUnits="users_posaceOnUse" markerWidth="10" orient="auto" refX="0" refY="4.5">
<polyline fill="none" points="0 0, 10 4.5, 0 9, 0 0" stroke="black" stroke-width="1"/>
</marker>
<g>
<title>
J1
</title>
<ellipse cx="162" cy="102" fill="none" rx="142" ry="48" stroke="black" stroke-width="1"/>
<text font-family="Arial" font-size="12" font-weight="bold" x="65" y="84">
J1
</text>
<text font-family="Arial" font-size="12" font-weight="bold" x="299" y="145">
J
</text>
<text font-family="Arial" font-size="12" textLength="195" x="65" y="104">
lalalsfa wrnasdf asdfa sdf asdlmösgm
</text>
<text font-family="Arial" font-size="12" textLength="129" x="65" y="117">
qwjsnf asndflan asdfa as
</text>
</g>
<g>
<title>
G1
</title>
<path d="M344,71 L564,71 L564,133 L344,133 z" fill="none" stroke="black" stroke-width="1"/>
<text font-family="Arial" font-size="12" font-weight="bold" x="351" y="91">
G1
</text>
<text font-family="Arial" font-size="12" textLength="207" x="351" y="111">
My extremely very, very, very, long Goal
</text>
<text font-family="Arial" font-size="12" textLength="58" x="351" y="124">
dEscription
</text>
</g>
<g>
<title>
C1
</title>
<path d="M624,20 L704,20 C714,20,714,66,704,66 L624,66 C614,66,614,20,624,20" fill="none" stroke="black" stroke-width="1"/>
<text font-family="Arial" font-size="12" font-weight="bold" x="624" y="38">
C1
</text>
<text font-family="Arial" font-size="12" textLength="70" x="624" y="58">
some context
</text>
</g>
<g>
<title>
A1
</title>
<ellipse cx="664" cy="145" fill="none" rx="60" ry="39" stroke="black" stroke-width="1"/>
<text font-family="Arial" font-size="12" font-weight="bold" x="625" y="134">
A1
</text>
<text font-family="Arial" font-size="12" font-weight="bold" x="719" y="179">
A
</text>
<text font-family="Arial" font-size="12" textLength="79" x="625" y="154">
teadskfasjdfjne
</text>
</g>
<g/>
<g>
<title>
S1
</title>
<path d="M201,263 L300,263 L285,313 L186,313 z" fill="none" stroke="black" stroke-width="1"/>
<text font-family="Arial" font-size="12" font-weight="bold" x="208" y="283">
S1
</text>
<text font-family="Arial" font-size="12" textLength="64" x="193" y="303">
test strategy
</text>
</g>
<g>
<title>
G4
</title>
<path d="M340,263 L424,263 L424,313 L340,313 z" fill="none" stroke="black" stroke-width="1"/>
<text font-family="Arial" font-size="12" font-weight="bold" x="347" y="283">
G4
</text>
<text font-family="Arial" font-size="12" textLength="71" x="347" y="303">
circle di circle
</text>
</g>
<g/>
<g>
<title>
Sn2
</title>
<ellipse cx="83" cy="454" fill="none" rx="63" ry="63" stroke="black" stroke-width="1"/>
<text font-family="Arial" font-size="12" font-weight="bold" x="31" y="443">
Sn2
</text>
<text font-family="Arial" font-size="12" textLength="105" x="31" y="463">
test another solution
</text>
</g>
<g>
<title>
Sn1
</title>
<ellipse cx="227" cy="454" fill="none" rx="41" ry="41" stroke="black" stroke-width="1"/>
<text font-family="Arial" font-size="12" font-weight="bold" x="196" y="443">
Sn1
</text>
<text font-family="Arial" font-size="12" textLength="62" x="196" y="463">
test solution
</text>
</g>
<g>
<title>
G2
</title>
<path d="M308,427 L530,427 L530,481 L308,481 z" fill="none" stroke="black" stroke-width="1"/>
<text font-family="Arial" font-size="12" font-weight="bold" x="315" y="447">
G2
</text>
<text font-family="Arial" font-size="12" textLength="209" x="315" y="467">
undeveloped undeveloped undeveloped
</text>
<path d="M419,481 l5,5 l-5,5 l-5,-5 z" fill="none" stroke="black" stroke-width="1"/>
</g>
<g/>
<g>
<title>
Sn3
</title>
<ellipse cx="776" cy="454" fill="none" rx="62" ry="62" stroke="black" stroke-width="1"/>
<text font-family="Arial" font-size="12" font-weight="bold" x="725" y="443">
Sn3
</text>
<text font-family="Arial" font-size="12" textLength="103" x="725" y="463">
yet another solution
</text>
</g>
<g>
<title>
G5
</title>
<path d="M878,429 L962,429 L962,479 L878,479 z" fill="none" stroke="black" stroke-width="1"/>
<text font-family="Arial" font-size="12" font-weight="bold" x="885" y="449">
G5
</text>
<text font-family="Arial" font-size="12" textLength="71" x="885" y="469">
elcric id elcric
</text>
</g>
<g>
<title>
J2
</title>
<ellipse cx="1139" cy="454" fill="none" rx="137" ry="58" stroke="black" stroke-width="1"/>
<text font-family="Arial" font-size="12" font-weight="bold" x="1046" y="430">
J2
</text>
<text font-family="Arial" font-size="12" font-weight="bold" x="1271" y="507">
J
</text>
<text font-family="Arial" font-size="12" textLength="187" x="1046" y="450">
asdfgasgnajkg aksdnnglert klnalsdn
</text>
<text font-family="Arial" font-size="12" textLength="167" x="1046" y="463">
kölnsdg ljsmdg snnjk slls qwjsnf
</text>
<text font-family="Arial" font-size="12" textLength="92" x="1046" y="476">
asndflan asdfa as
</text>
</g>
<g>
<title>
G3
</title>
<path d="M20,602 L124,602 L124,652 L20,652 z" fill="none" stroke="black" stroke-width="1"/>
<text font-family="Arial" font-size="12" font-weight="bold" x="27" y="622">
G3
</text>
<text font-family="Arial" font-size="12" textLength="90" x="27" y="642">
sub di dub di dub
</text>
</g>
<g>
<title>
Sn4
</title>
<ellipse cx="234" cy="627" fill="none" rx="70" ry="70" stroke="black" stroke-width="1"/>
<text font-family="Arial" font-size="12" font-weight="bold" x="175" y="616">
Sn4
</text>
<text font-family="Arial" font-size="12" textLength="119" x="175" y="636">
another forced solution
</text>
</g>
<path d="M454,71 C454,41,664,96,664,76" fill="none" marker-end="url(#incontextof_arrow)" stroke="black" stroke-width="1"/>
<path d="M454,133 C454,163,243,233,243,253" fill="none" marker-end="url(#supportedby_arrow)" stroke="black" stroke-width="1"/>
<path d="M344,102 C344,102,334,102,314,102" fill="none" marker-end="url(#incontextof_arrow)" stroke="black" stroke-width="1"/>
<path d="M564,102 C564,102,574,145,594,145" fill="none" marker-end="url(#incontextof_arrow)" stroke="black" stroke-width="1"/>
<path d="M454,133 C454,163,382,233,382,253" fill="none" marker-end="url(#supportedby_arrow)" stroke="black" stroke-width="1"/>
<path d="M454,133 C454,163,83,258,83,288" fill="none" marker-end="" stroke="black" stroke-width="1"/>
<path d="M454,133 C454,163,506,258,506,288" fill="none" marker-end="" stroke="black" stroke-width="1"/>
<path d="M382,313 C382,343,776,362,776,382" fill="none" marker-end="url(#supportedby_arrow)" stroke="black" stroke-width="1"/>
<path d="M920,479 C920,509,234,527,234,547" fill="none" marker-end="url(#supportedby_arrow)" stroke="black" stroke-width="1"/>
<path d="M878,454 C878,454,868,454,848,454" fill="none" marker-end="url(#supportedby_arrow)" stroke="black" stroke-width="1"/>
<path d="M962,454 C962,454,972,454,992,454" fill="none" marker-end="url(#incontextof_arrow)" stroke="black" stroke-width="1"/>
<path d="M243,313 C243,343,227,383,227,403" fill="none" marker-end="url(#supportedby_arrow)" stroke="black" stroke-width="1"/>
<path d="M243,313 C243,343,419,397,419,417" fill="none" marker-end="url(#supportedby_arrow)" stroke="black" stroke-width="1"/>
<path d="M243,313 C243,343,622,424,622,454" fill="none" marker-end="" stroke="black" stroke-width="1"/>
<path d="M622,454 C622,484,72,572,72,592" fill="none" marker-end="url(#supportedby_arrow)" stroke="black" stroke-width="1"/>
<path d="M506,288 C506,318,920,399,920,419" fill="none" marker-end="url(#supportedby_arrow)" stroke="black" stroke-width="1"/>
<path d="M83,288 C83,318,83,361,83,381" fill="none" marker-end="url(#supportedby_arrow)" stroke="black" stroke-width="1"/>
</svg>