<svg viewBox="0 0 1500 1500" xmlns="http://www.w3.org/2000/svg">
<marker id="supportedby_arrow" markerHeight="9" markerUnits="users_posaceOnUse" markerWidth="10" orient="auto" refX="0" refY="4.5">
<polyline fill="black" points="0 0, 10 4.5, 0 9"/>
</marker>
<marker id="incontextof_arrow" markerHeight="9" markerUnits="users_posaceOnUse" markerWidth="10" orient="auto" refX="0" refY="4.5">
<polyline fill="none" points="0 0, 10 4.5, 0 9, 0 0" stroke="black" stroke-width="1"/>
</marker>
<g>
<title>
C1
</title>
<path d="M30,20 L110,20 C120,20,120,66,110,66 L30,66 C20,66,20,20,30,20" fill="none" stroke="black" stroke-width="1"/>
<text font-family="Arial" font-size="12" font-weight="bold" x="30" y="38">
C1
</text>
<text font-family="Arial" font-size="12" textLength="70" x="30" y="58">
some context
</text>
</g>
<g>
<title>
A1
</title>
<ellipse cx="210" cy="50" fill="none" rx="50" ry="30" stroke="black" stroke-width="1"/>
<text font-family="Arial" font-size="12" font-weight="bold" x="177" y="38">
A1
</text>
<text font-family="Arial" font-size="12" font-weight="bold" x="255" y="75">
A
</text>
<text font-family="Arial" font-size="12" textLength="79" x="165" y="58">
teadskfasjdfjne
</text>
</g>
<g>
<title>
G1
</title>
<path d="M300,20 L536,20 L536,78 L300,78 z" fill="none" stroke="black" stroke-width="1"/>
<text font-family="Arial" font-size="12" font-weight="bold" x="315" y="38">
G1
</text>
<text font-family="Arial" font-size="12" textLength="207" x="315" y="58">
My extremely very, very, very, long Goal
</text>
<text font-family="Arial" font-size="12" textLength="58" x="315" y="71">
dEscription
</text>
</g>
<g>
<title>
J1
</title>
<ellipse cx="692" cy="53" fill="none" rx="116" ry="33" stroke="black" stroke-width="1"/>
<text font-family="Arial" font-size="12" font-weight="bold" x="610" y="38">
J1
</text>
<text font-family="Arial" font-size="12" font-weight="bold" x="803" y="81">
J
</text>
<text font-family="Arial" font-size="12" textLength="195" x="581" y="58">
lalalsfa wrnasdf asdfa sdf asdlmösgm
</text>
<text font-family="Arial" font-size="12" textLength="129" x="581" y="71">
qwjsnf asndflan asdfa as
</text>
</g>
<g>
<title>
G4
</title>
<path d="M20,127 L120,127 L120,173 L20,173 z" fill="none" stroke="black" stroke-width="1"/>
<text font-family="Arial" font-size="12" font-weight="bold" x="35" y="145">
G4
</text>
<text font-family="Arial" font-size="12" textLength="71" x="35" y="165">
circle di circle
</text>
</g>
<g>
<title>
Sn4
</title>
<ellipse cx="224" cy="191" fill="none" rx="64" ry="64" stroke="black" stroke-width="1"/>
<text font-family="Arial" font-size="12" font-weight="bold" x="181" y="145">
Sn4
</text>
<text font-family="Arial" font-size="12" textLength="119" x="165" y="165">
another forced solution
</text>
</g>
<g>
<title>
S1
</title>
<path d="M343,127 L428,127 L413,173 L328,173 z" fill="none" stroke="black" stroke-width="1"/>
<text font-family="Arial" font-size="12" font-weight="bold" x="358" y="145">
S1
</text>
<text font-family="Arial" font-size="12" textLength="64" x="343" y="165">
test strategy
</text>
</g>
<g>
<title>
G2
</title>
<path d="M20,295 L190,295 L190,345 L20,345 z" fill="none" stroke="black" stroke-width="1"/>
<text font-family="Arial" font-size="12" font-weight="bold" x="35" y="313">
G2
</text>
<text font-family="Arial" font-size="12" textLength="141" x="35" y="333">
under lighted, undeveloped
</text>
<path d="M105,345 l5,5 l-5,5 l-5,-5 z" fill="none" stroke="black" stroke-width="1"/>
</g>
<g>
<title>
Sn3
</title>
<ellipse cx="286" cy="351" fill="none" rx="56" ry="56" stroke="black" stroke-width="1"/>
<text font-family="Arial" font-size="12" font-weight="bold" x="249" y="313">
Sn3
</text>
<text font-family="Arial" font-size="12" textLength="103" x="235" y="333">
yet another solution
</text>
</g>
<g>
<title>
Sn1
</title>
<ellipse cx="417" cy="330" fill="none" rx="35" ry="35" stroke="black" stroke-width="1"/>
<text font-family="Arial" font-size="12" font-weight="bold" x="395" y="313">
Sn1
</text>
<text font-family="Arial" font-size="12" textLength="62" x="387" y="333">
test solution
</text>
</g>
<g>
<title>
Sn2
</title>
<ellipse cx="549" cy="352" fill="none" rx="57" ry="57" stroke="black" stroke-width="1"/>
<text font-family="Arial" font-size="12" font-weight="bold" x="511" y="313">
Sn2
</text>
<text font-family="Arial" font-size="12" textLength="105" x="497" y="333">
test another solution
</text>
</g>
<g>
<title>
G5
</title>
<path d="M646,295 L746,295 L746,341 L646,341 z" fill="none" stroke="black" stroke-width="1"/>
<text font-family="Arial" font-size="12" font-weight="bold" x="661" y="313">
G5
</text>
<text font-family="Arial" font-size="12" textLength="71" x="661" y="333">
elcric id elcric
</text>
</g>
<g>
<title>
G3
</title>
<path d="M20,449 L140,449 L140,495 L20,495 z" fill="none" stroke="black" stroke-width="1"/>
<text font-family="Arial" font-size="12" font-weight="bold" x="35" y="467">
G3
</text>
<text font-family="Arial" font-size="12" textLength="90" x="35" y="487">
sub di dub di dub
</text>
</g>
<g>
<title>
Sn3
</title>
<ellipse cx="236" cy="505" fill="none" rx="56" ry="56" stroke="black" stroke-width="1"/>
<text font-family="Arial" font-size="12" font-weight="bold" x="199" y="467">
Sn3
</text>
<text font-family="Arial" font-size="12" textLength="103" x="185" y="487">
yet another solution
</text>
</g>
<path d="M300,49 C300,49,140,43,130,43" fill="none" marker-end="url(#incontextof_arrow)" stroke="black" stroke-width="1"/>
<path d="M418,78 C418,98,549,275,549,285" fill="none" marker-end="url(#supportedby_arrow)" stroke="black" stroke-width="1"/>
<path d="M418,78 C418,98,378,107,378,117" fill="none" marker-end="url(#supportedby_arrow)" stroke="black" stroke-width="1"/>
<path d="M536,49 C536,49,556,53,566,53" fill="none" marker-end="url(#incontextof_arrow)" stroke="black" stroke-width="1"/>
<path d="M300,49 C300,49,280,50,270,50" fill="none" marker-end="url(#incontextof_arrow)" stroke="black" stroke-width="1"/>
<path d="M418,78 C418,98,70,107,70,117" fill="none" marker-end="url(#supportedby_arrow)" stroke="black" stroke-width="1"/>
<path d="M418,78 C418,98,696,275,696,285" fill="none" marker-end="url(#supportedby_arrow)" stroke="black" stroke-width="1"/>
<path d="M70,173 C70,193,236,429,236,439" fill="none" marker-end="url(#supportedby_arrow)" stroke="black" stroke-width="1"/>
<path d="M120,150 C120,150,140,191,150,191" fill="none" marker-end="url(#supportedby_arrow)" stroke="black" stroke-width="1"/>
<path d="M696,341 C696,361,236,429,236,439" fill="none" marker-end="url(#supportedby_arrow)" stroke="black" stroke-width="1"/>
<path d="M378,173 C378,193,417,275,417,285" fill="none" marker-end="url(#supportedby_arrow)" stroke="black" stroke-width="1"/>
<path d="M378,173 C378,193,105,275,105,285" fill="none" marker-end="url(#supportedby_arrow)" stroke="black" stroke-width="1"/>
<path d="M378,173 C378,193,80,429,80,439" fill="none" marker-end="url(#supportedby_arrow)" stroke="black" stroke-width="1"/>
</svg>