<svg viewBox="0 0 1500 600" xmlns="http://www.w3.org/2000/svg">
<marker id="supportedby_arrow" markerHeight="9" markerUnits="users_posaceOnUse" markerWidth="10" orient="auto" refX="0" refY="4.5">
<polyline fill="black" points="0 0, 10 4.5, 0 9"/>
</marker>
<marker id="incontextof_arrow" markerHeight="9" markerUnits="users_posaceOnUse" markerWidth="10" orient="auto" refX="0" refY="4.5">
<polyline fill="none" points="0 0, 10 4.5, 0 9, 0 0" stroke="black" stroke-width="1"/>
</marker>
<g>
<rect fill="none" height="62" stroke="red" width="195" x="65" y="71"/>
<title>
J1
</title>
<ellipse cx="162" cy="102" fill="none" rx="142" ry="48" stroke="black" stroke-width="1"/>
<text font-family="Arial" font-size="12" font-weight="bold" x="65" y="84">
J1
</text>
<text font-family="Arial" font-size="12" font-weight="bold" x="299" y="145">
J
</text>
<text font-family="Arial" font-size="12" textLength="195" x="65" y="104">
lalalsfa wrnasdf asdfa sdf asdlmösgm
</text>
<text font-family="Arial" font-size="12" textLength="129" x="65" y="117">
qwjsnf asndflan asdfa as
</text>
</g>
<g>
<title>
G1
</title>
<path d="M344,71 L564,71 L564,133 L344,133 z" fill="none" stroke="black" stroke-width="1"/>
<text font-family="Arial" font-size="12" font-weight="bold" x="351" y="91">
G1
</text>
<text font-family="Arial" font-size="12" textLength="207" x="351" y="111">
My extremely very, very, very, long Goal
</text>
<text font-family="Arial" font-size="12" textLength="58" x="351" y="124">
dEscription
</text>
</g>
<g>
<title>
C1
</title>
<path d="M614,20 L694,20 C704,20,704,66,694,66 L614,66 C604,66,604,20,614,20" fill="none" stroke="black" stroke-width="1"/>
<text font-family="Arial" font-size="12" font-weight="bold" x="614" y="38">
C1
</text>
<text font-family="Arial" font-size="12" textLength="70" x="614" y="58">
some context
</text>
</g>
<g>
<rect fill="none" height="49" stroke="red" width="79" x="625" y="111"/>
<title>
A1
</title>
<ellipse cx="664" cy="135" fill="none" rx="60" ry="39" stroke="black" stroke-width="1"/>
<text font-family="Arial" font-size="12" font-weight="bold" x="625" y="124">
A1
</text>
<text font-family="Arial" font-size="12" font-weight="bold" x="719" y="169">
A
</text>
<text font-family="Arial" font-size="12" textLength="79" x="625" y="144">
teadskfasjdfjne
</text>
</g>
<g/>
<g>
<title>
S1
</title>
<path d="M201,270 L300,270 L285,320 L186,320 z" fill="none" stroke="black" stroke-width="1"/>
<text font-family="Arial" font-size="12" font-weight="bold" x="208" y="290">
S1
</text>
<text font-family="Arial" font-size="12" textLength="64" x="193" y="310">
test strategy
</text>
</g>
<g/>
<g>
<title>
G4
</title>
<path d="M462,270 L546,270 L546,320 L462,320 z" fill="none" stroke="black" stroke-width="1"/>
<text font-family="Arial" font-size="12" font-weight="bold" x="469" y="290">
G4
</text>
<text font-family="Arial" font-size="12" textLength="71" x="469" y="310">
circle di circle
</text>
</g>
<g/>
<g>
<rect fill="none" height="49" stroke="red" width="119" x="761" y="271"/>
<title>
Sn4
</title>
<ellipse cx="820" cy="295" fill="none" rx="70" ry="70" stroke="black" stroke-width="1"/>
<text font-family="Arial" font-size="12" font-weight="bold" x="761" y="284">
Sn4
</text>
<text font-family="Arial" font-size="12" textLength="119" x="761" y="304">
another forced solution
</text>
</g>
<g/>
<g>
<rect fill="none" height="49" stroke="red" width="105" x="31" y="444"/>
<title>
Sn2
</title>
<ellipse cx="83" cy="468" fill="none" rx="63" ry="63" stroke="black" stroke-width="1"/>
<text font-family="Arial" font-size="12" font-weight="bold" x="31" y="457">
Sn2
</text>
<text font-family="Arial" font-size="12" textLength="105" x="31" y="477">
test another solution
</text>
</g>
<g>
<rect fill="none" height="49" stroke="red" width="62" x="196" y="444"/>
<title>
Sn1
</title>
<ellipse cx="227" cy="468" fill="none" rx="41" ry="41" stroke="black" stroke-width="1"/>
<text font-family="Arial" font-size="12" font-weight="bold" x="196" y="457">
Sn1
</text>
<text font-family="Arial" font-size="12" textLength="62" x="196" y="477">
test solution
</text>
</g>
<g>
<title>
G2
</title>
<path d="M308,441 L530,441 L530,495 L308,495 z" fill="none" stroke="black" stroke-width="1"/>
<text font-family="Arial" font-size="12" font-weight="bold" x="315" y="461">
G2
</text>
<text font-family="Arial" font-size="12" textLength="209" x="315" y="481">
undeveloped undeveloped undeveloped
</text>
<path d="M419,495 l5,5 l-5,5 l-5,-5 z" fill="none" stroke="black" stroke-width="1"/>
</g>
<g/>
<g>
<rect fill="none" height="49" stroke="red" width="103" x="725" y="444"/>
<title>
Sn3
</title>
<ellipse cx="776" cy="468" fill="none" rx="62" ry="62" stroke="black" stroke-width="1"/>
<text font-family="Arial" font-size="12" font-weight="bold" x="725" y="457">
Sn3
</text>
<text font-family="Arial" font-size="12" textLength="103" x="725" y="477">
yet another solution
</text>
</g>
<g>
<title>
G5
</title>
<path d="M878,443 L962,443 L962,493 L878,493 z" fill="none" stroke="black" stroke-width="1"/>
<text font-family="Arial" font-size="12" font-weight="bold" x="885" y="463">
G5
</text>
<text font-family="Arial" font-size="12" textLength="71" x="885" y="483">
elcric id elcric
</text>
</g>
<g>
<rect fill="none" height="75" stroke="red" width="187" x="1046" y="431"/>
<title>
J2
</title>
<ellipse cx="1139" cy="468" fill="none" rx="137" ry="58" stroke="black" stroke-width="1"/>
<text font-family="Arial" font-size="12" font-weight="bold" x="1046" y="444">
J2
</text>
<text font-family="Arial" font-size="12" font-weight="bold" x="1271" y="521">
J
</text>
<text font-family="Arial" font-size="12" textLength="187" x="1046" y="464">
asdfgasgnajkg aksdnnglert klnalsdn
</text>
<text font-family="Arial" font-size="12" textLength="167" x="1046" y="477">
kölnsdg ljsmdg snnjk slls qwjsnf
</text>
<text font-family="Arial" font-size="12" textLength="92" x="1046" y="490">
asndflan asdfa as
</text>
</g>
<g>
<title>
G3
</title>
<path d="M20,571 L124,571 L124,621 L20,621 z" fill="none" stroke="black" stroke-width="1"/>
<text font-family="Arial" font-size="12" font-weight="bold" x="27" y="591">
G3
</text>
<text font-family="Arial" font-size="12" textLength="90" x="27" y="611">
sub di dub di dub
</text>
</g>
<path d="M454,71 C454,51,654,86,654,76" fill="none" marker-end="url(#incontextof_arrow)" stroke="black" stroke-width="1"/>
<path d="M454,133 C454,153,83,385,83,395" fill="none" marker-end="url(#supportedby_arrow)" stroke="black" stroke-width="1"/>
<path d="M454,133 C454,153,243,250,243,260" fill="none" marker-end="url(#supportedby_arrow)" stroke="black" stroke-width="1"/>
<path d="M344,102 C344,102,324,102,314,102" fill="none" marker-end="url(#incontextof_arrow)" stroke="black" stroke-width="1"/>
<path d="M564,102 C564,102,584,135,594,135" fill="none" marker-end="url(#incontextof_arrow)" stroke="black" stroke-width="1"/>
<path d="M454,133 C454,153,504,250,504,260" fill="none" marker-end="url(#supportedby_arrow)" stroke="black" stroke-width="1"/>
<path d="M454,133 C454,153,920,423,920,433" fill="none" marker-end="url(#supportedby_arrow)" stroke="black" stroke-width="1"/>
<path d="M504,320 C504,340,776,386,776,396" fill="none" marker-end="url(#supportedby_arrow)" stroke="black" stroke-width="1"/>
<path d="M546,295 C546,295,730,295,740,295" fill="none" marker-end="url(#supportedby_arrow)" stroke="black" stroke-width="1"/>
<path d="M878,468 C878,468,858,468,848,468" fill="none" marker-end="url(#supportedby_arrow)" stroke="black" stroke-width="1"/>
<path d="M962,468 C962,468,982,468,992,468" fill="none" marker-end="url(#incontextof_arrow)" stroke="black" stroke-width="1"/>
<path d="M243,320 C243,340,227,407,227,417" fill="none" marker-end="url(#supportedby_arrow)" stroke="black" stroke-width="1"/>
<path d="M243,320 C243,340,419,421,419,431" fill="none" marker-end="url(#supportedby_arrow)" stroke="black" stroke-width="1"/>
<path d="M243,320 C243,340,72,551,72,561" fill="none" marker-end="url(#supportedby_arrow)" stroke="black" stroke-width="1"/>
</svg>