<svg viewBox="0 0 1500 1500" xmlns="http://www.w3.org/2000/svg">
<marker id="supportedby_arrow" markerHeight="9" markerUnits="users_posaceOnUse" markerWidth="10" orient="auto" refX="0" refY="4.5">
<polyline fill="black" points="0 0, 10 4.5, 0 9"/>
</marker>
<marker id="incontextof_arrow" markerHeight="9" markerUnits="users_posaceOnUse" markerWidth="10" orient="auto" refX="0" refY="4.5">
<polyline fill="none" points="0 0, 10 4.5, 0 9, 0 0" stroke="black" stroke-width="1"/>
</marker>
<g>
<title>
C1
</title>
<path d="M30,30 L110,30 C120,30,120,76,110,76 L30,76 C20,76,20,30,30,30" fill="none" stroke="black" stroke-width="1"/>
<text font-family="Arial" font-size="12" font-weight="bold" x="30" y="48">
C1
</text>
<text font-family="Arial" font-size="12" textLength="70" x="30" y="68">
some context
</text>
</g>
<g>
<title>
A1
</title>
<ellipse cx="210" cy="53" fill="none" rx="50" ry="30" stroke="black" stroke-width="1"/>
<text font-family="Arial" font-size="12" font-weight="bold" x="177" y="41">
A1
</text>
<text font-family="Arial" font-size="12" font-weight="bold" x="255" y="78">
A
</text>
<text font-family="Arial" font-size="12" textLength="79" x="165" y="61">
teadskfasjdfjne
</text>
</g>
<g>
<title>
G1
</title>
<path d="M300,22 L520,22 L520,84 L300,84 z" fill="none" stroke="black" stroke-width="1"/>
<text font-family="Arial" font-size="12" font-weight="bold" x="307" y="42">
G1
</text>
<text font-family="Arial" font-size="12" textLength="207" x="307" y="62">
My extremely very, very, very, long Goal
</text>
<text font-family="Arial" font-size="12" textLength="58" x="307" y="75">
dEscription
</text>
</g>
<g>
<title>
J1
</title>
<ellipse cx="676" cy="53" fill="none" rx="116" ry="33" stroke="black" stroke-width="1"/>
<text font-family="Arial" font-size="12" font-weight="bold" x="594" y="38">
J1
</text>
<text font-family="Arial" font-size="12" font-weight="bold" x="787" y="81">
J
</text>
<text font-family="Arial" font-size="12" textLength="195" x="565" y="58">
lalalsfa wrnasdf asdfa sdf asdlmösgm
</text>
<text font-family="Arial" font-size="12" textLength="129" x="565" y="71">
qwjsnf asndflan asdfa as
</text>
</g>
<g/>
<g>
<title>
S1
</title>
<path d="M189,166 L288,166 L273,216 L174,216 z" fill="none" stroke="black" stroke-width="1"/>
<text font-family="Arial" font-size="12" font-weight="bold" x="196" y="186">
S1
</text>
<text font-family="Arial" font-size="12" textLength="64" x="181" y="206">
test strategy
</text>
</g>
<g/>
<g>
<title>
G4
</title>
<path d="M440,166 L524,166 L524,216 L440,216 z" fill="none" stroke="black" stroke-width="1"/>
<text font-family="Arial" font-size="12" font-weight="bold" x="447" y="186">
G4
</text>
<text font-family="Arial" font-size="12" textLength="71" x="447" y="206">
circle di circle
</text>
</g>
<g/>
<g>
<title>
Sn4
</title>
<ellipse cx="780" cy="191" fill="none" rx="64" ry="64" stroke="black" stroke-width="1"/>
<text font-family="Arial" font-size="12" font-weight="bold" x="737" y="145">
Sn4
</text>
<text font-family="Arial" font-size="12" textLength="119" x="721" y="165">
another forced solution
</text>
</g>
<g/>
<g>
<title>
Sn2
</title>
<ellipse cx="77" cy="352" fill="none" rx="57" ry="57" stroke="black" stroke-width="1"/>
<text font-family="Arial" font-size="12" font-weight="bold" x="39" y="313">
Sn2
</text>
<text font-family="Arial" font-size="12" textLength="105" x="25" y="333">
test another solution
</text>
</g>
<g>
<title>
Sn1
</title>
<ellipse cx="210" cy="352" fill="none" rx="36" ry="36" stroke="black" stroke-width="1"/>
<text font-family="Arial" font-size="12" font-weight="bold" x="188" y="334">
Sn1
</text>
<text font-family="Arial" font-size="12" textLength="62" x="179" y="354">
test solution
</text>
</g>
<g>
<title>
G2
</title>
<path d="M286,325 L440,325 L440,379 L286,379 z" fill="none" stroke="black" stroke-width="1"/>
<text font-family="Arial" font-size="12" font-weight="bold" x="293" y="345">
G2
</text>
<text font-family="Arial" font-size="12" textLength="141" x="293" y="365">
under lighted, undeveloped
</text>
<path d="M363,379 l5,5 l-5,5 l-5,-5 z" fill="none" stroke="black" stroke-width="1"/>
</g>
<g/>
<g>
<title>
Sn3
</title>
<ellipse cx="680" cy="352" fill="none" rx="56" ry="56" stroke="black" stroke-width="1"/>
<text font-family="Arial" font-size="12" font-weight="bold" x="643" y="314">
Sn3
</text>
<text font-family="Arial" font-size="12" textLength="103" x="629" y="334">
yet another solution
</text>
</g>
<g>
<title>
G5
</title>
<path d="M776,327 L860,327 L860,377 L776,377 z" fill="none" stroke="black" stroke-width="1"/>
<text font-family="Arial" font-size="12" font-weight="bold" x="783" y="347">
G5
</text>
<text font-family="Arial" font-size="12" textLength="71" x="783" y="367">
elcric id elcric
</text>
</g>
<g>
<title>
G3
</title>
<path d="M20,449 L124,449 L124,499 L20,499 z" fill="none" stroke="black" stroke-width="1"/>
<text font-family="Arial" font-size="12" font-weight="bold" x="27" y="469">
G3
</text>
<text font-family="Arial" font-size="12" textLength="90" x="27" y="489">
sub di dub di dub
</text>
</g>
<path d="M300,53 C300,53,140,53,130,53" fill="none" marker-end="url(#incontextof_arrow)" stroke="black" stroke-width="1"/>
<path d="M410,84 C410,104,77,275,77,285" fill="none" marker-end="url(#supportedby_arrow)" stroke="black" stroke-width="1"/>
<path d="M410,84 C410,104,231,146,231,156" fill="none" marker-end="url(#supportedby_arrow)" stroke="black" stroke-width="1"/>
<path d="M520,53 C520,53,540,53,550,53" fill="none" marker-end="url(#incontextof_arrow)" stroke="black" stroke-width="1"/>
<path d="M300,53 C300,53,280,53,270,53" fill="none" marker-end="url(#incontextof_arrow)" stroke="black" stroke-width="1"/>
<path d="M410,84 C410,104,482,146,482,156" fill="none" marker-end="url(#supportedby_arrow)" stroke="black" stroke-width="1"/>
<path d="M410,84 C410,104,818,307,818,317" fill="none" marker-end="url(#supportedby_arrow)" stroke="black" stroke-width="1"/>
<path d="M482,216 C482,236,680,276,680,286" fill="none" marker-end="url(#supportedby_arrow)" stroke="black" stroke-width="1"/>
<path d="M524,191 C524,191,696,191,706,191" fill="none" marker-end="url(#supportedby_arrow)" stroke="black" stroke-width="1"/>
<path d="M776,352 C776,352,756,352,746,352" fill="none" marker-end="url(#supportedby_arrow)" stroke="black" stroke-width="1"/>
<path d="M231,216 C231,236,210,296,210,306" fill="none" marker-end="url(#supportedby_arrow)" stroke="black" stroke-width="1"/>
<path d="M231,216 C231,236,363,305,363,315" fill="none" marker-end="url(#supportedby_arrow)" stroke="black" stroke-width="1"/>
<path d="M231,216 C231,236,72,429,72,439" fill="none" marker-end="url(#supportedby_arrow)" stroke="black" stroke-width="1"/>
</svg>