<svg viewBox="0 0 1500 1500" xmlns="http://www.w3.org/2000/svg">
<marker id="supportedby_arrow" markerHeight="9" markerUnits="users_posaceOnUse" markerWidth="10" orient="auto" refX="0" refY="4.5">
<polyline fill="black" points="0 0, 10 4.5, 0 9"/>
</marker>
<marker id="incontextof_arrow" markerHeight="9" markerUnits="users_posaceOnUse" markerWidth="10" orient="auto" refX="0" refY="4.5">
<polyline fill="none" points="0 0, 10 4.5, 0 9, 0 0" stroke="black" stroke-width="1"/>
</marker>
<g>
<title>
C1
</title>
<path d="M30,30 L110,30 C120,30,120,76,110,76 L30,76 C20,76,20,30,30,30" fill="none" stroke="black" stroke-width="1"/>
<text font-family="Arial" font-size="12" font-weight="bold" x="30" y="48">
C1
</text>
<text font-family="Arial" font-size="12" textLength="70" x="30" y="68">
some context
</text>
</g>
<g>
<title>
A1
</title>
<ellipse cx="210" cy="53" fill="none" rx="50" ry="30" stroke="black" stroke-width="1"/>
<text font-family="Arial" font-size="12" font-weight="bold" x="177" y="41">
A1
</text>
<text font-family="Arial" font-size="12" font-weight="bold" x="255" y="78">
A
</text>
<text font-family="Arial" font-size="12" textLength="79" x="165" y="61">
teadskfasjdfjne
</text>
</g>
<g>
<title>
G1
</title>
<path d="M300,24 L536,24 L536,82 L300,82 z" fill="none" stroke="black" stroke-width="1"/>
<text font-family="Arial" font-size="12" font-weight="bold" x="315" y="42">
G1
</text>
<text font-family="Arial" font-size="12" textLength="207" x="315" y="62">
My extremely very, very, very, long Goal
</text>
<text font-family="Arial" font-size="12" textLength="58" x="315" y="75">
dEscription
</text>
</g>
<g>
<title>
J1
</title>
<ellipse cx="692" cy="53" fill="none" rx="116" ry="33" stroke="black" stroke-width="1"/>
<text font-family="Arial" font-size="12" font-weight="bold" x="610" y="38">
J1
</text>
<text font-family="Arial" font-size="12" font-weight="bold" x="803" y="81">
J
</text>
<text font-family="Arial" font-size="12" textLength="195" x="581" y="58">
lalalsfa wrnasdf asdfa sdf asdlmösgm
</text>
<text font-family="Arial" font-size="12" textLength="129" x="581" y="71">
qwjsnf asndflan asdfa as
</text>
</g>
<g>
<title>
S1
</title>
<path d="M35,168 L120,168 L105,214 L20,214 z" fill="none" stroke="black" stroke-width="1"/>
<text font-family="Arial" font-size="12" font-weight="bold" x="50" y="186">
S1
</text>
<text font-family="Arial" font-size="12" textLength="64" x="35" y="206">
test strategy
</text>
</g>
<g>
<title>
G4
</title>
<path d="M160,168 L260,168 L260,214 L160,214 z" fill="none" stroke="black" stroke-width="1"/>
<text font-family="Arial" font-size="12" font-weight="bold" x="175" y="186">
G4
</text>
<text font-family="Arial" font-size="12" textLength="71" x="175" y="206">
circle di circle
</text>
</g>
<g>
<title>
Sn4
</title>
<ellipse cx="364" cy="191" fill="none" rx="64" ry="64" stroke="black" stroke-width="1"/>
<text font-family="Arial" font-size="12" font-weight="bold" x="321" y="145">
Sn4
</text>
<text font-family="Arial" font-size="12" textLength="119" x="305" y="165">
another forced solution
</text>
</g>
<g>
<title>
Sn2
</title>
<ellipse cx="77" cy="352" fill="none" rx="57" ry="57" stroke="black" stroke-width="1"/>
<text font-family="Arial" font-size="12" font-weight="bold" x="39" y="313">
Sn2
</text>
<text font-family="Arial" font-size="12" textLength="105" x="25" y="333">
test another solution
</text>
</g>
<g>
<title>
Sn1
</title>
<ellipse cx="209" cy="352" fill="none" rx="35" ry="35" stroke="black" stroke-width="1"/>
<text font-family="Arial" font-size="12" font-weight="bold" x="187" y="335">
Sn1
</text>
<text font-family="Arial" font-size="12" textLength="62" x="179" y="355">
test solution
</text>
</g>
<g>
<title>
G2
</title>
<path d="M284,327 L454,327 L454,377 L284,377 z" fill="none" stroke="black" stroke-width="1"/>
<text font-family="Arial" font-size="12" font-weight="bold" x="299" y="345">
G2
</text>
<text font-family="Arial" font-size="12" textLength="141" x="299" y="365">
under lighted, undeveloped
</text>
<path d="M369,377 l5,5 l-5,5 l-5,-5 z" fill="none" stroke="black" stroke-width="1"/>
</g>
<g>
<title>
Sn3
</title>
<ellipse cx="550" cy="352" fill="none" rx="56" ry="56" stroke="black" stroke-width="1"/>
<text font-family="Arial" font-size="12" font-weight="bold" x="513" y="314">
Sn3
</text>
<text font-family="Arial" font-size="12" textLength="103" x="499" y="334">
yet another solution
</text>
</g>
<g>
<title>
G5
</title>
<path d="M646,329 L746,329 L746,375 L646,375 z" fill="none" stroke="black" stroke-width="1"/>
<text font-family="Arial" font-size="12" font-weight="bold" x="661" y="347">
G5
</text>
<text font-family="Arial" font-size="12" textLength="71" x="661" y="367">
elcric id elcric
</text>
</g>
<g>
<title>
G3
</title>
<path d="M20,449 L140,449 L140,495 L20,495 z" fill="none" stroke="black" stroke-width="1"/>
<text font-family="Arial" font-size="12" font-weight="bold" x="35" y="467">
G3
</text>
<text font-family="Arial" font-size="12" textLength="90" x="35" y="487">
sub di dub di dub
</text>
</g>
<path d="M300,53 C300,53,140,53,130,53" fill="none" marker-end="url(#incontextof_arrow)" stroke="black" stroke-width="1"/>
<path d="M418,82 C418,102,77,275,77,285" fill="none" marker-end="url(#supportedby_arrow)" stroke="black" stroke-width="1"/>
<path d="M418,82 C418,102,70,148,70,158" fill="none" marker-end="url(#supportedby_arrow)" stroke="black" stroke-width="1"/>
<path d="M536,53 C536,53,556,53,566,53" fill="none" marker-end="url(#incontextof_arrow)" stroke="black" stroke-width="1"/>
<path d="M300,53 C300,53,280,53,270,53" fill="none" marker-end="url(#incontextof_arrow)" stroke="black" stroke-width="1"/>
<path d="M418,82 C418,102,210,148,210,158" fill="none" marker-end="url(#supportedby_arrow)" stroke="black" stroke-width="1"/>
<path d="M418,82 C418,102,696,309,696,319" fill="none" marker-end="url(#supportedby_arrow)" stroke="black" stroke-width="1"/>
<path d="M210,214 C210,234,550,276,550,286" fill="none" marker-end="url(#supportedby_arrow)" stroke="black" stroke-width="1"/>
<path d="M260,191 C260,191,280,191,290,191" fill="none" marker-end="url(#supportedby_arrow)" stroke="black" stroke-width="1"/>
<path d="M646,352 C646,352,626,352,616,352" fill="none" marker-end="url(#supportedby_arrow)" stroke="black" stroke-width="1"/>
<path d="M70,214 C70,234,209,297,209,307" fill="none" marker-end="url(#supportedby_arrow)" stroke="black" stroke-width="1"/>
<path d="M70,214 C70,234,369,307,369,317" fill="none" marker-end="url(#supportedby_arrow)" stroke="black" stroke-width="1"/>
<path d="M70,214 C70,234,80,429,80,439" fill="none" marker-end="url(#supportedby_arrow)" stroke="black" stroke-width="1"/>
</svg>