<svg viewBox="0 0 1316 757" xmlns="http://www.w3.org/2000/svg">
<marker id="supportedby_arrow" markerHeight="9" markerUnits="users_posaceOnUse" markerWidth="10" orient="auto" refX="0" refY="4.5">
<polyline fill="black" points="0 0, 10 4.5, 0 9"/>
</marker>
<marker id="incontextof_arrow" markerHeight="9" markerUnits="users_posaceOnUse" markerWidth="10" orient="auto" refX="0" refY="4.5">
<polyline fill="none" points="0 0, 10 4.5, 0 9, 0 0" stroke="black" stroke-width="1"/>
</marker>
<g>
<title>
J1
</title>
<ellipse cx="418" cy="102" fill="none" rx="142" ry="48" stroke="black" stroke-width="1"/>
<text font-family="Arial" font-size="12" font-weight="bold" x="321" y="84">
J1
</text>
<text font-family="Arial" font-size="12" font-weight="bold" x="555" y="145">
J
</text>
<text font-family="Arial" font-size="12" textLength="195" x="321" y="104">
lalalsfa wrnasdf asdfa sdf asdlmösgm
</text>
<text font-family="Arial" font-size="12" textLength="129" x="321" y="117">
qwjsnf asndflan asdfa as
</text>
</g>
<g>
<title>
G1
</title>
<path d="M600,71 L820,71 L820,133 L600,133 z" fill="none" stroke="black" stroke-width="1"/>
<text font-family="Arial" font-size="12" font-weight="bold" x="607" y="91">
G1
</text>
<text font-family="Arial" font-size="12" textLength="207" x="607" y="111">
My extremely very, very, very, long Goal
</text>
<text font-family="Arial" font-size="12" textLength="58" x="607" y="124">
dEscription
</text>
</g>
<g>
<title>
C1
</title>
<path d="M880,20 L960,20 C970,20,970,66,960,66 L880,66 C870,66,870,20,880,20" fill="none" stroke="black" stroke-width="1"/>
<text font-family="Arial" font-size="12" font-weight="bold" x="880" y="38">
C1
</text>
<text font-family="Arial" font-size="12" textLength="70" x="880" y="58">
some context
</text>
</g>
<g>
<title>
A1
</title>
<ellipse cx="920" cy="145" fill="none" rx="60" ry="39" stroke="black" stroke-width="1"/>
<text font-family="Arial" font-size="12" font-weight="bold" x="881" y="134">
A1
</text>
<text font-family="Arial" font-size="12" font-weight="bold" x="975" y="179">
A
</text>
<text font-family="Arial" font-size="12" textLength="79" x="881" y="154">
teadskfasjdfjne
</text>
</g>
<g/>
<g>
<title>
S1
</title>
<path d="M555,263 L654,263 L639,313 L540,313 z" fill="none" stroke="black" stroke-width="1"/>
<text font-family="Arial" font-size="12" font-weight="bold" x="562" y="283">
S1
</text>
<text font-family="Arial" font-size="12" textLength="64" x="547" y="303">
test strategy
</text>
</g>
<g>
<title>
G4
</title>
<path d="M694,263 L778,263 L778,313 L694,313 z" fill="none" stroke="black" stroke-width="1"/>
<text font-family="Arial" font-size="12" font-weight="bold" x="701" y="283">
G4
</text>
<text font-family="Arial" font-size="12" textLength="71" x="701" y="303">
circle di circle
</text>
</g>
<g/>
<g>
<title>
Sn2
</title>
<ellipse cx="97" cy="454" fill="none" rx="63" ry="63" stroke="black" stroke-width="1"/>
<text font-family="Arial" font-size="12" font-weight="bold" x="45" y="443">
Sn2
</text>
<text font-family="Arial" font-size="12" textLength="105" x="45" y="463">
test another solution
</text>
</g>
<g>
<title>
Sn1
</title>
<ellipse cx="241" cy="454" fill="none" rx="41" ry="41" stroke="black" stroke-width="1"/>
<text font-family="Arial" font-size="12" font-weight="bold" x="210" y="443">
Sn1
</text>
<text font-family="Arial" font-size="12" textLength="62" x="210" y="463">
test solution
</text>
</g>
<g>
<title>
G2
</title>
<path d="M322,427 L544,427 L544,481 L322,481 z" fill="none" stroke="black" stroke-width="1"/>
<text font-family="Arial" font-size="12" font-weight="bold" x="329" y="447">
G2
</text>
<text font-family="Arial" font-size="12" textLength="209" x="329" y="467">
undeveloped undeveloped undeveloped
</text>
<path d="M433,481 l5,5 l-5,5 l-5,-5 z" fill="none" stroke="black" stroke-width="1"/>
</g>
<g/>
<g>
<title>
Sn3
</title>
<ellipse cx="790" cy="454" fill="none" rx="62" ry="62" stroke="black" stroke-width="1"/>
<text font-family="Arial" font-size="12" font-weight="bold" x="739" y="443">
Sn3
</text>
<text font-family="Arial" font-size="12" textLength="103" x="739" y="463">
yet another solution
</text>
</g>
<g>
<title>
G5
</title>
<path d="M892,429 L976,429 L976,479 L892,479 z" fill="none" stroke="black" stroke-width="1"/>
<text font-family="Arial" font-size="12" font-weight="bold" x="899" y="449">
G5
</text>
<text font-family="Arial" font-size="12" textLength="71" x="899" y="469">
elcric id elcric
</text>
</g>
<g>
<title>
J2
</title>
<ellipse cx="1153" cy="454" fill="none" rx="137" ry="58" stroke="black" stroke-width="1"/>
<text font-family="Arial" font-size="12" font-weight="bold" x="1060" y="430">
J2
</text>
<text font-family="Arial" font-size="12" font-weight="bold" x="1285" y="507">
J
</text>
<text font-family="Arial" font-size="12" textLength="187" x="1060" y="450">
asdfgasgnajkg aksdnnglert klnalsdn
</text>
<text font-family="Arial" font-size="12" textLength="167" x="1060" y="463">
kölnsdg ljsmdg snnjk slls qwjsnf
</text>
<text font-family="Arial" font-size="12" textLength="92" x="1060" y="476">
asndflan asdfa as
</text>
</g>
<g/>
<g/>
<g/>
<g>
<title>
G3
</title>
<path d="M696,602 L800,602 L800,652 L696,652 z" fill="none" stroke="black" stroke-width="1"/>
<text font-family="Arial" font-size="12" font-weight="bold" x="703" y="622">
G3
</text>
<text font-family="Arial" font-size="12" textLength="90" x="703" y="642">
sub di dub di dub
</text>
</g>
<g/>
<g>
<title>
Sn4
</title>
<ellipse cx="1074" cy="627" fill="none" rx="70" ry="70" stroke="black" stroke-width="1"/>
<text font-family="Arial" font-size="12" font-weight="bold" x="1015" y="616">
Sn4
</text>
<text font-family="Arial" font-size="12" textLength="119" x="1015" y="636">
another forced solution
</text>
</g>
<path d="M820,102 C820,102,840,43,860,43" fill="none" marker-end="url(#incontextof_arrow)" stroke="black" stroke-width="1"/>
<path d="M710,133 C710,163,597,233,597,253" fill="none" marker-end="url(#supportedby_arrow)" stroke="black" stroke-width="1"/>
<path d="M600,102 C600,102,590,102,570,102" fill="none" marker-end="url(#incontextof_arrow)" stroke="black" stroke-width="1"/>
<path d="M820,102 C820,102,830,145,850,145" fill="none" marker-end="url(#incontextof_arrow)" stroke="black" stroke-width="1"/>
<path d="M710,133 C710,163,736,233,736,253" fill="none" marker-end="url(#supportedby_arrow)" stroke="black" stroke-width="1"/>
<path d="M710,133 C710,163,437,258,437,288" fill="none" marker-end="" stroke="black" stroke-width="1"/>
<path d="M710,133 C710,163,860,258,860,288" fill="none" marker-end="" stroke="black" stroke-width="1"/>
<path d="M736,313 C736,343,790,362,790,382" fill="none" marker-end="url(#supportedby_arrow)" stroke="black" stroke-width="1"/>
<path d="M934,479 C934,509,1074,527,1074,547" fill="none" marker-end="url(#supportedby_arrow)" stroke="black" stroke-width="1"/>
<path d="M892,454 C892,454,882,454,862,454" fill="none" marker-end="url(#supportedby_arrow)" stroke="black" stroke-width="1"/>
<path d="M976,454 C976,454,986,454,1006,454" fill="none" marker-end="url(#incontextof_arrow)" stroke="black" stroke-width="1"/>
<path d="M597,313 C597,343,241,383,241,403" fill="none" marker-end="url(#supportedby_arrow)" stroke="black" stroke-width="1"/>
<path d="M597,313 C597,343,433,397,433,417" fill="none" marker-end="url(#supportedby_arrow)" stroke="black" stroke-width="1"/>
<path d="M597,313 C597,343,636,424,636,454" fill="none" marker-end="" stroke="black" stroke-width="1"/>
<path d="M636,454 C636,484,748,572,748,592" fill="none" marker-end="url(#supportedby_arrow)" stroke="black" stroke-width="1"/>
<path d="M860,288 C860,318,934,399,934,419" fill="none" marker-end="url(#supportedby_arrow)" stroke="black" stroke-width="1"/>
<path d="M437,288 C437,318,97,361,97,381" fill="none" marker-end="url(#supportedby_arrow)" stroke="black" stroke-width="1"/>
</svg>