<?xml version="1.0" encoding="UTF-8"?>
<svg class="gsndiagram" viewBox="0 0 1213 735" xmlns="http://www.w3.org/2000/svg">
<defs>
<marker id="supportedby_arrow" markerHeight="9" markerUnits="userSpaceOnUse" markerWidth="10" orient="auto-start-reverse" refX="0" refY="4.5">
<polyline fill="black" points="0 0, 10 4.5, 0 9"/>
</marker>
<marker id="incontextof_arrow" markerHeight="9" markerUnits="userSpaceOnUse" markerWidth="10" orient="auto-start-reverse" refX="0" refY="4.5">
<polyline fill-opacity="0" points="0 0, 10 4.5, 0 9, 0 0" stroke="black" stroke-width="1"/>
</marker>
<marker id="challenges_arrow" markerHeight="9" markerUnits="userSpaceOnUse" markerWidth="10" orient="auto-start-reverse" refX="0" refY="4.5">
<polyline fill-opacity="0" points="0 0, 10 4.5, 0 4.5, 10 4.5, 0 9" stroke="black" stroke-dasharray="100" stroke-width="1"/>
</marker>
<symbol height="20" id="defeated_cross" width="20">
<path d="M0,0 L20,20 M0,20 L20,0" stroke="black" stroke-width="1"/>
</symbol>
</defs>
<g class="gsn_module_examples_dialectic_first_gsn_yaml gsnelem gsngoal" id="node_g1">
<title>G1</title>
<path class="border" d="M549,20 L653,20 L653,64 L549,64 z" fill-opacity="0" stroke="black" stroke-width="1"/>
<text font-family="Arial" font-size="12" font-weight="bold" x="556" y="39">G1</text>
</g>
<g class="gsn_module_examples_dialectic_first_gsn_yaml gsnelem gsnctxt" id="node_c1">
<title>C1</title>
<path class="border" d="M703,20 L807,20 C817,20,817,64,807,64 L703,64 C693,64,693,20,703,20" fill-opacity="0" stroke="black" stroke-width="1"/>
<text font-family="Arial" font-size="12" font-weight="bold" x="710" y="39">C1</text>
</g>
<g class="gsn_module_examples_dialectic_first_gsn_yaml gsnelem gsnstgy" id="node_s1">
<title>S1</title>
<path class="border" d="M541,104 L675,104 L661,148 L527,148 z" fill-opacity="0" stroke="black" stroke-width="1"/>
<text font-family="Arial" font-size="12" font-weight="bold" x="549" y="123">S1</text>
</g>
<g class="gsn_module_examples_dialectic_first_gsn_yaml gsnelem gsncountergoal" id="node_cg1">
<title>CG1</title>
<path class="border" d="M39,188 L163,188 L163,232 L39,232 z" fill-opacity="0" stroke="black" stroke-width="1"/>
<text font-family="Arial" font-size="12" font-weight="bold" x="46" y="207">CG1</text>
<text font-family="Arial" font-size="12" x="46" y="225">A counter argument</text>
</g>
<g class="gsn_module_examples_dialectic_first_gsn_yaml gsnelem gsndefeated gsngoal" id="node_g2">
<title>G2</title>
<path class="border" d="M203,188 L309,188 L309,232 L203,232 z" fill-opacity="0" stroke="black" stroke-width="1"/>
<text font-family="Arial" font-size="12" font-weight="bold" x="210" y="207">G2</text>
<text font-family="Arial" font-size="12" x="210" y="225">A defeated goal</text>
<line stroke="black" x1="198" x2="314" y1="183" y2="237"/>
<line stroke="black" x1="314" x2="198" y1="183" y2="237"/>
</g>
<g class="gsn_module_examples_dialectic_first_gsn_yaml gsnelem gsngoal" id="node_g3">
<title>G3</title>
<path class="border" d="M584,188 L688,188 L688,232 L584,232 z" fill-opacity="0" stroke="black" stroke-width="1"/>
<text font-family="Arial" font-size="12" font-weight="bold" x="591" y="207">G3</text>
</g>
<g class="gsn_module_examples_dialectic_first_gsn_yaml gsnelem gsngoal" id="node_g4">
<title>G4</title>
<path class="border" d="M894,188 L998,188 L998,232 L894,232 z" fill-opacity="0" stroke="black" stroke-width="1"/>
<text font-family="Arial" font-size="12" font-weight="bold" x="901" y="207">G4</text>
</g>
<g class="gsn_module_examples_dialectic_first_gsn_yaml gsnelem gsncountergoal" id="node_cg2">
<title>CG2</title>
<path class="border" d="M20,301 L182,301 L182,345 L20,345 z" fill-opacity="0" stroke="black" stroke-width="1"/>
<text font-family="Arial" font-size="12" font-weight="bold" x="27" y="320">CG2</text>
<text font-family="Arial" font-size="12" x="27" y="338">Another counter argument</text>
</g>
<g class="gsn_module_examples_dialectic_first_gsn_yaml gsnelem gsnsltn" id="node_sn1">
<title>Sn1</title>
<path class="border" d="M229,323 a27,27,0,1,0,54,0 a27,27,0,1,0,-54,0 z" fill-opacity="0" stroke="black" stroke-width="1"/>
<text font-family="Arial" font-size="12" font-weight="bold" x="246" y="321">Sn1</text>
</g>
<g class="gsn_module_examples_dialectic_first_gsn_yaml gsnelem gsncountersltn" id="node_csn2">
<title>CSn2</title>
<path class="border" d="M323,323 a51,51,0,1,0,102,0 a51,51,0,1,0,-102,0 z" fill-opacity="0" stroke="black" stroke-width="1"/>
<text font-family="Arial" font-size="12" font-weight="bold" x="349" y="302">CSn2</text>
<text font-family="Arial" font-size="12" x="349" y="320">Another </text>
<text font-family="Arial" font-size="12" x="349" y="333">counter </text>
<text font-family="Arial" font-size="12" x="349" y="346">evidence</text>
</g>
<g class="gsn_module_examples_dialectic_first_gsn_yaml gsnelem gsndefeated gsngoal" id="node_g5">
<title>G5</title>
<path class="border" d="M465,301 L569,301 L569,345 L465,345 z" fill-opacity="0" stroke="black" stroke-width="1"/>
<text font-family="Arial" font-size="12" font-weight="bold" x="472" y="320">G5</text>
<line stroke="black" x1="460" x2="574" y1="296" y2="350"/>
<line stroke="black" x1="574" x2="460" y1="296" y2="350"/>
</g>
<g class="gsn_module_examples_dialectic_first_gsn_yaml gsnelem gsngoal" id="node_g6">
<title>G6</title>
<path class="border" d="M703,301 L807,301 L807,345 L703,345 z" fill-opacity="0" stroke="black" stroke-width="1"/>
<text font-family="Arial" font-size="12" font-weight="bold" x="710" y="320">G6</text>
</g>
<g class="gsn_module_examples_dialectic_first_gsn_yaml gsnelem gsndefeated gsnstgy" id="node_s2">
<title>S2</title>
<path class="border" d="M886,301 L1020,301 L1006,345 L872,345 z" fill-opacity="0" stroke="black" stroke-width="1"/>
<text font-family="Arial" font-size="12" font-weight="bold" x="894" y="320">S2</text>
<line stroke="black" x1="874" x2="1018" y1="296" y2="350"/>
<line stroke="black" x1="1018" x2="874" y1="296" y2="350"/>
</g>
<g class="gsn_module_examples_dialectic_first_gsn_yaml gsnelem gsncountergoal" id="node_cg4">
<title>CG4</title>
<path class="border" d="M1089,301 L1193,301 L1193,345 L1089,345 z" fill-opacity="0" stroke="black" stroke-width="1"/>
<text font-family="Arial" font-size="12" font-weight="bold" x="1096" y="320">CG4</text>
</g>
<g class="gsn_module_examples_dialectic_first_gsn_yaml gsnelem gsncountersltn" id="node_csn1">
<title>CSn1</title>
<path class="border" d="M49,466 a52,52,0,1,0,104,0 a52,52,0,1,0,-104,0 z" fill-opacity="0" stroke="black" stroke-width="1"/>
<text font-family="Arial" font-size="12" font-weight="bold" x="70" y="451">CSn1</text>
<text font-family="Arial" font-size="12" x="70" y="469">A counter </text>
<text font-family="Arial" font-size="12" x="70" y="482">evidence</text>
</g>
<g class="gsn_module_examples_dialectic_first_gsn_yaml gsnelem gsnsltn" id="node_sn2">
<title>Sn2</title>
<path class="border" d="M490,466 a27,27,0,1,0,54,0 a27,27,0,1,0,-54,0 z" fill-opacity="0" stroke="black" stroke-width="1"/>
<text font-family="Arial" font-size="12" font-weight="bold" x="507" y="464">Sn2</text>
</g>
<g class="gsn_module_examples_dialectic_first_gsn_yaml gsnelem gsncountergoal" id="node_cg3">
<title>CG3</title>
<path class="border" d="M584,444 L688,444 L688,488 L584,488 z" fill-opacity="0" stroke="black" stroke-width="1"/>
<text font-family="Arial" font-size="12" font-weight="bold" x="591" y="463">CG3</text>
</g>
<g class="gsn_module_examples_dialectic_first_gsn_yaml gsnelem gsndefeated gsnsltn" id="node_sn3">
<title>Sn3</title>
<path class="border" d="M728,466 a27,27,0,1,0,54,0 a27,27,0,1,0,-54,0 z" fill-opacity="0" stroke="black" stroke-width="1"/>
<text font-family="Arial" font-size="12" font-weight="bold" x="745" y="464">Sn3</text>
<line stroke="black" x1="723" x2="787" y1="434" y2="498"/>
<line stroke="black" x1="787" x2="723" y1="434" y2="498"/>
</g>
<g class="gsn_module_examples_dialectic_first_gsn_yaml gsnelem gsngoal" id="node_g7">
<title>G7</title>
<path class="border" d="M822,444 L926,444 L926,488 L822,488 z" fill-opacity="0" stroke="black" stroke-width="1"/>
<text font-family="Arial" font-size="12" font-weight="bold" x="829" y="463">G7</text>
</g>
<g class="gsn_module_examples_dialectic_first_gsn_yaml gsnelem gsngoal" id="node_g8">
<title>G8</title>
<path class="border" d="M966,444 L1070,444 L1070,488 L966,488 z" fill-opacity="0" stroke="black" stroke-width="1"/>
<text font-family="Arial" font-size="12" font-weight="bold" x="973" y="463">G8</text>
</g>
<g class="gsn_module_examples_dialectic_first_gsn_yaml gsnelem gsncountersltn" id="node_csn4">
<title>CSn4</title>
<path class="border" d="M1110,466 a31,31,0,1,0,62,0 a31,31,0,1,0,-62,0 z" fill-opacity="0" stroke="black" stroke-width="1"/>
<text font-family="Arial" font-size="12" font-weight="bold" x="1126" y="464">CSn4</text>
</g>
<g class="gsn_module_examples_dialectic_first_gsn_yaml gsnelem gsncountersltn" id="node_csn3">
<title>CSn3</title>
<path class="border" d="M605,589 a31,31,0,1,0,62,0 a31,31,0,1,0,-62,0 z" fill-opacity="0" stroke="black" stroke-width="1"/>
<text font-family="Arial" font-size="12" font-weight="bold" x="621" y="587">CSn3</text>
</g>
<g class="gsn_module_examples_dialectic_first_gsn_yaml gsnelem gsngoal" id="node_g9">
<title>G9</title>
<path class="border" d="M822,567 L926,567 L926,611 L822,611 z" fill-opacity="0" stroke="black" stroke-width="1"/>
<text font-family="Arial" font-size="12" font-weight="bold" x="829" y="586">G9</text>
</g>
<g class="gsn_module_examples_dialectic_first_gsn_yaml gsnelem gsnsltn" id="node_sn5">
<title>Sn5</title>
<path class="border" d="M991,589 a27,27,0,1,0,54,0 a27,27,0,1,0,-54,0 z" fill-opacity="0" stroke="black" stroke-width="1"/>
<text font-family="Arial" font-size="12" font-weight="bold" x="1008" y="587">Sn5</text>
</g>
<g class="gsn_module_examples_dialectic_first_gsn_yaml gsnelem gsnsltn" id="node_sn4">
<title>Sn4</title>
<path class="border" d="M847,687 a27,27,0,1,0,54,0 a27,27,0,1,0,-54,0 z" fill-opacity="0" stroke="black" stroke-width="1"/>
<text font-family="Arial" font-size="12" font-weight="bold" x="864" y="685">Sn4</text>
</g>
<path class="gsnedge gsninspby" d="M101,232 C101,262,101,271,101,291" fill-opacity="0" marker-end="url(#supportedby_arrow)" stroke="black" stroke-width="1"/>
<path class="gsnedge gsnchllngs" d="M163,210 C193,210,173,210,193,210" fill-opacity="0" marker-end="url(#challenges_arrow)" stroke="black" stroke-dasharray="5 5" stroke-width="1"/>
<path class="gsnedge gsninspby" d="M101,345 C101,375,101,384,101,404" fill-opacity="0" marker-end="url(#supportedby_arrow)" stroke="black" stroke-width="1"/>
<path class="gsnedge gsninspby" d="M636,488 C636,518,636,528,636,548" fill-opacity="0" marker-end="url(#supportedby_arrow)" stroke="black" stroke-width="1"/>
<path class="gsnedge gsnchllngs" d="M688,466 C718,466,698,466,718,466" fill-opacity="0" marker-end="url(#challenges_arrow)" stroke="black" stroke-dasharray="5 5" stroke-width="1"/>
<path class="gsnedge gsninspby" d="M1141,345 C1141,375,1141,405,1141,425" fill-opacity="0" marker-end="url(#supportedby_arrow)" stroke="black" stroke-width="1"/>
<path class="gsnedge gsnchllngs" d="M1089,323 C1059,323,1043,323,1023,323" fill-opacity="0" marker-end="url(#challenges_arrow)" stroke="black" stroke-dasharray="5 5" stroke-width="1"/>
<path class="gsnedge gsnchllngs" d="M425,323 C455,323,435,323,455,323" fill-opacity="0" marker-end="url(#challenges_arrow)" stroke="black" stroke-dasharray="5 5" stroke-width="1"/>
<path class="gsnedge gsninctxt" d="M653,42 C683,42,663,42,683,42" fill-opacity="0" marker-end="url(#incontextof_arrow)" stroke="black" stroke-width="1"/>
<path class="gsnedge gsninspby" d="M601,64 C601,94,601,74,601,94" fill-opacity="0" marker-end="url(#supportedby_arrow)" stroke="black" stroke-width="1"/>
<path class="gsnedge gsninspby" d="M256,232 C256,262,256,266,256,286" fill-opacity="0" marker-end="url(#supportedby_arrow)" stroke="black" stroke-width="1"/>
<path class="gsnedge gsninspby" d="M636,232 C636,262,517,271,517,291" fill-opacity="0" marker-end="url(#supportedby_arrow)" stroke="black" stroke-width="1"/>
<path class="gsnedge gsninspby" d="M636,232 C636,262,755,271,755,291" fill-opacity="0" marker-end="url(#supportedby_arrow)" stroke="black" stroke-width="1"/>
<path class="gsnedge gsninspby" d="M946,232 C946,262,946,271,946,291" fill-opacity="0" marker-end="url(#supportedby_arrow)" stroke="black" stroke-width="1"/>
<path class="gsnedge gsninspby" d="M517,345 C517,375,517,409,517,429" fill-opacity="0" marker-end="url(#supportedby_arrow)" stroke="black" stroke-width="1"/>
<path class="gsnedge gsninspby" d="M755,345 C755,375,755,409,755,429" fill-opacity="0" marker-end="url(#supportedby_arrow)" stroke="black" stroke-width="1"/>
<path class="gsnedge gsninspby" d="M874,488 C874,518,874,537,874,557" fill-opacity="0" marker-end="url(#supportedby_arrow)" stroke="black" stroke-width="1"/>
<path class="gsnedge gsninspby" d="M1018,488 C1018,518,1018,532,1018,552" fill-opacity="0" marker-end="url(#supportedby_arrow)" stroke="black" stroke-width="1"/>
<path class="gsnedge gsninspby" d="M874,611 C874,641,874,630,874,650" fill-opacity="0" marker-end="url(#supportedby_arrow)" stroke="black" stroke-width="1"/>
<path class="gsnedge gsninspby" d="M601,148 C601,178,256,158,256,178" fill-opacity="0" marker-end="url(#supportedby_arrow)" stroke="black" stroke-width="1"/>
<path class="gsnedge gsninspby" d="M601,148 C601,178,636,158,636,178" fill-opacity="0" marker-end="url(#supportedby_arrow)" stroke="black" stroke-width="1"/>
<path class="gsnedge gsninspby" d="M601,148 C601,178,946,158,946,178" fill-opacity="0" marker-end="url(#supportedby_arrow)" stroke="black" stroke-width="1"/>
<path class="gsnedge gsninspby" d="M946,345 C946,375,874,414,874,434" fill-opacity="0" marker-end="url(#supportedby_arrow)" stroke="black" stroke-width="1"/>
<path class="gsnedge gsninspby" d="M946,345 C946,375,1018,414,1018,434" fill-opacity="0" marker-end="url(#supportedby_arrow)" stroke="black" stroke-width="1"/>
</svg>