<?xml version="1.0" encoding="UTF-8"?>
<svg class="gsndiagram" viewBox="0 0 1020 756" xmlns="http://www.w3.org/2000/svg">
<defs>
<marker id="supportedby_arrow" markerHeight="9" markerUnits="userSpaceOnUse" markerWidth="10" orient="auto-start-reverse" refX="0" refY="4.5">
<polyline fill="black" points="0 0, 10 4.5, 0 9"/>
</marker>
<marker id="incontextof_arrow" markerHeight="9" markerUnits="userSpaceOnUse" markerWidth="10" orient="auto-start-reverse" refX="0" refY="4.5">
<polyline fill-opacity="0" points="0 0, 10 4.5, 0 9, 0 0" stroke="black" stroke-width="1"/>
</marker>
<marker id="challenges_arrow" markerHeight="9" markerUnits="userSpaceOnUse" markerWidth="10" orient="auto-start-reverse" refX="0" refY="4.5">
<polyline fill-opacity="0" points="0 0, 10 4.5, 0 4.5, 10 4.5, 0 9" stroke="black" stroke-dasharray="100" stroke-width="1"/>
</marker>
<marker id="composite_arrow" markerHeight="9" markerUnits="userSpaceOnUse" markerWidth="10" orient="auto-start-reverse" refX="0" refY="4.5">
<polyline fill-opacity="0" points="0 0, 6 4.5, 0 9" stroke="black" stroke-width="1"/>
<polyline fill-opacity="0" points="4 0, 10 4.5, 4 9" stroke="black" stroke-width="1"/>
<polyline fill-opacity="0" points="0 4.5, 10 4.5" stroke="black" stroke-width="1"/>
</marker>
<symbol id="module_icon">
<rect fill="lightgrey" height="5" stroke="black" stroke-width="1" width="10" x="0" y="0"/>
<rect fill="lightgrey" height="10" stroke="black" stroke-width="1" width="20" x="0" y="5"/>
</symbol>
<symbol id="acp">
<rect fill="black" height="10" stroke="black" stroke-width="1" width="10" x="0" y="0"/>
</symbol>
<symbol height="20" id="defeated_cross" width="20">
<path d="M0,0 L20,20 M0,20 L20,0" stroke="black" stroke-width="1"/>
</symbol>
</defs>
<g class="gsn_module_examples_dialectic_second_gsn_yaml gsnelem gsngoal" id="node_g1">
<title>G1</title>
<path class="border" d="M422,20 L526,20 L526,64 L422,64 z" fill-opacity="0" stroke="black" stroke-width="1"/>
<text font-family="Arial" font-size="12" font-weight="bold" x="429" y="39">G1</text>
</g>
<g class="gsn_module_examples_dialectic_second_gsn_yaml gsnelem gsnctxt" id="node_c1">
<title>C1</title>
<path class="border" d="M576,20 L680,20 C690,20,690,64,680,64 L576,64 C566,64,566,20,576,20" fill-opacity="0" stroke="black" stroke-width="1"/>
<text font-family="Arial" font-size="12" font-weight="bold" x="583" y="39">C1</text>
</g>
<g class="gsn_module_examples_dialectic_second_gsn_yaml gsnelem gsnstgy" id="node_s1">
<title>S1</title>
<path class="border" d="M414,104 L548,104 L534,148 L400,148 z" fill-opacity="0" stroke="black" stroke-width="1"/>
<text font-family="Arial" font-size="12" font-weight="bold" x="422" y="123">S1</text>
</g>
<g class="gsn_module_examples_dialectic_second_gsn_yaml gsnelem gsncountersltn" id="node_ccsn1">
<title>CCSn1</title>
<path class="border" d="M20,221 a33,33,0,1,0,66,0 a33,33,0,1,0,-66,0 z" fill-opacity="0" stroke="black" stroke-width="1"/>
<text font-family="Arial" font-size="12" font-weight="bold" x="36" y="219">CCSn1</text>
</g>
<g class="gsn_module_examples_dialectic_second_gsn_yaml gsnelem gsndefeated gsngoal" id="node_g2">
<title>G2</title>
<path class="border" d="M175,198 L279,198 L279,244 L175,244 z" fill-opacity="0" stroke="black" stroke-width="1"/>
<text font-family="Arial" font-size="12" font-weight="bold" x="182" y="217">G2</text>
<text font-family="Arial" font-size="12" x="182" y="236">A defeated goal</text>
<line stroke="black" x1="170" x2="284" y1="193" y2="249"/>
<line stroke="black" x1="284" x2="170" y1="193" y2="249"/>
</g>
<g class="gsn_module_examples_dialectic_second_gsn_yaml gsnelem gsngoal" id="node_g3">
<title>G3</title>
<path class="border" d="M407,199 L511,199 L511,243 L407,243 z" fill-opacity="0" stroke="black" stroke-width="1"/>
<text font-family="Arial" font-size="12" font-weight="bold" x="414" y="218">G3</text>
</g>
<g class="gsn_module_examples_dialectic_second_gsn_yaml gsnelem gsngoal" id="node_g4">
<title>G4</title>
<path class="border" d="M670,199 L774,199 L774,243 L670,243 z" fill-opacity="0" stroke="black" stroke-width="1"/>
<text font-family="Arial" font-size="12" font-weight="bold" x="677" y="218">G4</text>
</g>
<g class="gsn_module_examples_dialectic_second_gsn_yaml gsnelem gsncountergoal" id="node_cg1">
<title>CG1</title>
<path class="border" d="M38,298 L160,298 L160,344 L38,344 z" fill-opacity="0" stroke="black" stroke-width="1"/>
<text font-family="Arial" font-size="12" font-weight="bold" x="45" y="317">CG1</text>
<text font-family="Arial" font-size="12" x="45" y="336">A counter argument</text>
</g>
<g class="gsn_module_examples_dialectic_second_gsn_yaml gsnelem gsnsltn" id="node_sn1">
<title>Sn1</title>
<path class="border" d="M200,321 a27,27,0,1,0,54,0 a27,27,0,1,0,-54,0 z" fill-opacity="0" stroke="black" stroke-width="1"/>
<text font-family="Arial" font-size="12" font-weight="bold" x="219" y="319">Sn1</text>
</g>
<g class="gsn_module_examples_dialectic_second_gsn_yaml gsnelem gsndefeated gsngoal" id="node_g5">
<title>G5</title>
<path class="border" d="M335,299 L439,299 L439,343 L335,343 z" fill-opacity="0" stroke="black" stroke-width="1"/>
<text font-family="Arial" font-size="12" font-weight="bold" x="342" y="318">G5</text>
<line stroke="black" x1="330" x2="444" y1="294" y2="348"/>
<line stroke="black" x1="444" x2="330" y1="294" y2="348"/>
</g>
<g class="gsn_module_examples_dialectic_second_gsn_yaml gsnelem gsngoal" id="node_g6">
<title>G6</title>
<path class="border" d="M479,299 L583,299 L583,343 L479,343 z" fill-opacity="0" stroke="black" stroke-width="1"/>
<text font-family="Arial" font-size="12" font-weight="bold" x="486" y="318">G6</text>
</g>
<g class="gsn_module_examples_dialectic_second_gsn_yaml gsnelem gsndefeated gsnstgy" id="node_s2">
<title>S2</title>
<path class="border" d="M662,299 L796,299 L782,343 L648,343 z" fill-opacity="0" stroke="black" stroke-width="1"/>
<text font-family="Arial" font-size="12" font-weight="bold" x="670" y="318">S2</text>
<line stroke="black" x1="650" x2="794" y1="294" y2="348"/>
<line stroke="black" x1="794" x2="650" y1="294" y2="348"/>
</g>
<g class="gsn_module_examples_dialectic_second_gsn_yaml gsnelem gsncountergoal" id="node_cg4">
<title>CG4</title>
<path class="border" d="M864,299 L968,299 L968,343 L864,343 z" fill-opacity="0" stroke="black" stroke-width="1"/>
<text font-family="Arial" font-size="12" font-weight="bold" x="871" y="318">CG4</text>
</g>
<g class="gsn_module_examples_dialectic_second_gsn_yaml gsnelem gsncountergoal" id="node_cg2">
<title>CG2</title>
<path class="border" d="M20,416 L178,416 L178,462 L20,462 z" fill-opacity="0" stroke="black" stroke-width="1"/>
<text font-family="Arial" font-size="12" font-weight="bold" x="27" y="435">CG2</text>
<text font-family="Arial" font-size="12" x="27" y="454">Another counter argument</text>
</g>
<g class="gsn_module_examples_dialectic_second_gsn_yaml gsnelem gsndefeated gsncountersltn" id="node_csn2">
<title>CSn2</title>
<path class="border" d="M218,439 a51,51,0,1,0,102,0 a51,51,0,1,0,-102,0 z" fill-opacity="0" stroke="black" stroke-width="1"/>
<text font-family="Arial" font-size="12" font-weight="bold" x="247" y="416">CSn2</text>
<text font-family="Arial" font-size="12" x="247" y="435">Another </text>
<text font-family="Arial" font-size="12" x="247" y="449">counter </text>
<text font-family="Arial" font-size="12" x="247" y="463">evidence</text>
<line stroke="black" x1="213" x2="325" y1="383" y2="495"/>
<line stroke="black" x1="325" x2="213" y1="383" y2="495"/>
</g>
<g class="gsn_module_examples_dialectic_second_gsn_yaml gsnelem gsnsltn" id="node_sn2">
<title>Sn2</title>
<path class="border" d="M360,439 a27,27,0,1,0,54,0 a27,27,0,1,0,-54,0 z" fill-opacity="0" stroke="black" stroke-width="1"/>
<text font-family="Arial" font-size="12" font-weight="bold" x="379" y="437">Sn2</text>
</g>
<g class="gsn_module_examples_dialectic_second_gsn_yaml gsnelem gsnsltn" id="node_sn3">
<title>Sn3</title>
<path class="border" d="M504,439 a27,27,0,1,0,54,0 a27,27,0,1,0,-54,0 z" fill-opacity="0" stroke="black" stroke-width="1"/>
<text font-family="Arial" font-size="12" font-weight="bold" x="523" y="437">Sn3</text>
</g>
<g class="gsn_module_examples_dialectic_second_gsn_yaml gsnelem gsngoal" id="node_g7">
<title>G7</title>
<path class="border" d="M598,417 L702,417 L702,461 L598,461 z" fill-opacity="0" stroke="black" stroke-width="1"/>
<text font-family="Arial" font-size="12" font-weight="bold" x="605" y="436">G7</text>
</g>
<g class="gsn_module_examples_dialectic_second_gsn_yaml gsnelem gsngoal" id="node_g8">
<title>G8</title>
<path class="border" d="M742,417 L846,417 L846,461 L742,461 z" fill-opacity="0" stroke="black" stroke-width="1"/>
<text font-family="Arial" font-size="12" font-weight="bold" x="749" y="436">G8</text>
</g>
<g class="gsn_module_examples_dialectic_second_gsn_yaml gsnelem gsncountersltn" id="node_csn4">
<title>CSn4</title>
<path class="border" d="M886,439 a30,30,0,1,0,60,0 a30,30,0,1,0,-60,0 z" fill-opacity="0" stroke="black" stroke-width="1"/>
<text font-family="Arial" font-size="12" font-weight="bold" x="903" y="437">CSn4</text>
</g>
<g class="gsn_module_examples_dialectic_second_gsn_yaml gsnelem gsncountersltn" id="node_csn1">
<title>CSn1</title>
<path class="border" d="M49,580 a50,50,0,1,0,100,0 a50,50,0,1,0,-100,0 z" fill-opacity="0" stroke="black" stroke-width="1"/>
<text font-family="Arial" font-size="12" font-weight="bold" x="72" y="564">CSn1</text>
<text font-family="Arial" font-size="12" x="72" y="583">A counter </text>
<text font-family="Arial" font-size="12" x="72" y="597">evidence</text>
</g>
<g class="gsn_module_examples_dialectic_second_gsn_yaml gsnelem gsncountergoal" id="node_ccg1">
<title>CCG1</title>
<path class="border" d="M189,558 L293,558 L293,602 L189,602 z" fill-opacity="0" stroke="black" stroke-width="1"/>
<text font-family="Arial" font-size="12" font-weight="bold" x="196" y="577">CCG1</text>
</g>
<g class="gsn_module_examples_dialectic_second_gsn_yaml gsnelem gsndefeated gsncountergoal" id="node_cg3">
<title>CG3</title>
<path class="border" d="M333,558 L437,558 L437,602 L333,602 z" fill-opacity="0" stroke="black" stroke-width="1"/>
<text font-family="Arial" font-size="12" font-weight="bold" x="340" y="577">CG3</text>
<line stroke="black" x1="328" x2="442" y1="553" y2="607"/>
<line stroke="black" x1="442" x2="328" y1="553" y2="607"/>
</g>
<g class="gsn_module_examples_dialectic_second_gsn_yaml gsnelem gsncountersltn" id="node_ccsn3">
<title>CCSn3</title>
<path class="border" d="M477,580 a33,33,0,1,0,66,0 a33,33,0,1,0,-66,0 z" fill-opacity="0" stroke="black" stroke-width="1"/>
<text font-family="Arial" font-size="12" font-weight="bold" x="493" y="578">CCSn3</text>
</g>
<g class="gsn_module_examples_dialectic_second_gsn_yaml gsnelem gsngoal" id="node_g9">
<title>G9</title>
<path class="border" d="M598,558 L702,558 L702,602 L598,602 z" fill-opacity="0" stroke="black" stroke-width="1"/>
<text font-family="Arial" font-size="12" font-weight="bold" x="605" y="577">G9</text>
</g>
<g class="gsn_module_examples_dialectic_second_gsn_yaml gsnelem gsnsltn" id="node_sn5">
<title>Sn5</title>
<path class="border" d="M767,580 a27,27,0,1,0,54,0 a27,27,0,1,0,-54,0 z" fill-opacity="0" stroke="black" stroke-width="1"/>
<text font-family="Arial" font-size="12" font-weight="bold" x="786" y="578">Sn5</text>
</g>
<g class="gsn_module_examples_dialectic_second_gsn_yaml gsnelem gsncountersltn" id="node_ccsn2">
<title>CCSn2</title>
<path class="border" d="M208,703 a33,33,0,1,0,66,0 a33,33,0,1,0,-66,0 z" fill-opacity="0" stroke="black" stroke-width="1"/>
<text font-family="Arial" font-size="12" font-weight="bold" x="224" y="701">CCSn2</text>
</g>
<g class="gsn_module_examples_dialectic_second_gsn_yaml gsnelem gsncountersltn" id="node_csn3">
<title>CSn3</title>
<path class="border" d="M355,703 a30,30,0,1,0,60,0 a30,30,0,1,0,-60,0 z" fill-opacity="0" stroke="black" stroke-width="1"/>
<text font-family="Arial" font-size="12" font-weight="bold" x="372" y="701">CSn3</text>
</g>
<g class="gsn_module_examples_dialectic_second_gsn_yaml gsnelem gsnsltn" id="node_sn4">
<title>Sn4</title>
<path class="border" d="M623,703 a27,27,0,1,0,54,0 a27,27,0,1,0,-54,0 z" fill-opacity="0" stroke="black" stroke-width="1"/>
<text font-family="Arial" font-size="12" font-weight="bold" x="642" y="701">Sn4</text>
</g>
<path class="gsnedge gsninspby" d="M241,602 C241,632,241,640,241,660" fill-opacity="0" marker-end="url(#supportedby_arrow)" stroke="black" stroke-width="1"/>
<path class="gsnedge gsnchllngs" d="M241,558 C241,528,269,520,269,500" fill-opacity="0" marker-end="url(#challenges_arrow)" stroke="black" stroke-dasharray="5 5" stroke-width="1"/>
<path class="gsnedge gsnchllngs" d="M53,254 C53,284,162,241,162,261" fill-opacity="0" marker-end="url(#challenges_arrow)" stroke="black" stroke-dasharray="5 5" stroke-width="1"/>
<path class="gsnedge gsnchllngs" d="M477,580 C447,580,467,580,447,580" fill-opacity="0" marker-end="url(#challenges_arrow)" stroke="black" stroke-dasharray="5 5" stroke-width="1"/>
<path class="gsnedge gsninspby" d="M99,344 C99,374,99,386,99,406" fill-opacity="0" marker-end="url(#supportedby_arrow)" stroke="black" stroke-width="1"/>
<path class="gsnedge gsnchllngs" d="M99,298 C99,268,227,274,227,254" fill-opacity="0" marker-end="url(#challenges_arrow)" stroke="black" stroke-dasharray="5 5" stroke-width="1"/>
<use href="#defeated_cross" x="152" y="263"/>
<path class="gsnedge gsninspby" d="M99,462 C99,492,99,500,99,520" fill-opacity="0" marker-end="url(#supportedby_arrow)" stroke="black" stroke-width="1"/>
<path class="gsnedge gsninspby" d="M385,602 C385,632,385,643,385,663" fill-opacity="0" marker-end="url(#supportedby_arrow)" stroke="black" stroke-width="1"/>
<path class="gsnedge gsnchllngs" d="M385,558 C385,528,531,496,531,476" fill-opacity="0" marker-end="url(#challenges_arrow)" stroke="black" stroke-dasharray="5 5" stroke-width="1"/>
<use href="#defeated_cross" x="447" y="504"/>
<path class="gsnedge gsninspby" d="M916,343 C916,373,916,379,916,399" fill-opacity="0" marker-end="url(#supportedby_arrow)" stroke="black" stroke-width="1"/>
<path class="gsnedge gsnchllngs" d="M864,321 C834,321,819,321,799,321" fill-opacity="0" marker-end="url(#challenges_arrow)" stroke="black" stroke-dasharray="5 5" stroke-width="1"/>
<path class="gsnedge gsnchllngs" d="M269,388 C269,358,387,373,387,353" fill-opacity="0" marker-end="url(#challenges_arrow)" stroke="black" stroke-dasharray="5 5" stroke-width="1"/>
<use href="#defeated_cross" x="318" y="357"/>
<path class="gsnedge gsninctxt" d="M526,42 C556,42,536,42,556,42" fill-opacity="0" marker-end="url(#incontextof_arrow)" stroke="black" stroke-width="1"/>
<path class="gsnedge gsninspby" d="M474,64 C474,94,474,74,474,94" fill-opacity="0" marker-end="url(#supportedby_arrow)" stroke="black" stroke-width="1"/>
<path class="gsnedge gsninspby" d="M227,244 C227,274,227,264,227,284" fill-opacity="0" marker-end="url(#supportedby_arrow)" stroke="black" stroke-width="1"/>
<path class="gsnedge gsninspby" d="M459,243 C459,273,387,269,387,289" fill-opacity="0" marker-end="url(#supportedby_arrow)" stroke="black" stroke-width="1"/>
<path class="gsnedge gsninspby" d="M459,243 C459,273,531,269,531,289" fill-opacity="0" marker-end="url(#supportedby_arrow)" stroke="black" stroke-width="1"/>
<path class="gsnedge gsninspby" d="M722,243 C722,273,722,269,722,289" fill-opacity="0" marker-end="url(#supportedby_arrow)" stroke="black" stroke-width="1"/>
<path class="gsnedge gsninspby" d="M387,343 C387,373,387,382,387,402" fill-opacity="0" marker-end="url(#supportedby_arrow)" stroke="black" stroke-width="1"/>
<path class="gsnedge gsninspby" d="M531,343 C531,373,531,382,531,402" fill-opacity="0" marker-end="url(#supportedby_arrow)" stroke="black" stroke-width="1"/>
<path class="gsnedge gsninspby" d="M650,461 C650,491,650,528,650,548" fill-opacity="0" marker-end="url(#supportedby_arrow)" stroke="black" stroke-width="1"/>
<path class="gsnedge gsninspby" d="M794,461 C794,491,794,523,794,543" fill-opacity="0" marker-end="url(#supportedby_arrow)" stroke="black" stroke-width="1"/>
<path class="gsnedge gsninspby" d="M650,602 C650,632,650,646,650,666" fill-opacity="0" marker-end="url(#supportedby_arrow)" stroke="black" stroke-width="1"/>
<path class="gsnedge gsninspby" d="M474,148 C474,178,227,168,227,188" fill-opacity="0" marker-end="url(#supportedby_arrow)" stroke="black" stroke-width="1"/>
<path class="gsnedge gsninspby" d="M474,148 C474,178,459,169,459,189" fill-opacity="0" marker-end="url(#supportedby_arrow)" stroke="black" stroke-width="1"/>
<path class="gsnedge gsninspby" d="M474,148 C474,178,722,169,722,189" fill-opacity="0" marker-end="url(#supportedby_arrow)" stroke="black" stroke-width="1"/>
<path class="gsnedge gsninspby" d="M722,343 C722,373,650,387,650,407" fill-opacity="0" marker-end="url(#supportedby_arrow)" stroke="black" stroke-width="1"/>
<path class="gsnedge gsninspby" d="M722,343 C722,373,794,387,794,407" fill-opacity="0" marker-end="url(#supportedby_arrow)" stroke="black" stroke-width="1"/>
</svg>